<?xml version="1.0" encoding="UTF-8" standalone="no"?>
<!DOCTYPE svg PUBLIC "-//W3C//DTD SVG 1.1//EN" "http://www.w3.org/Graphics/SVG/1.1/DTD/svg11.dtd">
<svg width="100%" height="100%" viewBox="0 0 90 50" version="1.1" xmlns="http://www.w3.org/2000/svg" xmlns:xlink="http://www.w3.org/1999/xlink" xml:space="preserve" xmlns:serif="http://www.serif.com/" style="fill-rule:evenodd;clip-rule:evenodd;stroke-linejoin:round;stroke-miterlimit:1.41421;">
    <g transform="matrix(1,0,0,1,7.5468,44.506)">
        <path d="M0,-38.734L-7.378,2.555L-4.028,5.335L14.261,-1.236L18.67,-6.425L20.726,-17.937L17.965,-20.225L21.979,-24.947L24.035,-36.46L14.849,-44.069L0,-38.734ZM19.674,-17.559L17.76,-6.843L13.685,-2.048L-3.307,4.057L3.68,-35.061L5.741,-33.353L2.997,-17.99L10.684,-20.753L12.745,-19.045L2.53,-15.375L-0.311,0.533L11.342,-3.655L15.751,-8.842L17.613,-19.266L19.674,-17.559ZM6.364,-34.087L4.303,-35.794L13.993,-39.276L16.054,-37.569L6.364,-34.087ZM16.386,-36.669L15.23,-30.203L11.155,-25.408L4.906,-23.162L6.696,-33.187L16.386,-36.669ZM13.077,-18.146L11.922,-11.679L7.847,-6.885L1.597,-4.639L3.388,-14.664L13.077,-18.146ZM22.983,-36.082L21.069,-25.366L17.222,-20.84L15.046,-22.643L19.06,-27.365L20.921,-37.79L22.983,-36.082ZM18.15,-27.784L13.679,-22.525L16.598,-20.107L16.755,-19.976L14.841,-9.261L10.766,-4.467L0.936,-0.934L1.403,-3.55L8.423,-6.073L12.832,-11.26L14.227,-19.068L10.879,-21.842L4.244,-19.457L4.711,-22.073L11.731,-24.596L16.14,-29.784L17.535,-37.592L14.187,-40.365L2.919,-36.316L-4.262,3.89L-6.326,2.177L0.858,-38.023L14.655,-42.98L20.063,-38.5L18.15,-27.784Z" style="fill:white;fill-rule:nonzero;"/>
    </g>
    <g transform="matrix(1,0,0,1,42.1499,48.4801)">
        <path d="M0,-46.599L-3.426,-43.762L4.121,-1.51L8.323,0L11.749,-2.837L4.202,-45.09L0,-46.599ZM4.999,-2.237L-2.349,-43.375L-0.24,-45.121L7.586,-1.307L4.999,-2.237ZM8.563,-1.477L0.737,-45.292L3.324,-44.362L10.672,-3.224L8.563,-1.477Z" style="fill:white;fill-rule:nonzero;"/>
    </g>
    <g transform="matrix(1,0,0,1,68.5172,43.29)">
        <path d="M0,-36.649L-7.219,3.768L-3.942,6.482L0.077,5.038L3.315,-13.091L13.829,-16.869L14.572,-21.028L11.295,-23.742L4.801,-21.409L6.556,-31.239L20.571,-36.257L21.314,-40.416L18.037,-43.131L0,-36.649ZM-4.172,5.069L-6.189,3.397L0.84,-35.954L3.314,-36.843L-4.172,5.069ZM12.989,-17.564L3.506,-14.157L3.963,-16.718L13.453,-20.164L12.989,-17.564ZM6.361,-35.542L3.58,-19.973L11.104,-22.676L13.091,-21.031L3.123,-17.412L-0.762,4.342L-3.237,5.231L4.344,-37.213L17.332,-41.88L16.874,-39.32L6.361,-35.542ZM6.747,-32.304L7.201,-34.846L17.199,-38.439L19.215,-36.769L6.747,-32.304ZM20.284,-40.046L19.826,-37.486L17.809,-39.157L18.266,-41.717L20.284,-40.046Z" style="fill:white;fill-rule:nonzero;"/>
    </g>
</svg>
