<svg xmlns="http://www.w3.org/2000/svg" viewBox="0 0 48 48"><defs><style>.cls-1{fill:#c4a660;}.cls-2{fill:#ddc272;}</style></defs><title>Asset 5@1x</title><g id="Layer_2" data-name="Layer 2"><g id="Layer_1-2" data-name="Layer 1"><path class="cls-1" d="M24,1A23,23,0,1,0,47,24,23.026,23.026,0,0,0,24,1ZM36.412,36.432h0a2.063,2.063,0,0,1-2.843,0L24,26.847,14.43,36.432a2.061,2.061,0,0,1-2.842,0,2.018,2.018,0,0,1,0-2.847L21.156,24l-9.568-9.583a2.02,2.02,0,0,1,0-2.849,2.062,2.062,0,0,1,2.843,0L24,21.153l9.569-9.585a2.062,2.062,0,0,1,2.842,0,2.021,2.021,0,0,1,0,2.849L26.844,24l9.569,9.585a2.018,2.018,0,0,1,0,2.847Z"/><path class="cls-2" d="M24,0A24,24,0,1,0,48,24,24.028,24.028,0,0,0,24,0Zm0,46A22,22,0,1,1,46,24,22.025,22.025,0,0,1,24,46Z"/><path class="cls-2" d="M29.009,24l7.955-7.954a3.551,3.551,0,0,0,0-5.01,3.546,3.546,0,0,0-5.01,0L24,18.991l-7.955-7.955a3.543,3.543,0,0,0-5.01,5.01L18.99,24l-7.954,7.956a3.542,3.542,0,0,0,5.009,5.009L24,29.009l7.952,7.955a3.542,3.542,0,0,0,5.01-5.008Zm6.3,11.312h0a1.881,1.881,0,0,1-2.59,0L24,26.591l-8.721,8.722a1.881,1.881,0,0,1-2.59,0,1.836,1.836,0,0,1,0-2.591L21.408,24l-8.719-8.719a1.836,1.836,0,0,1,0-2.593,1.881,1.881,0,0,1,2.59,0L24,21.41l8.721-8.722a1.88,1.88,0,0,1,2.589,0,1.838,1.838,0,0,1,0,2.593L26.591,24l8.72,8.721a1.835,1.835,0,0,1,0,2.591Z"/></g></g></svg>