<svg xmlns="http://www.w3.org/2000/svg" viewBox="0 0 48 48"><defs><style>.cls-1{fill:#c4a660;}.cls-2{fill:#ddc272;}</style></defs><title>Asset 4@1x</title><g id="Layer_2" data-name="Layer 2"><g id="Layer_1-2" data-name="Layer 1"><path class="cls-1" d="M24,47A23,23,0,1,1,47,24,23.026,23.026,0,0,1,24,47ZM38,19a5,5,0,1,0,5,5A5.006,5.006,0,0,0,38,19ZM24,19a5,5,0,1,0,5,5A5.006,5.006,0,0,0,24,19ZM10,19a5,5,0,1,0,5,5A5.006,5.006,0,0,0,10,19Z"/><path class="cls-2" d="M24,48A24,24,0,1,1,48,24,24.028,24.028,0,0,1,24,48ZM24,2A22,22,0,1,0,46,24,22.025,22.025,0,0,0,24,2ZM38,30a6,6,0,1,1,6-6A6.007,6.007,0,0,1,38,30Zm0-10a4,4,0,1,0,4,4A4,4,0,0,0,38,20ZM24,30a6,6,0,1,1,6-6A6.007,6.007,0,0,1,24,30Zm0-10a4,4,0,1,0,4,4A4,4,0,0,0,24,20ZM10,30a6,6,0,1,1,6-6A6.007,6.007,0,0,1,10,30Zm0-10a4,4,0,1,0,4,4A4,4,0,0,0,10,20Z"/></g></g></svg>