<svg xmlns="http://www.w3.org/2000/svg" viewBox="0 0 48 48"><defs><style>.cls-1{fill:#c4a660;}.cls-2{fill:#ddc272;}</style></defs><title>Asset 7@1x</title><g id="Layer_2" data-name="Layer 2"><g id="Layer_1-2" data-name="Layer 1"><path class="cls-1" d="M24,1A23,23,0,1,0,47,24,23.026,23.026,0,0,0,24,1ZM15.336,13.346c1.264-1.1,7.623-6.6,8.664-6.6s7.4,5.495,8.665,6.6a2.084,2.084,0,0,1,.531,2.8,2.842,2.842,0,0,1-2.2,1.1c-.3,0-1.145.208-4-2.25V26c-.293.293-1.948,2-3,2s-2.707-1.707-3-2V15c-2.855,2.458-3.7,2.25-4,2.25a2.844,2.844,0,0,1-2.2-1.1A2.085,2.085,0,0,1,15.336,13.346ZM37.25,35.513a1.912,1.912,0,0,1-2.1,1.737H12.846a1.912,1.912,0,0,1-2.1-1.737V24.889A1.964,1.964,0,0,1,12.5,22.75a1.964,1.964,0,0,1,1.75,2.139V33.75h19.5V24.889A1.964,1.964,0,0,1,35.5,22.75a1.964,1.964,0,0,1,1.75,2.139Z"/><path class="cls-2" d="M24,0A24,24,0,1,0,48,24,24.028,24.028,0,0,0,24,0Zm0,46A22,22,0,1,1,46,24,22.025,22.025,0,0,1,24,46Z"/><path class="cls-2" d="M17,19c.774,0,3-2,3-2v8.342C20,27.265,22.155,29,24,29s4-1.735,4-3.658V17s2.226,2,3,2a5.371,5.371,0,0,0,4-1.9c1-1.1-.011-3.686-1.435-4.91L26.129,5.8a3.242,3.242,0,0,0-4.258,0l-7.437,6.394C13.011,13.414,11.826,15.616,13,17.1A5.126,5.126,0,0,0,17,19Zm-1.5-5.465S23,7,24,7s8.5,6.535,8.5,6.535A1.851,1.851,0,0,1,33,15.99,2.565,2.565,0,0,1,31,17c-.375,0-5-4-5-4V25a2.336,2.336,0,0,1-2,2.085A2.336,2.336,0,0,1,22,25V13s-4.625,4-5,4a2.565,2.565,0,0,1-2-1.01A1.851,1.851,0,0,1,15.5,13.535Z"/><path class="cls-2" d="M35.5,21c-1.845,0-3.5,2.077-3.5,4v7H16V25c0-1.923-1.655-4-3.5-4S9,22.966,9,24.889V35.513C9,37.436,11,39,12.846,39H35.154C37,39,39,37.436,39,35.513V24.889C39,22.966,37.345,21,35.5,21ZM37,35.513A1.657,1.657,0,0,1,35.154,37H12.846A1.657,1.657,0,0,1,11,35.513V24.889A1.711,1.711,0,0,1,12.5,23,1.711,1.711,0,0,1,14,24.889V34H34V24.889A1.711,1.711,0,0,1,35.5,23,1.711,1.711,0,0,1,37,24.889Z"/></g></g></svg>