<svg xmlns="http://www.w3.org/2000/svg" viewBox="0 0 48 48"><defs><style>.cls-1{fill:#c4a660;}.cls-2{fill:#ddc272;}</style></defs><title>Asset 9@1x</title><g id="Layer_2" data-name="Layer 2"><g id="Layer_1-2" data-name="Layer 1"><path class="cls-1" d="M24,1A23,23,0,1,0,47,24,23.026,23.026,0,0,0,24,1ZM18,23.5a5.512,5.512,0,0,1-.123,1.15l9.382,5.417A5.494,5.494,0,1,1,25,34.538L16,28a14.819,14.819,0,0,1-3.5,1,5.5,5.5,0,1,1,3.145-10l9.36-5.4c0-.031,0-.06,0-.091a5.514,5.514,0,1,1,2.357,4.507L18,23.412C18,23.442,18,23.47,18,23.5Z"/><path class="cls-2" d="M24,0A24,24,0,1,0,48,24,24.028,24.028,0,0,0,24,0Zm0,46A22,22,0,1,1,46,24,22.025,22.025,0,0,1,24,46Z"/><path class="cls-2" d="M30.5,20a6.5,6.5,0,1,0-6.481-6.994L16,18a7.948,7.948,0,0,0-3.5-1,6.5,6.5,0,0,0,0,13A9.863,9.863,0,0,0,16,29l8,6a6.655,6.655,0,0,0,6.5,6,6.5,6.5,0,0,0,0-13A7.381,7.381,0,0,0,27,29s-8-4.957-8-5l8-5A7.96,7.96,0,0,0,30.5,20ZM17,25l10,6a5.221,5.221,0,0,1,3.5-1,4.5,4.5,0,0,1,0,9c-2.482,0-4.5-3-4.5-5L16,27a11.516,11.516,0,0,1-3.5,1,4.5,4.5,0,0,1,0-9A5.548,5.548,0,0,1,16,20l10-6c0-2,2.019-5,4.5-5a4.5,4.5,0,0,1,0,9A5.562,5.562,0,0,1,27,17L17,23A5.87,5.87,0,0,1,17,25Z"/></g></g></svg>