<svg xmlns="http://www.w3.org/2000/svg" xmlns:xlink="http://www.w3.org/1999/xlink" width="1105" height="488.519" viewBox="0 0 1105 488.519"><defs><style>.a{isolation:isolate;}.b{fill:#fff;}.c{opacity:0.5;mix-blend-mode:multiply;}.d,.g{fill:#debc67;}.e{fill:none;}.f{fill:#c4a158;}.g{opacity:0.3;}.h{fill:url(#a);}.i{fill:url(#b);}.j{fill:#8f6e2d;}</style><linearGradient id="a" x1="-932.136" y1="2305.9" x2="313.165" y2="148.975" gradientTransform="translate(-23.097 876.663) rotate(-76.736)" gradientUnits="userSpaceOnUse"><stop offset="0" stop-color="#e7c369"/><stop offset="1" stop-color="#7cafa6"/></linearGradient><radialGradient id="b" cx="-1231.358" cy="880.312" r="1202.193" gradientTransform="translate(-23.097 876.663) rotate(-76.736)" gradientUnits="userSpaceOnUse"><stop offset="0" stop-color="#e7c369"/><stop offset="0.349" stop-color="#e1bf68"/><stop offset="1" stop-color="#debc67"/></radialGradient></defs><title>arc1</title><g class="a"><path class="b" d="M829.1,1115.2a1246.077,1246.077,0,0,1,251.586,88.479V930.7A1246.016,1246.016,0,0,0,829.1,842.221C539.181,773.88,249.048,813.258.686,934.36v272.98C249.048,1086.238,539.181,1046.86,829.1,1115.2Z" transform="translate(12 -722.956)"/><image class="c" width="1105" height="168" transform="translate(0 62.044)" xlink:href="arc11.png"/><path class="d" d="M829.1,842.221A1246.016,1246.016,0,0,1,1080.686,930.7V910.342A1264.735,1264.735,0,0,0,667.419,797.517C429.978,774.318,201.467,818.267.686,913.85v20.51C249.048,813.258,539.181,773.88,829.1,842.221Z" transform="translate(12 -722.956)"/><path class="d" d="M667.419,798.517a1264.735,1264.735,0,0,1,413.267,112.825V837.376a1347.92,1347.92,0,0,0-405.28-104.5C436.359,709.522,205.814,750.087.686,840.6V914.85C201.466,819.267,429.978,775.318,667.419,798.517Z" transform="translate(12 -722.956)"/><path class="e" d="M667.662,796.029a1276.224,1276.224,0,0,1,280.449,59.664,1260.685,1260.685,0,0,1,132.575,52.928V839.979a1339.281,1339.281,0,0,0-1080,3.267v68.817A1263.244,1263.244,0,0,1,667.662,796.029Z" transform="translate(12 -722.956)"/><path class="f" d="M675.162,734.367a1336.974,1336.974,0,0,1,405.524,105.612v-5.462a1344.25,1344.25,0,0,0-1080,3.264v5.465A1338.638,1338.638,0,0,1,675.162,734.367Z" transform="translate(12 -722.956)"/><path class="e" d="M330.772,824.728c165.824-28.954,333.681-23.887,498.9,15.059a1248.533,1248.533,0,0,1,251.012,88.15V913.116a1255.635,1255.635,0,0,0-134.161-53.681,1272.529,1272.529,0,0,0-692.944-31.911A1256.833,1256.833,0,0,0,.686,916.6v15q47.151-22.938,96-41.834A1244.543,1244.543,0,0,1,330.772,824.728Z" transform="translate(12 -722.956)"/><path class="f" d="M667.176,800.006a1271.218,1271.218,0,0,1,279.349,59.429,1255.635,1255.635,0,0,1,134.161,53.681V907.6a1260.573,1260.573,0,0,0-132.574-52.907,1277.514,1277.514,0,0,0-695.679-32.035A1261.861,1261.861,0,0,0,.686,911.059V916.6a1258.2,1258.2,0,0,1,666.49-116.6Z" transform="translate(12 -722.956)"/><path class="e" d="M330.6,1096.724c165.958-28.978,333.949-23.907,499.3,15.071a1249.43,1249.43,0,0,1,250.782,88.013V934.589A1242.294,1242.294,0,0,0,828.3,845.628c-164.428-38.761-331.473-43.8-496.494-14.989A1238.459,1238.459,0,0,0,98.847,895.36Q48.956,914.644.686,938.283v265.185q46.98-22.832,95.638-41.656A1245.474,1245.474,0,0,1,330.6,1096.724Z" transform="translate(12 -722.956)"/><path class="g" d="M.989,934.053l41.916,253.536a1239.523,1239.523,0,0,1,330.08-94.033l-16.28-270.591A1240.934,1240.934,0,0,0,.989,934.053Z" transform="translate(12 -722.956)"/><path class="g" d="M1080.384,932.19A1245.921,1245.921,0,0,0,828.8,843.711q-52.092-12.281-104.12-19.95l-16.285,270.667q60.1,8.1,120.4,22.263a1248.383,1248.383,0,0,1,211.032,70.016L1080.384,941.4Z" transform="translate(12 -722.956)"/><path class="g" d="M356.705,822.965l16.28,270.591a1234.218,1234.218,0,0,1,335.407-.633l16.285-270.667A1234.421,1234.421,0,0,0,356.705,822.965Z" transform="translate(12 -722.956)"/><path class="h" d="M331.8,830.639C496.825,801.825,663.87,806.867,828.3,845.628a1242.294,1242.294,0,0,1,252.388,88.961v-7.77a1249.535,1249.535,0,0,0-250.782-88c-165.355-38.978-333.346-44.049-499.3-15.071A1245.549,1245.549,0,0,0,96.324,888.831Q47.744,907.608.686,930.487v7.8Q48.872,914.7,98.847,895.36A1238.459,1238.459,0,0,1,331.8,830.639Z" transform="translate(12 -722.956)"/><path class="i" d="M331.848,1103.805c164.994-28.809,332.016-23.768,496.418,14.986a1242.176,1242.176,0,0,1,252.42,88.979v-8.185a1249.706,1249.706,0,0,0-250.727-87.974c-165.378-38.983-333.4-44.056-499.38-15.073a1245.715,1245.715,0,0,0-234.313,65.1Q47.716,1180.4.686,1203.265v8.21q48.224-23.6,98.241-42.958A1238.231,1238.231,0,0,1,331.848,1103.805Z" transform="translate(12 -722.956)"/><path class="f" d="M448.327,777.157l1.069-.077a2.16,2.16,0,0,0,1.554-.779,2.321,2.321,0,0,0,.6-1.67l-1.715-24.339a2.242,2.242,0,0,0-.815-1.525,2.194,2.194,0,0,0-1.464-.542c-.062,0-.124,0-.188.007l-1.068.075-.1-1.436,10.611-.748.1,1.437-1.069.075a2.2,2.2,0,0,0-1.559.762,2.244,2.244,0,0,0-.593,1.643l1.716,24.339a2.131,2.131,0,0,0,.8,1.548,2.224,2.224,0,0,0,1.491.563c.06,0,.122,0,.183-.007l1.069-.075.1,1.437-10.609.747Z" transform="translate(12 -722.956)"/><path class="f" d="M486.477,774.79l.9-.03a3.361,3.361,0,0,0,1.858-.678,4.566,4.566,0,0,0,1.484-1.916l9.191-23.948c1.287-3.07,1.461-4.065,1.452-4.386l-.015-.5,1.228-.037,12.805,28.125a4.264,4.264,0,0,0,1.545,1.8,3.415,3.415,0,0,0,1.842.562l.951-.027.045,1.439-10.9.34-.045-1.439.9-.029a1.169,1.169,0,0,0,.979-.432,1.4,1.4,0,0,0,.331-.825,2.866,2.866,0,0,0-.179-.894l-2.909-7.05-11.188.35-2.6,7.292a2.777,2.777,0,0,0-.115.855,1.382,1.382,0,0,0,.381.781,1.13,1.13,0,0,0,.931.37l.967-.027.048,1.438-9.841.308ZM497.6,762.864l9.365-.294-4.95-12.076Z" transform="translate(12 -722.956)"/><path class="f" d="M530.821,775.763a16.318,16.318,0,0,1-4.131-.574,7.711,7.711,0,0,1-3.613-1.928l-.1-.1-.032-.139a13.95,13.95,0,0,1-.166-2.479,12.428,12.428,0,0,1,.652-3.906l.111-.342,1.3-.01-.045.545c-.024.307-.036.615-.033.922a5.835,5.835,0,0,0,1.534,4.115,5.017,5.017,0,0,0,3.888,1.584,5.911,5.911,0,0,0,4.267-1.575,5,5,0,0,0,1.59-3.852,4.824,4.824,0,0,0-1.59-3.732l-8.519-7.755a7.506,7.506,0,0,1-2.587-5.668,8.045,8.045,0,0,1,2.174-5.709,7.9,7.9,0,0,1,6-2.434h.127a19.611,19.611,0,0,1,3.713.406l2.164-.02.058,6.412-1.395.014,0-.5a3.629,3.629,0,0,0-1.283-2.91,4.934,4.934,0,0,0-3.287-1.081,4.671,4.671,0,0,0-3.469,1.383,4.513,4.513,0,0,0-1.338,3.4,4.577,4.577,0,0,0,1.631,3.491l8.74,7.929a7.668,7.668,0,0,1,2.414,5.889,8.4,8.4,0,0,1-2.333,6.16,8.551,8.551,0,0,1-6.318,2.47Z" transform="translate(12 -722.956)"/><path class="f" d="M569.106,775.3c-3.132-.033-5.472-.961-6.953-2.758l-10.728-13.234L562.2,746.078a.856.856,0,0,0,.248-.478.878.878,0,0,0-.074-.394c-.091-.173-.272-.387-.826-.393l-.938-.009.013-1.4,10.283.107-.013,1.4-.679-.008a5.59,5.59,0,0,0-4.4,1.854l-10.176,11.533,11.589,13.919a5.315,5.315,0,0,0,3.791,1.667l.489.014-.013,1.433Zm-25.359-.265.017-1.44,1.072.011a2.184,2.184,0,0,0,1.61-.65,2.337,2.337,0,0,0,.73-1.618l.255-24.4a2.238,2.238,0,0,0-.691-1.585,2.2,2.2,0,0,0-1.6-.667l-1.073-.011.016-1.44,10.634.11-.014,1.442-1.074-.013a2.22,2.22,0,0,0-1.614.634,2.258,2.258,0,0,0-.725,1.59l-.255,24.4A2.136,2.136,0,0,0,551.7,773a2.242,2.242,0,0,0,1.624.69l1.074.011-.017,1.44Z" transform="translate(12 -722.956)"/><path class="f" d="M575.1,775.46l.048-1.44,1.079.036a2.216,2.216,0,0,0,1.619-.612,2.333,2.333,0,0,0,.766-1.6l.829-24.606a2.3,2.3,0,0,0-.715-1.439,2.2,2.2,0,0,0-1.533-.646l-.979-.033-.1-1.445,13.437.453c.156.006.315.008.476.008a18.844,18.844,0,0,0,2.419-.168,11.7,11.7,0,0,0,2.178-.425l.694-.25-.227,6.776-1.44-.045.043-1.294a2.1,2.1,0,0,0-1.914-2.162l-8.45-.283-.424,12.589,6.932.232a1.68,1.68,0,0,0,1.159-.475,1.592,1.592,0,0,0,.51-1.169l.037-1.114,1.44.045-.268,7.951-1.439-.05.039-1.16a1.588,1.588,0,0,0-.415-1.164,1.634,1.634,0,0,0-1.122-.545l-6.951-.233-.409,12.149,5.789.195c.152.006.3.008.45.008a6.739,6.739,0,0,0,4.242-1.184,10.353,10.353,0,0,0,2.855-4.023l.137-.309,1.487.05L594.2,776.1Z" transform="translate(12 -722.956)"/><path class="f" d="M617.157,777.228q-.641,0-1.3-.038l-15.392-.885.083-1.438,1.071.062.15,0a2.154,2.154,0,0,0,1.489-.578,2.327,2.327,0,0,0,.8-1.58l1.414-24.58a1.757,1.757,0,0,0-.6-1.438,2.449,2.449,0,0,0-1.6-.7L602.3,746l-.061-1.448,15.443.889a16.261,16.261,0,0,1,11.5,5.055,16.9,16.9,0,0,1-1.322,22.988A15.86,15.86,0,0,1,617.157,777.228Zm-1.169-2.353q.417.023.825.023a11.452,11.452,0,0,0,5.533-1.347,11.3,11.3,0,0,0,4.479-4.494,16.143,16.143,0,0,0,1.919-7.052c.234-4.071-.693-7.452-2.755-10.049a11.1,11.1,0,0,0-8.441-4.2l-8.154-.468-1.56,27.114Z" transform="translate(12 -722.956)"/><path class="j" d="M456.34,746.657l.03.439-.57.04a2.7,2.7,0,0,0-1.9.928,2.747,2.747,0,0,0-.72,1.991l1.717,24.36a2.633,2.633,0,0,0,.97,1.894,2.734,2.734,0,0,0,1.815.681c.072,0,.145,0,.219-.008l.57-.04.031.439-9.612.677-.031-.438.57-.041a2.663,2.663,0,0,0,1.9-.95,2.828,2.828,0,0,0,.718-2.013l-1.716-24.36a2.761,2.761,0,0,0-.992-1.871,2.693,2.693,0,0,0-1.786-.66c-.073,0-.147,0-.223.008l-.57.04-.031-.438,9.612-.678m.929-1.068-1,.07-9.613.678-1,.07.071,1,.031.438.072,1,1-.069.57-.04q.078-.006.153-.006a1.687,1.687,0,0,1,1.142.425,1.75,1.75,0,0,1,.642,1.215l1.713,24.321a1.805,1.805,0,0,1-.476,1.288,1.664,1.664,0,0,1-1.21.607l-.573.041-1,.072.071,1,.031.438.072,1,1-.07,9.612-.677,1-.07-.07-1-.032-.44-.07-1-1,.069-.57.04c-.051,0-.1.006-.149.006a1.722,1.722,0,0,1-1.168-.444,1.641,1.641,0,0,1-.62-1.2l-1.717-24.359a1.726,1.726,0,0,1,.468-1.254,1.7,1.7,0,0,1,1.222-.6l.57-.04,1-.07-.069-1-.03-.439-.069-1Z" transform="translate(12 -722.956)"/><path class="j" d="M502.252,743.805l12.668,27.822a4.761,4.761,0,0,0,1.735,2.014,3.938,3.938,0,0,0,2.107.637l.114,0,.353-.011.013.441-9.895.308-.014-.439.4-.013a1.641,1.641,0,0,0,1.367-.638,1.868,1.868,0,0,0,.427-1.134,3.362,3.362,0,0,0-.209-1.051l-3.049-7.389-11.874.372-2.711,7.613a3.253,3.253,0,0,0-.144,1.039,1.842,1.842,0,0,0,.5,1.085,1.615,1.615,0,0,0,1.316.551l.088,0,.4-.011.015.439-8.84.276-.014-.439.4-.013a3.843,3.843,0,0,0,2.133-.771,5.037,5.037,0,0,0,1.65-2.12l9.2-23.972a16.162,16.162,0,0,0,1.486-4.58l.395-.012m-5.375,19.581,10.819-.339L501.978,749.1l-5.1,14.29m6.01-20.6-.665.02-.395.011-1,.03.03,1c.006.177-.08,1-1.408,4.163l-9.2,23.975a4.07,4.07,0,0,1-1.306,1.689,2.844,2.844,0,0,1-1.585.587l-.4.013-1,.032.031,1,.014.44.031,1,1-.031,8.84-.276,1-.032-.034-1-.014-.44-.033-1-1,.03-.395.012h-.058c-.389,0-.5-.132-.545-.189-.255-.307-.267-.46-.267-.476a2.27,2.27,0,0,1,.095-.7L497.1,765.7l10.5-.329,2.785,6.749a2.334,2.334,0,0,1,.134.7.931.931,0,0,1-.235.512c-.047.064-.156.214-.59.228l-.4.012-1,.032.032,1,.013.439.032,1,1-.031,9.9-.309,1-.031-.031-1-.014-.44-.031-1-1,.031-.352.01-.084,0a2.931,2.931,0,0,1-1.578-.486,3.746,3.746,0,0,1-1.366-1.605l-12.656-27.8-.275-.605Zm-4.575,19.555,3.73-10.451,4.182,10.2-7.912.248Z" transform="translate(12 -722.956)"/><path class="j" d="M531.648,743.224a19.091,19.091,0,0,1,3.666.4l1.716-.015.048,5.412-.395,0a4.138,4.138,0,0,0-1.46-3.287,5.4,5.4,0,0,0-3.611-1.2h-.074a5.146,5.146,0,0,0-3.749,1.531,5.031,5.031,0,0,0-1.483,3.753,5.1,5.1,0,0,0,1.795,3.856l8.74,7.929a7.158,7.158,0,0,1,2.25,5.524,7.883,7.883,0,0,1-2.191,5.806,8.041,8.041,0,0,1-5.964,2.319h-.115a15.782,15.782,0,0,1-4-.557,7.192,7.192,0,0,1-3.382-1.8,13.664,13.664,0,0,1-.155-2.375,11.9,11.9,0,0,1,.627-3.746l.4,0q-.039.485-.035.967a6.368,6.368,0,0,0,1.668,4.452,5.541,5.541,0,0,0,4.254,1.743h.074a6.385,6.385,0,0,0,4.539-1.714,5.516,5.516,0,0,0,1.744-4.217,5.344,5.344,0,0,0-1.754-4.1l-8.518-7.755a6.993,6.993,0,0,1-2.424-5.3,7.526,7.526,0,0,1,2.041-5.365,7.4,7.4,0,0,1,5.634-2.273h.122m0-1h-.132a8.389,8.389,0,0,0-6.359,2.594,8.532,8.532,0,0,0-2.306,6.053A7.99,7.99,0,0,0,525.6,756.9l8.518,7.755a4.35,4.35,0,0,1,1.427,3.368,4.521,4.521,0,0,1-1.435,3.485,5.377,5.377,0,0,1-3.857,1.437h-.065a4.542,4.542,0,0,1-3.522-1.425,5.357,5.357,0,0,1-1.4-3.779c0-.29.008-.585.032-.877l.088-1.09-1.092.009-.4,0-.722,0-.222.687a12.915,12.915,0,0,0-.676,4.062,14.054,14.054,0,0,0,.179,2.585l.062.278.2.2a8.189,8.189,0,0,0,3.841,2.062,16.819,16.819,0,0,0,4.259.59h.124a9.036,9.036,0,0,0,6.671-2.622,8.883,8.883,0,0,0,2.475-6.512,8.151,8.151,0,0,0-2.58-6.257l-8.738-7.928a4.1,4.1,0,0,1-1.467-3.124,4.036,4.036,0,0,1,1.191-3.038,4.152,4.152,0,0,1,3.051-1.237h.064a4.4,4.4,0,0,1,2.965.963,3.158,3.158,0,0,1,1.106,2.533l.009,1,1-.01.395,0,1-.01-.009-1-.048-5.412-.01-1-1,.009-1.614.014a20.034,20.034,0,0,0-3.758-.4Z" transform="translate(12 -722.956)"/><path class="j" d="M544.576,743.74l9.635.1,0,.441-.572-.007H553.6a2.709,2.709,0,0,0-1.932.771,2.757,2.757,0,0,0-.879,1.928l-.256,24.418a2.635,2.635,0,0,0,.816,1.967,2.742,2.742,0,0,0,1.971.835l.573.006,0,.44-9.636-.1,0-.44.572.006h.033a2.668,2.668,0,0,0,1.933-.793,2.836,2.836,0,0,0,.879-1.949l.256-24.419a2.754,2.754,0,0,0-.838-1.944,2.7,2.7,0,0,0-1.949-.813l-.573-.006,0-.44m16.543.173,9.284.1,0,.4-.176,0h-.086a6.068,6.068,0,0,0-4.688,2.018l-10.464,11.86,11.863,14.249a5.865,5.865,0,0,0,4.16,1.847l0,.441-1.892-.021q-4.488-.046-6.574-2.577L552.07,759.307l10.519-12.914a1.331,1.331,0,0,0,.36-.789,1.356,1.356,0,0,0-.125-.617,1.318,1.318,0,0,0-1.269-.674l-.44,0,0-.4m-17.531-1.183-.012,1,0,.44-.011,1,1,.01.573.006a1.7,1.7,0,0,1,1.254.522,1.75,1.75,0,0,1,.543,1.263l-.256,24.381a1.81,1.81,0,0,1-.579,1.245,1.665,1.665,0,0,1-1.233.507l-.6-.006-1-.01-.011,1,0,.439-.011,1,1,.011,9.636.1,1,.01.011-1,0-.44.011-1-1-.01-.572-.006a1.74,1.74,0,0,1-1.277-.544,1.643,1.643,0,0,1-.521-1.248l.116-11.023,10.111,12.473c1.585,1.923,4.053,2.913,7.34,2.947l1.892.021,1,.011.009-1,0-.441.009-.98-.981-.028a4.857,4.857,0,0,1-3.446-1.52L556.3,758.3l9.9-11.217a5.058,5.058,0,0,1,3.938-1.68h.076l.174,0,1,.011.01-1,0-.4.009-1-1-.011-9.283-.1-1-.011-.01,1,0,.4-.009,1,1,.009.439,0c.323,0,.367.09.392.136h0a.631.631,0,0,1,.012.111.911.911,0,0,1-.135.2l-10.141,12.45.117-11.228a1.737,1.737,0,0,1,.569-1.214,1.7,1.7,0,0,1,1.242-.5l.6.007,1,.012.009-1,0-.441.009-1-1-.011-9.634-.1-1-.01Z" transform="translate(12 -722.956)"/><path class="j" d="M594.8,744.013l-.186,5.54-.441-.013.027-.792a2.6,2.6,0,0,0-2.376-2.678l-8.97-.3-.458,13.588,7.431.25a2.2,2.2,0,0,0,1.518-.609,2.093,2.093,0,0,0,.668-1.518l.02-.615.44.014-.233,6.949-.441-.016.023-.66a2.084,2.084,0,0,0-.543-1.515,2.131,2.131,0,0,0-1.452-.709l-7.475-.252-.444,13.149,6.29.212c.158.005.314.008.466.008a7.182,7.182,0,0,0,4.551-1.291,10.769,10.769,0,0,0,3-4.214l.439.014-2.791,7.038-18.249-.614.015-.44.571.019.105,0a2.667,2.667,0,0,0,1.88-.749,2.841,2.841,0,0,0,.924-1.929l.83-24.626a2.825,2.825,0,0,0-.865-1.812,2.7,2.7,0,0,0-1.866-.789l-.527-.018-.029-.441,12.884.434c.162.006.326.009.494.009a19.318,19.318,0,0,0,2.483-.173,12.1,12.1,0,0,0,2.283-.451m1.049-1.442-1.388.5a11.012,11.012,0,0,1-2.073.4,18.39,18.39,0,0,1-2.354.164c-.156,0-.31,0-.46-.008l-12.885-.435-1.1-.037.073,1.1.029.442.06.9.9.03.527.017a1.7,1.7,0,0,1,1.2.5,1.811,1.811,0,0,1,.563,1.133l-.828,24.558a1.81,1.81,0,0,1-.607,1.232,1.666,1.666,0,0,1-1.2.479h-.071l-.571-.02-1-.034-.033,1-.015.441-.033,1,1,.034,18.249.614.7.023.26-.654,2.791-7.038.524-1.321-1.42-.047-.44-.015-.676-.022-.273.619a9.842,9.842,0,0,1-2.708,3.832,6.255,6.255,0,0,1-3.931,1.076c-.141,0-.286,0-.433-.008l-5.289-.178.376-11.149,6.447.217a1.13,1.13,0,0,1,.771.381,1.075,1.075,0,0,1,.286.811l-.022.659-.034,1,1,.036.441.015,1,.035.034-1,.233-6.949.034-1-1-.031-.439-.014-1-.031-.033,1-.021.615a1.085,1.085,0,0,1-.351.82,1.2,1.2,0,0,1-.85.34l-6.383-.216.391-11.589,7.971.268a1.482,1.482,0,0,1,1,.523,1.5,1.5,0,0,1,.406,1.122l-.027.791-.035,1,1,.031.44.014,1,.031.034-1,.187-5.54.049-1.476Z" transform="translate(12 -722.956)"/><path class="j" d="M602.761,745.086l14.892.856a15.712,15.712,0,0,1,11.155,4.894,16.4,16.4,0,0,1-1.281,22.272,15.3,15.3,0,0,1-10.37,3.62c-.418,0-.841-.012-1.273-.037l-14.892-.856.026-.44.571.033c.06,0,.12.006.179.006a2.66,2.66,0,0,0,1.822-.706,2.831,2.831,0,0,0,.969-1.9l1.415-24.6a2.25,2.25,0,0,0-.754-1.828,2.956,2.956,0,0,0-1.913-.838l-.527-.029-.019-.442M616.813,775.4a11.886,11.886,0,0,0,5.771-1.408,11.749,11.749,0,0,0,4.677-4.689,16.564,16.564,0,0,0,1.982-7.268q.364-6.326-2.862-10.389a11.54,11.54,0,0,0-8.8-4.385l-8.653-.5-1.617,28.114,8.653.5c.288.016.572.025.854.025m-15.1-31.375.046,1.1.018.442.039.906.905.05.527.03a1.971,1.971,0,0,1,1.281.565,1.249,1.249,0,0,1,.443,1.046l-1.415,24.6a1.808,1.808,0,0,1-.635,1.217,1.657,1.657,0,0,1-1.157.452c-.04,0-.08,0-.121,0l-.571-.033-1-.058-.058,1-.025.44-.058,1,1,.058,14.891.857c.449.025.9.038,1.331.038a16.343,16.343,0,0,0,11.023-3.863,17.391,17.391,0,0,0,1.364-23.705,16.745,16.745,0,0,0-11.834-5.217l-14.891-.856-1.1-.063Zm6.646,29.911,1.5-26.117,7.655.441a10.491,10.491,0,0,1,8.079,4.008,13.867,13.867,0,0,1,2.647,9.71,15.667,15.667,0,0,1-1.856,6.835,10.815,10.815,0,0,1-4.282,4.3,10.963,10.963,0,0,1-5.294,1.287c-.263,0-.528-.008-.8-.024l-7.654-.44Z" transform="translate(12 -722.956)"/></g></svg>