<svg id="Layer_1" data-name="Layer 1" xmlns="http://www.w3.org/2000/svg" xmlns:xlink="http://www.w3.org/1999/xlink" viewBox="0 0 1080 487.76"><defs><style>.cls-1{fill:#fff;}.cls-2{fill:#ddc272;}.cls-3{fill:none;}.cls-4,.cls-9{fill:#c4a660;}.cls-5{fill:#ba9e5b;}.cls-6{opacity:0.3;}.cls-7{fill:url(#linear-gradient);}.cls-8{fill:url(#radial-gradient);}.cls-9{stroke:#9c834c;stroke-miterlimit:10;}</style><linearGradient id="linear-gradient" x1="-766.422" y1="1775.612" x2="478.88" y2="-381.313" gradientTransform="translate(581.338 512.145) rotate(-76.736)" gradientUnits="userSpaceOnUse"><stop offset="0" stop-color="#c4a660"/><stop offset="1" stop-color="#85aca9"/></linearGradient><radialGradient id="radial-gradient" cx="-1065.643" cy="350.024" r="1202.193" gradientTransform="translate(581.338 512.145) rotate(-76.736)" gradientUnits="userSpaceOnUse"><stop offset="0" stop-color="#c4a660"/><stop offset="0.011" stop-color="#c4a660"/><stop offset="0.462" stop-color="#cdb06b"/><stop offset="1" stop-color="#d0b36e"/></radialGradient></defs><title>arc1_v03</title><path class="cls-1" d="M955.414,467.721A1246.077,1246.077,0,0,1,1207,556.2V283.22a1246.016,1246.016,0,0,0-251.586-88.479C665.5,126.4,375.362,165.778,127,286.88V559.86C375.362,438.758,665.5,399.38,955.414,467.721Z" transform="translate(-127 -76.236)"/><path class="cls-2" d="M955.414,194.741A1246.016,1246.016,0,0,1,1207,283.22V262.862A1264.742,1264.742,0,0,0,793.733,150.037C556.292,126.838,327.78,170.787,127,266.37v20.51C375.362,165.778,665.5,126.4,955.414,194.741Z" transform="translate(-127 -76.236)"/><path class="cls-2" d="M793.733,151.037A1264.742,1264.742,0,0,1,1207,263.862V191.9A1347.92,1347.92,0,0,0,801.72,87.4C562.673,64.042,332.128,104.607,127,195.119V267.37C327.78,171.787,556.292,127.838,793.733,151.037Z" transform="translate(-127 -76.236)"/><path class="cls-3" d="M793.975,148.549a1276.27,1276.27,0,0,1,280.449,59.664A1260.615,1260.615,0,0,1,1207,261.141V192.5a1339.281,1339.281,0,0,0-1080,3.267v68.817A1263.243,1263.243,0,0,1,793.975,148.549Z" transform="translate(-127 -76.236)"/><path class="cls-4" d="M801.476,87.574A1343.494,1343.494,0,0,1,1207,192.52v-5.428a1351.894,1351.894,0,0,0-1080,3.244v5.43A1346.1,1346.1,0,0,1,801.476,87.574Z" transform="translate(-127 -76.236)"/><path class="cls-3" d="M457.086,177.248c165.824-28.954,333.68-23.887,498.9,15.059A1248.533,1248.533,0,0,1,1207,280.457V265.636a1255.635,1255.635,0,0,0-134.161-53.681A1272.529,1272.529,0,0,0,379.9,180.044,1256.833,1256.833,0,0,0,127,269.123v15q47.151-22.938,96-41.834A1244.543,1244.543,0,0,1,457.086,177.248Z" transform="translate(-127 -76.236)"/><path class="cls-5" d="M793.49,152.526a1271.218,1271.218,0,0,1,279.349,59.429A1255.635,1255.635,0,0,1,1207,265.636V260.12a1260.676,1260.676,0,0,0-132.575-52.907,1277.509,1277.509,0,0,0-695.678-32.035A1261.861,1261.861,0,0,0,127,263.579v5.544a1258.2,1258.2,0,0,1,666.49-116.6Z" transform="translate(-127 -76.236)"/><path class="cls-3" d="M456.914,449.244c165.958-28.978,333.949-23.907,499.3,15.071A1249.461,1249.461,0,0,1,1207,552.328V287.109a1242.294,1242.294,0,0,0-252.388-88.961c-164.429-38.761-331.474-43.8-496.494-14.989a1238.387,1238.387,0,0,0-232.957,64.722Q175.27,267.164,127,290.8V555.988q46.98-22.832,95.637-41.656A1245.484,1245.484,0,0,1,456.914,449.244Z" transform="translate(-127 -76.236)"/><g class="cls-6"><path class="cls-2" d="M127.3,286.573l41.916,253.536A1239.541,1239.541,0,0,1,499.3,446.076l-16.28-270.591A1240.941,1240.941,0,0,0,127.3,286.573Z" transform="translate(-127 -76.236)"/><path class="cls-2" d="M1206.7,283.206a1246.027,1246.027,0,0,0-251.587-88.48q-52.092-12.279-104.121-19.95L834.706,445.443q60.1,8.1,120.4,22.263a1248.431,1248.431,0,0,1,211.031,70.016l40.556-245.3Z" transform="translate(-127 -76.236)"/><path class="cls-2" d="M483.019,175.485,499.3,446.076a1234.218,1234.218,0,0,1,335.407-.633L850.99,174.776A1234.414,1234.414,0,0,0,483.019,175.485Z" transform="translate(-127 -76.236)"/></g><path class="cls-7" d="M458.118,183.159c165.02-28.814,332.065-23.772,496.494,14.989A1242.294,1242.294,0,0,1,1207,287.109v-7.77a1249.544,1249.544,0,0,0-250.783-88c-165.354-38.978-333.345-44.049-499.3-15.071a1245.559,1245.559,0,0,0-234.277,65.088Q174.058,260.128,127,283.007v7.8q48.186-23.582,98.161-42.922A1238.387,1238.387,0,0,1,458.118,183.159Z" transform="translate(-127 -76.236)"/><path class="cls-8" d="M458.161,456.325c164.994-28.809,332.017-23.768,496.418,14.986A1242.184,1242.184,0,0,1,1207,560.29v-8.185a1249.641,1249.641,0,0,0-250.727-87.973c-165.378-38.984-333.4-44.057-499.38-15.074a1245.715,1245.715,0,0,0-234.313,65.1Q174.029,532.923,127,555.785V564q48.224-23.6,98.24-42.958A1238.273,1238.273,0,0,1,458.161,456.325Z" transform="translate(-127 -76.236)"/><path class="cls-9" d="M573.19,133.236a3.038,3.038,0,0,0,2.154-1.083,3.22,3.22,0,0,0,.812-2.289l-1.994-27.678a3.13,3.13,0,0,0-1.131-2.124,3.069,3.069,0,0,0-2.283-.738l-.648.046-.037-.5,10.922-.788.036.5-.648.047a3.075,3.075,0,0,0-2.155,1.058,3.129,3.129,0,0,0-.815,2.264L579.4,129.63a3,3,0,0,0,1.108,2.151,3.111,3.111,0,0,0,2.31.761l.649-.046.036.5-10.922.787-.036-.5Z" transform="translate(-127 -76.236)"/><path class="cls-9" d="M635.9,129.923l.4-.016.02.5-11.241.453-.02-.5.45-.018a1.873,1.873,0,0,0,1.547-.738,2.112,2.112,0,0,0,.472-1.3,3.761,3.761,0,0,0-.248-1.191l-3.54-8.364-13.489.544-3,8.678a3.691,3.691,0,0,0-.153,1.182,2.094,2.094,0,0,0,.575,1.228,1.874,1.874,0,0,0,1.6.611l.45-.018.019.5-10.041.405-.02-.5.449-.018a4.36,4.36,0,0,0,2.416-.9,5.74,5.74,0,0,0,1.853-2.426L614.6,100.707q1.686-4.12,1.641-5.22l.45-.018,14.68,31.484a5.4,5.4,0,0,0,1.993,2.272A4.437,4.437,0,0,0,635.9,129.923Zm-25.109-12.148,12.29-.5-6.641-15.8Z" transform="translate(-127 -76.236)"/><path class="cls-9" d="M639.308,128.385a15.629,15.629,0,0,1-.195-2.7,13.468,13.468,0,0,1,.681-4.262l.449-.007c-.027.368-.037.734-.031,1.1a7.235,7.235,0,0,0,1.933,5.043,6.312,6.312,0,0,0,4.932,1.944,7.259,7.259,0,0,0,5.144-1.984,6.273,6.273,0,0,0,1.946-4.808,6.068,6.068,0,0,0-2.026-4.642l-9.745-8.741a7.939,7.939,0,0,1-2.8-6,8.548,8.548,0,0,1,2.274-6.113,8.4,8.4,0,0,1,6.383-2.631,21.385,21.385,0,0,1,4.308.43l1.949-.032.1,6.149-.45.007a4.7,4.7,0,0,0-1.686-3.722,6.171,6.171,0,0,0-4.2-1.332,5.851,5.851,0,0,0-4.246,1.771,5.718,5.718,0,0,0-1.655,4.277,5.8,5.8,0,0,0,2.072,4.367l10,8.937a8.134,8.134,0,0,1,2.6,6.258,8.955,8.955,0,0,1-2.443,6.616A9.135,9.135,0,0,1,647.852,131a17.791,17.791,0,0,1-4.686-.6A8.17,8.17,0,0,1,639.308,128.385Z" transform="translate(-127 -76.236)"/><path class="cls-9" d="M673.876,129.624l.65,0,0,.5-10.95-.068,0-.5.651,0a3.034,3.034,0,0,0,2.23-.911,3.222,3.222,0,0,0,.989-2.219l.173-27.749a3.128,3.128,0,0,0-.961-2.206,3.078,3.078,0,0,0-2.22-.915l-.649,0,0-.5,10.95.068,0,.5-.649,0a3.08,3.08,0,0,0-2.231.886,3.124,3.124,0,0,0-.989,2.194l-.173,27.749a2.989,2.989,0,0,0,.936,2.231A3.112,3.112,0,0,0,673.876,129.624Zm20.1.626-2.151-.014q-5.1-.031-7.481-2.9l-11.959-14.625,11.892-14.725a1.512,1.512,0,0,0,.406-.9,1.542,1.542,0,0,0-.146-.7,1.5,1.5,0,0,0-1.445-.759l-.5,0,0-.45,10.55.066,0,.45h-.2a6.91,6.91,0,0,0-5.414,2.316l-11.835,13.526,13.549,16.135a6.669,6.669,0,0,0,4.738,2.08Z" transform="translate(-127 -76.236)"/><path class="cls-9" d="M697.629,129.9a3.036,3.036,0,0,0,2.252-.856,3.218,3.218,0,0,0,1.043-2.194l.864-27.987A3.209,3.209,0,0,0,700.8,96.8a3.074,3.074,0,0,0-2.124-.891l-.6-.019-.034-.5,14.643.452a20.82,20.82,0,0,0,3.382-.2,13.733,13.733,0,0,0,2.592-.52l-.194,6.3-.5-.015.027-.9a2.952,2.952,0,0,0-2.708-3.035l-10.194-.315-.478,15.443,8.447.261a2.5,2.5,0,0,0,1.722-.7,2.371,2.371,0,0,0,.753-1.728l.023-.7.5.016-.244,7.9-.5-.015.024-.75a2.365,2.365,0,0,0-.623-1.72,2.411,2.411,0,0,0-1.651-.8l-8.5-.263-.462,14.943,7.148.221a8.53,8.53,0,0,0,5.7-1.475,12.234,12.234,0,0,0,3.4-4.8l.5.015-3.15,8.007-20.739-.64.015-.5Z" transform="translate(-127 -76.236)"/><path class="cls-9" d="M757.469,102.878q4.688,5.106,4.233,12.942T756,128.186q-5.247,4.53-13.232,4.065l-16.922-.98.028-.5.649.038a3.03,3.03,0,0,0,2.275-.795,3.219,3.219,0,0,0,1.1-2.165L731.523,99.9a2.557,2.557,0,0,0-.856-2.078,3.346,3.346,0,0,0-2.174-.952l-.6-.035-.022-.5,16.922.981Q752.781,97.774,757.469,102.878Zm-22.594-4.641-1.853,31.947,9.833.57a13.8,13.8,0,0,0,7.529-1.567,13.35,13.35,0,0,0,5.317-5.326,18.827,18.827,0,0,0,2.257-8.258q.417-7.188-3.247-11.808a13.116,13.116,0,0,0-10-4.987Z" transform="translate(-127 -76.236)"/></svg>