<svg xmlns="http://www.w3.org/2000/svg" xmlns:xlink="http://www.w3.org/1999/xlink" width="1080" height="488.519" viewBox="0 0 1080 488.519"><defs><style>.cls-1{isolation:isolate;}.cls-2{fill:#fff;}.cls-3{opacity:0.5;mix-blend-mode:multiply;}.cls-4,.cls-8{fill:#ddc272;}.cls-5{fill:none;}.cls-6{fill:#c4a660;}.cls-7{fill:#ba9e5b;}.cls-8{opacity:0.3;}.cls-9{fill:url(#linear-gradient);}.cls-10{fill:url(#radial-gradient);}.cls-11{fill:#9c834c;}</style><linearGradient id="linear-gradient" x1="-925.271" y1="1587.836" x2="320.031" y2="-569.089" gradientTransform="translate(673.55 325.14) rotate(-76.736)" gradientUnits="userSpaceOnUse"><stop offset="0" stop-color="#c4a660"/><stop offset="1" stop-color="#85aca9"/></linearGradient><radialGradient id="radial-gradient" cx="-1224.492" cy="162.248" r="1202.193" gradientTransform="translate(673.55 325.14) rotate(-76.736)" gradientUnits="userSpaceOnUse"><stop offset="0" stop-color="#c4a660"/><stop offset="0.011" stop-color="#c4a660"/><stop offset="0.462" stop-color="#cdb06b"/><stop offset="1" stop-color="#d0b36e"/></radialGradient></defs><title>arc1</title><g class="cls-1"><g id="Layer_1" data-name="Layer 1"><path class="cls-2" d="M828.414,392.245A1246.016,1246.016,0,0,1,1080,480.724V207.744a1246.016,1246.016,0,0,0-251.586-88.479C538.5,50.923,248.362,90.3,0,211.4V484.384C248.362,363.282,538.5,323.9,828.414,392.245Z"/><image class="cls-3" width="1104" height="168" transform="translate(-12 62.26)" xlink:href="arc11.png"/><path class="cls-4" d="M828.414,119.265A1246.016,1246.016,0,0,1,1080,207.744V187.386A1264.741,1264.741,0,0,0,666.732,74.561C429.292,51.361,200.78,95.311,0,190.894V211.4C248.362,90.3,538.5,50.923,828.414,119.265Z"/><path class="cls-4" d="M666.732,75.561A1264.741,1264.741,0,0,1,1080,188.386V114.419A1347.987,1347.987,0,0,0,674.72,9.922C435.673-13.434,205.128,27.131,0,117.643v74.251C200.78,96.311,429.292,52.361,666.732,75.561Z"/><path class="cls-5" d="M666.975,73.073a1276.212,1276.212,0,0,1,280.449,59.664A1260.615,1260.615,0,0,1,1080,185.665V117.023A1339.278,1339.278,0,0,0,0,120.29v68.817A1263.243,1263.243,0,0,1,666.975,73.073Z"/><path class="cls-6" d="M674.476,11.411A1337,1337,0,0,1,1080,117.023v-5.462A1344.25,1344.25,0,0,0,0,114.825v5.465A1338.632,1338.632,0,0,1,674.476,11.411Z"/><path class="cls-5" d="M330.085,101.772c165.825-28.954,333.681-23.887,498.9,15.059A1248.614,1248.614,0,0,1,1080,204.98V190.16a1255.441,1255.441,0,0,0-134.162-53.681A1272.5,1272.5,0,0,0,252.9,104.568,1256.811,1256.811,0,0,0,0,193.647v15Q47.151,185.7,96,166.808A1244.554,1244.554,0,0,1,330.085,101.772Z"/><path class="cls-7" d="M666.49,77.049a1271.211,1271.211,0,0,1,279.348,59.43A1255.441,1255.441,0,0,1,1080,190.16v-5.516a1260.676,1260.676,0,0,0-132.575-52.907A1277.509,1277.509,0,0,0,251.747,99.7,1261.8,1261.8,0,0,0,0,188.1v5.544a1258.213,1258.213,0,0,1,666.49-116.6Z"/><path class="cls-5" d="M329.914,373.768c165.958-28.978,333.949-23.908,499.3,15.07A1249.526,1249.526,0,0,1,1080,476.852V211.632a1242.436,1242.436,0,0,0-252.388-88.961c-164.429-38.76-331.474-43.8-496.494-14.988A1238.459,1238.459,0,0,0,98.161,172.4Q48.27,191.688,0,215.327V480.512q46.979-22.832,95.637-41.657A1245.481,1245.481,0,0,1,329.914,373.768Z"/><path class="cls-8" d="M.3,211.1,42.218,464.633A1239.544,1239.544,0,0,1,372.3,370.6L356.019,100.009A1240.941,1240.941,0,0,0,.3,211.1Z"/><path class="cls-8" d="M1079.7,209.234a1246.027,1246.027,0,0,0-251.587-88.48q-52.092-12.279-104.121-19.949L707.706,371.472q60.1,8.1,120.4,22.263a1248.342,1248.342,0,0,1,211.031,70.016l40.556-245.3Z"/><path class="cls-8" d="M356.019,100.009,372.3,370.6a1234.185,1234.185,0,0,1,335.408-.633L723.99,99.3A1234.414,1234.414,0,0,0,356.019,100.009Z"/><path class="cls-9" d="M331.118,107.683c165.02-28.814,332.065-23.772,496.494,14.988A1242.436,1242.436,0,0,1,1080,211.632v-7.769a1249.566,1249.566,0,0,0-250.783-88c-165.354-38.978-333.345-44.049-499.3-15.071A1245.484,1245.484,0,0,0,95.637,165.875Q47.057,184.652,0,207.531v7.8Q48.186,191.746,98.161,172.4A1238.459,1238.459,0,0,1,331.118,107.683Z"/><path class="cls-10" d="M331.161,380.849c164.994-28.809,332.017-23.768,496.418,14.986A1242.184,1242.184,0,0,1,1080,484.814v-8.186a1249.69,1249.69,0,0,0-250.728-87.973C663.9,349.672,495.877,344.6,329.893,373.582A1245.715,1245.715,0,0,0,95.58,438.68Q47.03,457.445,0,480.309v8.21q48.224-23.6,98.24-42.958A1238.273,1238.273,0,0,1,331.161,380.849Z"/><path class="cls-6" d="M447.641,54.2l1.068-.078a2.157,2.157,0,0,0,1.555-.778,2.325,2.325,0,0,0,.6-1.67l-1.715-24.34a2.244,2.244,0,0,0-.816-1.524,2.192,2.192,0,0,0-1.463-.542c-.062,0-.124,0-.188.007l-1.068.075-.1-1.437,10.611-.748.1,1.438-1.068.075a2.2,2.2,0,0,0-1.56.762A2.247,2.247,0,0,0,453,27.083l1.716,24.34a2.134,2.134,0,0,0,.8,1.548,2.225,2.225,0,0,0,1.491.563c.061,0,.122,0,.184-.007l1.068-.075.1,1.437-10.61.747Z"/><path class="cls-11" d="M455.654,23.7l.03.439-.57.04a2.7,2.7,0,0,0-1.9.928,2.75,2.75,0,0,0-.72,1.991l1.717,24.359a2.635,2.635,0,0,0,.971,1.9,2.733,2.733,0,0,0,1.814.681c.073,0,.145,0,.219-.008l.57-.04.032.439-9.613.677-.031-.438.57-.041a2.669,2.669,0,0,0,1.9-.95,2.832,2.832,0,0,0,.718-2.013L449.644,27.3a2.757,2.757,0,0,0-.992-1.871,2.693,2.693,0,0,0-1.786-.66c-.074,0-.148,0-.223.008l-.57.04-.032-.439,9.613-.677m.928-1.068-1,.07-9.612.678-1,.07.072,1,.031.438.071,1,1-.07.571-.04c.052,0,.1-.005.153-.005a1.685,1.685,0,0,1,1.141.425,1.748,1.748,0,0,1,.643,1.215l1.712,24.321a1.8,1.8,0,0,1-.475,1.288,1.67,1.67,0,0,1-1.211.607l-.573.041-1,.072.071,1,.031.438.071,1,1-.07,9.612-.677,1-.071-.071-1-.031-.439-.071-1-1,.07-.571.04c-.05,0-.1.006-.149.006a1.726,1.726,0,0,1-1.168-.444,1.636,1.636,0,0,1-.619-1.2l-1.717-24.359a1.733,1.733,0,0,1,.467-1.255,1.7,1.7,0,0,1,1.223-.6l.57-.04,1-.07-.069-1-.03-.439-.069-1Z"/><path class="cls-6" d="M485.79,51.833l.9-.029a3.349,3.349,0,0,0,1.857-.679,4.553,4.553,0,0,0,1.485-1.916l9.19-23.947c1.287-3.07,1.462-4.065,1.452-4.387l-.014-.5,1.227-.036,12.806,28.124a4.254,4.254,0,0,0,1.545,1.8,3.412,3.412,0,0,0,1.842.562l.951-.028.045,1.44-10.9.34-.045-1.439.9-.029a1.166,1.166,0,0,0,.978-.432,1.391,1.391,0,0,0,.331-.825,2.859,2.859,0,0,0-.178-.894l-2.91-7.05-11.187.35-2.6,7.291a2.757,2.757,0,0,0-.114.856,1.385,1.385,0,0,0,.381.781,1.129,1.129,0,0,0,.93.37l.967-.027.048,1.438-9.841.308Zm11.119-11.925,9.365-.294-4.95-12.076Z"/><path class="cls-11" d="M501.566,20.849,514.234,48.67a4.745,4.745,0,0,0,1.735,2.015,3.936,3.936,0,0,0,2.107.637l.114,0,.352-.011.014.44-9.9.309-.013-.439.395-.013a1.644,1.644,0,0,0,1.367-.638,1.862,1.862,0,0,0,.427-1.135,3.334,3.334,0,0,0-.209-1.05l-3.049-7.389-11.874.372-2.711,7.612a3.259,3.259,0,0,0-.143,1.039,1.837,1.837,0,0,0,.5,1.085,1.609,1.609,0,0,0,1.315.552l.088,0,.4-.012.014.44-8.839.276-.014-.439.4-.013a3.837,3.837,0,0,0,2.133-.771,5.043,5.043,0,0,0,1.651-2.12l9.2-23.972a16.11,16.11,0,0,0,1.485-4.58l.4-.012M496.191,40.43l10.819-.339L501.291,26.14l-5.1,14.29m6.01-20.6-.665.02-.4.011-1,.03.031,1c0,.176-.081,1-1.408,4.163l-9.2,23.975a4.078,4.078,0,0,1-1.306,1.689,2.844,2.844,0,0,1-1.585.587l-.4.012-1,.033.031,1,.014.44.031,1,1-.031,8.84-.277,1-.031-.033-1-.015-.44-.033-1-1,.03-.395.012h-.059c-.388,0-.5-.133-.544-.189-.255-.307-.267-.46-.268-.476a2.272,2.272,0,0,1,.1-.7l2.473-6.944,10.5-.329,2.785,6.749a2.365,2.365,0,0,1,.134.7.938.938,0,0,1-.236.512c-.046.064-.155.214-.589.227l-.4.013-1,.032.031,1,.014.439.031,1,1-.031,9.895-.309,1-.031-.032-1-.013-.44-.031-1-1,.031-.353.01-.083,0a2.934,2.934,0,0,1-1.579-.486,3.741,3.741,0,0,1-1.365-1.606L502.476,20.435l-.275-.605Zm-4.575,19.555,3.73-10.451,4.182,10.2-7.912.248Z"/><path class="cls-6" d="M530.134,52.807A16.324,16.324,0,0,1,526,52.233a7.7,7.7,0,0,1-3.612-1.928l-.1-.1-.031-.139a13.857,13.857,0,0,1-.166-2.48,12.42,12.42,0,0,1,.651-3.905l.112-.343,1.3-.009-.044.545c-.025.307-.037.615-.034.921a5.841,5.841,0,0,0,1.535,4.116,5.015,5.015,0,0,0,3.887,1.584,5.913,5.913,0,0,0,4.268-1.576,5,5,0,0,0,1.59-3.851,4.829,4.829,0,0,0-1.59-3.733l-8.52-7.754a7.514,7.514,0,0,1-2.587-5.668,8.049,8.049,0,0,1,2.174-5.709,7.9,7.9,0,0,1,6-2.434h.127a19.594,19.594,0,0,1,3.713.406l2.164-.02.059,6.412-1.4.014,0-.5a3.626,3.626,0,0,0-1.283-2.911,4.938,4.938,0,0,0-3.287-1.081,4.677,4.677,0,0,0-3.469,1.384,4.517,4.517,0,0,0-1.338,3.4,4.577,4.577,0,0,0,1.631,3.491l8.741,7.929a7.67,7.67,0,0,1,2.414,5.889,8.406,8.406,0,0,1-2.333,6.159,8.552,8.552,0,0,1-6.319,2.471Z"/><path class="cls-11" d="M530.962,20.268a19.081,19.081,0,0,1,3.665.4l1.716-.015.049,5.412-.4,0a4.135,4.135,0,0,0-1.46-3.287,5.4,5.4,0,0,0-3.61-1.2h-.074a5.151,5.151,0,0,0-3.749,1.532,5.033,5.033,0,0,0-1.484,3.753,5.1,5.1,0,0,0,1.795,3.856l8.741,7.929a7.164,7.164,0,0,1,2.25,5.524,7.885,7.885,0,0,1-2.192,5.806,8.038,8.038,0,0,1-5.964,2.319h-.115a15.746,15.746,0,0,1-4-.558,7.182,7.182,0,0,1-3.382-1.794,13.82,13.82,0,0,1-.154-2.375,11.849,11.849,0,0,1,.627-3.747l.4,0q-.04.484-.036.967a6.374,6.374,0,0,0,1.668,4.451,5.54,5.54,0,0,0,4.254,1.744h.074a6.388,6.388,0,0,0,4.54-1.714,5.525,5.525,0,0,0,1.744-4.217,5.346,5.346,0,0,0-1.754-4.1l-8.519-7.755a7,7,0,0,1-2.424-5.3,7.538,7.538,0,0,1,2.041-5.366,7.4,7.4,0,0,1,5.634-2.272h.123m0-1h-.133a8.383,8.383,0,0,0-6.358,2.594,8.53,8.53,0,0,0-2.307,6.052,7.99,7.99,0,0,0,2.751,6.034l8.518,7.755a4.352,4.352,0,0,1,1.428,3.368,4.521,4.521,0,0,1-1.435,3.485,5.381,5.381,0,0,1-3.857,1.437H529.5a4.542,4.542,0,0,1-3.522-1.425,5.366,5.366,0,0,1-1.4-3.779c0-.29.008-.585.032-.877l.089-1.09-1.093.009-.395,0-.722.006-.222.686a12.9,12.9,0,0,0-.676,4.063,14.081,14.081,0,0,0,.178,2.585l.063.278.2.2a8.192,8.192,0,0,0,3.842,2.062,16.863,16.863,0,0,0,4.258.59h.125a9.038,9.038,0,0,0,6.671-2.622,8.883,8.883,0,0,0,2.475-6.512,8.153,8.153,0,0,0-2.58-6.258l-8.739-7.927a4.1,4.1,0,0,1-1.467-3.124,4.037,4.037,0,0,1,1.192-3.038,4.151,4.151,0,0,1,3.05-1.238h.065a4.4,4.4,0,0,1,2.965.963A3.153,3.153,0,0,1,535,26.083l.01,1,1-.009.4,0,1-.01-.009-1-.049-5.412-.009-1-1,.01-1.614.014a20.051,20.051,0,0,0-3.758-.4Z"/><path class="cls-6" d="M568.419,52.342c-3.132-.033-5.471-.961-6.953-2.759L550.739,36.35l10.776-13.228a.856.856,0,0,0,.248-.478.885.885,0,0,0-.074-.395c-.091-.172-.273-.386-.826-.392l-.939-.009.014-1.4,10.283.107-.014,1.4-.678-.007a5.593,5.593,0,0,0-4.4,1.854L554.956,35.335l11.589,13.919a5.316,5.316,0,0,0,3.791,1.668l.49.014-.013,1.433Zm-25.358-.265.016-1.44,1.073.011a2.186,2.186,0,0,0,1.61-.65,2.341,2.341,0,0,0,.73-1.618l.254-24.4a2.237,2.237,0,0,0-.69-1.585,2.207,2.207,0,0,0-1.6-.667l-1.073-.011.017-1.44,10.634.11-.014,1.442-1.074-.013a2.222,2.222,0,0,0-1.615.634,2.252,2.252,0,0,0-.724,1.589l-.255,24.4a2.132,2.132,0,0,0,.668,1.607,2.244,2.244,0,0,0,1.624.69l1.073.011-.016,1.44Z"/><path class="cls-11" d="M543.89,20.784l9.635.1,0,.441-.572-.007h-.034a2.708,2.708,0,0,0-1.932.771,2.757,2.757,0,0,0-.879,1.928l-.256,24.418a2.635,2.635,0,0,0,.815,1.967,2.742,2.742,0,0,0,1.972.835l.572.006,0,.44-9.635-.1,0-.439.572.006h.033a2.668,2.668,0,0,0,1.933-.793,2.838,2.838,0,0,0,.879-1.949l.255-24.419a2.753,2.753,0,0,0-.837-1.945,2.709,2.709,0,0,0-1.95-.812l-.572-.006,0-.44m16.543.172,9.283.1,0,.4-.176,0h-.085a6.068,6.068,0,0,0-4.688,2.018L554.3,35.326l11.863,14.249a5.871,5.871,0,0,0,4.161,1.847l0,.441-1.893-.021q-4.486-.046-6.573-2.577L551.383,36.351,561.9,23.437a1.331,1.331,0,0,0,.36-.789,1.354,1.354,0,0,0-.125-.617,1.317,1.317,0,0,0-1.27-.674l-.439,0,0-.4M542.9,19.773l-.011,1,0,.441-.011,1,1,.01.572.006a1.7,1.7,0,0,1,1.254.521,1.749,1.749,0,0,1,.544,1.264l-.256,24.38a1.811,1.811,0,0,1-.58,1.246,1.664,1.664,0,0,1-1.232.507l-.6-.006-1-.01-.011,1,0,.439-.012,1,1,.01,9.636.1,1,.01.011-1,0-.44.012-1-1-.01-.573-.006a1.742,1.742,0,0,1-1.277-.544,1.64,1.64,0,0,1-.52-1.248l.115-11.024L561.075,49.9c1.585,1.923,4.053,2.913,7.34,2.947l1.892.021,1,.01.009-1,0-.441.008-.98-.98-.028A4.857,4.857,0,0,1,566.9,48.9L555.615,35.345l9.9-11.217a5.058,5.058,0,0,1,3.938-1.68h.075l.175,0,1,.011.01-1,0-.4.01-1-1-.011-9.283-.1-1-.01-.01,1,0,.4-.01,1,1,.009.44,0c.322,0,.367.09.391.136h0a.56.56,0,0,1,.013.111,1,1,0,0,1-.135.2l-10.142,12.45.118-11.228a1.729,1.729,0,0,1,.569-1.214,1.7,1.7,0,0,1,1.242-.495l.594.007,1,.011.009-1,0-.44.009-1-1-.01-9.635-.1-1-.011Z"/><path class="cls-6" d="M574.412,52.5l.048-1.439,1.079.036a2.22,2.22,0,0,0,1.62-.612,2.337,2.337,0,0,0,.765-1.6l.829-24.606a2.3,2.3,0,0,0-.715-1.439,2.191,2.191,0,0,0-1.533-.646l-.978-.033-.1-1.445,13.437.453c.156.006.315.008.476.008a19.039,19.039,0,0,0,2.419-.168,11.7,11.7,0,0,0,2.178-.426l.694-.25-.227,6.777-1.441-.045.044-1.294a2.1,2.1,0,0,0-1.914-2.162l-8.45-.283-.424,12.588,6.932.233a1.681,1.681,0,0,0,1.159-.475,1.592,1.592,0,0,0,.51-1.169l.037-1.114,1.439.045-.267,7.951-1.44-.051.039-1.159a1.58,1.58,0,0,0-.415-1.164,1.632,1.632,0,0,0-1.121-.545l-6.951-.233-.409,12.149,5.789.2c.152.005.3.007.45.007a6.736,6.736,0,0,0,4.241-1.183,10.344,10.344,0,0,0,2.856-4.023l.136-.309,1.488.05-3.183,8.025Z"/><path class="cls-11" d="M594.111,21.057l-.187,5.54-.44-.014.027-.792a2.6,2.6,0,0,0-2.376-2.677l-8.971-.3L581.706,36.4l7.432.25a2.195,2.195,0,0,0,1.518-.61,2.093,2.093,0,0,0,.668-1.517l.02-.615.44.013-.234,6.95-.44-.016.022-.66a2.076,2.076,0,0,0-.543-1.515,2.129,2.129,0,0,0-1.451-.709l-7.476-.252-.443,13.149,6.289.212c.158.005.314.007.467.007a7.176,7.176,0,0,0,4.551-1.291,10.782,10.782,0,0,0,3-4.214l.439.015-2.791,7.038-18.249-.614.015-.44.571.019.105,0a2.663,2.663,0,0,0,1.879-.749,2.832,2.832,0,0,0,.924-1.929l.83-24.626a2.819,2.819,0,0,0-.864-1.812,2.707,2.707,0,0,0-1.866-.789L576,21.679l-.029-.441,12.885.434c.162.006.326.009.494.009a19.3,19.3,0,0,0,2.482-.173,12.116,12.116,0,0,0,2.284-.451m1.049-1.442-1.389.5a10.972,10.972,0,0,1-2.072.4,18.586,18.586,0,0,1-2.354.164c-.157,0-.31,0-.461-.008L576,20.238,574.9,20.2l.074,1.1.029.442.059.9.9.031.528.017a1.7,1.7,0,0,1,1.2.5,1.8,1.8,0,0,1,.562,1.132l-.827,24.559a1.811,1.811,0,0,1-.608,1.232,1.665,1.665,0,0,1-1.2.479h-.072l-.57-.02-1-.034-.033,1-.014.441-.034,1,1,.033,18.249.615.7.023.26-.654,2.791-7.038.523-1.321L596,44.6l-.439-.015-.676-.023-.273.62a9.863,9.863,0,0,1-2.708,3.832,6.257,6.257,0,0,1-3.931,1.075c-.142,0-.286,0-.433-.007l-5.29-.178.376-11.15,6.448.218a1.128,1.128,0,0,1,.771.381,1.074,1.074,0,0,1,.286.811l-.023.659-.034,1,1,.035.44.016,1,.035.034-1,.233-6.949.034-1-1-.031-.44-.014-1-.031-.033,1-.021.616a1.086,1.086,0,0,1-.352.82,1.2,1.2,0,0,1-.849.34l-6.383-.216.39-11.589,7.971.268a1.48,1.48,0,0,1,1,.523,1.5,1.5,0,0,1,.407,1.122l-.028.791-.034,1,1,.031.441.014,1,.03.034-1,.186-5.54.05-1.476Z"/><path class="cls-6" d="M616.471,54.272c-.428,0-.861-.013-1.3-.038l-15.391-.885.083-1.438,1.071.062.149,0a2.157,2.157,0,0,0,1.49-.578,2.326,2.326,0,0,0,.8-1.58l1.414-24.58a1.756,1.756,0,0,0-.6-1.438,2.451,2.451,0,0,0-1.6-.7l-.978-.055-.061-1.447,15.442.889a16.264,16.264,0,0,1,11.5,5.054A15.39,15.39,0,0,1,632.351,39.3a15.387,15.387,0,0,1-5.184,11.235A15.858,15.858,0,0,1,616.471,54.272Zm-1.17-2.354c.278.016.554.024.825.024a11.447,11.447,0,0,0,5.533-1.347,11.307,11.307,0,0,0,4.48-4.494,16.157,16.157,0,0,0,1.919-7.052c.233-4.071-.693-7.452-2.755-10.05a11.107,11.107,0,0,0-8.441-4.2l-8.155-.469-1.559,27.115Z"/><path class="cls-11" d="M602.075,22.129l14.891.857a15.71,15.71,0,0,1,11.155,4.894,14.839,14.839,0,0,1,3.731,11.387,14.84,14.84,0,0,1-5.012,10.885,15.305,15.305,0,0,1-10.369,3.62q-.627,0-1.273-.037l-14.892-.857.025-.439.572.033c.06,0,.12,0,.179,0a2.661,2.661,0,0,0,1.822-.7,2.832,2.832,0,0,0,.968-1.905l1.415-24.6a2.252,2.252,0,0,0-.753-1.828,2.956,2.956,0,0,0-1.914-.838l-.527-.029-.018-.443m14.051,30.313a11.889,11.889,0,0,0,5.772-1.407,11.755,11.755,0,0,0,4.677-4.689,16.564,16.564,0,0,0,1.982-7.268q.363-6.326-2.862-10.389A11.542,11.542,0,0,0,616.89,24.3l-8.653-.5-1.618,28.113,8.654.5c.287.017.572.025.853.025m-15.1-31.375.047,1.1.018.443.038.906.905.05.528.03a1.965,1.965,0,0,1,1.281.564,1.255,1.255,0,0,1,.443,1.046l-1.415,24.6a1.808,1.808,0,0,1-.635,1.216,1.654,1.654,0,0,1-1.157.452l-.122,0-.571-.034-1-.057-.058,1-.026.44-.057,1,1,.058,14.892.856c.449.026.9.039,1.331.039a16.345,16.345,0,0,0,11.023-3.863,15.864,15.864,0,0,0,5.356-11.584A15.868,15.868,0,0,0,628.858,27.2a16.747,16.747,0,0,0-11.834-5.217l-14.892-.856-1.1-.064Zm6.646,29.911,1.5-26.116,7.654.441a10.488,10.488,0,0,1,8.079,4.008,13.861,13.861,0,0,1,2.647,9.709,15.653,15.653,0,0,1-1.855,6.836,10.821,10.821,0,0,1-4.282,4.3,10.963,10.963,0,0,1-5.3,1.286c-.262,0-.528-.007-.8-.023l-7.655-.441Z"/></g></g></svg>