<svg xmlns="http://www.w3.org/2000/svg" xmlns:xlink="http://www.w3.org/1999/xlink" width="1105" height="488.519" viewBox="0 0 1105 488.519"><defs><style>.a{isolation:isolate;}.b{fill:#fff;}.c{opacity:0.5;mix-blend-mode:multiply;}.d,.g{fill:#debc67;}.e{fill:none;}.f{fill:#c4a158;}.g{opacity:0.3;}.h{fill:url(#a);}.i{fill:#8f6e2d;}.j{fill:url(#b);}</style><linearGradient id="a" x1="-968.084" y1="2313.347" x2="277.217" y2="156.422" gradientTransform="translate(-23.097 876.663) rotate(-76.736)" gradientUnits="userSpaceOnUse"><stop offset="0" stop-color="#e7c369"/><stop offset="1" stop-color="#7cafa6"/></linearGradient><radialGradient id="b" cx="-1267.305" cy="887.763" r="1202.193" gradientTransform="translate(-23.097 876.663) rotate(-76.736)" gradientUnits="userSpaceOnUse"><stop offset="0" stop-color="#e7c369"/><stop offset="0.349" stop-color="#e1bf68"/><stop offset="1" stop-color="#debc67"/></radialGradient></defs><title>arc2</title><g class="a"><path class="b" d="M828.1,1151.9a1246.016,1246.016,0,0,1,251.586,88.479V967.4A1246.077,1246.077,0,0,0,828.1,878.918C538.181,810.577,248.048,849.956-.314,971.057v272.981C248.048,1122.936,538.181,1083.557,828.1,1151.9Z" transform="translate(13 -759.654)"/><image class="c" width="1105" height="168" transform="translate(0 62.346)" xlink:href="arc21.png"/><path class="d" d="M828.1,878.918A1246.077,1246.077,0,0,1,1079.686,967.4V947.04A1264.711,1264.711,0,0,0,666.419,834.215c-237.441-23.2-465.952,20.75-666.733,116.332v20.51C248.048,849.956,538.181,810.577,828.1,878.918Z" transform="translate(13 -759.654)"/><path class="d" d="M666.419,835.215A1264.711,1264.711,0,0,1,1079.686,948.04V874.073a1347.979,1347.979,0,0,0-405.28-104.5C435.359,746.22,204.814,786.785-.314,877.3v74.251C200.466,855.965,428.978,812.015,666.419,835.215Z" transform="translate(13 -759.654)"/><path class="e" d="M666.662,832.727a1276.224,1276.224,0,0,1,280.449,59.664,1260.251,1260.251,0,0,1,132.575,52.928V876.677a1339.281,1339.281,0,0,0-1080,3.267v68.817A1263.217,1263.217,0,0,1,666.662,832.727Z" transform="translate(13 -759.654)"/><path class="f" d="M674.162,771.064a1336.919,1336.919,0,0,1,405.524,105.613v-5.462a1344.25,1344.25,0,0,0-1080,3.264v5.465a1338.651,1338.651,0,0,1,674.476-108.88Z" transform="translate(13 -759.654)"/><path class="e" d="M329.772,861.426c165.824-28.954,333.681-23.887,498.9,15.059a1248.531,1248.531,0,0,1,251.012,88.149v-14.82a1255.641,1255.641,0,0,0-134.161-53.682,1272.518,1272.518,0,0,0-692.944-31.91A1256.892,1256.892,0,0,0-.314,953.3v15q47.151-22.938,96-41.834A1244.54,1244.54,0,0,1,329.772,861.426Z" transform="translate(13 -759.654)"/><path class="f" d="M666.176,836.7a1271.276,1271.276,0,0,1,279.349,59.429,1255.641,1255.641,0,0,1,134.161,53.682V944.3a1260.566,1260.566,0,0,0-132.574-52.906,1277.525,1277.525,0,0,0-695.679-32.036A1261.924,1261.924,0,0,0-.314,947.756V953.3a1258.228,1258.228,0,0,1,666.49-116.6Z" transform="translate(13 -759.654)"/><path class="e" d="M329.6,1133.421c165.958-28.978,333.949-23.907,499.3,15.071a1249.5,1249.5,0,0,1,250.782,88.014V971.286A1242.415,1242.415,0,0,0,827.3,882.325c-164.428-38.76-331.473-43.8-496.494-14.989A1238.538,1238.538,0,0,0,97.847,932.058Q47.956,951.342-.314,974.98v265.186q46.98-22.832,95.638-41.657A1245.549,1245.549,0,0,1,329.6,1133.421Z" transform="translate(13 -759.654)"/><path class="g" d="M-.011,970.7l41.916,253.536a1239.523,1239.523,0,0,1,330.08-94.033l-16.28-270.591A1240.934,1240.934,0,0,0-.011,970.7Z" transform="translate(13 -759.654)"/><path class="g" d="M1079.384,967.329A1245.982,1245.982,0,0,0,827.8,878.85q-52.092-12.28-104.12-19.95l-16.285,270.667q60.1,8.1,120.4,22.263a1248.383,1248.383,0,0,1,211.032,70.016l40.555-245.3Z" transform="translate(13 -759.654)"/><path class="g" d="M355.705,859.609l16.28,270.591a1234.178,1234.178,0,0,1,335.407-.633L723.677,858.9A1234.421,1234.421,0,0,0,355.705,859.609Z" transform="translate(13 -759.654)"/><path class="h" d="M330.8,867.336C495.825,838.522,662.87,843.565,827.3,882.325a1242.415,1242.415,0,0,1,252.388,88.961v-7.769A1249.473,1249.473,0,0,0,828.9,875.512c-165.355-38.978-333.346-44.05-499.3-15.071A1245.474,1245.474,0,0,0,95.324,925.529Q46.744,944.306-.314,967.185v7.8q48.186-23.58,98.161-42.922A1238.538,1238.538,0,0,1,330.8,867.336Z" transform="translate(13 -759.654)"/><path class="f" d="M244.6,846.619l1.043-.249a2.321,2.321,0,0,0,1.744-2.681L241.4,818.512l-7.647,1.819a2,2,0,0,0-1.228.967,2.071,2.071,0,0,0-.23,1.579l.277,1.168-1.367.475-1.582-6.653.732.11a5.645,5.645,0,0,0,.782.043q.6,0,1.456-.063a18.46,18.46,0,0,0,2.892-.423l14.469-3.441a15.9,15.9,0,0,0,3.3-1.113,13.246,13.246,0,0,0,1.508-.805l.609-.453,1.586,6.671-1.433.193-.279-1.168a2.03,2.03,0,0,0-.931-1.3,2.083,2.083,0,0,0-1.142-.355,2.06,2.06,0,0,0-.4.039l-7.626,1.815,5.982,25.154a2.236,2.236,0,0,0,1.053,1.37,2.193,2.193,0,0,0,1.15.33,2.431,2.431,0,0,0,.565-.069l1.044-.247.332,1.4-10.345,2.46Z" transform="translate(13 -759.654)"/><path class="f" d="M266.783,841.369l1.049-.222a2.173,2.173,0,0,0,1.434-.983,2.329,2.329,0,0,0,.363-1.736l-5.016-23.88a2.257,2.257,0,0,0-1.017-1.4,2.19,2.19,0,0,0-1.2-.359,2.5,2.5,0,0,0-.509.054l-1.052.222-.293-1.411,10.406-2.186.3,1.409-1.049.221a2.2,2.2,0,0,0-1.442.968,2.24,2.24,0,0,0-.363,1.706l2.308,10.99,16.633-3.5-2.312-11.007a2.178,2.178,0,0,0-1.535-1.664,2.455,2.455,0,0,0-.674-.094,2.542,2.542,0,0,0-.517.053l-1.047.222-.3-1.41,10.411-2.186.294,1.407-1.047.222a2.169,2.169,0,0,0-1.434.984,2.316,2.316,0,0,0-.362,1.734l5.007,23.838a2.318,2.318,0,0,0,1.026,1.423,2.157,2.157,0,0,0,1.211.377,2.389,2.389,0,0,0,.5-.054l1.051-.22.294,1.409-10.408,2.187-.3-1.408,1.049-.222a2.2,2.2,0,0,0,1.442-.968,2.25,2.25,0,0,0,.363-1.707l-2.236-10.644-16.633,3.494,2.231,10.62a2.131,2.131,0,0,0,1,1.424,2.243,2.243,0,0,0,1.233.377,2.421,2.421,0,0,0,.5-.054l1.049-.22.3,1.409-10.408,2.186Z" transform="translate(13 -759.654)"/><path class="f" d="M302.61,833.973l1.053-.195a2.168,2.168,0,0,0,1.458-.947,2.326,2.326,0,0,0,.407-1.726l-4.459-24.213a2.31,2.31,0,0,0-1-1.253,2.161,2.161,0,0,0-1.178-.346,2.5,2.5,0,0,0-.458.043l-.965.178-.4-1.391,13.221-2.435a17.95,17.95,0,0,0,2.8-.775,11.909,11.909,0,0,0,2.036-.882l.625-.394,1.227,6.668-1.416.263-.234-1.272a2.1,2.1,0,0,0-2.03-1.723,2.4,2.4,0,0,0-.3.021l-8.315,1.533,2.281,12.387,6.822-1.257a1.687,1.687,0,0,0,1.031-.712,1.59,1.59,0,0,0,.246-1.25l-.2-1.1,1.416-.263,1.439,7.821-1.415.26-.211-1.139a1.575,1.575,0,0,0-.654-1.048,1.6,1.6,0,0,0-.956-.311,1.894,1.894,0,0,0-.257.018l-6.84,1.259,2.2,11.956,5.7-1.049a7.061,7.061,0,0,0,4.331-2.154,10.328,10.328,0,0,0,1.929-4.541l.066-.331,1.464-.271-1.39,8.521-18.795,3.461Z" transform="translate(13 -759.654)"/><path class="f" d="M367.252,825.174a15.346,15.346,0,0,1-9.517-3.126c-3.388-2.575-5.448-6.346-6.122-11.212s.281-9.053,2.84-12.454,6.331-5.468,11.211-6.145a21.84,21.84,0,0,1,3.006-.213,18.461,18.461,0,0,1,8.019,1.789l.2.1,1.943,6.794-1.347.187-.147-.359a9.323,9.323,0,0,0-4.442-4.98,10.933,10.933,0,0,0-4.991-1.155,14.1,14.1,0,0,0-1.926.138,11.13,11.13,0,0,0-8.229,5.009c-1.839,2.842-2.474,6.421-1.89,10.637s2.158,7.5,4.676,9.754a10.912,10.912,0,0,0,7.488,2.853,14.272,14.272,0,0,0,1.605-.1,12.171,12.171,0,0,0,7.472-3.633c1.985-2.134,2.94-5.367,2.839-9.61l-.011-.446,1.325-.185.467,7.575-.049.11c-2.108,4.844-6.057,7.7-11.736,8.488A20.655,20.655,0,0,1,367.252,825.174Z" transform="translate(13 -759.654)"/><path class="f" d="M402.055,820.879a15.317,15.317,0,0,1-9.91-3.387,18.037,18.037,0,0,1-2.606-23.749,15.905,15.905,0,0,1,11.2-5.827,21.259,21.259,0,0,1,2.292-.129,15.4,15.4,0,0,1,9.931,3.384,17.971,17.971,0,0,1,2.605,23.75,15.973,15.973,0,0,1-11.224,5.83A21.239,21.239,0,0,1,402.055,820.879Zm.41-30.739a13.655,13.655,0,0,0-1.468.082,10.754,10.754,0,0,0-8.142,4.786c-1.889,2.816-2.611,6.39-2.147,10.623s1.945,7.566,4.4,9.906a10.53,10.53,0,0,0,7.5,2.99h0a13.7,13.7,0,0,0,1.508-.085,10.782,10.782,0,0,0,8.165-4.788c1.888-2.818,2.61-6.392,2.146-10.624a17.794,17.794,0,0,0-2.3-7.283,11.441,11.441,0,0,0-4.709-4.473A11,11,0,0,0,402.465,790.14Z" transform="translate(13 -759.654)"/><path class="f" d="M422.367,816.682l1.2-.1a2.714,2.714,0,0,0,1.76-.773,2.563,2.563,0,0,0,.766-1.772l1.1-28.809,1.2-.1,13.935,24.819,9.639-26.665,1.158-.092,5.67,28.287a2.435,2.435,0,0,0,1.629,1.948,2.845,2.845,0,0,0,1,.175c.087,0,.175,0,.264-.01l1.2-.094.111,1.434-10.514.825-.111-1.392,1.158-.089a1.152,1.152,0,0,0,.866-.5,1.1,1.1,0,0,0,.245-.927l-3.389-20.041-6.96,19.408a16.951,16.951,0,0,0-1.112,4.457l-.029.431-1.189.093-12.376-22.1-.186,19.718a1.1,1.1,0,0,0,.386.894,1.135,1.135,0,0,0,.8.362l1.286-.1.111,1.392-9.508.745Z" transform="translate(13 -759.654)"/><path class="f" d="M467.057,813.371l1.07-.055a2.168,2.168,0,0,0,1.569-.748,2.327,2.327,0,0,0,.629-1.657l-1.242-24.545a2.333,2.333,0,0,0-.835-1.418,2.176,2.176,0,0,0-1.443-.518l-1.118.051-.217-1.43,12.021-.607c.264-.014.524-.021.778-.021a9.5,9.5,0,0,1,6.321,2.065,8.626,8.626,0,0,1,2.907,6.452,8.843,8.843,0,0,1-.645,3.86,8.717,8.717,0,0,1-5.156,4.882,7.393,7.393,0,0,1-2.333.585c-.249.013-.492.02-.731.02a10.322,10.322,0,0,1-4.253-.836l-.278-.125-.071-1.365.614.1a9.478,9.478,0,0,0,1.561.134,7.846,7.846,0,0,0,4-1.076,5.958,5.958,0,0,0,2.86-3.9,5.352,5.352,0,0,0,.164-1.532l-.049-.967a7.264,7.264,0,0,0-1.74-4.5,4.69,4.69,0,0,0-3.627-1.457c-.125,0-.252,0-.381.01l-4.555.231,1.3,25.735a2.321,2.321,0,0,0,.792,1.566,2.155,2.155,0,0,0,1.5.589l1.2-.056.073,1.437-10.622.537Z" transform="translate(13 -759.654)"/><path class="f" d="M486.345,812.316l.9-.026a3.389,3.389,0,0,0,1.859-.677,4.593,4.593,0,0,0,1.486-1.916l9.2-23.941c1.29-3.07,1.465-4.064,1.455-4.384l-.014-.5,1.227-.036,12.786,28.132a4.269,4.269,0,0,0,1.544,1.8,3.42,3.42,0,0,0,1.843.564l.951-.028.042,1.439-10.895.333-.042-1.441.9-.026a1.165,1.165,0,0,0,.978-.431,1.4,1.4,0,0,0,.332-.825,2.881,2.881,0,0,0-.178-.895l-2.9-7.05-11.188.341-2.6,7.29a2.781,2.781,0,0,0-.116.856,1.415,1.415,0,0,0,.38.78,1.136,1.136,0,0,0,.936.373l.964-.028.045,1.439-9.84.3ZM497.472,800.4l9.366-.286-4.943-12.08Z" transform="translate(13 -759.654)"/><path class="f" d="M530.729,813.32a16.316,16.316,0,0,1-4.142-.576,7.72,7.72,0,0,1-3.61-1.932l-.1-.1-.031-.139a13.878,13.878,0,0,1-.164-2.481,12.421,12.421,0,0,1,.653-3.9l.111-.342,1.3-.013-.046.547c-.025.309-.037.616-.034.922a5.838,5.838,0,0,0,1.531,4.117,5.023,5.023,0,0,0,3.9,1.586,5.9,5.9,0,0,0,4.26-1.571,4.992,4.992,0,0,0,1.591-3.851,4.816,4.816,0,0,0-1.586-3.734l-8.513-7.763a7.5,7.5,0,0,1-2.584-5.667,8.041,8.041,0,0,1,2.179-5.708,7.894,7.894,0,0,1,6-2.429h.116a19.508,19.508,0,0,1,3.722.409l2.165-.018.053,6.412-1.4.01,0-.5a3.624,3.624,0,0,0-1.28-2.909,4.932,4.932,0,0,0-3.289-1.083,4.669,4.669,0,0,0-3.468,1.381,4.513,4.513,0,0,0-1.34,3.4,4.578,4.578,0,0,0,1.628,3.491l8.734,7.935a7.668,7.668,0,0,1,2.41,5.892,8.389,8.389,0,0,1-2.337,6.157,8.561,8.561,0,0,1-6.319,2.467Z" transform="translate(13 -759.654)"/><path class="f" d="M552.608,813.327a16.242,16.242,0,0,1-4.241-.649,7.706,7.706,0,0,1-3.577-1.993l-.1-.1-.029-.139a13.8,13.8,0,0,1-.122-2.483,12.369,12.369,0,0,1,.72-3.892l.116-.341,1.307.01-.057.547c-.031.308-.047.615-.05.923a5.836,5.836,0,0,0,1.461,4.14A5.039,5.039,0,0,0,551.967,811h0a5.9,5.9,0,0,0,4.224-1.5,5,5,0,0,0,1.658-3.824,4.823,4.823,0,0,0-1.523-3.76l-8.379-7.908a7.5,7.5,0,0,1-2.487-5.712,8.044,8.044,0,0,1,2.276-5.669,7.869,7.869,0,0,1,5.937-2.327h.1a19.262,19.262,0,0,1,3.832.474l2.165.018-.058,6.414-1.395-.014,0-.5a3.631,3.631,0,0,0-1.231-2.933,4.98,4.98,0,0,0-3.338-1.139h0a4.652,4.652,0,0,0-3.421,1.322,4.51,4.51,0,0,0-1.4,3.371,4.572,4.572,0,0,0,1.568,3.519l8.6,8.084a7.674,7.674,0,0,1,2.308,5.931,8.4,8.4,0,0,1-2.442,6.117,8.522,8.522,0,0,1-6.251,2.359Z" transform="translate(13 -759.654)"/><path class="f" d="M617.459,814.841a9.564,9.564,0,0,1-3.674-.9,9.4,9.4,0,0,1-2.5-1.622A16.026,16.026,0,0,1,609.9,810.8c-.391-.5-1.4-2.05-3.082-4.754-1.644-2.641-2.615-4.169-2.883-4.543s-.552-.736-.85-1.094a3.513,3.513,0,0,0-2.379-1.453l-.5-.024.077-1.506.558.1a7.162,7.162,0,0,0,.857.082q.509.026,1.235.025l.476,0c3.251,0,5.307-1.279,6.286-3.911a5.27,5.27,0,0,0,.315-1.485l.048-.987a7.285,7.285,0,0,0-1.209-4.5,4.631,4.631,0,0,0-3.464-1.924c-.689-.062-1.562-.119-2.608-.172l-2.313-.113L599.2,810.226a2.177,2.177,0,0,0,.588,1.635,2.219,2.219,0,0,0,1.615.748l.98.049.07,1.445-10.673-.526.07-1.439,1.07.054.132,0a2.2,2.2,0,0,0,1.509-.573,2.266,2.266,0,0,0,.784-1.562l1.2-24.37a2.324,2.324,0,0,0-.632-1.638,2.173,2.173,0,0,0-1.569-.746l-1.07-.053.07-1.438,12.364.61a9.162,9.162,0,0,1,6.516,2.687,8.19,8.19,0,0,1,2.136,6.235,9.688,9.688,0,0,1-2.611,6.319,7.365,7.365,0,0,1-4.406,2.407q.236.23.49.51a16.454,16.454,0,0,1,1.56,2.008c2.321,3.7,3.854,6,4.561,6.857s1.221,1.455,1.519,1.767a12.394,12.394,0,0,0,.972.917,5.429,5.429,0,0,0,1.014.7,5.732,5.732,0,0,0,2.488.694l.5.024-.071,1.439Z" transform="translate(13 -759.654)"/><path class="f" d="M623.983,815.147l.105-1.435,1.068.077c.064,0,.127.007.189.007a2.157,2.157,0,0,0,1.46-.556,2.334,2.334,0,0,0,.828-1.569l1.786-24.554a2.294,2.294,0,0,0-.657-1.465,2.2,2.2,0,0,0-1.508-.706l-.976-.071-.041-1.448,13.41.976c.353.025.72.039,1.1.039.567,0,1.172-.029,1.8-.086a11.723,11.723,0,0,0,2.191-.341l.7-.223-.491,6.764-1.437-.105.094-1.287a2.1,2.1,0,0,0-1.829-2.237l-8.431-.612-.914,12.563,6.917.5a1.719,1.719,0,0,0,1.178-.428,1.6,1.6,0,0,0,.553-1.15l.082-1.113,1.436.106-.576,7.929-1.438-.1.084-1.159a1.572,1.572,0,0,0-.368-1.177,1.628,1.628,0,0,0-1.1-.59l-6.935-.5-.882,12.124,5.776.42c.315.023.62.035.913.035a6.384,6.384,0,0,0,3.82-1.028,10.329,10.329,0,0,0,3.012-3.908l.148-.306,1.482.112-3.491,7.894Z" transform="translate(13 -759.654)"/><path class="f" d="M656.128,817.847l.132-1.432,1.066.1c.081.008.162.012.241.012a2.18,2.18,0,0,0,1.422-.514,2.2,2.2,0,0,0,.844-1.482l2.346-25.774-7.827-.712-.1,0a1.993,1.993,0,0,0-1.375.528,2.071,2.071,0,0,0-.722,1.422l-.108,1.2-1.447.013.618-6.807.658.335a11.916,11.916,0,0,0,2.129.693,18.5,18.5,0,0,0,2.877.522L671.7,787.29c.691.062,1.334.094,1.911.094a11.878,11.878,0,0,0,1.577-.1,13.4,13.4,0,0,0,1.686-.284l.72-.232-.62,6.825-1.422-.274.109-1.2a2.176,2.176,0,0,0-1.828-2.316l-7.8-.71-2.343,25.75a2.316,2.316,0,0,0,2.1,2.429l1.068.1-.131,1.434Z" transform="translate(13 -759.654)"/><path class="f" d="M696.113,822.506a17.09,17.09,0,0,1-2.024-.125,12.88,12.88,0,0,1-8.665-4.339,11.355,11.355,0,0,1-2.472-9.017l2.058-17.214a1.554,1.554,0,0,0-.7-1.589,2.138,2.138,0,0,0-.92-.317l-1.2-.142.17-1.429,9.863,1.178-.17,1.429-1.2-.143a2.58,2.58,0,0,0-.287-.017,1.768,1.768,0,0,0-1.053.327,1.6,1.6,0,0,0-.674,1.1l-1.992,16.667a10.916,10.916,0,0,0,1.553,7.653,8.142,8.142,0,0,0,6.134,3.53,11.708,11.708,0,0,0,1.379.084,8.485,8.485,0,0,0,5.523-1.918,9.7,9.7,0,0,0,3.355-6.63l2.063-17.255a1.585,1.585,0,0,0-.4-1.2,1.861,1.861,0,0,0-1.23-.616l-1.195-.141.17-1.43,9.077,1.084-.173,1.43-1.194-.143a2.36,2.36,0,0,0-.262-.016,1.832,1.832,0,0,0-1.062.332,1.521,1.521,0,0,0-.685,1.048l-2.065,17.277a11.613,11.613,0,0,1-4.412,8.209A11.766,11.766,0,0,1,696.113,822.506Z" transform="translate(13 -759.654)"/><path class="f" d="M739.721,827.983a9.535,9.535,0,0,1-3.57-1.249,9.219,9.219,0,0,1-2.339-1.854,16.459,16.459,0,0,1-1.228-1.646c-.343-.533-1.2-2.178-2.614-5.027-1.724-3.467-2.276-4.523-2.438-4.8q-.345-.59-.739-1.169a3.52,3.52,0,0,0-2.23-1.673l-.5-.072.217-1.492.547.152a7.6,7.6,0,0,0,.848.164q.552.081,1.372.155a11.2,11.2,0,0,0,1.361.087,5.677,5.677,0,0,0,5.6-3.345,5.236,5.236,0,0,0,.454-1.448l.143-.98a7.283,7.283,0,0,0-.774-4.6,4.624,4.624,0,0,0-3.263-2.244c-.682-.128-1.543-.27-2.581-.42l-2.291-.334-3.71,25.455a2.166,2.166,0,0,0,.427,1.684,2.226,2.226,0,0,0,1.536.9l.971.142-.067,1.445-10.575-1.542.207-1.426,1.061.156a2.587,2.587,0,0,0,.368.028,2.188,2.188,0,0,0,1.319-.44,2.255,2.255,0,0,0,.929-1.478l3.52-24.146a2.318,2.318,0,0,0-.473-1.689,2.167,2.167,0,0,0-1.491-.892l-1.061-.156.207-1.425,12.251,1.786a9.174,9.174,0,0,1,6.23,3.3,8.194,8.194,0,0,1,1.531,6.411,9.689,9.689,0,0,1-3.2,6.041,7.367,7.367,0,0,1-4.617,1.976c.141.168.288.353.439.554a16.341,16.341,0,0,1,1.362,2.149c1.961,3.9,3.267,6.346,3.886,7.26s1.079,1.569,1.343,1.9a12.1,12.1,0,0,0,.88,1,5.487,5.487,0,0,0,.945.792,5.717,5.717,0,0,0,2.408.926l.5.072-.208,1.425Z" transform="translate(13 -759.654)"/><path class="f" d="M775.055,834.637,756.416,806.16,752.862,826.5a2.054,2.054,0,0,0,.774,2.017,2.13,2.13,0,0,0,1.01.468l1.315.228-.249,1.418L745.8,828.9l.249-1.419,1.316.232a2.424,2.424,0,0,0,.411.037,2.1,2.1,0,0,0,1.216-.391,2.068,2.068,0,0,0,.9-1.422l3.931-22.5a33.173,33.173,0,0,0,.514-4.7l.064-1.283,1.205.209,18.638,28.476,3.539-20.251a2.2,2.2,0,0,0-.406-1.649,2.118,2.118,0,0,0-1.412-.887l-1.317-.229.249-1.418,9.914,1.732-.249,1.419-1.272-.224a2.412,2.412,0,0,0-.411-.036,2.111,2.111,0,0,0-1.219.39,2.17,2.17,0,0,0-.938,1.391l-3.9,22.345a36.06,36.06,0,0,0-.523,4.754l-.086,1.363Z" transform="translate(13 -759.654)"/><path class="f" d="M784.011,835.72l.284-1.412,1.051.212a2.46,2.46,0,0,0,.477.049,2.158,2.158,0,0,0,1.227-.387,2.336,2.336,0,0,0,1.019-1.451l4.853-24.138a2.3,2.3,0,0,0-.469-1.536,2.2,2.2,0,0,0-1.406-.888l-.961-.2.144-1.437,13.179,2.649a17.906,17.906,0,0,0,2.883.318q.492.017.9.017a7.867,7.867,0,0,0,1.318-.081l.727-.134-1.337,6.65-1.411-.282.253-1.267a2.1,2.1,0,0,0-1.533-2.448l-8.288-1.666-2.483,12.349,6.8,1.367a1.893,1.893,0,0,0,.265.018,1.676,1.676,0,0,0,.955-.3,1.6,1.6,0,0,0,.7-1.071l.219-1.094,1.412.284-1.568,7.8-1.411-.281.228-1.139a1.583,1.583,0,0,0-.218-1.217,1.63,1.63,0,0,0-1.017-.721l-6.818-1.37-2.4,11.917,5.679,1.141a10.713,10.713,0,0,0,2.106.229,5.568,5.568,0,0,0,2.714-.619,10.311,10.311,0,0,0,3.477-3.5l.185-.285,1.458.3-4.453,7.394Z" transform="translate(13 -759.654)"/><path class="f" d="M828.384,844.639a20.271,20.271,0,0,1-4.443-.522l-15.036-3.4.317-1.4,1.045.233a2.35,2.35,0,0,0,.53.063,2.167,2.167,0,0,0,1.184-.358,2.332,2.332,0,0,0,1.051-1.427l5.432-24.015a1.757,1.757,0,0,0-.355-1.515,2.442,2.442,0,0,0-1.461-.954l-.955-.216.175-1.437,15.088,3.413a16.26,16.26,0,0,1,10.509,6.874,16.9,16.9,0,0,1-5.079,22.459A15.135,15.135,0,0,1,828.384,844.639Zm-3.931-2.784a13.182,13.182,0,0,0,2.893.336,10.978,10.978,0,0,0,3.6-.6,11.3,11.3,0,0,0,5.157-3.7,16.145,16.145,0,0,0,3.052-6.641c.9-3.977.54-7.464-1.068-10.366a11.111,11.111,0,0,0-7.637-5.526l-7.967-1.8-5.992,26.492Z" transform="translate(13 -759.654)"/><path class="i" d="M255.066,812.577l1.282,5.394-.438.059-.173-.729a2.534,2.534,0,0,0-1.15-1.6,2.6,2.6,0,0,0-1.411-.433,2.564,2.564,0,0,0-.489.048l-8.134,1.935,6.1,25.64a2.749,2.749,0,0,0,1.283,1.685,2.706,2.706,0,0,0,1.406.4,2.95,2.95,0,0,0,.682-.083l.556-.132.1.428-9.374,2.23-.1-.428.557-.133a2.821,2.821,0,0,0,2.119-3.263l-6.108-25.683-8.133,1.934a2.514,2.514,0,0,0-1.546,1.2,2.573,2.573,0,0,0-.283,1.945l.173.727-.418.146-1.284-5.395a5.953,5.953,0,0,0,.856.049q.612,0,1.493-.064a18.758,18.758,0,0,0,2.972-.436l14.469-3.44a16.279,16.279,0,0,0,3.412-1.152,14.726,14.726,0,0,0,1.584-.851m.621-1.71-1.218.907a13.86,13.86,0,0,1-1.431.758,15.392,15.392,0,0,1-3.2,1.075l-14.469,3.44a17.792,17.792,0,0,1-2.813.411c-.562.041-1.039.062-1.42.062a4.836,4.836,0,0,1-.707-.038l-1.464-.219.343,1.44,1.283,5.394.256,1.077,1.045-.364.418-.145.853-.3-.208-.879-.173-.727a1.57,1.57,0,0,1,.177-1.215,1.511,1.511,0,0,1,.95-.74l7.12-1.693,5.877,24.711a1.688,1.688,0,0,1-.269,1.272,1.705,1.705,0,0,1-1.107.786l-.559.133-.974.233.234.973.1.427.233.971.971-.231,9.374-2.229.973-.231-.231-.973-.1-.428-.23-.972-.973.23-.557.132a1.959,1.959,0,0,1-.451.056,1.709,1.709,0,0,1-.894-.259,1.748,1.748,0,0,1-.832-1.094l-5.857-24.631,7.161-1.7a1.585,1.585,0,0,1,.258-.021,1.606,1.606,0,0,1,.875.277,1.53,1.53,0,0,1,.712.989l.175.73.209.879.9-.12.438-.059,1.1-.147-.255-1.075-1.283-5.395-.351-1.478Z" transform="translate(13 -759.654)"/><path class="i" d="M290.976,805.774l.09.43-.56.118a2.669,2.669,0,0,0-1.749,1.2,2.828,2.828,0,0,0-.436,2.093l5.01,23.855a2.834,2.834,0,0,0,1.242,1.74,2.673,2.673,0,0,0,1.484.458,2.9,2.9,0,0,0,.6-.065l.56-.117.09.431-9.43,1.981-.091-.431.561-.118a2.7,2.7,0,0,0,1.753-1.178,2.753,2.753,0,0,0,.441-2.07L288.2,822.948l-17.611,3.7,2.334,11.109a2.631,2.631,0,0,0,1.221,1.745,2.75,2.75,0,0,0,1.5.454,2.929,2.929,0,0,0,.6-.065l.56-.117.091.431-9.43,1.98-.091-.43.56-.118a2.668,2.668,0,0,0,1.749-1.2,2.835,2.835,0,0,0,.437-2.093l-5.02-23.9a2.761,2.761,0,0,0-1.239-1.719,2.7,2.7,0,0,0-1.466-.438,2.952,2.952,0,0,0-.612.066l-.56.118-.09-.431,9.43-1.981.09.431-.559.118a2.7,2.7,0,0,0-1.754,1.178,2.745,2.745,0,0,0-.441,2.07l2.415,11.5,17.611-3.7-2.415-11.5a2.67,2.67,0,0,0-1.866-2.036,2.944,2.944,0,0,0-.832-.121,3.018,3.018,0,0,0-.618.065l-.56.118-.091-.431,9.431-1.98m.774-1.185-.98.206-9.43,1.981-.98.206.207.979.09.431.207.978.978-.206.56-.119a2.067,2.067,0,0,1,.412-.043,1.94,1.94,0,0,1,.551.081,1.661,1.661,0,0,1,1.174,1.309l2.2,10.49-15.654,3.289-2.21-10.519a1.719,1.719,0,0,1,.293-1.306,1.7,1.7,0,0,1,1.128-.757l.562-.119.978-.206-.206-.979-.091-.43-.206-.978-.978.206-9.43,1.98-.977.205.2.977.09.432.2.981.981-.206.56-.118a1.941,1.941,0,0,1,.406-.045,1.707,1.707,0,0,1,.932.283,1.752,1.752,0,0,1,.8,1.117l5.012,23.861a1.811,1.811,0,0,1-.3,1.341,1.674,1.674,0,0,1-1.117.767l-.56.118-.979.206.207.979.09.43.207.977.978-.205,9.429-1.981.98-.205-.207-.98-.091-.431-.206-.977-.977.2-.56.117a1.934,1.934,0,0,1-.4.044,1.76,1.76,0,0,1-.963-.3,1.634,1.634,0,0,1-.779-1.105l-2.129-10.132,15.654-3.288,2.138,10.174a1.735,1.735,0,0,1-.293,1.307,1.7,1.7,0,0,1-1.128.756l-.562.119-.979.206.207.979.091.431.206.977.978-.205,9.429-1.982.978-.205-.2-.978-.09-.43-.205-.98-.979.2-.56.117a1.911,1.911,0,0,1-.395.044,1.683,1.683,0,0,1-.937-.3,1.828,1.828,0,0,1-.819-1.146l-5-23.818a1.8,1.8,0,0,1,.3-1.341,1.678,1.678,0,0,1,1.118-.767l.56-.118.977-.206-.2-.977-.09-.43-.2-.98Z" transform="translate(13 -759.654)"/><path class="i" d="M315.379,800.454l1,5.451-.433.08-.143-.779a2.6,2.6,0,0,0-2.522-2.133,2.767,2.767,0,0,0-.371.026l-8.828,1.626,2.462,13.371,7.314-1.346a2.2,2.2,0,0,0,1.351-.92,2.09,2.09,0,0,0,.327-1.626l-.111-.606.433-.08,1.258,6.837-.432.079-.12-.648a2.074,2.074,0,0,0-.855-1.364,2.1,2.1,0,0,0-1.247-.4,2.366,2.366,0,0,0-.322.022l-7.357,1.354,2.383,12.939,6.188-1.139a7.512,7.512,0,0,0,4.627-2.329,10.75,10.75,0,0,0,2.032-4.759l.432-.08-1.218,7.473-17.958,3.306-.08-.431.562-.105a2.664,2.664,0,0,0,1.778-1.155,2.827,2.827,0,0,0,.49-2.08L301.561,806.8a2.829,2.829,0,0,0-1.232-1.586,2.667,2.667,0,0,0-1.443-.422,3.066,3.066,0,0,0-.549.051l-.519.1-.123-.426,12.678-2.334a18.323,18.323,0,0,0,2.873-.8,12.189,12.189,0,0,0,2.133-.929m.716-1.633-1.249.786a10.87,10.87,0,0,1-1.938.835,17.559,17.559,0,0,1-2.715.755l-12.68,2.334-1.086.2.307,1.061.123.426.251.869.891-.164.519-.1a1.988,1.988,0,0,1,.368-.035,1.669,1.669,0,0,1,.912.27,1.816,1.816,0,0,1,.792.986l4.449,24.166a1.8,1.8,0,0,1-.328,1.33,1.669,1.669,0,0,1-1.137.741l-.564.1-.983.183.182.983.08.432.182.982.983-.181,17.958-3.307.692-.127.113-.7,1.219-7.473.229-1.4-1.4.259-.432.08-.665.123-.134.663a9.829,9.829,0,0,1-1.825,4.322,6.6,6.6,0,0,1-4.035,1.98l-5.2.957-2.02-10.972,6.345-1.168a1.644,1.644,0,0,1,.169-.01,1.1,1.1,0,0,1,.665.217,1.074,1.074,0,0,1,.453.73l.12.651.182.981.981-.179.433-.079.985-.18-.181-.985-1.259-6.837-.181-.984-.985.182-.432.08-.982.182.181.982.111.605a1.094,1.094,0,0,1-.167.878,1.206,1.206,0,0,1-.758.514l-6.282,1.156-2.1-11.4,7.844-1.444c.036,0,.113-.01.19-.01a1.525,1.525,0,0,1,.9.305,1.5,1.5,0,0,1,.635,1.008l.144.78.181.984.985-.182.432-.08.983-.182-.182-.982-1-5.451-.268-1.452Z" transform="translate(13 -759.654)"/><path class="i" d="M368.67,792.524a17.886,17.886,0,0,1,7.8,1.74l1.723,6.024-.392.054a9.757,9.757,0,0,0-4.68-5.236,11.364,11.364,0,0,0-5.216-1.208,14.475,14.475,0,0,0-2,.142,11.56,11.56,0,0,0-8.58,5.232q-2.873,4.441-1.965,10.978t4.837,10.057a11.351,11.351,0,0,0,7.822,2.98,14.574,14.574,0,0,0,1.662-.1,12.616,12.616,0,0,0,7.781-3.789q3.132-3.366,2.973-9.963l.348-.049.426,6.916q-3.066,7.044-11.347,8.192a20.074,20.074,0,0,1-2.618.177,14.794,14.794,0,0,1-9.215-3.023q-4.941-3.756-5.928-10.883t2.744-12.085q3.73-4.957,10.88-5.951a21.308,21.308,0,0,1,2.937-.208m0-1a22.516,22.516,0,0,0-3.075.217c-5.016.7-8.9,2.83-11.541,6.341s-3.63,7.824-2.936,12.824,2.817,8.883,6.314,11.541a15.845,15.845,0,0,0,9.82,3.227,21.022,21.022,0,0,0,2.749-.186c5.87-.814,9.95-3.769,12.133-8.784l.1-.22-.015-.24-.426-6.916-.066-1.079-1.07.15-.349.049-.882.123.021.891c.1,4.108-.812,7.223-2.7,9.258a11.693,11.693,0,0,1-7.187,3.479,13.439,13.439,0,0,1-1.524.088,10.292,10.292,0,0,1-7.155-2.725c-2.427-2.173-3.946-5.352-4.513-9.45s.043-7.558,1.814-10.3a10.517,10.517,0,0,1,7.877-4.785,13.593,13.593,0,0,1,1.858-.132,10.428,10.428,0,0,1,4.764,1.1,8.721,8.721,0,0,1,4.207,4.723l.294.719.769-.107.393-.055,1.14-.159-.317-1.106-1.724-6.024-.124-.433-.406-.194a18.944,18.944,0,0,0-8.234-1.838Z" transform="translate(13 -759.654)"/><path class="i" d="M403.035,788.287a14.851,14.851,0,0,1,9.618,3.274q4.855,3.915,5.637,11.045t-3.109,12a15.429,15.429,0,0,1-10.889,5.643,20.5,20.5,0,0,1-2.237.126,14.768,14.768,0,0,1-9.6-3.276q-4.833-3.918-5.616-11.048t3.088-12a15.357,15.357,0,0,1,10.867-5.64,20.5,20.5,0,0,1,2.237-.126m-.429,30.739a14.227,14.227,0,0,0,1.564-.087,11.211,11.211,0,0,0,8.525-5.007q2.946-4.4,2.228-10.957a18.207,18.207,0,0,0-2.371-7.486,11.88,11.88,0,0,0-4.915-4.662,11.44,11.44,0,0,0-5.171-1.187,13.881,13.881,0,0,0-1.523.085,11.182,11.182,0,0,0-8.5,5q-2.949,4.4-2.229,10.956t4.551,10.213a10.968,10.968,0,0,0,7.844,3.127m.43-31.739h0a21.484,21.484,0,0,0-2.347.132,16.386,16.386,0,0,0-11.541,6.012,18.535,18.535,0,0,0,2.681,24.449,15.809,15.809,0,0,0,10.226,3.5,21.76,21.76,0,0,0,2.347-.131,16.46,16.46,0,0,0,11.561-6.015,18.469,18.469,0,0,0-2.683-24.45,15.884,15.884,0,0,0-10.244-3.5Zm-.43,30.739a9.916,9.916,0,0,1-7.154-2.851c-2.367-2.256-3.8-5.486-4.247-9.6s.244-7.575,2.065-10.29a10.144,10.144,0,0,1,7.781-4.568,13.171,13.171,0,0,1,1.415-.079,10.515,10.515,0,0,1,4.726,1.082A10.961,10.961,0,0,1,411.7,796a17.327,17.327,0,0,1,2.234,7.08c.451,4.113-.244,7.575-2.065,10.292a10.173,10.173,0,0,1-7.8,4.569,13.469,13.469,0,0,1-1.455.081Z" transform="translate(13 -759.654)"/><path class="i" d="M452.723,783.731l5.583,27.853a2.926,2.926,0,0,0,1.947,2.319,3.312,3.312,0,0,0,1.169.2c.1,0,.2,0,.3-.012l.7-.054.034.437-9.518.747-.032-.395.659-.051a1.647,1.647,0,0,0,1.225-.692,1.6,1.6,0,0,0,.337-1.329l-3.7-21.909-7.606,21.207a17.376,17.376,0,0,0-1.14,4.592l-.439.034-13.138-23.464-.2,21.6a1.589,1.589,0,0,0,.54,1.26,1.624,1.624,0,0,0,1.149.5c.042,0,.083,0,.125,0l.7-.056.031.395-8.509.667-.034-.438.7-.055a3.237,3.237,0,0,0,2.069-.914,3.066,3.066,0,0,0,.916-2.1l1.085-28.375.438-.035,14.314,25.491,9.9-27.39.4-.031m.806-1.067-.885.07-.395.031-.642.051-.219.606-9.158,25.335-13.243-23.586-.314-.558-.639.051-.438.035-.885.071-.035.888-1.084,28.375a2.074,2.074,0,0,1-.613,1.422,2.244,2.244,0,0,1-1.45.633l-.7.056-1,.079.077,1,.035.438.078,1,1-.078,8.51-.667,1-.078-.078-1-.032-.395-.079-1-1,.079-.7.056h-.014a.64.64,0,0,1-.488-.22.6.6,0,0,1-.234-.492l.169-17.876,11.3,20.184.312.558.638-.05.438-.034.862-.067.058-.863a16.548,16.548,0,0,1,1.082-4.314l6.318-17.617,3.067,18.141a.621.621,0,0,1-.149.56.644.644,0,0,1-.506.3l-.657.051-1,.077.078,1,.032.4.079,1,1-.078,9.518-.747,1-.078-.078-1-.034-.438-.078-1-1,.078-.7.054q-.114.009-.225.009a2.293,2.293,0,0,1-.819-.142,1.929,1.929,0,0,1-1.318-1.584L453.7,783.534l-.174-.87Z" transform="translate(13 -759.654)"/><path class="i" d="M478.269,782.923a8.967,8.967,0,0,1,6,1.947,8.117,8.117,0,0,1,2.731,6.1,8.316,8.316,0,0,1-.608,3.645,8.2,8.2,0,0,1-4.878,4.607,6.926,6.926,0,0,1-2.175.551q-.358.018-.7.018a9.783,9.783,0,0,1-4.048-.791l-.022-.439a10.044,10.044,0,0,0,1.643.14,8.309,8.309,0,0,0,4.253-1.143,6.484,6.484,0,0,0,3.092-4.21,5.812,5.812,0,0,0,.179-1.683c-.027-.528-.043-.849-.049-.966a7.719,7.719,0,0,0-1.874-4.818,5.207,5.207,0,0,0-3.993-1.616c-.133,0-.268,0-.406.01l-5.053.256,1.327,26.234a2.834,2.834,0,0,0,.956,1.912,2.66,2.66,0,0,0,1.84.718c.052,0,.1,0,.157,0l.571-.028.023.439-9.624.487-.023-.44.572-.029a2.666,2.666,0,0,0,1.914-.912,2.83,2.83,0,0,0,.758-2l-1.243-24.565a2.861,2.861,0,0,0-1.014-1.777,2.692,2.692,0,0,0-1.763-.633c-.054,0-.109,0-.164,0l-.528.026-.066-.437,11.47-.58q.382-.02.752-.02m0-1h0c-.262,0-.531.007-.8.021l-11.469.58-1.105.056.166,1.093.067.437.135.892.9-.043.528-.026.116,0a1.676,1.676,0,0,1,1.125.4,1.834,1.834,0,0,1,.657,1.122l1.24,24.5a1.806,1.806,0,0,1-.5,1.277,1.663,1.663,0,0,1-1.222.584l-.573.03-1,.051.052,1,.022.439.051,1,1-.051,9.624-.486,1-.05-.052-1-.022-.439-.051-1-1,.049-.571.029-.108,0a1.662,1.662,0,0,1-1.17-.459,1.834,1.834,0,0,1-.63-1.261l-.545-10.782.042.019a10.817,10.817,0,0,0,4.458.879q.372,0,.755-.019a7.822,7.822,0,0,0,2.5-.622,9.2,9.2,0,0,0,5.432-5.16,9.345,9.345,0,0,0,.68-4.07,9.108,9.108,0,0,0-3.084-6.808,9.978,9.978,0,0,0-6.644-2.184Zm-4.866,3.551,4.055-.205c.12-.006.238-.009.355-.009a4.215,4.215,0,0,1,3.262,1.3,6.793,6.793,0,0,1,1.608,4.215l.007.147.04.79a4.84,4.84,0,0,1-.151,1.394,5.475,5.475,0,0,1-2.619,3.583,7.273,7.273,0,0,1-3.755,1.009,9.035,9.035,0,0,1-1.479-.126l-.717-.12-.606-11.976Z" transform="translate(13 -759.654)"/><path class="i" d="M502.142,781.344l12.648,27.83a4.755,4.755,0,0,0,1.735,2.016,3.938,3.938,0,0,0,2.107.639l.113,0,.353-.011.013.439-9.9.3-.013-.44.4-.012a1.646,1.646,0,0,0,1.367-.636,1.862,1.862,0,0,0,.428-1.135,3.366,3.366,0,0,0-.208-1.051l-3.044-7.39-11.874.362-2.717,7.612a3.312,3.312,0,0,0-.145,1.039,1.849,1.849,0,0,0,.5,1.085,1.614,1.614,0,0,0,1.32.553h.084l.395-.012.014.439-8.84.27-.013-.44.395-.011a3.87,3.87,0,0,0,2.134-.77,5.051,5.051,0,0,0,1.652-2.119l9.216-23.965a16.089,16.089,0,0,0,1.488-4.58l.4-.012m-5.388,19.577,10.819-.331-5.71-13.955-5.109,14.286m6.023-20.6-.665.02-.4.012-1,.029.03,1c0,.177-.081,1-1.411,4.163l-9.217,23.967a4.083,4.083,0,0,1-1.309,1.689,2.851,2.851,0,0,1-1.586.585l-.393.012-1,.03.031,1,.014.439.031,1,1-.031,8.839-.269,1-.031-.031-1-.014-.439-.031-1-1,.029-.4.012h-.054c-.392,0-.5-.134-.55-.191a1.019,1.019,0,0,1-.266-.479,2.294,2.294,0,0,1,.1-.7l2.478-6.943,10.5-.32,2.78,6.75a2.3,2.3,0,0,1,.133.7.916.916,0,0,1-.236.515c-.046.064-.155.213-.589.227l-.395.011-1,.03.029,1,.013.44.028,1,1-.03,9.895-.3,1-.03-.029-1-.013-.44-.028-1-1,.03-.353.011-.083,0a2.936,2.936,0,0,1-1.579-.488,3.745,3.745,0,0,1-1.364-1.606l-12.637-27.8-.275-.606Zm-4.587,19.552,3.736-10.448,4.176,10.206-7.912.242Z" transform="translate(13 -759.654)"/><path class="i" d="M531.558,780.781a19.014,19.014,0,0,1,3.677.409l1.715-.014.045,5.411-.4,0a4.133,4.133,0,0,0-1.457-3.287,5.394,5.394,0,0,0-3.611-1.2h-.074a5.15,5.15,0,0,0-3.749,1.527,5.031,5.031,0,0,0-1.486,3.752,5.1,5.1,0,0,0,1.792,3.858l8.734,7.935a7.158,7.158,0,0,1,2.246,5.526,7.876,7.876,0,0,1-2.2,5.8,8.043,8.043,0,0,1-5.965,2.316h-.1a15.732,15.732,0,0,1-4.014-.56,7.182,7.182,0,0,1-3.381-1.8,13.657,13.657,0,0,1-.152-2.375,11.843,11.843,0,0,1,.629-3.745l.4,0c-.027.325-.039.647-.036.969a6.365,6.365,0,0,0,1.665,4.452,5.544,5.544,0,0,0,4.261,1.747h.066a6.385,6.385,0,0,0,4.54-1.71,5.512,5.512,0,0,0,1.746-4.216,5.334,5.334,0,0,0-1.75-4.1l-8.512-7.762a6.985,6.985,0,0,1-2.421-5.3,7.52,7.52,0,0,1,2.046-5.364,7.384,7.384,0,0,1,5.634-2.269h.112m0-1h-.12a8.376,8.376,0,0,0-6.361,2.591,8.52,8.52,0,0,0-2.311,6.05,7.982,7.982,0,0,0,2.748,6.034l8.512,7.761a4.344,4.344,0,0,1,1.423,3.369,4.515,4.515,0,0,1-1.436,3.485,5.378,5.378,0,0,1-3.858,1.433H530.1a4.548,4.548,0,0,1-3.528-1.427,5.357,5.357,0,0,1-1.4-3.78c0-.294.008-.588.033-.877l.092-1.094-1.1.01-.4,0-.72.008-.221.684a12.866,12.866,0,0,0-.678,4.062,13.975,13.975,0,0,0,.177,2.585l.062.278.2.2a8.2,8.2,0,0,0,3.839,2.065,16.821,16.821,0,0,0,4.27.593h.113a9.036,9.036,0,0,0,6.673-2.618,8.875,8.875,0,0,0,2.479-6.511,8.149,8.149,0,0,0-2.575-6.258l-8.733-7.934a4.1,4.1,0,0,1-1.464-3.125,4.038,4.038,0,0,1,1.194-3.038,4.145,4.145,0,0,1,3.049-1.234h.066a4.386,4.386,0,0,1,2.964.964,3.147,3.147,0,0,1,1.1,2.532l.008,1,1-.008.4,0,1-.007-.009-1-.045-5.411-.008-1-1,.007-1.615.013a19.982,19.982,0,0,0-3.77-.408Z" transform="translate(13 -759.654)"/><path class="i" d="M553.675,780.8h.1a18.759,18.759,0,0,1,3.78.474l1.716.015-.048,5.412-.4,0a4.142,4.142,0,0,0-1.4-3.313,5.435,5.435,0,0,0-3.663-1.263H553.7a5.135,5.135,0,0,0-3.713,1.463,5.029,5.029,0,0,0-1.551,3.727,5.1,5.1,0,0,0,1.725,3.888l8.6,8.083a7.163,7.163,0,0,1,2.151,5.563,7.882,7.882,0,0,1-2.295,5.767,8.009,8.009,0,0,1-5.9,2.213h-.105a15.672,15.672,0,0,1-4.109-.63,7.182,7.182,0,0,1-3.349-1.856,13.539,13.539,0,0,1-.112-2.377,11.829,11.829,0,0,1,.693-3.734l.4,0c-.033.324-.05.646-.053.969a6.369,6.369,0,0,0,1.589,4.479,5.558,5.558,0,0,0,4.3,1.82h.082a6.362,6.362,0,0,0,4.486-1.631,5.519,5.519,0,0,0,1.82-4.187,5.347,5.347,0,0,0-1.68-4.129l-8.379-7.906a6.994,6.994,0,0,1-2.33-5.345,7.528,7.528,0,0,1,2.138-5.327,7.354,7.354,0,0,1,5.575-2.173m0-1a8.349,8.349,0,0,0-6.3,2.482,8.533,8.533,0,0,0-2.415,6.01,7.985,7.985,0,0,0,2.645,6.081l8.378,7.906a4.347,4.347,0,0,1,1.366,3.392,4.517,4.517,0,0,1-1.5,3.46,5.353,5.353,0,0,1-3.809,1.367h-.073a4.565,4.565,0,0,1-3.56-1.487,5.361,5.361,0,0,1-1.334-3.8c0-.3.018-.59.048-.876l.112-1.094-1.1-.008-.4,0-.72,0-.233.681a12.894,12.894,0,0,0-.747,4.05,13.876,13.876,0,0,0,.132,2.588l.058.278.2.206a8.193,8.193,0,0,0,3.8,2.131,16.763,16.763,0,0,0,4.371.668h.115a9.007,9.007,0,0,0,6.6-2.5,8.886,8.886,0,0,0,2.59-6.467,8.158,8.158,0,0,0-2.467-6.3l-8.6-8.082a4.1,4.1,0,0,1-1.41-3.15,4.035,4.035,0,0,1,1.246-3.017,4.134,4.134,0,0,1,3.018-1.182h.052a4.43,4.43,0,0,1,3.013,1.016,3.153,3.153,0,0,1,1.06,2.551l-.008,1,1,.01.395,0,1,.009.009-1,.048-5.412.009-1-1-.008-1.613-.014a19.736,19.736,0,0,0-3.883-.475Z" transform="translate(13 -759.654)"/><path class="i" d="M593.818,782.339l11.865.585a8.651,8.651,0,0,1,6.175,2.529,7.68,7.68,0,0,1,2,5.87,9.167,9.167,0,0,1-2.477,6,6.718,6.718,0,0,1-5.055,2.319c-.122,0-.244,0-.367-.01a6.042,6.042,0,0,1,1.5,1.286,15.976,15.976,0,0,1,1.512,1.947q3.513,5.592,4.594,6.9t1.542,1.794a12.71,12.71,0,0,0,1.01.953,5.932,5.932,0,0,0,1.108.759,6.182,6.182,0,0,0,2.694.75l-.021.439-2.417-.119a9.011,9.011,0,0,1-3.483-.853,8.875,8.875,0,0,1-2.369-1.528,15.6,15.6,0,0,1-1.338-1.475q-.559-.711-3.05-4.71t-2.9-4.57q-.413-.57-.87-1.121a3.966,3.966,0,0,0-2.739-1.633l.022-.44a7.568,7.568,0,0,0,.92.089q.519.026,1.258.026h.151l.327,0q5.178,0,6.753-4.237a5.722,5.722,0,0,0,.346-1.635c.024-.511.041-.841.048-.988a7.741,7.741,0,0,0-1.3-4.822,5.15,5.15,0,0,0-3.816-2.127q-1.052-.095-2.635-.174l-2.813-.138L598.7,810.2a2.673,2.673,0,0,0,.717,2,2.72,2.72,0,0,0,1.96.911l.528.026.021.443L592.3,813.1l.021-.439.572.028c.052,0,.105,0,.156,0a2.7,2.7,0,0,0,1.839-.7,2.761,2.761,0,0,0,.952-1.893l1.2-24.39a2.835,2.835,0,0,0-.761-2,2.669,2.669,0,0,0-1.915-.909l-.571-.028.022-.44m-.95-1.047-.049,1-.022.439-.049,1,1,.049.571.029a1.67,1.67,0,0,1,1.224.582,1.828,1.828,0,0,1,.5,1.316l-1.2,24.351a1.736,1.736,0,0,1-.616,1.193,1.693,1.693,0,0,1-1.176.447l-.107,0-.571-.028-1-.05-.05,1-.021.439-.049,1,1,.049,9.624.475,1.1.054-.053-1.1-.021-.442-.044-.9-.906-.045-.527-.027a1.717,1.717,0,0,1-1.268-.583,1.672,1.672,0,0,1-.46-1.275l.533-10.822.453.022a3.064,3.064,0,0,1,2.026,1.282c.279.337.558.7.821,1.06.179.248.823,1.234,2.864,4.512,1.693,2.72,2.711,4.29,3.113,4.8a16.513,16.513,0,0,0,1.423,1.57,9.685,9.685,0,0,0,2.638,1.716,10.062,10.062,0,0,0,3.864.95l2.417.12,1,.048.05-1,.021-.439.049-1-1-.05a5.154,5.154,0,0,1-2.264-.628,5.084,5.084,0,0,1-.938-.642,12.19,12.19,0,0,1-.934-.881c-.291-.306-.794-.891-1.5-1.743s-2.214-3.126-4.518-6.8a16.982,16.982,0,0,0-1.5-1.952,8.064,8.064,0,0,0,3.79-2.376,10.18,10.18,0,0,0,2.745-6.634,8.68,8.68,0,0,0-2.27-6.6,9.645,9.645,0,0,0-6.857-2.846l-11.865-.585-1-.048Zm7.488,15.634.584-11.869,1.814.089c1.021.051,1.894.108,2.6.171a4.15,4.15,0,0,1,3.1,1.719,6.814,6.814,0,0,1,1.112,4.215l-.012.252-.035.708a4.769,4.769,0,0,1-.289,1.347c-.892,2.4-2.795,3.572-5.811,3.572l-.3,0h-.176q-.711,0-1.209-.025a6.457,6.457,0,0,1-.8-.075l-.573-.1Z" transform="translate(13 -759.654)"/><path class="i" d="M626.752,783.966l12.859.936c.364.026.744.039,1.137.039q.874,0,1.844-.087a12.206,12.206,0,0,0,2.3-.362l-.4,5.529-.439-.032.058-.789a2.6,2.6,0,0,0-2.27-2.769l-8.952-.651-.986,13.56,7.416.539h.061a2.2,2.2,0,0,0,1.479-.549,2.1,2.1,0,0,0,.726-1.493l.045-.614.439.032-.5,6.934-.44-.031.048-.659a2.073,2.073,0,0,0-.483-1.535,2.12,2.12,0,0,0-1.423-.765l-7.46-.543-.954,13.121,6.275.457q.49.036.95.036a6.832,6.832,0,0,0,4.114-1.124,10.751,10.751,0,0,0,3.166-4.094l.438.033-3.062,6.924-18.212-1.325.032-.438.57.041c.076,0,.151.008.225.008a2.656,2.656,0,0,0,1.787-.678,2.831,2.831,0,0,0,1-1.891l1.788-24.574a2.823,2.823,0,0,0-.793-1.845,2.71,2.71,0,0,0-1.834-.861l-.526-.038-.013-.443m-1.031-1.077.032,1.106.012.443.026.9.9.065.526.038A1.705,1.705,0,0,1,628.4,786a1.8,1.8,0,0,1,.518,1.154l-1.783,24.5a1.806,1.806,0,0,1-.655,1.207,1.649,1.649,0,0,1-1.133.435c-.05,0-.1,0-.152-.006l-.571-.041-1-.071-.073,1-.032.439-.074,1,1,.073,18.212,1.325.7.051.284-.644,3.063-6.924.573-1.295-1.412-.107-.439-.033-.677-.051-.3.611a9.833,9.833,0,0,1-2.856,3.723,5.909,5.909,0,0,1-3.525.932c-.28,0-.575-.012-.878-.034l-5.277-.384.809-11.126,6.434.468a1.11,1.11,0,0,1,.755.41,1.067,1.067,0,0,1,.255.821l-.048.66-.073,1,1,.071.44.032,1,.07.072-1,.5-6.933.072-1-1-.074-.439-.032-1-.074-.073,1-.045.615a1.1,1.1,0,0,1-.384.809,1.2,1.2,0,0,1-.824.3l-6.408-.464.842-11.566,7.954.579a1.483,1.483,0,0,1,.984.562,1.5,1.5,0,0,1,.361,1.137l-.058.788-.072,1,1,.073.439.033,1,.072.073-1,.4-5.529.107-1.473-1.407.448a10.954,10.954,0,0,1-2.085.319c-.612.056-1.2.083-1.754.083-.367,0-.726-.012-1.065-.037l-12.858-.935-1.1-.08Z" transform="translate(13 -759.654)"/><path class="i" d="M651.652,785.172a12.224,12.224,0,0,0,2.231.733,18.937,18.937,0,0,0,2.955.535l14.812,1.348q1.062.1,1.956.1a12.194,12.194,0,0,0,1.644-.1,15.318,15.318,0,0,0,1.773-.3l-.5,5.522-.435-.084.069-.746a2.679,2.679,0,0,0-2.259-2.856l-8.325-.758-2.389,26.248a2.744,2.744,0,0,0,.679,2.006,2.708,2.708,0,0,0,1.877.966l.571.052-.04.438-9.6-.874.04-.437.569.051c.1.009.192.014.286.014a2.825,2.825,0,0,0,2.762-2.431l2.393-26.292-8.325-.757c-.048,0-.1,0-.143,0a2.5,2.5,0,0,0-1.706.653,2.573,2.573,0,0,0-.889,1.752l-.067.746-.442,0,.5-5.522m-.863-1.559-.134,1.469-.5,5.522-.1,1.1,1.1-.01.443,0,.906-.008.081-.9.067-.746a1.572,1.572,0,0,1,.555-1.093,1.5,1.5,0,0,1,1.044-.4l.094,0,7.287.664-2.3,25.3a1.83,1.83,0,0,1-1.766,1.521,1.846,1.846,0,0,1-.2-.01l-.57-.052-1-.09-.09,1-.041.438-.091,1,1,.091,9.6.874,1,.091.091-1,.04-.439.091-1-1-.09-.57-.052a1.707,1.707,0,0,1-1.209-.621,1.745,1.745,0,0,1-.44-1.3l2.3-25.215,7.329.667a1.682,1.682,0,0,1,1.353,1.77l-.067.744-.083.9.888.171.435.084,1.086.21.1-1.1.5-5.522.136-1.506-1.439.464a13.971,13.971,0,0,1-1.6.264,11.165,11.165,0,0,1-1.508.091c-.562,0-1.19-.031-1.866-.092l-14.811-1.348a17.83,17.83,0,0,1-2.8-.508,11,11,0,0,1-2.027-.655l-1.316-.668Z" transform="translate(13 -759.654)"/><path class="i" d="M682.805,788.889l8.869,1.061-.052.435-.7-.083a2.932,2.932,0,0,0-.346-.021,2.265,2.265,0,0,0-1.341.418,2.087,2.087,0,0,0-.879,1.424l-2,16.689a11.355,11.355,0,0,0,1.636,8,8.686,8.686,0,0,0,6.488,3.744,12.074,12.074,0,0,0,1.438.089,8.936,8.936,0,0,0,5.84-2.032,10.136,10.136,0,0,0,3.534-6.957l2.064-17.256a2.1,2.1,0,0,0-.519-1.592,2.353,2.353,0,0,0-1.547-.783l-.7-.083.052-.436,8.083.965-.053.437-.7-.083a2.711,2.711,0,0,0-.321-.02,2.338,2.338,0,0,0-1.344.419,2.019,2.019,0,0,0-.9,1.377l-2.068,17.3a11.083,11.083,0,0,1-4.22,7.871,11.219,11.219,0,0,1-7.019,2.238,16.5,16.5,0,0,1-1.964-.121,12.338,12.338,0,0,1-8.342-4.166,10.817,10.817,0,0,1-2.359-8.634l2.058-17.214a2.049,2.049,0,0,0-.9-2.058,2.616,2.616,0,0,0-1.149-.4l-.7-.083.052-.437m-.875-1.112-.118,1-.052.436-.118.993.993.118.7.083a1.629,1.629,0,0,1,.715.246,1.045,1.045,0,0,1,.463,1.1l-2.058,17.214a11.83,11.83,0,0,0,2.587,9.4,13.365,13.365,0,0,0,8.988,4.514,17.658,17.658,0,0,0,2.083.128,12.25,12.25,0,0,0,7.626-2.443,12.1,12.1,0,0,0,4.606-8.547l2.068-17.3a1,1,0,0,1,.465-.669,1.345,1.345,0,0,1,.782-.246,1.74,1.74,0,0,1,.2.013l.7.083.991.118.12-.991.052-.437.12-.994-.994-.119-8.083-.966-.993-.118-.119.994-.051.436-.118.993.993.118.7.083a1.358,1.358,0,0,1,.913.45,1.094,1.094,0,0,1,.273.861l-2.059,17.208a9.1,9.1,0,0,1-3.175,6.3,7.894,7.894,0,0,1-5.206,1.8,11.158,11.158,0,0,1-1.32-.082,7.663,7.663,0,0,1-5.78-3.315,10.436,10.436,0,0,1-1.469-7.312l2-16.69a1.064,1.064,0,0,1,.462-.725,1.269,1.269,0,0,1,.765-.235,1.975,1.975,0,0,1,.227.014l.7.083.992.118.118-.993.052-.435.118-.993-.992-.118-8.869-1.061-.994-.119Z" transform="translate(13 -759.654)"/><path class="i" d="M719.288,793.373l11.756,1.713a8.65,8.65,0,0,1,5.9,3.107,7.677,7.677,0,0,1,1.433,6.034,9.162,9.162,0,0,1-3.037,5.738,6.8,6.8,0,0,1-4.6,1.857,7.146,7.146,0,0,1-1.023-.075,6.03,6.03,0,0,1,1.371,1.423,15.7,15.7,0,0,1,1.319,2.082q2.964,5.9,3.915,7.307t1.364,1.933a12.714,12.714,0,0,0,.915,1.045,6,6,0,0,0,1.03.862,6.179,6.179,0,0,0,2.61,1l-.063.435-2.395-.348a9.009,9.009,0,0,1-3.385-1.183,8.806,8.806,0,0,1-2.212-1.746,15.516,15.516,0,0,1-1.191-1.6q-.489-.759-2.587-4.979t-2.453-4.827c-.237-.4-.49-.805-.759-1.2a3.973,3.973,0,0,0-2.571-1.887l.063-.436a7.78,7.78,0,0,0,.909.178q.566.083,1.4.158a11.588,11.588,0,0,0,1.407.09,6.185,6.185,0,0,0,6.046-3.627,5.737,5.737,0,0,0,.5-1.595c.074-.507.121-.834.143-.979a7.75,7.75,0,0,0-.838-4.925,5.141,5.141,0,0,0-3.6-2.48q-1.039-.2-2.606-.425l-2.786-.406-3.784,25.95a2.666,2.666,0,0,0,.523,2.054,2.719,2.719,0,0,0,1.864,1.095l.523.076-.021.442-9.535-1.391.063-.435.567.083a3.01,3.01,0,0,0,.44.032,2.7,2.7,0,0,0,1.612-.533,2.763,2.763,0,0,0,1.128-1.792l3.523-24.165a2.836,2.836,0,0,0-.567-2.061,2.672,2.672,0,0,0-1.82-1.088l-.566-.083.063-.435m-.845-1.134-.144.99-.064.435-.144.989.989.144.566.083a1.67,1.67,0,0,1,1.163.7,1.826,1.826,0,0,1,.374,1.358l-3.518,24.126a1.734,1.734,0,0,1-.726,1.126,1.7,1.7,0,0,1-1.024.343,1.992,1.992,0,0,1-.295-.022l-.567-.083-.99-.145-.144.991-.064.435-.144.989.989.145,9.536,1.391,1.092.159.051-1.1.021-.441.042-.906-.9-.13-.523-.077a1.716,1.716,0,0,1-1.206-.7,1.667,1.667,0,0,1-.335-1.313L724.044,811l.447.065a3.067,3.067,0,0,1,1.9,1.47c.245.36.488.744.716,1.132.154.266.7,1.312,2.42,4.766,1.424,2.867,2.288,4.527,2.641,5.075a16.761,16.761,0,0,0,1.266,1.7,9.708,9.708,0,0,0,2.463,1.959,10.047,10.047,0,0,0,3.755,1.315l2.4.349.989.144.144-.989.064-.436.144-.99-.991-.144a5.295,5.295,0,0,1-3.064-1.569,11.754,11.754,0,0,1-.846-.965c-.258-.328-.7-.959-1.323-1.878-.608-.9-1.9-3.318-3.85-7.2a16.9,16.9,0,0,0-1.305-2.087,8.071,8.071,0,0,0,4-2,10.187,10.187,0,0,0,3.365-6.343,8.678,8.678,0,0,0-1.63-6.788,9.645,9.645,0,0,0-6.554-3.487l-11.756-1.714-.989-.144Zm5.962,16.277,1.715-11.759,1.8.263c1,.145,1.863.286,2.566.418a4.14,4.14,0,0,1,2.919,2.006,6.818,6.818,0,0,1,.7,4.3l-.04.278-.1.671a4.784,4.784,0,0,1-.416,1.316,5.21,5.21,0,0,1-5.14,3.05,10.8,10.8,0,0,1-1.286-.082c-.566-.053-1.019-.1-1.377-.156a6.7,6.7,0,0,1-.784-.151l-.561-.156Z" transform="translate(13 -759.654)"/><path class="i" d="M754.871,798.04l.434.075,19.213,29.354,3.757-21.5a2.71,2.71,0,0,0-.5-2.029,2.615,2.615,0,0,0-1.73-1.085l-.824-.144.076-.433,8.929,1.56-.076.434-.78-.137a2.821,2.821,0,0,0-.5-.044,2.622,2.622,0,0,0-1.5.477,2.67,2.67,0,0,0-1.145,1.7l-3.909,22.365a36.416,36.416,0,0,0-.53,4.821l-.05.8-.389-.068-19.213-29.354-3.773,21.585a2.549,2.549,0,0,0,.95,2.489,2.626,2.626,0,0,0,1.239.574l.824.143-.076.433-8.929-1.56.076-.434.824.145a2.832,2.832,0,0,0,.5.044,2.613,2.613,0,0,0,1.5-.477,2.565,2.565,0,0,0,1.11-1.749l3.932-22.5a33.624,33.624,0,0,0,.521-4.777l.035-.708m-.943-1.179-.055,1.129-.035.708a32.735,32.735,0,0,1-.509,4.655l-3.931,22.5a1.571,1.571,0,0,1-.689,1.1,1.619,1.619,0,0,1-.935.3,1.93,1.93,0,0,1-.324-.029l-.824-.145-.985-.173-.173.985-.076.434-.173.986.986.172,8.929,1.56.984.173.173-.985.076-.433.173-.988-.988-.171-.824-.142a1.626,1.626,0,0,1-.771-.359,1.561,1.561,0,0,1-.6-1.575l3.332-19.064,17.827,27.237.238.363.428.075.39.067,1.1.19.069-1.113.05-.8a35.809,35.809,0,0,1,.517-4.71l3.908-22.366a1.653,1.653,0,0,1,.725-1.044,1.622,1.622,0,0,1,.937-.3,1.909,1.909,0,0,1,.323.029l.78.137.985.173.172-.985.077-.434.173-.986-.986-.171-8.929-1.561-.984-.172-.173.984-.076.434-.173.986.986.172.825.143a1.616,1.616,0,0,1,1.091.686,1.709,1.709,0,0,1,.314,1.309L773.968,824.8l-17.826-27.237-.238-.363-.428-.075-.434-.075-1.114-.193Z" transform="translate(13 -759.654)"/><path class="i" d="M790.672,805.133l12.639,2.541a18.351,18.351,0,0,0,2.964.328c.334.011.64.017.916.017a8.28,8.28,0,0,0,1.409-.089l-1.093,5.436-.431-.086.156-.777a2.6,2.6,0,0,0-1.9-3.032l-8.8-1.769-2.681,13.33,7.29,1.466a2.518,2.518,0,0,0,.364.027,2.18,2.18,0,0,0,1.233-.38,2.091,2.091,0,0,0,.908-1.389l.121-.6.432.087-1.372,6.815-.43-.086.13-.647a2.085,2.085,0,0,0-.287-1.584,2.127,2.127,0,0,0-1.316-.938l-7.333-1.474-2.594,12.9,6.169,1.24a11.177,11.177,0,0,0,2.205.239,6.025,6.025,0,0,0,2.955-.682,10.737,10.737,0,0,0,3.655-3.663l.43.087-3.906,6.484-17.9-3.6.087-.432.56.113a2.874,2.874,0,0,0,.576.059,2.661,2.661,0,0,0,1.5-.471,2.836,2.836,0,0,0,1.228-1.75l4.857-24.156a2.822,2.822,0,0,0-.554-1.93,2.709,2.709,0,0,0-1.712-1.084l-.518-.105.044-.44m-.885-1.2-.11,1.1-.044.439-.09.9.885.181.518.105a1.7,1.7,0,0,1,1.1.694,1.837,1.837,0,0,1,.369,1.21l-4.845,24.089a1.807,1.807,0,0,1-.8,1.115,1.681,1.681,0,0,1-.951.3,1.926,1.926,0,0,1-.378-.039l-.56-.113-.981-.2-.2.981-.087.431-.2.981.981.2,17.9,3.6.69.138.364-.6,3.906-6.484.732-1.216-1.391-.281-.431-.086-.664-.134-.37.567a9.822,9.822,0,0,1-3.3,3.334,5.068,5.068,0,0,1-2.473.558,10.311,10.311,0,0,1-2.007-.219l-5.189-1.043,2.2-10.937,6.325,1.272a1.123,1.123,0,0,1,.7.5,1.077,1.077,0,0,1,.149.849l-.13.647-.2.981.981.2.431.086.979.2.2-.979,1.371-6.816.2-.98-.98-.2-.432-.087-.981-.2-.2.981-.121.6a1.092,1.092,0,0,1-.481.752,1.173,1.173,0,0,1-.679.213,1.447,1.447,0,0,1-.216-.016l-6.26-1.26,2.286-11.37,7.819,1.573a1.476,1.476,0,0,1,.9.68,1.5,1.5,0,0,1,.217,1.172l-.156.78-.2.981.981.195.43.086.98.2.2-.979,1.092-5.435.291-1.449-1.453.268a7.253,7.253,0,0,1-1.227.072c-.266,0-.559-.006-.881-.017a17.433,17.433,0,0,1-2.8-.308l-12.64-2.541-1.082-.217Z" transform="translate(13 -759.654)"/><path class="i" d="M816.3,810.3l14.549,3.291a15.715,15.715,0,0,1,10.2,6.661,16.4,16.4,0,0,1-4.921,21.758,14.575,14.575,0,0,1-7.741,2.133,19.588,19.588,0,0,1-4.333-.511l-14.548-3.29.1-.428.557.125a2.912,2.912,0,0,0,.64.074,2.669,2.669,0,0,0,1.45-.436,2.832,2.832,0,0,0,1.269-1.72l5.435-24.034a2.244,2.244,0,0,0-.443-1.926,2.941,2.941,0,0,0-1.75-1.14l-.515-.117.054-.44m11.049,32.394a11.428,11.428,0,0,0,3.758-.624,11.759,11.759,0,0,0,5.384-3.857,16.564,16.564,0,0,0,3.149-6.844q1.4-6.18-1.117-10.719a11.545,11.545,0,0,0-7.965-5.771l-8.454-1.913-6.213,27.467,8.455,1.912a13.565,13.565,0,0,0,3,.349m-11.907-33.613-.135,1.1-.053.44-.11.895.88.2.515.117a1.953,1.953,0,0,1,1.173.767,1.249,1.249,0,0,1,.267,1.1l-5.436,24.033a1.81,1.81,0,0,1-.827,1.1,1.679,1.679,0,0,1-.916.281,1.933,1.933,0,0,1-.418-.049l-.56-.126-.975-.219-.22.974-.1.429-.22.975.974.221,14.548,3.29a20.735,20.735,0,0,0,4.554.535,15.631,15.631,0,0,0,8.262-2.279,17.394,17.394,0,0,0,5.238-23.159,16.75,16.75,0,0,0-10.817-7.089l-14.549-3.291-1.079-.244Zm1.645,30.6,5.772-25.516,7.478,1.692a10.5,10.5,0,0,1,7.311,5.281,13.861,13.861,0,0,1,1.016,10.013,15.653,15.653,0,0,1-2.952,6.438,10.831,10.831,0,0,1-4.931,3.539,10.475,10.475,0,0,1-3.432.569,12.676,12.676,0,0,1-2.783-.324l-7.479-1.692Z" transform="translate(13 -759.654)"/><path class="j" d="M330.852,1140.5c164.994-28.809,332.017-23.768,496.418,14.987a1242.064,1242.064,0,0,1,252.421,88.979v-8.186a1249.7,1249.7,0,0,0-250.727-87.973c-165.378-38.983-333.4-44.056-499.38-15.073a1245.715,1245.715,0,0,0-234.313,65.1q-48.55,18.765-95.58,41.628v8.211q48.224-23.6,98.24-42.959A1238.423,1238.423,0,0,1,330.852,1140.5Z" transform="translate(13 -759.654)"/></g></svg>