<svg xmlns="http://www.w3.org/2000/svg" xmlns:xlink="http://www.w3.org/1999/xlink" width="1080" height="488.519" viewBox="0 0 1080 488.519"><defs><style>.cls-1{isolation:isolate;}.cls-2{fill:#fff;}.cls-3{opacity:0.5;mix-blend-mode:multiply;}.cls-4,.cls-8{fill:#ddc272;}.cls-5{fill:none;}.cls-6{fill:#c4a660;}.cls-7{fill:#ba9e5b;}.cls-8{opacity:0.3;}.cls-9{fill:url(#linear-gradient);}.cls-10{fill:url(#radial-gradient);}.cls-11{fill:#9c834c;}</style><linearGradient id="linear-gradient" x1="-925.271" y1="1587.836" x2="320.031" y2="-569.089" gradientTransform="translate(673.55 325.14) rotate(-76.736)" gradientUnits="userSpaceOnUse"><stop offset="0" stop-color="#c4a660"/><stop offset="1" stop-color="#85aca9"/></linearGradient><radialGradient id="radial-gradient" cx="-1224.492" cy="162.248" r="1202.193" gradientTransform="translate(673.55 325.14) rotate(-76.736)" gradientUnits="userSpaceOnUse"><stop offset="0" stop-color="#c4a660"/><stop offset="0.011" stop-color="#c4a660"/><stop offset="0.462" stop-color="#cdb06b"/><stop offset="1" stop-color="#d0b36e"/></radialGradient></defs><title>arc2</title><g class="cls-1"><g id="Layer_1" data-name="Layer 1"><path class="cls-2" d="M828.414,392.245A1246.077,1246.077,0,0,1,1080,480.724V207.744a1246.016,1246.016,0,0,0-251.586-88.479C538.5,50.923,248.362,90.3,0,211.4V484.384C248.362,363.282,538.5,323.9,828.414,392.245Z"/><image class="cls-3" width="1104" height="168" transform="translate(-12 62.26)" xlink:href="arc21.png"/><path class="cls-4" d="M828.414,119.265A1246.016,1246.016,0,0,1,1080,207.744V187.386A1264.741,1264.741,0,0,0,666.732,74.561C429.292,51.361,200.78,95.311,0,190.894V211.4C248.362,90.3,538.5,50.923,828.414,119.265Z"/><path class="cls-4" d="M666.732,75.561A1264.741,1264.741,0,0,1,1080,188.386V114.42A1347.958,1347.958,0,0,0,674.72,9.922C435.673-13.434,205.128,27.131,0,117.643v74.251C200.78,96.311,429.292,52.361,666.732,75.561Z"/><path class="cls-5" d="M666.975,73.073a1276.212,1276.212,0,0,1,280.449,59.664A1260.615,1260.615,0,0,1,1080,185.665V117.023A1339.278,1339.278,0,0,0,0,120.29v68.817A1263.243,1263.243,0,0,1,666.975,73.073Z"/><path class="cls-6" d="M674.476,11.411A1337,1337,0,0,1,1080,117.023v-5.462A1344.25,1344.25,0,0,0,0,114.825v5.465A1338.632,1338.632,0,0,1,674.476,11.411Z"/><path class="cls-5" d="M330.085,101.772c165.825-28.954,333.681-23.887,498.9,15.059A1248.555,1248.555,0,0,1,1080,204.981V190.16a1255.441,1255.441,0,0,0-134.162-53.681A1272.5,1272.5,0,0,0,252.9,104.568,1256.811,1256.811,0,0,0,0,193.647v15Q47.151,185.7,96,166.808A1244.554,1244.554,0,0,1,330.085,101.772Z"/><path class="cls-7" d="M666.49,77.049a1271.211,1271.211,0,0,1,279.348,59.43A1255.441,1255.441,0,0,1,1080,190.16v-5.516a1260.676,1260.676,0,0,0-132.575-52.907A1277.509,1277.509,0,0,0,251.747,99.7,1261.861,1261.861,0,0,0,0,188.1v5.544a1258.213,1258.213,0,0,1,666.49-116.6Z"/><path class="cls-5" d="M329.914,373.768c165.958-28.978,333.949-23.908,499.3,15.07A1249.526,1249.526,0,0,1,1080,476.852V211.632a1242.436,1242.436,0,0,0-252.388-88.961c-164.429-38.76-331.474-43.8-496.494-14.988A1238.459,1238.459,0,0,0,98.161,172.4Q48.27,191.688,0,215.327V480.512q46.979-22.832,95.637-41.656A1245.484,1245.484,0,0,1,329.914,373.768Z"/><path class="cls-8" d="M.3,211.043,42.218,464.579A1239.544,1239.544,0,0,1,372.3,370.546L356.019,99.955A1240.941,1240.941,0,0,0,.3,211.043Z"/><path class="cls-8" d="M1079.7,207.675A1246.086,1246.086,0,0,0,828.111,119.2q-52.092-12.279-104.121-19.95L707.706,369.913q60.1,8.1,120.4,22.263a1248.431,1248.431,0,0,1,211.031,70.016l40.556-245.3Z"/><path class="cls-8" d="M356.019,99.955,372.3,370.546a1234.225,1234.225,0,0,1,335.408-.633L723.99,99.246A1234.414,1234.414,0,0,0,356.019,99.955Z"/><path class="cls-9" d="M331.118,107.683c165.02-28.814,332.065-23.772,496.494,14.988A1242.436,1242.436,0,0,1,1080,211.632v-7.769a1249.566,1249.566,0,0,0-250.783-88c-165.354-38.978-333.345-44.049-499.3-15.071A1245.484,1245.484,0,0,0,95.637,165.875Q47.057,184.652,0,207.531v7.8Q48.186,191.746,98.161,172.4A1238.459,1238.459,0,0,1,331.118,107.683Z"/><path class="cls-10" d="M331.161,380.849c164.994-28.809,332.017-23.768,496.418,14.986A1242.184,1242.184,0,0,1,1080,484.814v-8.185a1249.631,1249.631,0,0,0-250.728-87.974C663.9,349.672,495.877,344.6,329.893,373.582A1245.715,1245.715,0,0,0,95.58,438.68Q47.03,457.446,0,480.309v8.21q48.224-23.6,98.24-42.958A1238.273,1238.273,0,0,1,331.161,380.849Z"/><path class="cls-6" d="M244.914,86.965l1.043-.249a2.321,2.321,0,0,0,1.744-2.681l-5.988-25.176-7.646,1.818a2,2,0,0,0-1.229.968,2.068,2.068,0,0,0-.229,1.578l.277,1.168-1.367.475-1.582-6.653.731.11a5.508,5.508,0,0,0,.783.043q.6,0,1.456-.063a18.312,18.312,0,0,0,2.891-.423l14.47-3.44a15.976,15.976,0,0,0,3.305-1.114,13.494,13.494,0,0,0,1.507-.8l.61-.454,1.586,6.671-1.434.193-.278-1.168a2.031,2.031,0,0,0-.932-1.3,2.09,2.09,0,0,0-1.141-.355,2.06,2.06,0,0,0-.4.039l-7.626,1.815,5.982,25.154a2.234,2.234,0,0,0,1.052,1.37,2.194,2.194,0,0,0,1.151.33,2.437,2.437,0,0,0,.565-.069l1.044-.247.332,1.4-10.346,2.46Z"/><path class="cls-11" d="M255.379,52.923l1.282,5.395-.437.058-.174-.728a2.532,2.532,0,0,0-1.149-1.6,2.6,2.6,0,0,0-1.411-.433,2.65,2.65,0,0,0-.49.048L244.867,57.6l6.1,25.64a2.753,2.753,0,0,0,1.283,1.685,2.7,2.7,0,0,0,1.406.4,2.9,2.9,0,0,0,.682-.083l.557-.131.1.427-9.374,2.23-.1-.428.557-.133a2.821,2.821,0,0,0,2.119-3.262l-6.109-25.684-8.133,1.935a2.505,2.505,0,0,0-1.545,1.2,2.57,2.57,0,0,0-.284,1.944l.173.728-.418.145-1.283-5.394a6.125,6.125,0,0,0,.856.048q.612,0,1.493-.064a18.744,18.744,0,0,0,2.971-.436l14.469-3.44a16.322,16.322,0,0,0,3.412-1.151,14.738,14.738,0,0,0,1.584-.852M256,51.214l-1.218.907a14.429,14.429,0,0,1-1.432.758,15.415,15.415,0,0,1-3.2,1.074l-14.468,3.441a17.815,17.815,0,0,1-2.813.41c-.562.041-1.04.062-1.42.062a5.039,5.039,0,0,1-.707-.037l-1.464-.22.342,1.44,1.284,5.394.255,1.078,1.046-.365.418-.145.853-.3-.209-.878-.172-.728a1.574,1.574,0,0,1,.176-1.215,1.513,1.513,0,0,1,.951-.74l7.12-1.693,5.877,24.711a1.688,1.688,0,0,1-.269,1.272,1.7,1.7,0,0,1-1.108.786l-.558.133-.974.233.233.973.1.428.233.97.971-.231,9.374-2.229.973-.231-.231-.973-.1-.427-.231-.973-.973.23-.556.132a1.967,1.967,0,0,1-.452.056,1.716,1.716,0,0,1-.893-.258,1.75,1.75,0,0,1-.832-1.095l-5.857-24.63,7.161-1.7a1.585,1.585,0,0,1,.258-.021,1.611,1.611,0,0,1,.875.277,1.533,1.533,0,0,1,.712.99l.174.729.21.879.9-.12.437-.058,1.1-.147-.256-1.076-1.282-5.394L256,51.214Z"/><path class="cls-6" d="M267.1,81.715l1.049-.222a2.168,2.168,0,0,0,1.433-.983,2.328,2.328,0,0,0,.364-1.735L264.926,54.9a2.249,2.249,0,0,0-1.017-1.4,2.188,2.188,0,0,0-1.2-.359,2.438,2.438,0,0,0-.509.055l-1.051.221L260.858,52l10.406-2.185.3,1.408-1.049.221a2.205,2.205,0,0,0-1.442.968,2.241,2.241,0,0,0-.364,1.706l2.309,10.991,16.633-3.5-2.313-11.006a2.179,2.179,0,0,0-1.534-1.665,2.462,2.462,0,0,0-.675-.094,2.532,2.532,0,0,0-.516.053l-1.047.222-.3-1.41,10.41-2.186.3,1.408-1.048.221a2.171,2.171,0,0,0-1.433.984,2.321,2.321,0,0,0-.363,1.734l5.007,23.838a2.316,2.316,0,0,0,1.026,1.423,2.159,2.159,0,0,0,1.211.377,2.391,2.391,0,0,0,.5-.054l1.05-.22.294,1.41-10.407,2.186-.3-1.408,1.05-.222A2.2,2.2,0,0,0,290,76.237a2.25,2.25,0,0,0,.364-1.707l-2.237-10.644L271.493,67.38,273.724,78a2.131,2.131,0,0,0,1,1.424,2.239,2.239,0,0,0,1.232.377,2.421,2.421,0,0,0,.5-.054l1.049-.22.3,1.41L267.4,83.122Z"/><path class="cls-11" d="M291.289,46.12l.09.43-.559.118a2.672,2.672,0,0,0-1.749,1.2,2.829,2.829,0,0,0-.437,2.093l5.011,23.856a2.827,2.827,0,0,0,1.242,1.739,2.67,2.67,0,0,0,1.484.458,2.906,2.906,0,0,0,.6-.065l.56-.117.089.431-9.429,1.981-.091-.43.56-.119a2.7,2.7,0,0,0,1.753-1.177,2.757,2.757,0,0,0,.442-2.071l-2.343-11.152-17.611,3.7,2.334,11.11a2.628,2.628,0,0,0,1.22,1.744,2.753,2.753,0,0,0,1.5.454,2.936,2.936,0,0,0,.6-.065l.559-.117.091.431-9.429,1.98-.091-.429.559-.118a2.672,2.672,0,0,0,1.749-1.2,2.834,2.834,0,0,0,.438-2.092l-5.021-23.9a2.759,2.759,0,0,0-1.238-1.719,2.7,2.7,0,0,0-1.466-.438,2.952,2.952,0,0,0-.612.066l-.561.118-.089-.431,9.429-1.981.091.431-.56.118a2.7,2.7,0,0,0-1.753,1.178,2.746,2.746,0,0,0-.442,2.07l2.415,11.5L288.241,62l-2.415-11.5a2.675,2.675,0,0,0-1.867-2.036,2.934,2.934,0,0,0-.832-.121,3.033,3.033,0,0,0-.618.065l-.559.118-.091-.43,9.43-1.981m.774-1.184-.979.206-9.431,1.98-.979.206.206.979.091.431.207.978.978-.206.56-.118a1.93,1.93,0,0,1,.963.037,1.663,1.663,0,0,1,1.174,1.309l2.2,10.49L271.4,64.517,269.193,54a1.722,1.722,0,0,1,.292-1.306,1.7,1.7,0,0,1,1.129-.758l.562-.118.978-.207-.206-.979-.091-.43-.206-.978-.978.206-9.43,1.98-.977.2.2.977.089.432.2.982.981-.207.561-.118a2.01,2.01,0,0,1,.406-.045,1.7,1.7,0,0,1,.932.284,1.754,1.754,0,0,1,.8,1.116L269.457,78.9a1.806,1.806,0,0,1-.3,1.341,1.67,1.67,0,0,1-1.117.767l-.56.118-.978.207.206.979.091.429.207.977.977-.2,9.43-1.981.979-.205-.206-.98-.091-.43-.206-.977-.978.2-.559.117a1.867,1.867,0,0,1-.4.044,1.754,1.754,0,0,1-.963-.3,1.633,1.633,0,0,1-.779-1.106l-2.129-10.132,15.654-3.288,2.137,10.174a1.727,1.727,0,0,1-.293,1.307,1.7,1.7,0,0,1-1.128.756l-.561.119-.979.206.206.979.091.431.206.977.978-.205,9.43-1.982.978-.2-.2-.977-.089-.431-.2-.98-.979.2-.56.117a1.845,1.845,0,0,1-.4.044,1.673,1.673,0,0,1-.937-.3,1.825,1.825,0,0,1-.819-1.146l-5-23.817a1.8,1.8,0,0,1,.3-1.341,1.669,1.669,0,0,1,1.118-.767l.56-.119.976-.206-.2-.977-.09-.429-.2-.98Z"/><path class="cls-6" d="M302.923,74.319l1.054-.2a2.168,2.168,0,0,0,1.458-.947,2.324,2.324,0,0,0,.406-1.726l-4.459-24.213a2.3,2.3,0,0,0-1-1.253,2.16,2.16,0,0,0-1.177-.346,2.414,2.414,0,0,0-.458.044l-.965.177-.4-1.391L310.6,42.034a17.98,17.98,0,0,0,2.8-.775,11.809,11.809,0,0,0,2.035-.882l.625-.393,1.228,6.667-1.416.263-.235-1.271a2.1,2.1,0,0,0-2.029-1.724,2.24,2.24,0,0,0-.3.022l-8.314,1.532,2.281,12.387,6.821-1.256a1.69,1.69,0,0,0,1.032-.712,1.6,1.6,0,0,0,.246-1.251l-.2-1.1,1.416-.263,1.44,7.822-1.415.259-.211-1.139a1.578,1.578,0,0,0-.654-1.048,1.6,1.6,0,0,0-.956-.311,1.894,1.894,0,0,0-.257.018l-6.84,1.26,2.2,11.955,5.695-1.049a7.066,7.066,0,0,0,4.331-2.153,10.326,10.326,0,0,0,1.929-4.541l.067-.331,1.463-.272-1.389,8.522-18.8,3.461Z"/><path class="cls-11" d="M315.693,40.8l1,5.451-.433.08-.144-.779A2.6,2.6,0,0,0,313.6,43.42a2.6,2.6,0,0,0-.37.025L304.4,45.071l2.462,13.372,7.313-1.347a2.205,2.205,0,0,0,1.352-.92,2.094,2.094,0,0,0,.327-1.626l-.111-.606.432-.08,1.259,6.837L317,60.78l-.12-.648a2.067,2.067,0,0,0-.854-1.363,2.1,2.1,0,0,0-1.247-.405,2.38,2.38,0,0,0-.323.022L307.1,59.74l2.383,12.939,6.187-1.139a7.5,7.5,0,0,0,4.627-2.329,10.75,10.75,0,0,0,2.032-4.759l.433-.08-1.219,7.473-17.958,3.306-.08-.431.563-.105a2.663,2.663,0,0,0,1.778-1.155,2.822,2.822,0,0,0,.489-2.08l-4.462-24.232a2.829,2.829,0,0,0-1.231-1.586,2.662,2.662,0,0,0-1.443-.423,2.979,2.979,0,0,0-.549.052l-.52.095-.123-.426,12.679-2.334a18.483,18.483,0,0,0,2.873-.8,12.323,12.323,0,0,0,2.133-.93m.716-1.632-1.249.786a11.035,11.035,0,0,1-1.938.835,17.671,17.671,0,0,1-2.716.754l-12.679,2.334-1.086.2.307,1.061.123.426.251.87.89-.164.52-.1a2.061,2.061,0,0,1,.368-.035,1.672,1.672,0,0,1,.912.27,1.813,1.813,0,0,1,.791.987l4.45,24.165a1.8,1.8,0,0,1-.329,1.331,1.669,1.669,0,0,1-1.136.74l-.564.1-.983.183.182.983.08.432.182.982.982-.181,17.958-3.307.693-.127.113-.695,1.219-7.473.229-1.4-1.4.259-.433.08-.665.123-.133.663a9.84,9.84,0,0,1-1.825,4.322,6.6,6.6,0,0,1-4.035,1.98l-5.2.957-2.021-10.971,6.346-1.168a1.383,1.383,0,0,1,.169-.011,1.093,1.093,0,0,1,.665.218,1.065,1.065,0,0,1,.452.73l.121.651.182.98.981-.179.433-.079.984-.18-.181-.985-1.258-6.837-.182-.984-.984.182-.433.08-.982.182.181.982.111.606a1.088,1.088,0,0,1-.167.878,1.212,1.212,0,0,1-.757.514l-6.282,1.155-2.1-11.4,7.845-1.445a1.675,1.675,0,0,1,.189-.009,1.516,1.516,0,0,1,.9.3,1.5,1.5,0,0,1,.636,1.008l.144.779.181.985.984-.182.433-.08.982-.183-.181-.982-1-5.451-.267-1.451Z"/><path class="cls-6" d="M367.566,65.521a15.357,15.357,0,0,1-9.518-3.126c-3.388-2.576-5.447-6.347-6.121-11.212s.28-9.054,2.84-12.454,6.331-5.469,11.211-6.146a21.976,21.976,0,0,1,3.006-.213A18.453,18.453,0,0,1,377,34.159l.2.1,1.944,6.794-1.347.187-.147-.359a9.315,9.315,0,0,0-4.443-4.979,10.914,10.914,0,0,0-4.99-1.156,14.119,14.119,0,0,0-1.927.138,11.13,11.13,0,0,0-8.228,5.009c-1.839,2.843-2.475,6.422-1.89,10.637s2.157,7.5,4.676,9.754a10.909,10.909,0,0,0,7.487,2.853,14.044,14.044,0,0,0,1.606-.095,12.161,12.161,0,0,0,7.471-3.633c1.986-2.133,2.941-5.367,2.839-9.61l-.011-.445,1.326-.186.466,7.575-.048.111c-2.109,4.843-6.057,7.7-11.737,8.487A20.645,20.645,0,0,1,367.566,65.521Z"/><path class="cls-11" d="M368.984,32.87a17.882,17.882,0,0,1,7.8,1.74l1.724,6.024-.392.055a9.76,9.76,0,0,0-4.68-5.237,11.376,11.376,0,0,0-5.216-1.208,14.464,14.464,0,0,0-2,.142,11.559,11.559,0,0,0-8.58,5.232q-2.872,4.441-1.965,10.978t4.837,10.057a11.349,11.349,0,0,0,7.822,2.98,14.57,14.57,0,0,0,1.661-.1,12.619,12.619,0,0,0,7.782-3.789q3.13-3.366,2.972-9.963l.349-.049.426,6.916q-3.066,7.044-11.347,8.192a19.928,19.928,0,0,1-2.618.178A14.8,14.8,0,0,1,358.351,62q-4.941-3.756-5.929-10.883t2.744-12.085q3.732-4.958,10.88-5.951a21.48,21.48,0,0,1,2.938-.208m0-1a22.361,22.361,0,0,0-3.075.218c-5.017.7-8.9,2.829-11.541,6.34s-3.63,7.824-2.937,12.824,2.818,8.883,6.315,11.541a15.84,15.84,0,0,0,9.82,3.228,21.05,21.05,0,0,0,2.749-.187c5.87-.814,9.949-3.769,12.133-8.784l.1-.22-.014-.24-.426-6.916-.067-1.079-1.07.15-.348.049-.883.124.022.89c.1,4.108-.812,7.223-2.7,9.258a11.7,11.7,0,0,1-7.187,3.48,13.687,13.687,0,0,1-1.524.087,10.291,10.291,0,0,1-7.155-2.725c-2.428-2.173-3.946-5.352-4.513-9.449s.042-7.558,1.814-10.3a10.511,10.511,0,0,1,7.877-4.784,13.419,13.419,0,0,1,1.858-.133,10.431,10.431,0,0,1,4.764,1.1,8.718,8.718,0,0,1,4.206,4.724l.294.718.77-.107.392-.055,1.14-.159-.316-1.106-1.724-6.023-.124-.434-.406-.194a18.947,18.947,0,0,0-8.234-1.838Z"/><path class="cls-6" d="M402.368,61.226a15.322,15.322,0,0,1-9.91-3.388,16.323,16.323,0,0,1-5.8-11.382,16.312,16.312,0,0,1,3.194-12.367,15.9,15.9,0,0,1,11.2-5.827,21.245,21.245,0,0,1,2.292-.129,15.4,15.4,0,0,1,9.931,3.385A16.262,16.262,0,0,1,419.1,42.9a16.265,16.265,0,0,1-3.216,12.37A15.978,15.978,0,0,1,404.66,61.1,20.978,20.978,0,0,1,402.368,61.226Zm.411-30.74a13.641,13.641,0,0,0-1.468.082,10.757,10.757,0,0,0-8.143,4.787c-1.888,2.815-2.61,6.389-2.146,10.623s1.944,7.565,4.4,9.905a10.531,10.531,0,0,0,7.5,2.99h0a13.713,13.713,0,0,0,1.509-.085A10.775,10.775,0,0,0,412.593,54c1.889-2.817,2.61-6.391,2.147-10.624a17.794,17.794,0,0,0-2.3-7.283,11.441,11.441,0,0,0-4.709-4.473A11,11,0,0,0,402.779,30.486Z"/><path class="cls-11" d="M403.348,28.633a14.848,14.848,0,0,1,9.618,3.274q4.855,3.917,5.638,11.045t-3.11,12A15.429,15.429,0,0,1,404.606,60.6a20.5,20.5,0,0,1-2.238.126,14.765,14.765,0,0,1-9.595-3.277q-4.835-3.918-5.616-11.048t3.087-12a15.362,15.362,0,0,1,10.868-5.641,20.467,20.467,0,0,1,2.236-.126m-.428,30.74a14.233,14.233,0,0,0,1.564-.088,11.209,11.209,0,0,0,8.524-5.007q2.948-4.4,2.229-10.957a18.246,18.246,0,0,0-2.371-7.486,11.892,11.892,0,0,0-4.915-4.662,11.445,11.445,0,0,0-5.172-1.187,13.909,13.909,0,0,0-1.523.085,11.189,11.189,0,0,0-8.5,5q-2.949,4.4-2.228,10.956t4.551,10.213a10.967,10.967,0,0,0,7.844,3.128m.429-31.74h0a21.466,21.466,0,0,0-2.346.132,16.389,16.389,0,0,0-11.542,6.012,16.8,16.8,0,0,0-3.3,12.733,16.8,16.8,0,0,0,5.981,11.716,15.809,15.809,0,0,0,10.225,3.5,21.751,21.751,0,0,0,2.347-.132,16.461,16.461,0,0,0,11.561-6.014A16.751,16.751,0,0,0,419.6,42.843a16.749,16.749,0,0,0-6-11.714,15.889,15.889,0,0,0-10.245-3.5Zm-.429,30.74a9.924,9.924,0,0,1-7.155-2.851c-2.367-2.257-3.795-5.487-4.246-9.6s.244-7.575,2.065-10.29a10.144,10.144,0,0,1,7.781-4.567,12.919,12.919,0,0,1,1.414-.08,10.508,10.508,0,0,1,4.726,1.082,10.955,10.955,0,0,1,4.5,4.282,17.313,17.313,0,0,1,2.235,7.08c.45,4.113-.244,7.576-2.065,10.292a10.171,10.171,0,0,1-7.8,4.569,13.489,13.489,0,0,1-1.455.082Z"/><path class="cls-6" d="M422.681,57.028l1.2-.094a2.725,2.725,0,0,0,1.761-.774,2.563,2.563,0,0,0,.766-1.772l1.1-28.809,1.2-.1L442.643,50.3l9.639-26.665,1.158-.092,5.67,28.287a2.434,2.434,0,0,0,1.629,1.948,2.818,2.818,0,0,0,1,.175c.087,0,.174,0,.263-.01l1.2-.093.111,1.433L452.8,56.11l-.11-1.393,1.158-.089a1.142,1.142,0,0,0,.865-.5,1.093,1.093,0,0,0,.245-.927l-3.388-20.041-6.96,19.408a17,17,0,0,0-1.113,4.457l-.029.431-1.188.093L429.9,35.45l-.187,19.718a1.1,1.1,0,0,0,.387.9,1.138,1.138,0,0,0,.8.361l1.286-.1.11,1.392-9.508.745Z"/><path class="cls-11" d="M453.036,24.077l5.583,27.853a2.927,2.927,0,0,0,1.948,2.319,3.309,3.309,0,0,0,1.169.206c.1,0,.2,0,.3-.012l.7-.055.034.437-9.519.747-.031-.4.658-.051a1.65,1.65,0,0,0,1.226-.691,1.6,1.6,0,0,0,.337-1.329l-3.7-21.91L444.136,52.4A17.345,17.345,0,0,0,443,57l-.438.034L429.418,33.566l-.2,21.6a1.592,1.592,0,0,0,.54,1.26,1.628,1.628,0,0,0,1.15.5c.041,0,.083,0,.125-.005l.7-.056.031.4-8.51.667-.034-.438.7-.055a3.237,3.237,0,0,0,2.07-.913,3.071,3.071,0,0,0,.916-2.1l1.085-28.375.438-.035L442.742,51.5l9.9-27.389.394-.032m.807-1.067-.886.07-.394.031-.642.052-.22.606L442.544,49.1,429.3,25.517l-.313-.558-.639.051-.439.036-.885.07L426.99,26l-1.085,28.375a2.065,2.065,0,0,1-.613,1.422,2.246,2.246,0,0,1-1.45.634l-.7.055-1,.079.078,1,.034.437.078,1,1-.078,8.51-.667,1-.078-.079-1-.031-.4-.079-1-1,.078-.7.056h-.014a.636.636,0,0,1-.488-.22.6.6,0,0,1-.235-.491l.17-17.876,11.3,20.183.313.558.638-.05.438-.034.862-.067.058-.862a16.464,16.464,0,0,1,1.082-4.315l6.317-17.617,3.068,18.141a.621.621,0,0,1-.149.56.645.645,0,0,1-.506.3l-.657.051-1,.077.079,1,.031.4.079,1,1-.079,9.519-.747,1-.078-.077-1-.034-.437-.079-1-1,.078-.7.054c-.076.006-.152.01-.225.01a2.3,2.3,0,0,1-.82-.143,1.928,1.928,0,0,1-1.317-1.583l-5.582-27.848-.174-.871Z"/><path class="cls-6" d="M467.37,53.717l1.071-.055a2.165,2.165,0,0,0,1.568-.748,2.321,2.321,0,0,0,.63-1.657L469.4,26.712a2.338,2.338,0,0,0-.835-1.418,2.178,2.178,0,0,0-1.444-.518L466,24.827l-.216-1.429,12.021-.608c.264-.014.523-.02.777-.02a9.5,9.5,0,0,1,6.322,2.064,8.631,8.631,0,0,1,2.907,6.452,8.86,8.86,0,0,1-.646,3.861,8.712,8.712,0,0,1-5.156,4.881,7.393,7.393,0,0,1-2.333.585q-.372.019-.73.02a10.3,10.3,0,0,1-4.253-.836l-.279-.125-.07-1.365.613.1a9.5,9.5,0,0,0,1.562.134,7.848,7.848,0,0,0,4-1.076,5.957,5.957,0,0,0,2.859-3.9,5.288,5.288,0,0,0,.164-1.533l-.049-.966a7.259,7.259,0,0,0-1.74-4.5,4.685,4.685,0,0,0-3.627-1.457c-.125,0-.252,0-.381.009l-4.554.231,1.3,25.735a2.33,2.33,0,0,0,.792,1.567,2.16,2.16,0,0,0,1.5.588l1.2-.056.073,1.437-10.622.537Z"/><path class="cls-11" d="M478.583,23.27a8.971,8.971,0,0,1,6,1.946,8.117,8.117,0,0,1,2.732,6.1,8.324,8.324,0,0,1-.609,3.644,8.2,8.2,0,0,1-4.877,4.608,6.921,6.921,0,0,1-2.175.55c-.239.013-.474.018-.7.018a9.779,9.779,0,0,1-4.048-.791l-.023-.439a9.938,9.938,0,0,0,1.643.141,8.315,8.315,0,0,0,4.254-1.143,6.5,6.5,0,0,0,3.092-4.21,5.785,5.785,0,0,0,.178-1.684c-.026-.527-.043-.849-.049-.966a7.719,7.719,0,0,0-1.874-4.818,5.2,5.2,0,0,0-3.992-1.616c-.134,0-.269,0-.406.01l-5.054.256,1.327,26.235a2.839,2.839,0,0,0,.957,1.912,2.657,2.657,0,0,0,1.84.717l.157,0,.571-.029.022.44-9.624.486-.022-.439.571-.03a2.663,2.663,0,0,0,1.914-.912,2.827,2.827,0,0,0,.759-2L469.9,26.687a2.858,2.858,0,0,0-1.015-1.778,2.688,2.688,0,0,0-1.763-.633c-.054,0-.108,0-.164,0l-.527.026-.066-.437,11.469-.58q.384-.02.753-.019m0-1h0c-.263,0-.531.006-.8.021l-11.47.58-1.1.055.166,1.094.066.436.136.892.9-.043.527-.026.116,0a1.676,1.676,0,0,1,1.126.4A1.84,1.84,0,0,1,468.9,26.8l1.24,24.5a1.8,1.8,0,0,1-.5,1.277,1.67,1.67,0,0,1-1.223.585l-.572.029-1,.051.051,1,.023.439.051,1,1-.05,9.624-.487,1-.05-.051-1-.023-.439-.05-1-1,.05-.572.028-.107,0a1.66,1.66,0,0,1-1.17-.459,1.825,1.825,0,0,1-.63-1.26l-.546-10.783.043.019a10.8,10.8,0,0,0,4.458.879q.37,0,.755-.019a7.808,7.808,0,0,0,2.5-.622,9.2,9.2,0,0,0,5.431-5.159,9.335,9.335,0,0,0,.68-4.071,9.107,9.107,0,0,0-3.084-6.808,9.975,9.975,0,0,0-6.643-2.183Zm-4.866,3.55,4.055-.205c.12-.006.238-.009.355-.009a4.218,4.218,0,0,1,3.262,1.3A6.8,6.8,0,0,1,483,31.119l.008.147.04.79a4.8,4.8,0,0,1-.152,1.394,5.472,5.472,0,0,1-2.619,3.583,7.271,7.271,0,0,1-3.755,1.01,9.026,9.026,0,0,1-1.478-.127l-.718-.119-.605-11.977Z"/><path class="cls-6" d="M486.659,52.662l.9-.026a3.383,3.383,0,0,0,1.858-.677,4.58,4.58,0,0,0,1.487-1.916l9.205-23.94c1.29-3.071,1.465-4.065,1.455-4.385l-.015-.5,1.228-.036,12.786,28.133a4.266,4.266,0,0,0,1.544,1.8,3.417,3.417,0,0,0,1.843.564l.951-.027.042,1.438-10.9.333L509,51.979l.9-.027a1.162,1.162,0,0,0,.977-.43,1.4,1.4,0,0,0,.332-.826,2.856,2.856,0,0,0-.177-.895l-2.9-7.05-11.187.341-2.6,7.29a2.75,2.75,0,0,0-.115.856,1.417,1.417,0,0,0,.38.781,1.135,1.135,0,0,0,.935.372l.964-.028.045,1.439-9.84.3Zm11.126-11.917,9.367-.286-4.944-12.08Z"/><path class="cls-11" d="M502.455,21.691,515.1,49.521a4.75,4.75,0,0,0,1.734,2.015,3.933,3.933,0,0,0,2.108.639l.113,0,.352-.011.013.44-9.895.3-.013-.44.395-.012a1.646,1.646,0,0,0,1.368-.635,1.865,1.865,0,0,0,.427-1.136,3.343,3.343,0,0,0-.208-1.051l-3.044-7.39L496.58,42.6l-2.716,7.611a3.255,3.255,0,0,0-.145,1.039,1.853,1.853,0,0,0,.5,1.085,1.617,1.617,0,0,0,1.32.553h.084l.4-.012.014.44-8.84.269-.014-.439.4-.012a3.857,3.857,0,0,0,2.133-.77,5.045,5.045,0,0,0,1.653-2.119l9.216-23.965a16.16,16.16,0,0,0,1.488-4.58l.395-.011m-5.387,19.577,10.819-.331-5.71-13.955-5.109,14.286m6.023-20.6-.665.019-.4.012-1,.03.03,1c.006.176-.08,1-1.41,4.162l-9.218,23.967a4.074,4.074,0,0,1-1.308,1.689,2.852,2.852,0,0,1-1.587.585l-.393.012-1,.03.032,1,.013.439.032,1,1-.03,8.84-.27,1-.03-.031-1-.014-.439-.031-1-1,.03-.395.011h-.055c-.392,0-.5-.134-.55-.191a1.014,1.014,0,0,1-.265-.479,2.237,2.237,0,0,1,.1-.7l2.478-6.943,10.5-.32,2.781,6.75a2.3,2.3,0,0,1,.133.7.937.937,0,0,1-.236.515c-.046.064-.155.213-.59.226l-.395.011-1,.03.028,1,.013.44.029,1,1-.031,9.9-.3,1-.03-.028-1-.013-.44-.029-1-1,.031-.352.01-.083,0a2.936,2.936,0,0,1-1.579-.488A3.741,3.741,0,0,1,516,49.081l-12.636-27.8-.275-.605ZM498.5,40.223l3.737-10.447,4.176,10.205-7.913.242Z"/><path class="cls-6" d="M531.042,53.666a16.309,16.309,0,0,1-4.141-.576,7.72,7.72,0,0,1-3.611-1.932l-.1-.1-.032-.139a13.971,13.971,0,0,1-.164-2.48,12.425,12.425,0,0,1,.654-3.9l.11-.341,1.306-.014-.046.548q-.039.462-.034.922a5.828,5.828,0,0,0,1.531,4.116,5.022,5.022,0,0,0,3.895,1.587,5.905,5.905,0,0,0,4.26-1.572,4.992,4.992,0,0,0,1.592-3.851,4.82,4.82,0,0,0-1.586-3.734l-8.514-7.762a7.5,7.5,0,0,1-2.584-5.668,8.043,8.043,0,0,1,2.179-5.707,7.9,7.9,0,0,1,6-2.43h.116a19.51,19.51,0,0,1,3.723.409l2.165-.017.053,6.411-1.4.011,0-.5a3.619,3.619,0,0,0-1.28-2.91,4.934,4.934,0,0,0-3.288-1.083,4.672,4.672,0,0,0-3.469,1.381,4.519,4.519,0,0,0-1.34,3.395,4.577,4.577,0,0,0,1.628,3.491l8.735,7.936a7.67,7.67,0,0,1,2.41,5.891,8.4,8.4,0,0,1-2.337,6.157,8.553,8.553,0,0,1-6.319,2.467Z"/><path class="cls-11" d="M531.872,21.128a18.989,18.989,0,0,1,3.676.408l1.716-.013.045,5.411-.4,0a4.128,4.128,0,0,0-1.457-3.287,5.387,5.387,0,0,0-3.61-1.2h-.074a5.147,5.147,0,0,0-3.749,1.528,5.036,5.036,0,0,0-1.487,3.752,5.1,5.1,0,0,0,1.792,3.857l8.735,7.936a7.163,7.163,0,0,1,2.246,5.525,7.882,7.882,0,0,1-2.195,5.805,8.044,8.044,0,0,1-5.965,2.315h-.106a15.769,15.769,0,0,1-4.013-.56,7.2,7.2,0,0,1-3.381-1.8,13.625,13.625,0,0,1-.153-2.375,11.89,11.89,0,0,1,.629-3.745l.4,0c-.028.324-.039.646-.036.968a6.363,6.363,0,0,0,1.665,4.453,5.544,5.544,0,0,0,4.261,1.746h.066a6.391,6.391,0,0,0,4.54-1.71,5.514,5.514,0,0,0,1.746-4.217,5.341,5.341,0,0,0-1.75-4.1L526.5,34.064a7,7,0,0,1-2.421-5.3,7.52,7.52,0,0,1,2.046-5.363,7.385,7.385,0,0,1,5.635-2.27h.112m0-1h-.121a8.376,8.376,0,0,0-6.36,2.591,8.525,8.525,0,0,0-2.312,6.05,7.984,7.984,0,0,0,2.748,6.034l8.512,7.761a4.346,4.346,0,0,1,1.424,3.369,4.519,4.519,0,0,1-1.437,3.485,5.381,5.381,0,0,1-3.857,1.434h-.058a4.546,4.546,0,0,1-3.528-1.427,5.346,5.346,0,0,1-1.4-3.78c0-.293.008-.588.032-.876l.093-1.095-1.1.011-.4,0-.72.007-.222.685a12.917,12.917,0,0,0-.678,4.061,13.975,13.975,0,0,0,.177,2.585l.062.278.2.2a8.2,8.2,0,0,0,3.84,2.065,16.816,16.816,0,0,0,4.269.594h.114a9.036,9.036,0,0,0,6.673-2.618,8.883,8.883,0,0,0,2.479-6.51,8.15,8.15,0,0,0-2.575-6.259L529,30.845a4.1,4.1,0,0,1-1.465-3.125,4.041,4.041,0,0,1,1.2-3.038,4.145,4.145,0,0,1,3.049-1.234h.066a4.388,4.388,0,0,1,2.964.964,3.149,3.149,0,0,1,1.1,2.532l.008,1,1-.007.4,0,1-.008-.008-1-.045-5.411-.008-1-1,.008-1.614.012a19.974,19.974,0,0,0-3.77-.407Z"/><path class="cls-6" d="M552.921,53.673a16.225,16.225,0,0,1-4.24-.648,7.716,7.716,0,0,1-3.577-1.994l-.1-.1-.028-.139a13.7,13.7,0,0,1-.122-2.483,12.369,12.369,0,0,1,.72-3.892l.116-.341,1.306.01-.056.547c-.032.309-.047.615-.05.923a5.83,5.83,0,0,0,1.461,4.14,5.036,5.036,0,0,0,3.928,1.654h0a5.893,5.893,0,0,0,4.223-1.5,5,5,0,0,0,1.658-3.823,4.82,4.82,0,0,0-1.522-3.761l-8.379-7.907a7.5,7.5,0,0,1-2.487-5.712,8.038,8.038,0,0,1,2.276-5.669,7.866,7.866,0,0,1,5.937-2.327h.1a19.172,19.172,0,0,1,3.832.473l2.165.019-.057,6.413-1.395-.014,0-.5a3.631,3.631,0,0,0-1.231-2.932,4.98,4.98,0,0,0-3.338-1.14h0a4.65,4.65,0,0,0-3.421,1.322,4.512,4.512,0,0,0-1.4,3.371,4.577,4.577,0,0,0,1.569,3.52l8.6,8.083a7.674,7.674,0,0,1,2.309,5.931,8.409,8.409,0,0,1-2.442,6.118,8.527,8.527,0,0,1-6.251,2.358Z"/><path class="cls-11" d="M553.989,21.149h.1a18.761,18.761,0,0,1,3.781.473l1.715.015-.048,5.412-.395,0a4.14,4.14,0,0,0-1.4-3.312,5.437,5.437,0,0,0-3.663-1.264h-.062a5.134,5.134,0,0,0-3.713,1.464,5.033,5.033,0,0,0-1.551,3.726,5.1,5.1,0,0,0,1.726,3.888l8.6,8.083a7.167,7.167,0,0,1,2.151,5.563,7.886,7.886,0,0,1-2.3,5.767,8,8,0,0,1-5.9,2.213h-.106a15.665,15.665,0,0,1-4.108-.63,7.18,7.18,0,0,1-3.35-1.855,13.578,13.578,0,0,1-.111-2.377,11.86,11.86,0,0,1,.692-3.735l.4,0c-.034.324-.05.647-.053.969a6.365,6.365,0,0,0,1.589,4.479,5.555,5.555,0,0,0,4.3,1.82h.082a6.366,6.366,0,0,0,4.486-1.631,5.518,5.518,0,0,0,1.819-4.187,5.343,5.343,0,0,0-1.679-4.128l-8.379-7.907a6.985,6.985,0,0,1-2.33-5.344,7.525,7.525,0,0,1,2.137-5.328,7.36,7.36,0,0,1,5.576-2.173m0-1a8.348,8.348,0,0,0-6.3,2.482,8.528,8.528,0,0,0-2.415,6.01,7.982,7.982,0,0,0,2.644,6.081l8.378,7.906a4.346,4.346,0,0,1,1.366,3.393,4.519,4.519,0,0,1-1.5,3.46,5.352,5.352,0,0,1-3.808,1.366h-.073a4.563,4.563,0,0,1-3.561-1.487,5.354,5.354,0,0,1-1.333-3.8c0-.3.018-.59.047-.876l.113-1.093-1.1-.009-.4,0-.719-.005-.234.681a12.92,12.92,0,0,0-.746,4.05,13.87,13.87,0,0,0,.132,2.588l.057.278.2.207a8.2,8.2,0,0,0,3.8,2.131,16.754,16.754,0,0,0,4.371.667h.115a9.009,9.009,0,0,0,6.6-2.5,8.89,8.89,0,0,0,2.59-6.467,8.155,8.155,0,0,0-2.467-6.3l-8.6-8.083a4.1,4.1,0,0,1-1.411-3.149A4.04,4.04,0,0,1,551,24.651a4.137,4.137,0,0,1,3.018-1.182h.052a4.436,4.436,0,0,1,3.014,1.016,3.159,3.159,0,0,1,1.06,2.552l-.008,1,1,.01.4,0,1,.01.008-1,.048-5.412.009-1-1-.009-1.614-.014a19.653,19.653,0,0,0-3.882-.474Z"/><path class="cls-6" d="M617.773,55.188a9.578,9.578,0,0,1-3.674-.9,9.384,9.384,0,0,1-2.5-1.622,16.175,16.175,0,0,1-1.38-1.522c-.39-.5-1.4-2.051-3.082-4.755-1.643-2.641-2.614-4.169-2.883-4.543s-.551-.735-.849-1.094a3.513,3.513,0,0,0-2.379-1.453l-.5-.023.077-1.506.558.1a7.14,7.14,0,0,0,.857.082q.508.026,1.234.025l.477,0c3.251,0,5.307-1.28,6.285-3.911a5.287,5.287,0,0,0,.316-1.486l.047-.987a7.279,7.279,0,0,0-1.209-4.5,4.631,4.631,0,0,0-3.463-1.924c-.689-.061-1.562-.119-2.609-.172l-2.312-.113-1.266,25.693a2.173,2.173,0,0,0,.588,1.635,2.219,2.219,0,0,0,1.614.748L602.7,53l.07,1.445-10.674-.526.07-1.438,1.071.053.132,0a2.193,2.193,0,0,0,1.508-.573,2.263,2.263,0,0,0,.785-1.562l1.2-24.37a2.32,2.32,0,0,0-.632-1.637,2.177,2.177,0,0,0-1.569-.747l-1.071-.052.071-1.439,12.364.611a9.159,9.159,0,0,1,6.515,2.686,8.191,8.191,0,0,1,2.136,6.235,9.692,9.692,0,0,1-2.61,6.319,7.36,7.36,0,0,1-4.406,2.407q.236.23.49.51a16.377,16.377,0,0,1,1.559,2.009c2.322,3.7,3.855,6,4.562,6.856s1.221,1.455,1.518,1.768a12.769,12.769,0,0,0,.972.917,5.508,5.508,0,0,0,1.015.7,5.724,5.724,0,0,0,2.488.694l.5.025-.07,1.438Z"/><path class="cls-11" d="M594.131,22.686,606,23.271a8.644,8.644,0,0,1,6.175,2.528,7.683,7.683,0,0,1,2,5.87,9.161,9.161,0,0,1-2.476,6,6.72,6.72,0,0,1-5.056,2.319q-.182,0-.366-.009a6.048,6.048,0,0,1,1.5,1.285,15.944,15.944,0,0,1,1.511,1.947q3.513,5.593,4.594,6.9t1.542,1.794a12.91,12.91,0,0,0,1.011.954,5.934,5.934,0,0,0,1.107.758,6.186,6.186,0,0,0,2.695.75l-.022.44-2.417-.119a9.021,9.021,0,0,1-3.482-.854,8.843,8.843,0,0,1-2.369-1.527,15.594,15.594,0,0,1-1.338-1.476q-.559-.709-3.05-4.71t-2.9-4.57q-.414-.57-.871-1.121a3.962,3.962,0,0,0-2.739-1.633l.023-.439a7.577,7.577,0,0,0,.92.088q.519.025,1.257.026h.152c.11,0,.219,0,.326,0q5.179,0,6.754-4.238a5.757,5.757,0,0,0,.346-1.634c.024-.512.041-.842.047-.989a7.743,7.743,0,0,0-1.3-4.822,5.152,5.152,0,0,0-3.817-2.127q-1.052-.093-2.634-.174l-2.813-.137-1.29,26.192a2.666,2.666,0,0,0,.717,1.995,2.718,2.718,0,0,0,1.96.911l.527.027.022.442-9.624-.475.021-.439.571.028c.053,0,.105,0,.157,0a2.7,2.7,0,0,0,1.838-.7,2.763,2.763,0,0,0,.953-1.893l1.2-24.389a2.832,2.832,0,0,0-.761-2,2.672,2.672,0,0,0-1.915-.91l-.571-.028.021-.439m-.95-1.048-.049,1-.021.439-.049,1,1,.05.572.028a1.666,1.666,0,0,1,1.223.583,1.829,1.829,0,0,1,.5,1.315l-1.2,24.351a1.74,1.74,0,0,1-.616,1.193,1.69,1.69,0,0,1-1.176.447q-.054,0-.108,0l-.571-.028-1-.049-.049,1-.021.44-.049,1,1,.049,9.624.475,1.1.054-.053-1.1-.022-.443-.044-.905-.9-.045-.527-.026a1.725,1.725,0,0,1-1.269-.583,1.674,1.674,0,0,1-.459-1.276l.533-10.822L601,39.8a3.06,3.06,0,0,1,2.026,1.282c.28.337.559.7.822,1.06.179.248.822,1.235,2.863,4.512,1.693,2.72,2.712,4.29,3.113,4.8a16.919,16.919,0,0,0,1.423,1.571,9.725,9.725,0,0,0,2.638,1.715,10.067,10.067,0,0,0,3.865.95l2.417.12,1,.049.049-1,.022-.44.049-1-1-.05a5.141,5.141,0,0,1-2.264-.628,5.051,5.051,0,0,1-.938-.642,11.82,11.82,0,0,1-.934-.881c-.291-.305-.794-.891-1.5-1.742s-2.213-3.127-4.518-6.8a17.059,17.059,0,0,0-1.5-1.952,8.074,8.074,0,0,0,3.79-2.375,10.179,10.179,0,0,0,2.744-6.635,8.675,8.675,0,0,0-2.269-6.6,9.644,9.644,0,0,0-6.858-2.845l-11.865-.585-1-.049Zm7.488,15.635.585-11.87,1.814.089c1.021.051,1.894.109,2.594.171a4.148,4.148,0,0,1,3.1,1.719,6.808,6.808,0,0,1,1.112,4.215l-.012.252-.034.708a4.769,4.769,0,0,1-.289,1.347c-.892,2.4-2.795,3.573-5.812,3.573-.1,0-.2,0-.3,0h-.177q-.709,0-1.209-.025a6.7,6.7,0,0,1-.794-.074l-.574-.1Z"/><path class="cls-6" d="M624.3,55.493l.106-1.434,1.068.076c.064.005.127.008.189.008a2.155,2.155,0,0,0,1.459-.557,2.336,2.336,0,0,0,.829-1.568l1.786-24.555A2.3,2.3,0,0,0,629.076,26a2.207,2.207,0,0,0-1.508-.706l-.977-.071-.041-1.447,13.41.975q.531.039,1.1.039c.566,0,1.172-.029,1.8-.086a11.638,11.638,0,0,0,2.191-.341l.7-.223-.49,6.764-1.438-.105.094-1.287a2.1,2.1,0,0,0-1.829-2.236l-8.431-.613-.914,12.563,6.917.5a1.72,1.72,0,0,0,1.178-.429,1.6,1.6,0,0,0,.554-1.149l.082-1.114,1.435.106-.576,7.929-1.437-.1.084-1.158a1.574,1.574,0,0,0-.368-1.178,1.63,1.63,0,0,0-1.1-.59l-6.936-.5L631.7,53.662l5.776.42c.314.024.619.035.913.035a6.372,6.372,0,0,0,3.819-1.028,10.309,10.309,0,0,0,3.012-3.908l.149-.306,1.482.112-3.491,7.894Z"/><path class="cls-11" d="M627.066,24.313l12.858.935q.548.04,1.137.04.876,0,1.845-.088a12.026,12.026,0,0,0,2.3-.362l-.4,5.529-.439-.032.057-.789a2.6,2.6,0,0,0-2.269-2.769l-8.952-.651-.987,13.561,7.416.539h.061a2.192,2.192,0,0,0,1.479-.549,2.092,2.092,0,0,0,.727-1.492l.045-.615.438.033-.5,6.933-.439-.031.048-.659A2.066,2.066,0,0,0,641,42.312a2.117,2.117,0,0,0-1.423-.766L632.117,41l-.955,13.121,6.276.457q.49.036.95.036a6.828,6.828,0,0,0,4.113-1.124,10.745,10.745,0,0,0,3.166-4.093l.439.033-3.063,6.924-18.212-1.326.033-.438.57.041c.076.005.151.008.225.008a2.657,2.657,0,0,0,1.787-.678,2.831,2.831,0,0,0,1-1.891L630.232,27.5a2.823,2.823,0,0,0-.793-1.845,2.712,2.712,0,0,0-1.834-.861l-.527-.038-.012-.442m-1.032-1.078.032,1.106.013.443.026.9.9.066.527.038a1.7,1.7,0,0,1,1.179.55,1.8,1.8,0,0,1,.517,1.154L627.446,52a1.8,1.8,0,0,1-.654,1.206,1.651,1.651,0,0,1-1.133.435c-.05,0-.1,0-.152-.006l-.572-.041-1-.071-.072,1-.033.438-.073,1,1,.073,18.212,1.325.7.051.285-.644,3.062-6.924.573-1.294-1.412-.107-.438-.034-.678-.051-.3.611a9.833,9.833,0,0,1-2.856,3.723,5.908,5.908,0,0,1-3.524.932c-.281,0-.576-.011-.878-.033l-5.278-.385.809-11.126,6.435.468a1.114,1.114,0,0,1,.754.41,1.07,1.07,0,0,1,.256.822l-.049.66-.072,1,1,.072.44.031,1,.071.073-1,.5-6.934.072-1-1-.073-.438-.033-1-.073-.073,1-.045.614a1.091,1.091,0,0,1-.384.809,1.2,1.2,0,0,1-.824.3l-6.407-.464.841-11.566,7.955.579a1.487,1.487,0,0,1,.984.562,1.5,1.5,0,0,1,.361,1.137l-.058.788-.073,1,1,.074.44.032,1,.073.073-1,.4-5.53.107-1.473-1.408.448a10.919,10.919,0,0,1-2.084.319c-.613.056-1.2.084-1.755.084-.367,0-.725-.012-1.065-.037l-12.858-.936-1.1-.08Z"/><path class="cls-6" d="M656.442,58.193l.132-1.432,1.066.1c.081.007.161.011.24.011a2.324,2.324,0,0,0,2.267-2L662.493,29.1l-7.828-.712-.1,0a2,2,0,0,0-1.375.528,2.067,2.067,0,0,0-.722,1.422l-.108,1.2-1.448.013.619-6.807.658.335a11.839,11.839,0,0,0,2.129.694,18.608,18.608,0,0,0,2.877.521l14.81,1.348c.692.062,1.334.1,1.911.1a11.856,11.856,0,0,0,1.577-.1,13.835,13.835,0,0,0,1.687-.283l.72-.233-.62,6.825-1.422-.274.109-1.2a2.178,2.178,0,0,0-1.828-2.316l-7.806-.71L663.993,55.2a2.235,2.235,0,0,0,.561,1.636,2.209,2.209,0,0,0,1.544.793l1.067.1-.131,1.434Z"/><path class="cls-11" d="M651.965,25.519a12.18,12.18,0,0,0,2.232.732,18.8,18.8,0,0,0,2.955.535l14.811,1.348q1.064.1,1.957.1a12.184,12.184,0,0,0,1.644-.1,15.05,15.05,0,0,0,1.772-.3l-.5,5.522-.434-.084.068-.745a2.677,2.677,0,0,0-2.259-2.857l-8.325-.758L663.5,55.153a2.749,2.749,0,0,0,.679,2.006,2.7,2.7,0,0,0,1.878.966l.57.052-.04.438-9.6-.874.04-.437.569.052c.1.008.191.013.285.013a2.825,2.825,0,0,0,2.763-2.43l2.392-26.292-8.325-.758c-.048,0-.1,0-.142,0a2.5,2.5,0,0,0-1.706.653,2.565,2.565,0,0,0-.889,1.752l-.067.746-.443,0,.5-5.521m-.862-1.56-.134,1.469-.5,5.522-.1,1.1,1.1-.01.442,0,.906-.008.082-.9.067-.746a1.568,1.568,0,0,1,.555-1.092,1.5,1.5,0,0,1,1.044-.4l.094,0,7.287.664-2.3,25.3a1.83,1.83,0,0,1-1.767,1.521c-.064,0-.129,0-.194-.009l-.57-.052-1-.091-.091,1-.04.437-.091,1,1,.09,9.6.874,1,.091.091-1,.04-.438.091-1-1-.091-.571-.052a1.7,1.7,0,0,1-1.209-.621,1.743,1.743,0,0,1-.439-1.3l2.295-25.215,7.329.667a1.682,1.682,0,0,1,1.354,1.77l-.068.744-.083.9.889.172.434.084,1.086.209.1-1.1.5-5.521.137-1.507-1.44.465a14.089,14.089,0,0,1-1.6.263,11.165,11.165,0,0,1-1.508.092c-.563,0-1.191-.032-1.866-.093L657.243,25.79a17.81,17.81,0,0,1-2.8-.508,10.944,10.944,0,0,1-2.028-.655l-1.315-.668Z"/><path class="cls-6" d="M696.427,62.853a17.09,17.09,0,0,1-2.024-.125,12.881,12.881,0,0,1-8.665-4.34,11.346,11.346,0,0,1-2.472-9.017l2.058-17.214a1.553,1.553,0,0,0-.7-1.589,2.133,2.133,0,0,0-.92-.317l-1.2-.141.17-1.43,9.862,1.179-.17,1.428-1.2-.142a2.377,2.377,0,0,0-.287-.018,1.778,1.778,0,0,0-1.054.327,1.6,1.6,0,0,0-.674,1.1l-1.992,16.667a10.916,10.916,0,0,0,1.554,7.653,8.138,8.138,0,0,0,6.134,3.53,11.682,11.682,0,0,0,1.379.084,8.492,8.492,0,0,0,5.523-1.917,9.7,9.7,0,0,0,3.355-6.63l2.063-17.256a1.589,1.589,0,0,0-.4-1.2,1.858,1.858,0,0,0-1.231-.617l-1.194-.141.17-1.43,9.077,1.084-.173,1.43-1.194-.143a2.355,2.355,0,0,0-.262-.015,1.828,1.828,0,0,0-1.063.332,1.519,1.519,0,0,0-.684,1.047L708.161,52.3a11.609,11.609,0,0,1-4.412,8.209A11.759,11.759,0,0,1,696.427,62.853Z"/><path class="cls-11" d="M683.118,29.235l8.87,1.061-.052.436-.7-.083a2.76,2.76,0,0,0-.346-.022,2.278,2.278,0,0,0-1.342.418,2.094,2.094,0,0,0-.879,1.424l-2,16.689a11.35,11.35,0,0,0,1.637,7.995A8.687,8.687,0,0,0,694.8,60.9a12.3,12.3,0,0,0,1.439.088,8.928,8.928,0,0,0,5.839-2.032A10.134,10.134,0,0,0,705.612,52l2.063-17.256a2.1,2.1,0,0,0-.518-1.591,2.351,2.351,0,0,0-1.547-.784l-.7-.083.052-.436,8.083.966-.053.436-.7-.083a2.678,2.678,0,0,0-.32-.019,2.334,2.334,0,0,0-1.345.419,2.01,2.01,0,0,0-.895,1.377l-2.069,17.3a11.08,11.08,0,0,1-4.219,7.871,11.217,11.217,0,0,1-7.019,2.239,16.73,16.73,0,0,1-1.965-.121,12.348,12.348,0,0,1-8.342-4.166,10.824,10.824,0,0,1-2.358-8.635l2.058-17.214a2.052,2.052,0,0,0-.906-2.058,2.642,2.642,0,0,0-1.148-.4l-.7-.083.051-.437m-.875-1.111-.118.994-.051.436-.118.993.993.118.7.083a1.633,1.633,0,0,1,.716.246,1.045,1.045,0,0,1,.462,1.1l-2.057,17.214a11.826,11.826,0,0,0,2.587,9.4,13.363,13.363,0,0,0,8.987,4.514,17.469,17.469,0,0,0,2.084.129,12.25,12.25,0,0,0,7.626-2.444,12.1,12.1,0,0,0,4.606-8.547l2.068-17.3a1,1,0,0,1,.464-.668,1.348,1.348,0,0,1,.783-.246,1.719,1.719,0,0,1,.2.012l.7.083.991.118.119-.991.053-.436.12-.994-.994-.12-8.083-.965-.994-.119-.118.994-.052.437-.117.992.992.118.7.084a1.353,1.353,0,0,1,.913.449,1.1,1.1,0,0,1,.273.861l-2.06,17.209a9.1,9.1,0,0,1-3.175,6.3,7.892,7.892,0,0,1-5.2,1.8,10.925,10.925,0,0,1-1.32-.082,7.663,7.663,0,0,1-5.78-3.315,10.435,10.435,0,0,1-1.47-7.312l2-16.689a1.067,1.067,0,0,1,.462-.726,1.274,1.274,0,0,1,.766-.235,1.975,1.975,0,0,1,.227.014l.7.084.993.117.118-.992.052-.436.117-.992-.992-.119-8.869-1.061-.994-.118Z"/><path class="cls-6" d="M740.034,68.329a9.548,9.548,0,0,1-3.57-1.249,9.236,9.236,0,0,1-2.339-1.853A16.6,16.6,0,0,1,732.9,63.58c-.343-.533-1.2-2.178-2.614-5.027-1.724-3.467-2.277-4.523-2.438-4.8-.23-.393-.478-.783-.739-1.169a3.525,3.525,0,0,0-2.231-1.673l-.5-.072.218-1.492.547.152a7.4,7.4,0,0,0,.847.164q.553.081,1.373.155a11.183,11.183,0,0,0,1.361.087,5.676,5.676,0,0,0,5.6-3.344,5.276,5.276,0,0,0,.454-1.449l.142-.98a7.291,7.291,0,0,0-.773-4.6,4.624,4.624,0,0,0-3.264-2.244c-.681-.128-1.543-.269-2.58-.42l-2.291-.334L722.3,61.992a2.167,2.167,0,0,0,.428,1.684,2.219,2.219,0,0,0,1.536.9l.971.142-.068,1.445-10.575-1.542.207-1.426,1.062.156a2.587,2.587,0,0,0,.368.028,2.184,2.184,0,0,0,1.318-.439,2.257,2.257,0,0,0,.93-1.479L722,37.314a2.314,2.314,0,0,0-.472-1.69,2.162,2.162,0,0,0-1.491-.891l-1.061-.157.207-1.425,12.251,1.787a9.164,9.164,0,0,1,6.229,3.3,8.2,8.2,0,0,1,1.532,6.411,9.7,9.7,0,0,1-3.2,6.041,7.376,7.376,0,0,1-4.618,1.975c.142.168.288.353.44.554a16.5,16.5,0,0,1,1.361,2.149c1.962,3.906,3.268,6.346,3.887,7.26.628.929,1.079,1.569,1.343,1.9a11.74,11.74,0,0,0,.88,1.005,5.45,5.45,0,0,0,.945.792,5.7,5.7,0,0,0,2.408.926l.5.072-.208,1.425Z"/><path class="cls-11" d="M719.6,33.719l11.756,1.714a8.658,8.658,0,0,1,5.905,3.106,7.681,7.681,0,0,1,1.433,6.034,9.172,9.172,0,0,1-3.037,5.739,6.808,6.808,0,0,1-4.6,1.857,7.031,7.031,0,0,1-1.024-.076,5.991,5.991,0,0,1,1.371,1.423,15.777,15.777,0,0,1,1.32,2.082q2.963,5.9,3.915,7.307t1.363,1.933a12.738,12.738,0,0,0,.915,1.045,6,6,0,0,0,1.03.862,6.162,6.162,0,0,0,2.611,1l-.064.436-2.394-.349a9.009,9.009,0,0,1-3.385-1.183,8.814,8.814,0,0,1-2.213-1.746,15.492,15.492,0,0,1-1.19-1.595q-.489-.761-2.587-4.98T728.279,53.5c-.238-.4-.491-.8-.759-1.2a3.976,3.976,0,0,0-2.571-1.887l.063-.435a7.787,7.787,0,0,0,.908.177q.566.083,1.4.159a11.757,11.757,0,0,0,1.406.089,6.186,6.186,0,0,0,6.047-3.627,5.731,5.731,0,0,0,.5-1.594c.074-.508.121-.834.142-.98a7.737,7.737,0,0,0-.838-4.925,5.141,5.141,0,0,0-3.6-2.48q-1.041-.2-2.607-.425l-2.786-.406-3.783,25.95a2.667,2.667,0,0,0,.522,2.055,2.724,2.724,0,0,0,1.865,1.094l.522.077-.02.441L715.159,64.2l.063-.435.566.083a3.037,3.037,0,0,0,.441.033,2.7,2.7,0,0,0,1.611-.534,2.76,2.76,0,0,0,1.128-1.792l3.524-24.165a2.838,2.838,0,0,0-.568-2.061,2.67,2.67,0,0,0-1.819-1.088l-.567-.083.064-.435m-.845-1.134-.145.99-.063.435-.144.989.988.145.567.083a1.667,1.667,0,0,1,1.162.7,1.828,1.828,0,0,1,.375,1.358l-3.519,24.126a1.732,1.732,0,0,1-.725,1.126,1.7,1.7,0,0,1-1.024.344,2.151,2.151,0,0,1-.3-.022l-.566-.083-.99-.146-.145.991-.063.435-.144.99.989.144,9.535,1.391,1.092.159.052-1.1.02-.441.042-.9-.9-.131-.522-.076a1.727,1.727,0,0,1-1.207-.7,1.673,1.673,0,0,1-.335-1.313l1.564-10.723.447.065a3.072,3.072,0,0,1,1.9,1.471c.244.359.487.743.715,1.131.155.266.7,1.312,2.42,4.767,1.425,2.866,2.289,4.526,2.642,5.075a16.736,16.736,0,0,0,1.265,1.7,9.694,9.694,0,0,0,2.464,1.959,10.024,10.024,0,0,0,3.755,1.315l2.395.349.99.145.144-.99.064-.436.144-.99-.991-.144a5.125,5.125,0,0,1-2.193-.84,5.059,5.059,0,0,1-.872-.729,11.946,11.946,0,0,1-.846-.965c-.257-.328-.7-.959-1.323-1.878-.607-.9-1.9-3.318-3.85-7.2a16.8,16.8,0,0,0-1.3-2.086,8.077,8.077,0,0,0,4-2,10.181,10.181,0,0,0,3.364-6.343,8.674,8.674,0,0,0-1.629-6.788,9.653,9.653,0,0,0-6.554-3.487l-11.756-1.714-.989-.144Zm5.962,16.277L726.433,37.1l1.8.262c1,.145,1.864.286,2.567.418a4.14,4.14,0,0,1,2.919,2.006,6.819,6.819,0,0,1,.705,4.3l-.041.278-.1.671a4.858,4.858,0,0,1-.416,1.317,5.212,5.212,0,0,1-5.141,3.049,10.822,10.822,0,0,1-1.286-.082c-.566-.052-1.019-.1-1.376-.155a6.838,6.838,0,0,1-.784-.152l-.561-.156Z"/><path class="cls-6" d="M775.368,74.984,756.73,46.506l-3.555,20.338a2.056,2.056,0,0,0,.775,2.017,2.113,2.113,0,0,0,1.009.468l1.316.228-.249,1.419-9.914-1.733.249-1.419,1.316.232a2.413,2.413,0,0,0,.41.037A2.1,2.1,0,0,0,749.3,67.7a2.065,2.065,0,0,0,.9-1.422l3.932-22.5a33.173,33.173,0,0,0,.514-4.7l.063-1.283,1.205.209,18.639,28.477L778.1,46.232a2.2,2.2,0,0,0-.406-1.65,2.123,2.123,0,0,0-1.412-.887l-1.318-.229.249-1.418,9.914,1.732-.249,1.419-1.271-.223a2.331,2.331,0,0,0-.411-.036,2.115,2.115,0,0,0-1.219.389,2.171,2.171,0,0,0-.939,1.391l-3.9,22.346a35.87,35.87,0,0,0-.522,4.753l-.086,1.364Z"/><path class="cls-11" d="M755.185,38.386l.433.075,19.213,29.355,3.757-21.5a2.708,2.708,0,0,0-.494-2.03,2.623,2.623,0,0,0-1.73-1.085l-.825-.143.077-.434,8.928,1.561-.076.433-.779-.136a2.835,2.835,0,0,0-.5-.045,2.621,2.621,0,0,0-1.5.477,2.67,2.67,0,0,0-1.146,1.7L776.638,68.98a36.216,36.216,0,0,0-.53,4.82l-.05.8-.39-.068L756.455,45.173l-3.772,21.585a2.547,2.547,0,0,0,.949,2.489,2.626,2.626,0,0,0,1.239.574l.825.143-.077.434-8.928-1.561.076-.434.823.145a2.84,2.84,0,0,0,.5.044,2.611,2.611,0,0,0,1.5-.477,2.562,2.562,0,0,0,1.111-1.749l3.931-22.495a33.461,33.461,0,0,0,.522-4.777l.035-.708m-.943-1.178-.056,1.128-.035.708a32.722,32.722,0,0,1-.508,4.655l-3.931,22.5a1.571,1.571,0,0,1-.689,1.095,1.622,1.622,0,0,1-.936.3,1.831,1.831,0,0,1-.324-.029l-.823-.144-.985-.173-.173.985-.076.433-.173.986.985.172,8.929,1.56.984.173.173-.985.076-.433.174-.987-.988-.171-.824-.143a1.625,1.625,0,0,1-.772-.359,1.56,1.56,0,0,1-.6-1.575l3.332-19.064,17.826,27.237.239.364.428.074.39.067,1.1.19.07-1.113.05-.8a35.472,35.472,0,0,1,.517-4.71l3.908-22.365a1.762,1.762,0,0,1,1.661-1.348,1.93,1.93,0,0,1,.324.029l.779.137.985.173.173-.985.076-.433.173-.986-.985-.172-8.929-1.561-.984-.172-.173.984-.076.434-.174.986.987.172.824.144a1.616,1.616,0,0,1,1.092.685,1.709,1.709,0,0,1,.313,1.309l-3.315,18.968L756.455,37.913l-.238-.363-.428-.074-.433-.075-1.114-.193Z"/><path class="cls-6" d="M784.325,76.067l.284-1.413,1.05.212a2.4,2.4,0,0,0,.478.049,2.158,2.158,0,0,0,1.227-.387,2.331,2.331,0,0,0,1.018-1.451l4.854-24.137a2.31,2.31,0,0,0-.469-1.537,2.2,2.2,0,0,0-1.406-.888l-.961-.2.143-1.437,13.18,2.649a17.781,17.781,0,0,0,2.883.318c.328.012.628.017.9.017a7.88,7.88,0,0,0,1.319-.081l.726-.133L808.212,54.3l-1.41-.281.253-1.268a2.1,2.1,0,0,0-1.533-2.448l-8.288-1.666L794.75,60.986l6.8,1.368a2.087,2.087,0,0,0,.266.017,1.671,1.671,0,0,0,.955-.3,1.6,1.6,0,0,0,.7-1.071l.22-1.094,1.412.284-1.568,7.8-1.412-.281.229-1.139a1.577,1.577,0,0,0-.219-1.216,1.626,1.626,0,0,0-1.016-.722l-6.819-1.37-2.4,11.917,5.679,1.141a10.7,10.7,0,0,0,2.106.229,5.568,5.568,0,0,0,2.714-.619,10.318,10.318,0,0,0,3.476-3.5l.186-.284,1.458.3-4.453,7.393Z"/><path class="cls-11" d="M790.986,45.48l12.638,2.541a18.369,18.369,0,0,0,2.964.327c.335.012.64.017.916.017a8.272,8.272,0,0,0,1.409-.089l-1.092,5.436-.431-.086.155-.777a2.594,2.594,0,0,0-1.9-3.031l-8.8-1.77-2.681,13.33,7.29,1.466a2.546,2.546,0,0,0,.365.028,2.175,2.175,0,0,0,1.232-.381,2.088,2.088,0,0,0,.908-1.388l.121-.6.432.087L803.138,67.4l-.431-.085.13-.648a2.081,2.081,0,0,0-.287-1.584,2.121,2.121,0,0,0-1.315-.937L793.9,62.672l-2.594,12.9,6.169,1.241a11.239,11.239,0,0,0,2.205.238,6.025,6.025,0,0,0,2.955-.682,10.726,10.726,0,0,0,3.654-3.663l.431.087-3.906,6.485-17.9-3.6.087-.432.561.114a2.949,2.949,0,0,0,.576.059,2.662,2.662,0,0,0,1.5-.472,2.825,2.825,0,0,0,1.227-1.75l4.858-24.156a2.82,2.82,0,0,0-.555-1.929,2.7,2.7,0,0,0-1.712-1.084l-.517-.106.044-.439m-.886-1.2-.109,1.1-.044.439-.09.9.885.181.518.106a1.7,1.7,0,0,1,1.1.693,1.832,1.832,0,0,1,.368,1.21L787.888,73a1.806,1.806,0,0,1-.8,1.115,1.671,1.671,0,0,1-.95.3,1.939,1.939,0,0,1-.379-.04l-.559-.113-.981-.2-.2.981-.087.432-.2.98.98.2,17.9,3.6.691.139.363-.6,3.906-6.485.733-1.216-1.391-.28-.431-.087-.664-.134-.371.567a9.82,9.82,0,0,1-3.3,3.334,5.07,5.07,0,0,1-2.473.558,10.244,10.244,0,0,1-2.008-.219l-5.188-1.043,2.2-10.936,6.325,1.271a1.132,1.132,0,0,1,.7.5,1.081,1.081,0,0,1,.149.849l-.13.647-.2.981.982.2.43.086.98.2.2-.979,1.372-6.816.2-.98-.981-.2-.431-.087-.981-.2-.2.981-.121.6a1.087,1.087,0,0,1-.482.752,1.171,1.171,0,0,1-.678.214,1.473,1.473,0,0,1-.217-.017l-6.26-1.26,2.286-11.369,7.82,1.572a1.482,1.482,0,0,1,.9.68,1.5,1.5,0,0,1,.216,1.172l-.156.78-.2.981.981.2.431.086.979.2.2-.979,1.093-5.435.291-1.449-1.453.268a7.259,7.259,0,0,1-1.228.072c-.265,0-.559-.005-.881-.017a17.221,17.221,0,0,1-2.8-.308L791.183,44.5l-1.083-.217Z"/><path class="cls-6" d="M828.7,84.985a20.219,20.219,0,0,1-4.444-.522l-15.035-3.4.316-1.4,1.045.234a2.362,2.362,0,0,0,.531.062,2.164,2.164,0,0,0,1.183-.358,2.333,2.333,0,0,0,1.052-1.427l5.432-24.015a1.754,1.754,0,0,0-.356-1.515,2.433,2.433,0,0,0-1.461-.953l-.955-.217.176-1.437,15.088,3.413a16.262,16.262,0,0,1,10.509,6.874,15.388,15.388,0,0,1,1.878,12.23A15.381,15.381,0,0,1,836.7,82.78,15.137,15.137,0,0,1,828.7,84.985ZM824.767,82.2a13.174,13.174,0,0,0,2.892.336,11,11,0,0,0,3.6-.6,11.31,11.31,0,0,0,5.157-3.7,16.128,16.128,0,0,0,3.052-6.64A14.347,14.347,0,0,0,838.4,61.235a11.116,11.116,0,0,0-7.638-5.526l-7.967-1.8L816.8,80.4Z"/><path class="cls-11" d="M816.611,50.644l14.548,3.291a15.713,15.713,0,0,1,10.2,6.66,14.842,14.842,0,0,1,1.809,11.846,14.839,14.839,0,0,1-6.73,9.913,14.586,14.586,0,0,1-7.742,2.132,19.642,19.642,0,0,1-4.332-.51l-14.548-3.29.1-.429.558.125a2.905,2.905,0,0,0,.64.074,2.676,2.676,0,0,0,1.45-.435,2.839,2.839,0,0,0,1.268-1.721l5.436-24.033a2.25,2.25,0,0,0-.443-1.927,2.947,2.947,0,0,0-1.75-1.14l-.515-.117.054-.439m11.048,32.393a11.423,11.423,0,0,0,3.758-.624,11.741,11.741,0,0,0,5.384-3.857,16.578,16.578,0,0,0,3.15-6.844q1.4-6.18-1.118-10.719a11.543,11.543,0,0,0-7.965-5.771l-8.454-1.912L816.2,80.776l8.456,1.913a13.62,13.62,0,0,0,3,.348M815.752,49.424l-.134,1.1-.054.439-.109.9.88.2.514.117a1.958,1.958,0,0,1,1.174.767,1.251,1.251,0,0,1,.267,1.1l-5.436,24.033a1.8,1.8,0,0,1-.828,1.1,1.673,1.673,0,0,1-.915.281,1.881,1.881,0,0,1-.419-.049l-.56-.126-.974-.218-.22.974-.1.428-.22.976.975.22,14.548,3.29a20.719,20.719,0,0,0,4.553.535,15.637,15.637,0,0,0,8.262-2.278,15.867,15.867,0,0,0,7.186-10.547A15.872,15.872,0,0,0,842.2,60.048a16.747,16.747,0,0,0-10.817-7.089l-14.549-3.291-1.079-.244Zm1.645,30.6,5.772-25.516,7.479,1.691a10.5,10.5,0,0,1,7.311,5.281,13.861,13.861,0,0,1,1.016,10.013,15.648,15.648,0,0,1-2.953,6.438,10.82,10.82,0,0,1-4.931,3.539,10.471,10.471,0,0,1-3.432.569,12.667,12.667,0,0,1-2.782-.324l-7.48-1.691Z"/></g></g></svg>