<svg xmlns="http://www.w3.org/2000/svg" xmlns:xlink="http://www.w3.org/1999/xlink" viewBox="118.23 0 1080 488.52"><defs><style>.cls-1{fill:#fff;}.cls-2{fill:#ddc272;}.cls-3{font-size:40px;stroke:#9c834c;stroke-miterlimit:10;font-family:Cinzel-Regular, Cinzel;}.cls-3,.cls-5{fill:#c4a660;}.cls-4{fill:none;}.cls-6{fill:#ba9e5b;}.cls-7{fill:url(#linear-gradient);}.cls-8{fill:url(#radial-gradient);}</style><linearGradient id="linear-gradient" x1="2582.28" y1="-1700.62" x2="3827.58" y2="-3857.55" gradientTransform="translate(3187.75 4493.62) rotate(-76.74)" gradientUnits="userSpaceOnUse"><stop offset="0" stop-color="#c4a660"/><stop offset="1" stop-color="#85aca9"/></linearGradient><radialGradient id="radial-gradient" cx="2283.06" cy="-3126.21" r="1202.19" gradientTransform="translate(3187.75 4493.62) rotate(-76.74)" gradientUnits="userSpaceOnUse"><stop offset="0" stop-color="#c4a660"/><stop offset="0.01" stop-color="#c4a660"/><stop offset="0.46" stop-color="#cdb06b"/><stop offset="1" stop-color="#d0b36e"/></radialGradient></defs><title>arc_02_2</title><g id="Layer_2" data-name="Layer 2"><g id="Layer_2-2" data-name="Layer 2"><path class="cls-1" d="M946.65,392.25a1245.8,1245.8,0,0,1,251.58,88.47v-273a1246.43,1246.43,0,0,0-251.58-88.48c-289.92-68.34-580.06-29-828.42,92.14v273C366.59,363.28,656.73,323.9,946.65,392.25Z"/><path class="cls-2" d="M946.65,119.26a1246.43,1246.43,0,0,1,251.58,88.48V187.39A1264.7,1264.7,0,0,0,785,74.56C547.52,51.36,319,95.31,118.23,190.89V211.4C366.59,90.3,656.73,50.92,946.65,119.26Z"/><path class="cls-2" d="M785,75.56a1264.7,1264.7,0,0,1,413.27,112.83v-72A1348,1348,0,0,0,793,11.92C553.9-11.43,323.36,29.13,118.23,119.64v72.25C319,96.31,547.52,52.36,785,75.56Z"/><text class="cls-3" transform="translate(391.05 81.41) rotate(-11.76)">T</text><text class="cls-3" transform="translate(415.66 76.25) rotate(-10.44)">H</text><text class="cls-3" transform="translate(448.1 70.33) rotate(-9.15)">E</text><text class="cls-3" transform="translate(471.42 66.63) rotate(-8.37)"> </text><text class="cls-3" transform="matrix(0.99, -0.14, 0.14, 0.99, 481.84, 65.1)"> </text><text class="cls-3" transform="matrix(0.99, -0.12, 0.12, 0.99, 492.2, 63.58)">C</text><text class="cls-3" transform="matrix(1, -0.1, 0.1, 1, 522.8, 59.83)">O</text><text class="cls-3" transform="translate(555.99 56.62) rotate(-3.88)">M</text><text class="cls-3" transform="translate(593.6 54.17) rotate(-2.49)">P</text><text class="cls-3" transform="translate(614.32 53.22) rotate(-1.43)">A</text><text class="cls-3" transform="translate(643.27 52.55) rotate(-0.34)">S</text><text class="cls-3" transform="matrix(1, 0.01, -0.01, 1, 662.74, 52.43)">S</text><text class="cls-3" transform="translate(682.26 52.65) rotate(1.21)"> </text><text class="cls-3" transform="matrix(1, 0.03, -0.03, 1, 692.8, 52.87)"> </text><text class="cls-3" transform="translate(703.33 53.12) rotate(2.54)">R</text><text class="cls-3" transform="translate(729.65 54.3) rotate(3.63)">E</text><text class="cls-3" transform="translate(753.17 55.79) rotate(4.71)">T</text><text class="cls-3" transform="translate(778.24 57.83) rotate(5.98)">U</text><text class="cls-3" transform="translate(809.4 61.11) rotate(7.27)">R</text><text class="cls-3" transform="matrix(0.99, 0.15, -0.15, 0.99, 835.5, 64.4)">N</text><text class="cls-3" transform="translate(868.82 69.49) rotate(9.87)">E</text><text class="cls-3" transform="translate(891.62 73.41) rotate(11.12)">D</text><path class="cls-4" d="M785.21,73.07a1276.75,1276.75,0,0,1,280.45,59.67,1259.66,1259.66,0,0,1,132.57,52.93V117a1339.38,1339.38,0,0,0-1080,3.27v68.82a1263.21,1263.21,0,0,1,667-116Z"/><path class="cls-5" d="M792.71,11.41A1337,1337,0,0,1,1198.23,117v-5.46a1344.22,1344.22,0,0,0-1080,3.27v5.46A1338.84,1338.84,0,0,1,792.71,11.41Z"/><path class="cls-4" d="M448.32,101.77C614.14,72.82,782,77.88,947.22,116.83a1248.85,1248.85,0,0,1,251,88.15V190.16a1257.55,1257.55,0,0,0-134.16-53.68,1272.48,1272.48,0,0,0-692.94-31.91,1256.21,1256.21,0,0,0-252.9,89.08v15q47.16-22.93,96-41.83A1244.42,1244.42,0,0,1,448.32,101.77Z"/><path class="cls-6" d="M784.72,77.05a1271.36,1271.36,0,0,1,279.35,59.43,1257.55,1257.55,0,0,1,134.16,53.68v-5.52a1261.63,1261.63,0,0,0-132.57-52.9A1277.41,1277.41,0,0,0,370,99.7a1261.65,1261.65,0,0,0-251.75,88.4v5.55A1258.24,1258.24,0,0,1,784.72,77.05Z"/><path class="cls-4" d="M448.14,373.77c166-29,334-23.91,499.31,15.07a1249.71,1249.71,0,0,1,250.78,88V211.63a1242.44,1242.44,0,0,0-252.39-89c-164.43-38.76-331.47-43.8-496.49-15a1239.07,1239.07,0,0,0-233,64.72q-49.89,19.29-98.16,42.93V480.51q47-22.83,95.64-41.65A1245,1245,0,0,1,448.14,373.77Z"/><path class="cls-7" d="M449.35,107.68c165-28.81,332.06-23.77,496.49,15a1242.44,1242.44,0,0,1,252.39,89v-7.77a1249.69,1249.69,0,0,0-250.78-88c-165.36-39-333.35-44-499.31-15.07a1245,1245,0,0,0-234.27,65.09q-48.59,18.76-95.64,41.65v7.8q48.2-23.58,98.16-42.93A1239.07,1239.07,0,0,1,449.35,107.68Z"/><path class="cls-8" d="M449.39,380.85c165-28.81,332-23.77,496.42,15a1242.13,1242.13,0,0,1,252.42,89v-8.18a1249.15,1249.15,0,0,0-250.73-88c-165.37-39-333.39-44.06-499.38-15.08a1246.21,1246.21,0,0,0-234.31,65.1q-48.56,18.76-95.58,41.63v8.21q48.22-23.61,98.24-43A1238.1,1238.1,0,0,1,449.39,380.85Z"/></g></g></svg>