<svg xmlns="http://www.w3.org/2000/svg" xmlns:xlink="http://www.w3.org/1999/xlink" viewBox="0 0 1080 488.519"><defs><style>.cls-1{isolation:isolate;}.cls-6{fill:#c4a158;}.cls-9{fill:#8f6e2d;}</style></defs><g class="cls-1"><path class="cls-6" d="M244.912,86.965l1.043-.249a2.321,2.321,0,0,0,1.744-2.681l-5.988-25.177-7.647,1.819a2,2,0,0,0-1.228.968,2.073,2.073,0,0,0-.23,1.578l.278,1.168-1.367.475-1.582-6.653.731.11a5.492,5.492,0,0,0,.782.043q.6,0,1.456-.063a18.326,18.326,0,0,0,2.892-.423l14.47-3.44a15.964,15.964,0,0,0,3.3-1.114,13.466,13.466,0,0,0,1.508-.8l.609-.454,1.586,6.671-1.433.193-.279-1.168a2.026,2.026,0,0,0-.931-1.3,2.091,2.091,0,0,0-1.142-.355,2.05,2.05,0,0,0-.4.039l-7.626,1.815,5.981,25.154a2.236,2.236,0,0,0,1.053,1.37,2.193,2.193,0,0,0,1.15.33,2.445,2.445,0,0,0,.566-.069l1.044-.247.332,1.4-10.346,2.46Z"/><path class="cls-6" d="M267.1,81.715l1.049-.222a2.171,2.171,0,0,0,1.433-.983,2.325,2.325,0,0,0,.363-1.736L264.924,54.9a2.256,2.256,0,0,0-1.017-1.4,2.19,2.19,0,0,0-1.2-.359,2.5,2.5,0,0,0-.509.054l-1.052.222L260.855,52l10.407-2.186.3,1.409-1.049.221a2.21,2.21,0,0,0-1.443.968,2.245,2.245,0,0,0-.363,1.706l2.309,10.99,16.632-3.495-2.312-11.007a2.18,2.18,0,0,0-1.534-1.664,2.467,2.467,0,0,0-.675-.094,2.542,2.542,0,0,0-.517.053l-1.047.222-.3-1.41,10.41-2.186.3,1.408-1.048.221a2.172,2.172,0,0,0-1.434.984,2.325,2.325,0,0,0-.362,1.734l5.007,23.838a2.316,2.316,0,0,0,1.026,1.423,2.157,2.157,0,0,0,1.211.377,2.389,2.389,0,0,0,.5-.054l1.051-.22.294,1.41L287.8,78.835l-.3-1.408,1.05-.222A2.2,2.2,0,0,0,290,76.237a2.246,2.246,0,0,0,.363-1.707l-2.236-10.644L271.49,67.38,273.722,78a2.131,2.131,0,0,0,1,1.424,2.237,2.237,0,0,0,1.232.377,2.421,2.421,0,0,0,.5-.054l1.049-.22.3,1.41-10.408,2.185Z"/><path class="cls-6" d="M302.921,74.319l1.054-.2a2.17,2.17,0,0,0,1.458-.947,2.324,2.324,0,0,0,.406-1.726L301.38,47.238a2.3,2.3,0,0,0-1-1.253,2.161,2.161,0,0,0-1.178-.346,2.422,2.422,0,0,0-.458.044l-.965.177-.4-1.391,13.222-2.435a17.98,17.98,0,0,0,2.8-.775,11.889,11.889,0,0,0,2.035-.882l.625-.394,1.227,6.668-1.416.263-.234-1.271a2.1,2.1,0,0,0-2.029-1.724,2.4,2.4,0,0,0-.3.021l-8.315,1.533,2.282,12.387,6.821-1.256a1.688,1.688,0,0,0,1.031-.712,1.593,1.593,0,0,0,.246-1.251l-.2-1.1,1.416-.263,1.44,7.822-1.415.259-.211-1.139a1.575,1.575,0,0,0-.655-1.048,1.6,1.6,0,0,0-.956-.311,1.894,1.894,0,0,0-.257.018l-6.839,1.26,2.2,11.955,5.695-1.049a7.066,7.066,0,0,0,4.331-2.153,10.326,10.326,0,0,0,1.929-4.541l.066-.331,1.464-.272-1.39,8.522-18.794,3.46Z"/><path class="cls-6" d="M367.563,65.521a15.354,15.354,0,0,1-9.517-3.126c-3.388-2.576-5.447-6.347-6.121-11.212s.28-9.054,2.84-12.454,6.331-5.469,11.211-6.146a21.815,21.815,0,0,1,3-.213A18.458,18.458,0,0,1,377,34.159l.2.1,1.943,6.794-1.346.187-.148-.359A9.309,9.309,0,0,0,373.21,35.9a10.92,10.92,0,0,0-4.99-1.156,14.119,14.119,0,0,0-1.927.138,11.132,11.132,0,0,0-8.229,5.009c-1.838,2.842-2.474,6.422-1.889,10.637s2.157,7.5,4.676,9.754a10.908,10.908,0,0,0,7.487,2.853,14.04,14.04,0,0,0,1.6-.095,12.169,12.169,0,0,0,7.472-3.633c1.985-2.133,2.94-5.367,2.839-9.61l-.011-.445,1.325-.186.467,7.575-.049.111c-2.108,4.843-6.056,7.7-11.736,8.487A20.648,20.648,0,0,1,367.563,65.521Z"/><path class="cls-6" d="M402.366,61.226a15.318,15.318,0,0,1-9.91-3.388,16.319,16.319,0,0,1-5.8-11.382,16.308,16.308,0,0,1,3.194-12.367,15.9,15.9,0,0,1,11.2-5.827,21.23,21.23,0,0,1,2.292-.129,15.4,15.4,0,0,1,9.93,3.385A16.267,16.267,0,0,1,419.1,42.9a16.265,16.265,0,0,1-3.216,12.37A15.98,15.98,0,0,1,404.658,61.1,20.992,20.992,0,0,1,402.366,61.226Zm.41-30.74a13.637,13.637,0,0,0-1.467.082,10.753,10.753,0,0,0-8.143,4.787c-1.889,2.815-2.61,6.389-2.147,10.623s1.945,7.565,4.4,9.905a10.53,10.53,0,0,0,7.5,2.99h0a13.726,13.726,0,0,0,1.509-.085A10.778,10.778,0,0,0,412.591,54c1.888-2.817,2.61-6.392,2.146-10.624a17.794,17.794,0,0,0-2.3-7.283,11.441,11.441,0,0,0-4.709-4.473A11,11,0,0,0,402.776,30.486Z"/><path class="cls-6" d="M422.679,57.028l1.2-.094a2.725,2.725,0,0,0,1.761-.774,2.566,2.566,0,0,0,.765-1.772l1.1-28.809,1.2-.1L442.641,50.3l9.638-26.665,1.158-.092,5.67,28.287a2.437,2.437,0,0,0,1.629,1.948,2.826,2.826,0,0,0,1,.175c.087,0,.175,0,.264-.01l1.2-.093.112,1.433-10.515.825-.11-1.392,1.158-.089a1.147,1.147,0,0,0,.865-.5,1.1,1.1,0,0,0,.245-.927l-3.389-20.041L444.6,52.572a16.951,16.951,0,0,0-1.112,4.457l-.029.431-1.189.093L429.9,35.45l-.186,19.718a1.1,1.1,0,0,0,.387.9,1.135,1.135,0,0,0,.8.361l1.286-.1.111,1.392-9.508.745Z"/><path class="cls-6" d="M467.368,53.717l1.07-.055a2.168,2.168,0,0,0,1.569-.748,2.329,2.329,0,0,0,.63-1.657l-1.243-24.545a2.337,2.337,0,0,0-.834-1.418,2.178,2.178,0,0,0-1.444-.518L466,24.827l-.217-1.429L477.8,22.79c.263-.014.523-.02.777-.02a9.495,9.495,0,0,1,6.321,2.064,8.632,8.632,0,0,1,2.908,6.452,8.863,8.863,0,0,1-.646,3.861,8.712,8.712,0,0,1-5.156,4.881,7.393,7.393,0,0,1-2.333.585c-.248.013-.491.02-.731.02a10.306,10.306,0,0,1-4.253-.836l-.278-.125-.07-1.365.613.1a9.49,9.49,0,0,0,1.562.134,7.851,7.851,0,0,0,4-1.076,5.96,5.96,0,0,0,2.859-3.9,5.327,5.327,0,0,0,.164-1.533l-.049-.967a7.259,7.259,0,0,0-1.74-4.5,4.687,4.687,0,0,0-3.627-1.457q-.187,0-.381.009l-4.555.231,1.3,25.735a2.33,2.33,0,0,0,.792,1.567,2.16,2.16,0,0,0,1.5.588l1.2-.056.073,1.437-10.622.537Z"/><path class="cls-6" d="M486.656,52.662l.9-.026a3.383,3.383,0,0,0,1.858-.677,4.587,4.587,0,0,0,1.486-1.916l9.2-23.94c1.291-3.071,1.465-4.065,1.456-4.385l-.015-.5,1.227-.036,12.787,28.133a4.265,4.265,0,0,0,1.544,1.8,3.414,3.414,0,0,0,1.842.564l.951-.027.042,1.438-10.9.333L509,51.979l.895-.027a1.163,1.163,0,0,0,.978-.43,1.4,1.4,0,0,0,.332-.826,2.858,2.858,0,0,0-.178-.895l-2.9-7.05-11.187.341-2.6,7.29a2.75,2.75,0,0,0-.115.856,1.41,1.41,0,0,0,.38.781,1.133,1.133,0,0,0,.935.372l.964-.028.045,1.439-9.84.3Zm11.127-11.917,9.366-.286-4.943-12.08Z"/><path class="cls-6" d="M531.04,53.666a16.322,16.322,0,0,1-4.142-.576,7.711,7.711,0,0,1-3.61-1.932l-.1-.1-.031-.139a13.971,13.971,0,0,1-.164-2.48,12.422,12.422,0,0,1,.653-3.9l.111-.342,1.305-.013-.045.548q-.039.462-.035.922a5.834,5.834,0,0,0,1.532,4.116,5.02,5.02,0,0,0,3.895,1.587,5.905,5.905,0,0,0,4.26-1.572,5,5,0,0,0,1.592-3.851,4.823,4.823,0,0,0-1.586-3.734l-8.514-7.762a7.505,7.505,0,0,1-2.584-5.668,8.043,8.043,0,0,1,2.179-5.707,7.9,7.9,0,0,1,6-2.43h.116a19.51,19.51,0,0,1,3.723.409l2.165-.017.052,6.411-1.4.01,0-.5a3.624,3.624,0,0,0-1.28-2.909,4.934,4.934,0,0,0-3.288-1.083,4.67,4.67,0,0,0-3.469,1.381,4.515,4.515,0,0,0-1.34,3.395,4.577,4.577,0,0,0,1.628,3.491L537.4,39.15a7.671,7.671,0,0,1,2.411,5.892,8.4,8.4,0,0,1-2.337,6.157,8.557,8.557,0,0,1-6.32,2.467Z"/><path class="cls-6" d="M552.919,53.673a16.228,16.228,0,0,1-4.24-.649,7.7,7.7,0,0,1-3.577-1.993l-.1-.1-.028-.139a13.77,13.77,0,0,1-.123-2.483,12.369,12.369,0,0,1,.72-3.892l.116-.341,1.307.01-.057.547c-.031.309-.046.615-.049.923a5.825,5.825,0,0,0,1.461,4.14,5.035,5.035,0,0,0,3.927,1.654h0a5.894,5.894,0,0,0,4.224-1.5,5,5,0,0,0,1.658-3.824,4.819,4.819,0,0,0-1.522-3.76l-8.379-7.908a7.5,7.5,0,0,1-2.488-5.711,8.041,8.041,0,0,1,2.277-5.669,7.863,7.863,0,0,1,5.936-2.328h.1a19.253,19.253,0,0,1,3.832.474l2.165.019-.058,6.413-1.394-.014,0-.5a3.635,3.635,0,0,0-1.232-2.933,4.976,4.976,0,0,0-3.338-1.139h0a4.652,4.652,0,0,0-3.421,1.322,4.514,4.514,0,0,0-1.4,3.371,4.576,4.576,0,0,0,1.568,3.52l8.6,8.083a7.674,7.674,0,0,1,2.309,5.931,8.406,8.406,0,0,1-2.443,6.118,8.524,8.524,0,0,1-6.251,2.358Z"/><path class="cls-6" d="M617.77,55.188a9.573,9.573,0,0,1-3.673-.9,9.367,9.367,0,0,1-2.5-1.622,16.039,16.039,0,0,1-1.38-1.522c-.391-.5-1.4-2.051-3.082-4.755-1.644-2.641-2.614-4.169-2.883-4.543s-.552-.736-.85-1.094a3.511,3.511,0,0,0-2.379-1.453l-.5-.023.077-1.506.557.1a7.16,7.16,0,0,0,.858.082q.509.026,1.234.025l.477,0c3.251,0,5.306-1.28,6.285-3.912a5.27,5.27,0,0,0,.315-1.485l.048-.987a7.285,7.285,0,0,0-1.209-4.5,4.631,4.631,0,0,0-3.464-1.924c-.688-.061-1.561-.119-2.608-.172l-2.313-.113-1.265,25.693a2.169,2.169,0,0,0,.588,1.635,2.217,2.217,0,0,0,1.614.748l.98.049.071,1.445-10.674-.526.07-1.439,1.07.054.132,0a2.2,2.2,0,0,0,1.509-.573,2.258,2.258,0,0,0,.784-1.562l1.2-24.37a2.323,2.323,0,0,0-.631-1.637,2.178,2.178,0,0,0-1.57-.747l-1.07-.052.07-1.439,12.365.611a9.159,9.159,0,0,1,6.515,2.686,8.19,8.19,0,0,1,2.136,6.235,9.692,9.692,0,0,1-2.61,6.319,7.362,7.362,0,0,1-4.407,2.407q.235.23.491.51a16.475,16.475,0,0,1,1.559,2.009c2.321,3.7,3.855,6,4.562,6.856s1.22,1.455,1.518,1.768a12.584,12.584,0,0,0,.972.917,5.536,5.536,0,0,0,1.014.7,5.732,5.732,0,0,0,2.489.694l.5.025-.071,1.438Z"/><path class="cls-6" d="M624.294,55.493l.105-1.434,1.069.076c.063.005.127.008.188.008a2.156,2.156,0,0,0,1.46-.557,2.334,2.334,0,0,0,.828-1.568l1.786-24.555A2.3,2.3,0,0,0,629.073,26a2.2,2.2,0,0,0-1.508-.706l-.976-.071-.041-1.447,13.41.975c.353.025.721.039,1.1.039.566,0,1.171-.029,1.8-.086a11.738,11.738,0,0,0,2.192-.341l.7-.223-.49,6.764-1.438-.105.094-1.287a2.1,2.1,0,0,0-1.829-2.236l-8.431-.613-.914,12.563,6.917.5a1.72,1.72,0,0,0,1.178-.429,1.6,1.6,0,0,0,.554-1.149l.082-1.114,1.435.106-.576,7.929-1.438-.1.084-1.158a1.57,1.57,0,0,0-.368-1.178,1.626,1.626,0,0,0-1.1-.59l-6.936-.5L631.7,53.662l5.777.42c.314.024.619.035.913.035a6.376,6.376,0,0,0,3.819-1.028,10.319,10.319,0,0,0,3.012-3.908l.148-.306,1.483.112-3.492,7.894Z"/><path class="cls-6" d="M656.439,58.193l.132-1.432,1.067.1q.122.012.24.012a2.322,2.322,0,0,0,2.266-2L662.49,29.1l-7.827-.712-.1,0a2,2,0,0,0-1.375.528,2.066,2.066,0,0,0-.721,1.422l-.109,1.2-1.447.013.618-6.807.658.335a11.9,11.9,0,0,0,2.129.694,18.608,18.608,0,0,0,2.877.521l14.811,1.348c.691.062,1.334.1,1.911.1a11.867,11.867,0,0,0,1.577-.1,13.835,13.835,0,0,0,1.687-.283l.719-.233-.62,6.825-1.422-.274.11-1.2a2.178,2.178,0,0,0-1.828-2.316l-7.806-.71L663.991,55.2a2.235,2.235,0,0,0,.561,1.636,2.209,2.209,0,0,0,1.544.793l1.067.1-.131,1.434Z"/><path class="cls-6" d="M696.425,62.853a17.107,17.107,0,0,1-2.025-.125,12.885,12.885,0,0,1-8.665-4.34,11.35,11.35,0,0,1-2.471-9.017l2.057-17.214a1.553,1.553,0,0,0-.7-1.589,2.138,2.138,0,0,0-.92-.317l-1.195-.142.17-1.429,9.862,1.178-.17,1.429-1.195-.142a2.39,2.39,0,0,0-.287-.018,1.769,1.769,0,0,0-1.054.327,1.6,1.6,0,0,0-.674,1.1l-1.992,16.667a10.916,10.916,0,0,0,1.554,7.653,8.138,8.138,0,0,0,6.133,3.53,11.708,11.708,0,0,0,1.379.084,8.488,8.488,0,0,0,5.524-1.918,9.7,9.7,0,0,0,3.354-6.629l2.064-17.256a1.586,1.586,0,0,0-.4-1.2,1.855,1.855,0,0,0-1.23-.617l-1.2-.141.17-1.43,9.078,1.084-.173,1.43-1.2-.143a2.337,2.337,0,0,0-.261-.015,1.825,1.825,0,0,0-1.063.332,1.516,1.516,0,0,0-.684,1.047L708.159,52.3a11.613,11.613,0,0,1-4.412,8.209A11.759,11.759,0,0,1,696.425,62.853Z"/><path class="cls-6" d="M740.032,68.329a9.548,9.548,0,0,1-3.57-1.249,9.218,9.218,0,0,1-2.339-1.853A16.465,16.465,0,0,1,732.9,63.58c-.342-.533-1.2-2.178-2.614-5.027-1.723-3.467-2.276-4.523-2.437-4.8q-.346-.59-.74-1.169a3.52,3.52,0,0,0-2.23-1.673l-.5-.072.218-1.492.547.152a7.355,7.355,0,0,0,.847.164q.552.081,1.372.155a11.211,11.211,0,0,0,1.362.087,5.675,5.675,0,0,0,5.6-3.344,5.209,5.209,0,0,0,.454-1.449l.143-.98a7.291,7.291,0,0,0-.773-4.6,4.626,4.626,0,0,0-3.264-2.244q-1.023-.192-2.58-.42l-2.291-.334L722.3,61.992a2.167,2.167,0,0,0,.428,1.684,2.215,2.215,0,0,0,1.536.9l.97.142-.067,1.445L714.59,64.619l.207-1.426,1.061.156a2.59,2.59,0,0,0,.369.028,2.191,2.191,0,0,0,1.318-.439,2.261,2.261,0,0,0,.93-1.479l3.519-24.145a2.315,2.315,0,0,0-.473-1.69,2.165,2.165,0,0,0-1.491-.892l-1.06-.156.207-1.425,12.251,1.787a9.17,9.17,0,0,1,6.229,3.3,8.2,8.2,0,0,1,1.531,6.412,9.694,9.694,0,0,1-3.2,6.041,7.371,7.371,0,0,1-4.617,1.975c.142.168.288.353.44.554a16.5,16.5,0,0,1,1.361,2.149c1.962,3.906,3.267,6.346,3.887,7.26.627.929,1.079,1.569,1.342,1.9a12.1,12.1,0,0,0,.88,1.005,5.455,5.455,0,0,0,.946.792,5.707,5.707,0,0,0,2.408.926l.5.072-.208,1.425Z"/><path class="cls-6" d="M775.366,74.983,756.727,46.506l-3.554,20.338a2.058,2.058,0,0,0,.774,2.017,2.13,2.13,0,0,0,1.01.468l1.315.228-.249,1.419-9.914-1.733.249-1.419,1.317.232a2.4,2.4,0,0,0,.41.037A2.1,2.1,0,0,0,749.3,67.7a2.065,2.065,0,0,0,.9-1.422l3.932-22.5a33.307,33.307,0,0,0,.513-4.7l.064-1.283,1.205.209,18.639,28.476,3.539-20.25a2.2,2.2,0,0,0-.407-1.65,2.118,2.118,0,0,0-1.412-.887l-1.317-.229.249-1.418,9.914,1.732-.249,1.419-1.271-.223a2.334,2.334,0,0,0-.412-.036,2.1,2.1,0,0,0-1.218.389,2.171,2.171,0,0,0-.939,1.391l-3.9,22.345a36.078,36.078,0,0,0-.523,4.754l-.086,1.364Z"/><path class="cls-6" d="M784.322,76.066l.284-1.412,1.051.212a2.387,2.387,0,0,0,.478.049,2.155,2.155,0,0,0,1.226-.387,2.336,2.336,0,0,0,1.019-1.451l4.853-24.137a2.3,2.3,0,0,0-.468-1.537,2.2,2.2,0,0,0-1.407-.888l-.961-.2.144-1.437,13.18,2.649a17.781,17.781,0,0,0,2.882.318c.329.011.628.017.9.017a7.867,7.867,0,0,0,1.318-.081l.727-.134L808.21,54.3l-1.41-.281.253-1.268a2.1,2.1,0,0,0-1.534-2.448l-8.288-1.666-2.483,12.349,6.8,1.368a2.083,2.083,0,0,0,.265.017,1.679,1.679,0,0,0,.956-.3,1.6,1.6,0,0,0,.7-1.071l.22-1.094,1.412.284-1.569,7.8-1.411-.281.229-1.139a1.581,1.581,0,0,0-.219-1.216,1.626,1.626,0,0,0-1.017-.722l-6.818-1.37-2.4,11.917,5.679,1.141a10.715,10.715,0,0,0,2.107.229,5.573,5.573,0,0,0,2.714-.619,10.318,10.318,0,0,0,3.476-3.5l.186-.284,1.458.294-4.454,7.394Z"/><path class="cls-6" d="M828.7,84.985a20.21,20.21,0,0,1-4.443-.522l-15.035-3.4.316-1.4,1.045.234a2.354,2.354,0,0,0,.53.062,2.167,2.167,0,0,0,1.184-.358,2.333,2.333,0,0,0,1.052-1.427l5.431-24.015a1.757,1.757,0,0,0-.355-1.515,2.436,2.436,0,0,0-1.461-.953L816,51.471l.176-1.437,15.088,3.413a16.26,16.26,0,0,1,10.508,6.874,15.388,15.388,0,0,1,1.878,12.23A15.381,15.381,0,0,1,836.7,82.78,15.135,15.135,0,0,1,828.7,84.985Zm-3.93-2.784a13.174,13.174,0,0,0,2.892.336,10.978,10.978,0,0,0,3.595-.6,11.3,11.3,0,0,0,5.157-3.7,16.146,16.146,0,0,0,3.052-6.64c.9-3.978.54-7.465-1.067-10.367a11.118,11.118,0,0,0-7.638-5.526l-7.967-1.8L816.8,80.4Z"/><path class="cls-9" d="M255.377,52.923l1.282,5.394-.437.059-.174-.728a2.53,2.53,0,0,0-1.15-1.6,2.6,2.6,0,0,0-1.41-.433,2.566,2.566,0,0,0-.49.048L244.864,57.6l6.1,25.64a2.753,2.753,0,0,0,1.283,1.685,2.7,2.7,0,0,0,1.406.4,2.9,2.9,0,0,0,.682-.083l.557-.131.1.427-9.374,2.23-.1-.428.556-.133a2.819,2.819,0,0,0,2.119-3.262l-6.108-25.684-8.133,1.934A2.512,2.512,0,0,0,232.4,61.4a2.574,2.574,0,0,0-.283,1.944l.173.727-.418.146-1.283-5.4a5.953,5.953,0,0,0,.856.049q.61,0,1.492-.064a18.758,18.758,0,0,0,2.972-.436l14.469-3.44a16.279,16.279,0,0,0,3.412-1.152,14.726,14.726,0,0,0,1.584-.851m.621-1.71-1.218.908a14.2,14.2,0,0,1-1.431.757,15.371,15.371,0,0,1-3.2,1.075l-14.468,3.441a17.815,17.815,0,0,1-2.813.41c-.562.041-1.04.062-1.42.062a5.057,5.057,0,0,1-.708-.037l-1.464-.22.343,1.44,1.283,5.394.256,1.078,1.046-.365.418-.145.853-.3-.209-.878-.173-.728a1.574,1.574,0,0,1,.177-1.215,1.511,1.511,0,0,1,.951-.74l7.119-1.693,5.878,24.711a1.825,1.825,0,0,1-1.377,2.058l-.558.133-.974.233.233.973.1.428.233.97.972-.231,9.374-2.229.972-.231-.231-.973-.1-.427-.231-.973-.973.23-.557.132a1.959,1.959,0,0,1-.451.056,1.713,1.713,0,0,1-.893-.258,1.751,1.751,0,0,1-.833-1.095l-5.857-24.631,7.161-1.7a1.536,1.536,0,0,1,1.133.256,1.531,1.531,0,0,1,.713.989l.174.73.209.879.9-.12.438-.058,1.1-.147-.256-1.076-1.282-5.395L256,51.213Z"/><path class="cls-9" d="M291.287,46.12l.09.43-.56.118a2.672,2.672,0,0,0-1.749,1.2,2.828,2.828,0,0,0-.436,2.093l5.011,23.855a2.826,2.826,0,0,0,1.242,1.74,2.67,2.67,0,0,0,1.484.458,2.906,2.906,0,0,0,.6-.065l.559-.117.09.431-9.43,1.981-.09-.43.56-.119a2.7,2.7,0,0,0,1.753-1.177,2.757,2.757,0,0,0,.441-2.071L288.51,63.294l-17.612,3.7,2.334,11.11a2.633,2.633,0,0,0,1.221,1.744,2.753,2.753,0,0,0,1.5.454,2.943,2.943,0,0,0,.6-.065l.559-.117.091.431-9.43,1.98-.091-.429.56-.119a2.668,2.668,0,0,0,1.749-1.2,2.84,2.84,0,0,0,.438-2.093l-5.021-23.9a2.766,2.766,0,0,0-1.238-1.719,2.707,2.707,0,0,0-1.467-.438,2.95,2.95,0,0,0-.611.066l-.561.118-.09-.431,9.43-1.981.091.431-.56.118a2.7,2.7,0,0,0-1.754,1.178,2.745,2.745,0,0,0-.441,2.07l2.415,11.5L288.238,62l-2.415-11.5a2.672,2.672,0,0,0-1.866-2.036,2.934,2.934,0,0,0-.832-.121,3.018,3.018,0,0,0-.618.065l-.56.118-.091-.43,9.431-1.981m.774-1.184-.98.206-9.43,1.98-.98.206.207.979.091.431.206.978.979-.206.559-.118a1.934,1.934,0,0,1,.964.037,1.664,1.664,0,0,1,1.174,1.309l2.2,10.49L271.4,64.517,269.19,54a1.729,1.729,0,0,1,.293-1.307,1.7,1.7,0,0,1,1.129-.757l.561-.119.978-.206-.206-.979-.091-.43-.206-.978-.978.206-9.429,1.98-.977.2.2.977.09.432.2.981.981-.206.561-.118a1.932,1.932,0,0,1,.405-.045,1.706,1.706,0,0,1,.933.284,1.754,1.754,0,0,1,.8,1.116L269.455,78.9a1.806,1.806,0,0,1-.3,1.341,1.672,1.672,0,0,1-1.117.767l-.56.118-.979.207.207.979.091.429.206.977.978-.2,9.43-1.981.979-.205-.207-.98-.09-.43-.206-.977-.978.2-.56.117a1.865,1.865,0,0,1-.4.044,1.753,1.753,0,0,1-.964-.3,1.637,1.637,0,0,1-.779-1.105l-2.129-10.132,15.655-3.288,2.137,10.174a1.731,1.731,0,0,1-.293,1.307,1.7,1.7,0,0,1-1.128.756l-.561.119-.979.206.206.979.091.431.206.977.978-.205,9.43-1.982.977-.2-.2-.977-.09-.431-.2-.98-.98.2-.559.117a1.852,1.852,0,0,1-.395.044,1.671,1.671,0,0,1-.937-.3,1.821,1.821,0,0,1-.819-1.146l-5-23.818a1.806,1.806,0,0,1,.3-1.34,1.67,1.67,0,0,1,1.117-.767l.56-.119.977-.206-.2-.977-.09-.429-.205-.98Z"/><path class="cls-9" d="M315.69,40.8l1,5.451-.432.08-.144-.779a2.6,2.6,0,0,0-2.522-2.133,2.753,2.753,0,0,0-.37.026L304.4,45.071l2.462,13.371,7.314-1.346a2.2,2.2,0,0,0,1.351-.92,2.094,2.094,0,0,0,.328-1.626l-.112-.606.433-.08,1.259,6.837L317,60.78l-.12-.648a2.141,2.141,0,0,0-2.1-1.768,2.366,2.366,0,0,0-.322.022L307.1,59.74l2.382,12.939,6.188-1.139a7.5,7.5,0,0,0,4.627-2.329,10.75,10.75,0,0,0,2.032-4.759l.433-.08-1.219,7.473-17.958,3.306-.08-.431.562-.105a2.665,2.665,0,0,0,1.779-1.155,2.831,2.831,0,0,0,.489-2.08l-4.462-24.232a2.825,2.825,0,0,0-1.231-1.586,2.664,2.664,0,0,0-1.443-.423,3.077,3.077,0,0,0-.55.051l-.519.1-.123-.426,12.679-2.334a18.483,18.483,0,0,0,2.873-.8,12.267,12.267,0,0,0,2.132-.93m.717-1.632-1.249.786a11.063,11.063,0,0,1-1.939.835,17.661,17.661,0,0,1-2.715.754l-12.679,2.334-1.087.2.307,1.061.123.426.251.87.891-.164.52-.1a1.972,1.972,0,0,1,.368-.035,1.668,1.668,0,0,1,.911.27,1.814,1.814,0,0,1,.792.987l4.45,24.165a1.806,1.806,0,0,1-.329,1.331,1.671,1.671,0,0,1-1.136.74l-.565.1-.983.183.182.983.081.432.182.982.982-.181,17.958-3.307.692-.127.114-.695,1.219-7.473.229-1.4-1.4.259-.433.08-.665.123-.133.663a9.829,9.829,0,0,1-1.826,4.322,6.6,6.6,0,0,1-4.034,1.98l-5.2.957-2.021-10.971,6.345-1.168a1.409,1.409,0,0,1,.169-.011,1.091,1.091,0,0,1,.665.218,1.066,1.066,0,0,1,.453.73l.121.65.181.981.982-.179.432-.079.985-.18-.181-.985-1.259-6.837-.181-.984-.984.182-.433.08-.982.182.181.982.111.606a1.089,1.089,0,0,1-.167.877,1.209,1.209,0,0,1-.758.515l-6.281,1.155-2.1-11.4,7.845-1.445a1.87,1.87,0,0,1,.189-.01,1.519,1.519,0,0,1,.9.306,1.5,1.5,0,0,1,.636,1.007l.143.78.181.985.985-.182.432-.081.983-.182-.181-.982-1-5.451-.267-1.451Z"/><path class="cls-9" d="M368.981,32.87a17.886,17.886,0,0,1,7.8,1.74l1.724,6.024-.393.055a9.756,9.756,0,0,0-4.68-5.237,11.372,11.372,0,0,0-5.215-1.208,14.453,14.453,0,0,0-2,.142,11.562,11.562,0,0,0-8.581,5.232Q354.771,44.06,355.68,50.6t4.837,10.057a11.346,11.346,0,0,0,7.821,2.98,14.574,14.574,0,0,0,1.662-.1,12.613,12.613,0,0,0,7.781-3.789q3.132-3.366,2.973-9.963l.348-.049.426,6.916q-3.066,7.044-11.346,8.192a20.105,20.105,0,0,1-2.619.178A14.79,14.79,0,0,1,358.349,62q-4.941-3.756-5.929-10.883t2.744-12.085q3.731-4.958,10.88-5.951a21.466,21.466,0,0,1,2.937-.208m0-1a22.5,22.5,0,0,0-3.074.217c-5.017.7-8.9,2.83-11.542,6.341s-3.63,7.824-2.936,12.824,2.818,8.883,6.315,11.541a15.839,15.839,0,0,0,9.819,3.228,21.027,21.027,0,0,0,2.749-.187c5.871-.814,9.95-3.769,12.133-8.784l.1-.22-.015-.24-.425-6.916-.067-1.079-1.07.15-.349.049-.882.124.021.89c.1,4.108-.812,7.223-2.705,9.258a11.693,11.693,0,0,1-7.186,3.479,13.47,13.47,0,0,1-1.525.088,10.288,10.288,0,0,1-7.154-2.725c-2.428-2.173-3.946-5.352-4.514-9.449s.043-7.559,1.814-10.3a10.513,10.513,0,0,1,7.878-4.784,13.419,13.419,0,0,1,1.858-.133,10.427,10.427,0,0,1,4.763,1.1,8.718,8.718,0,0,1,4.207,4.723l.294.719.769-.107.393-.055,1.14-.159-.317-1.106-1.723-6.023-.124-.434-.407-.194a18.941,18.941,0,0,0-8.234-1.838Z"/><path class="cls-9" d="M403.346,28.633a14.851,14.851,0,0,1,9.618,3.274q4.856,3.917,5.638,11.045t-3.11,12A15.431,15.431,0,0,1,404.6,60.6a20.5,20.5,0,0,1-2.237.126,14.769,14.769,0,0,1-9.6-3.277q-4.833-3.918-5.616-11.048t3.088-12a15.36,15.36,0,0,1,10.867-5.64,20.5,20.5,0,0,1,2.237-.126m-.429,30.74a14.205,14.205,0,0,0,1.564-.088,11.211,11.211,0,0,0,8.525-5.007q2.948-4.4,2.228-10.957a18.217,18.217,0,0,0-2.371-7.486,11.88,11.88,0,0,0-4.915-4.662,11.437,11.437,0,0,0-5.171-1.187,13.9,13.9,0,0,0-1.523.085,11.189,11.189,0,0,0-8.5,5q-2.949,4.4-2.229,10.956t4.551,10.213a10.971,10.971,0,0,0,7.844,3.128m.43-31.74h0a21.484,21.484,0,0,0-2.347.132,16.388,16.388,0,0,0-11.541,6.012,16.8,16.8,0,0,0-3.3,12.733,16.8,16.8,0,0,0,5.981,11.716,15.807,15.807,0,0,0,10.225,3.5,21.765,21.765,0,0,0,2.347-.132,16.463,16.463,0,0,0,11.561-6.014A16.755,16.755,0,0,0,419.6,42.843a16.747,16.747,0,0,0-6-11.714,15.889,15.889,0,0,0-10.245-3.5Zm-.43,30.74a9.92,9.92,0,0,1-7.154-2.851c-2.367-2.257-3.8-5.487-4.246-9.6s.243-7.575,2.064-10.29a10.147,10.147,0,0,1,7.782-4.568,13.153,13.153,0,0,1,1.414-.079,10.512,10.512,0,0,1,4.726,1.082,10.961,10.961,0,0,1,4.5,4.282,17.327,17.327,0,0,1,2.234,7.08c.451,4.113-.243,7.575-2.065,10.292a10.172,10.172,0,0,1-7.8,4.569,13.507,13.507,0,0,1-1.456.082Z"/><path class="cls-9" d="M453.034,24.077l5.583,27.853a2.926,2.926,0,0,0,1.947,2.319,3.313,3.313,0,0,0,1.169.206c.1,0,.2,0,.3-.013l.7-.054.034.437-9.518.747-.031-.4.658-.051a1.646,1.646,0,0,0,1.225-.691,1.6,1.6,0,0,0,.337-1.329l-3.7-21.91-7.6,21.207A17.345,17.345,0,0,0,442.993,57l-.438.034L429.416,33.565l-.2,21.6a1.589,1.589,0,0,0,.54,1.26,1.626,1.626,0,0,0,1.149.5c.042,0,.083,0,.125-.005l.7-.056.032.4-8.51.667-.034-.438.7-.055a3.234,3.234,0,0,0,2.069-.913,3.065,3.065,0,0,0,.916-2.1l1.085-28.375.439-.035L442.739,51.5l9.9-27.39.394-.031m.806-1.067-.885.07-.395.031-.642.052-.219.606L442.541,49.1,429.3,25.517l-.314-.558-.638.051-.439.035-.885.071-.034.888L425.9,54.379a2.072,2.072,0,0,1-.613,1.422,2.25,2.25,0,0,1-1.45.634l-.7.055-1,.079.078,1,.034.438.078,1,1-.078,8.51-.667,1-.078-.078-1-.031-.4-.08-1-1,.078-.7.056h-.013a.639.639,0,0,1-.489-.22.6.6,0,0,1-.234-.491l.169-17.876,11.3,20.183.313.558.637-.05.439-.034.862-.067.058-.862a16.464,16.464,0,0,1,1.082-4.315l6.317-17.617,3.067,18.141a.62.62,0,0,1-.148.56.647.647,0,0,1-.506.3l-.658.051-1,.077.079,1,.031.4.079,1,1-.079,9.519-.747,1-.078-.078-1-.034-.437-.078-1-1,.078-.7.054c-.076.006-.151.01-.225.01a2.293,2.293,0,0,1-.819-.143,1.926,1.926,0,0,1-1.317-1.583L454.015,23.88l-.175-.87Z"/><path class="cls-9" d="M478.581,23.27a8.971,8.971,0,0,1,6,1.946,8.117,8.117,0,0,1,2.732,6.1,8.327,8.327,0,0,1-.609,3.644,8.2,8.2,0,0,1-4.878,4.608,6.942,6.942,0,0,1-2.175.55c-.238.013-.474.018-.705.018a9.783,9.783,0,0,1-4.048-.791l-.022-.439a9.938,9.938,0,0,0,1.643.141,8.3,8.3,0,0,0,4.253-1.144,6.484,6.484,0,0,0,3.092-4.209,5.787,5.787,0,0,0,.179-1.684c-.026-.527-.043-.849-.049-.966a7.719,7.719,0,0,0-1.874-4.818,5.207,5.207,0,0,0-3.993-1.616c-.133,0-.268,0-.405.01l-5.054.256,1.327,26.235a2.838,2.838,0,0,0,.956,1.912,2.66,2.66,0,0,0,1.841.717c.051,0,.1,0,.156,0l.572-.028.022.44-9.624.486-.022-.44.571-.029a2.665,2.665,0,0,0,1.914-.912,2.831,2.831,0,0,0,.759-2l-1.243-24.564a2.858,2.858,0,0,0-1.015-1.778,2.688,2.688,0,0,0-1.763-.633c-.054,0-.109,0-.164,0l-.527.026-.067-.437,11.47-.58q.383-.02.753-.019m0-1h0c-.263,0-.531.006-.8.021l-11.469.58-1.1.055.166,1.094.066.436.136.892.9-.043.527-.026.116,0a1.676,1.676,0,0,1,1.126.4A1.84,1.84,0,0,1,468.9,26.8l1.24,24.5a1.8,1.8,0,0,1-.5,1.277,1.67,1.67,0,0,1-1.223.585l-.573.029-1,.051.051,1,.022.439.051,1,1-.051,9.624-.486,1-.05-.051-1-.023-.439-.051-1-1,.05-.571.028-.107,0a1.659,1.659,0,0,1-1.17-.459,1.83,1.83,0,0,1-.631-1.26l-.545-10.783.042.019a10.823,10.823,0,0,0,4.458.879q.372,0,.756-.019a7.8,7.8,0,0,0,2.5-.622,9.194,9.194,0,0,0,5.432-5.159,9.352,9.352,0,0,0,.68-4.071,9.107,9.107,0,0,0-3.084-6.808,9.975,9.975,0,0,0-6.643-2.183Zm-4.867,3.55,4.055-.205c.121-.006.239-.009.355-.009a4.219,4.219,0,0,1,3.263,1.3,6.8,6.8,0,0,1,1.607,4.215l.007.147.04.79a4.8,4.8,0,0,1-.151,1.394,5.475,5.475,0,0,1-2.619,3.583,7.271,7.271,0,0,1-3.755,1.01,9.017,9.017,0,0,1-1.478-.127l-.718-.12-.606-11.976Z"/><path class="cls-9" d="M502.453,21.69,515.1,49.521a4.75,4.75,0,0,0,1.734,2.015,3.941,3.941,0,0,0,2.107.639l.114,0,.352-.011.013.44-9.9.3-.012-.44.395-.012a1.644,1.644,0,0,0,1.367-.636,1.862,1.862,0,0,0,.428-1.135,3.372,3.372,0,0,0-.208-1.051l-3.044-7.39-11.874.363-2.717,7.611a3.281,3.281,0,0,0-.144,1.039,1.846,1.846,0,0,0,.5,1.085,1.616,1.616,0,0,0,1.32.553h.084l.4-.012.013.439-8.84.27-.013-.439.395-.012a3.857,3.857,0,0,0,2.134-.77,5.043,5.043,0,0,0,1.652-2.119l9.216-23.965a16.141,16.141,0,0,0,1.489-4.58l.395-.012m-5.388,19.578,10.82-.331-5.71-13.955-5.11,14.286m6.023-20.6-.665.02-.395.012-1,.029.03,1c0,.177-.081,1-1.411,4.163L490.43,49.862a4.082,4.082,0,0,1-1.308,1.689,2.857,2.857,0,0,1-1.587.585l-.393.012-1,.03.031,1,.014.439.031,1,1-.031,8.84-.269,1-.03-.031-1-.014-.439-.031-1-1,.029-.4.012h-.054c-.392,0-.5-.134-.55-.191a1.029,1.029,0,0,1-.266-.479,2.3,2.3,0,0,1,.1-.7l2.478-6.943,10.5-.32,2.78,6.75a2.332,2.332,0,0,1,.134.7.938.938,0,0,1-.236.516c-.047.064-.156.213-.59.226l-.4.011-1,.03.029,1,.013.44.029,1,1-.031,9.9-.3,1-.03-.029-1-.012-.44-.029-1-1,.031-.353.01-.083,0a2.941,2.941,0,0,1-1.579-.488A3.739,3.739,0,0,1,516,49.081l-12.637-27.8-.275-.606ZM498.5,40.223l3.737-10.448,4.176,10.206-7.913.242Z"/><path class="cls-9" d="M531.87,21.128a19,19,0,0,1,3.676.408l1.716-.013.045,5.411-.4,0a4.135,4.135,0,0,0-1.457-3.288,5.393,5.393,0,0,0-3.611-1.2h-.073a5.148,5.148,0,0,0-3.75,1.528,5.035,5.035,0,0,0-1.486,3.752,5.1,5.1,0,0,0,1.792,3.857l8.735,7.936a7.161,7.161,0,0,1,2.246,5.525,7.879,7.879,0,0,1-2.2,5.805,8.041,8.041,0,0,1-5.965,2.315h-.105a15.782,15.782,0,0,1-4.014-.56,7.2,7.2,0,0,1-3.381-1.8,13.77,13.77,0,0,1-.152-2.375,11.833,11.833,0,0,1,.629-3.745l.4,0c-.028.324-.04.646-.037.968a6.373,6.373,0,0,0,1.665,4.453,5.544,5.544,0,0,0,4.262,1.746h.066a6.393,6.393,0,0,0,4.54-1.71,5.521,5.521,0,0,0,1.746-4.217,5.341,5.341,0,0,0-1.75-4.1L526.5,34.064a6.992,6.992,0,0,1-2.421-5.3,7.52,7.52,0,0,1,2.046-5.363,7.385,7.385,0,0,1,5.635-2.27h.112m0-1h-.121a8.376,8.376,0,0,0-6.36,2.591,8.52,8.52,0,0,0-2.312,6.05,7.981,7.981,0,0,0,2.748,6.034l8.512,7.761a4.348,4.348,0,0,1,1.424,3.369,4.519,4.519,0,0,1-1.437,3.485,5.382,5.382,0,0,1-3.858,1.434h-.057a4.548,4.548,0,0,1-3.529-1.427,5.357,5.357,0,0,1-1.4-3.78c0-.293.009-.588.033-.876l.092-1.095-1.1.011-.4,0-.719.007-.222.684a12.871,12.871,0,0,0-.678,4.062,13.975,13.975,0,0,0,.177,2.585l.062.278.2.2a8.2,8.2,0,0,0,3.839,2.065,16.83,16.83,0,0,0,4.27.594h.114a9.036,9.036,0,0,0,6.673-2.618,8.883,8.883,0,0,0,2.479-6.51,8.15,8.15,0,0,0-2.576-6.259L529,30.845a4.1,4.1,0,0,1-1.465-3.125,4.044,4.044,0,0,1,1.194-3.038,4.145,4.145,0,0,1,3.049-1.234h.066a4.391,4.391,0,0,1,2.965.964,3.149,3.149,0,0,1,1.1,2.532l.008,1,1-.007.4,0,1-.008-.008-1-.045-5.411-.009-1-1,.008-1.614.012a19.983,19.983,0,0,0-3.77-.407Z"/><path class="cls-9" d="M553.986,21.149h.1a18.759,18.759,0,0,1,3.78.474l1.716.015-.048,5.412-.4,0a4.144,4.144,0,0,0-1.4-3.313,5.435,5.435,0,0,0-3.663-1.263h-.061a5.134,5.134,0,0,0-3.713,1.464,5.029,5.029,0,0,0-1.551,3.726,5.1,5.1,0,0,0,1.726,3.888l8.6,8.083a7.167,7.167,0,0,1,2.152,5.563,7.89,7.89,0,0,1-2.295,5.767,8.007,8.007,0,0,1-5.9,2.213h-.105a15.678,15.678,0,0,1-4.109-.63,7.181,7.181,0,0,1-3.349-1.855,13.656,13.656,0,0,1-.112-2.377,11.863,11.863,0,0,1,.693-3.735l.4,0c-.033.324-.049.647-.052.969a6.364,6.364,0,0,0,1.588,4.479,5.557,5.557,0,0,0,4.3,1.82h.082a6.366,6.366,0,0,0,4.487-1.631,5.521,5.521,0,0,0,1.819-4.187,5.344,5.344,0,0,0-1.68-4.129L548.6,33.994a6.994,6.994,0,0,1-2.33-5.345,7.528,7.528,0,0,1,2.138-5.327,7.358,7.358,0,0,1,5.575-2.173m0-1a8.349,8.349,0,0,0-6.3,2.482,8.533,8.533,0,0,0-2.415,6.01,7.985,7.985,0,0,0,2.645,6.081l8.378,7.906a4.348,4.348,0,0,1,1.366,3.393,4.519,4.519,0,0,1-1.5,3.46,5.356,5.356,0,0,1-3.809,1.366h-.072a4.562,4.562,0,0,1-3.561-1.487,5.354,5.354,0,0,1-1.333-3.8c0-.3.018-.59.047-.876l.112-1.094-1.1-.008-.4,0-.72-.005-.233.681a12.894,12.894,0,0,0-.747,4.05,14.052,14.052,0,0,0,.132,2.588l.058.278.2.207a8.2,8.2,0,0,0,3.8,2.13,16.728,16.728,0,0,0,4.372.668h.114a9.007,9.007,0,0,0,6.6-2.5,8.887,8.887,0,0,0,2.591-6.467,8.159,8.159,0,0,0-2.468-6.3l-8.6-8.082a4.1,4.1,0,0,1-1.411-3.149,4.036,4.036,0,0,1,1.246-3.018,4.136,4.136,0,0,1,3.018-1.182h.052a4.436,4.436,0,0,1,3.014,1.016,3.159,3.159,0,0,1,1.06,2.552l-.009,1,1,.01.4,0,1,.01.009-1,.048-5.412.009-1-1-.009-1.613-.014a19.735,19.735,0,0,0-3.882-.475Z"/><path class="cls-9" d="M594.129,22.686l11.865.585a8.644,8.644,0,0,1,6.175,2.528,7.683,7.683,0,0,1,2,5.87,9.162,9.162,0,0,1-2.477,6,6.718,6.718,0,0,1-5.055,2.319c-.121,0-.244,0-.367-.009a6.013,6.013,0,0,1,1.5,1.285,15.856,15.856,0,0,1,1.512,1.947q3.513,5.592,4.594,6.9t1.542,1.794a12.382,12.382,0,0,0,1.011.953,5.894,5.894,0,0,0,1.107.759,6.186,6.186,0,0,0,2.694.75l-.021.44-2.417-.119a9.03,9.03,0,0,1-3.483-.854,8.9,8.9,0,0,1-2.369-1.527,15.732,15.732,0,0,1-1.338-1.476q-.56-.711-3.049-4.71t-2.9-4.57q-.412-.57-.87-1.121a3.966,3.966,0,0,0-2.739-1.633l.022-.44a7.568,7.568,0,0,0,.92.089q.519.025,1.258.026h.151c.11,0,.22,0,.327,0q5.178,0,6.754-4.238a5.719,5.719,0,0,0,.345-1.634q.038-.768.048-.989a7.735,7.735,0,0,0-1.3-4.822,5.148,5.148,0,0,0-3.816-2.127q-1.052-.093-2.635-.174l-2.812-.137-1.29,26.192a2.669,2.669,0,0,0,.716,1.995,2.72,2.72,0,0,0,1.96.911l.528.027.021.442-9.624-.475.022-.439.571.028c.053,0,.105,0,.156,0a2.7,2.7,0,0,0,1.839-.7,2.757,2.757,0,0,0,.952-1.893l1.2-24.389a2.835,2.835,0,0,0-.76-2,2.67,2.67,0,0,0-1.915-.91l-.572-.028.022-.439m-.95-1.048-.049,1-.022.439-.048,1,1,.05.571.028a1.669,1.669,0,0,1,1.224.582,1.828,1.828,0,0,1,.5,1.316l-1.2,24.351a1.739,1.739,0,0,1-.615,1.193,1.692,1.692,0,0,1-1.176.447q-.054,0-.108,0l-.571-.028-1-.049-.049,1-.022.439-.049,1,1,.049,9.624.475,1.1.054-.053-1.1-.021-.443-.044-.905-.905-.045-.528-.026a1.725,1.725,0,0,1-1.268-.583,1.67,1.67,0,0,1-.459-1.276l.532-10.822L601,39.8a3.062,3.062,0,0,1,2.026,1.282c.279.337.559.7.822,1.06.178.248.822,1.235,2.863,4.512,1.693,2.72,2.711,4.29,3.113,4.8a16.919,16.919,0,0,0,1.423,1.571,9.709,9.709,0,0,0,2.638,1.715,10.067,10.067,0,0,0,3.865.95l2.417.12,1,.049.049-1,.021-.44.049-1-1-.05a5.133,5.133,0,0,1-2.264-.628,5.018,5.018,0,0,1-.938-.642,12.015,12.015,0,0,1-.935-.881c-.291-.305-.794-.891-1.5-1.742s-2.214-3.127-4.518-6.8a17.069,17.069,0,0,0-1.5-1.952,8.065,8.065,0,0,0,3.79-2.375,10.175,10.175,0,0,0,2.745-6.635,8.676,8.676,0,0,0-2.27-6.6,9.64,9.64,0,0,0-6.857-2.845l-11.865-.585-1-.049Zm7.488,15.635.584-11.87,1.814.089c1.021.051,1.894.109,2.595.171a4.148,4.148,0,0,1,3.1,1.719,6.814,6.814,0,0,1,1.112,4.215l-.012.252-.035.708a4.765,4.765,0,0,1-.288,1.347c-.892,2.4-2.795,3.573-5.812,3.573-.1,0-.2,0-.3,0h-.176c-.474,0-.876-.008-1.209-.025a6.722,6.722,0,0,1-.795-.074l-.573-.1Z"/><path class="cls-9" d="M627.063,24.313l12.859.935c.365.026.744.04,1.137.04q.876,0,1.844-.088a12.04,12.04,0,0,0,2.3-.362l-.4,5.529-.44-.032.058-.789a2.6,2.6,0,0,0-2.27-2.769l-8.952-.651-.986,13.561,7.416.539h.061a2.194,2.194,0,0,0,1.479-.549,2.1,2.1,0,0,0,.727-1.492l.044-.615.439.033-.5,6.933-.439-.031.047-.659A2.069,2.069,0,0,0,641,42.312a2.117,2.117,0,0,0-1.423-.766L632.114,41l-.954,13.121,6.275.457q.492.036.95.036a6.83,6.83,0,0,0,4.114-1.124,10.741,10.741,0,0,0,3.166-4.094l.438.034-3.062,6.924-18.212-1.326.032-.438.571.041c.075.005.15.008.224.008a2.656,2.656,0,0,0,1.787-.678,2.831,2.831,0,0,0,1-1.891L630.229,27.5a2.818,2.818,0,0,0-.793-1.845,2.71,2.71,0,0,0-1.834-.861l-.526-.038-.013-.442m-1.031-1.078.032,1.106.013.443.025.9.9.066.526.038a1.7,1.7,0,0,1,1.179.55,1.8,1.8,0,0,1,.518,1.154L627.444,52a1.8,1.8,0,0,1-.655,1.206,1.649,1.649,0,0,1-1.133.435c-.05,0-.1,0-.152-.006l-.571-.041-1-.071-.073,1-.032.438-.074,1,1,.073,18.212,1.325.7.051.285-.644,3.062-6.924.573-1.294-1.412-.107-.438-.034-.678-.051-.3.611a9.833,9.833,0,0,1-2.856,3.723,5.909,5.909,0,0,1-3.525.932c-.28,0-.575-.011-.877-.033L632.23,53.2l.809-11.126,6.435.468a1.112,1.112,0,0,1,.754.41,1.068,1.068,0,0,1,.255.822l-.048.66-.072,1,1,.072.439.031,1,.071.073-1,.5-6.933.073-1-1-.073-.438-.033-1-.073-.073,1-.045.614a1.093,1.093,0,0,1-.384.809,1.2,1.2,0,0,1-.824.3l-6.407-.464.841-11.566,7.955.579a1.6,1.6,0,0,1,1.344,1.7l-.057.788-.073,1,1,.074.44.032,1,.073.072-1,.4-5.53.107-1.473-1.408.448a10.937,10.937,0,0,1-2.085.319c-.612.056-1.2.084-1.754.084-.367,0-.726-.013-1.065-.037l-12.858-.936-1.1-.08Z"/><path class="cls-9" d="M651.963,25.519a12.27,12.27,0,0,0,2.231.732,18.958,18.958,0,0,0,2.955.535l14.812,1.348q1.062.1,1.956.1a12.184,12.184,0,0,0,1.644-.1,15.084,15.084,0,0,0,1.773-.3l-.5,5.522-.435-.084.069-.745a2.677,2.677,0,0,0-2.259-2.857l-8.325-.758-2.389,26.248a2.749,2.749,0,0,0,.679,2.006,2.708,2.708,0,0,0,1.878.966l.57.052-.04.438-9.6-.874.04-.437.57.052c.1.008.191.013.285.013a2.827,2.827,0,0,0,2.763-2.43l2.392-26.292-8.325-.758c-.048,0-.1,0-.143,0a2.5,2.5,0,0,0-1.706.653,2.568,2.568,0,0,0-.888,1.752l-.068.746-.442,0,.5-5.521m-.862-1.56-.134,1.469-.5,5.522-.1,1.1,1.105-.01.442,0,.906-.008.081-.9.068-.746a1.568,1.568,0,0,1,.554-1.092,1.5,1.5,0,0,1,1.044-.4l.095,0,7.287.664-2.3,25.3a1.83,1.83,0,0,1-1.766,1.521,1.814,1.814,0,0,1-.194-.01l-.57-.051-1-.091-.091,1-.04.438-.092,1,1,.09,9.6.874,1,.091.091-1,.04-.438.091-1-1-.091-.57-.052a1.7,1.7,0,0,1-1.209-.621,1.74,1.74,0,0,1-.439-1.3l2.3-25.215,7.329.667a1.684,1.684,0,0,1,1.354,1.77l-.068.744-.083.9.888.172.435.084,1.086.209.1-1.1.5-5.521.137-1.507-1.44.465a14.569,14.569,0,0,1-1.6.263,11.169,11.169,0,0,1-1.509.092c-.562,0-1.19-.032-1.866-.093L657.24,25.79a17.851,17.851,0,0,1-2.8-.508,10.92,10.92,0,0,1-2.027-.655l-1.315-.668Z"/><path class="cls-9" d="M683.116,29.235l8.869,1.061-.051.436-.7-.083a2.733,2.733,0,0,0-.345-.022,2.275,2.275,0,0,0-1.342.418,2.087,2.087,0,0,0-.879,1.424l-2,16.689a11.35,11.35,0,0,0,1.637,7.995A8.684,8.684,0,0,0,694.8,60.9a12.3,12.3,0,0,0,1.438.088,8.931,8.931,0,0,0,5.84-2.032A10.136,10.136,0,0,0,705.609,52l2.064-17.256a2.1,2.1,0,0,0-.519-1.592,2.35,2.35,0,0,0-1.547-.783l-.7-.083.052-.436,8.083.966-.053.436-.7-.083a2.678,2.678,0,0,0-.32-.019,2.34,2.34,0,0,0-1.345.418,2.019,2.019,0,0,0-.9,1.377l-2.068,17.3a11.08,11.08,0,0,1-4.22,7.871,11.213,11.213,0,0,1-7.018,2.239,16.73,16.73,0,0,1-1.965-.121,12.345,12.345,0,0,1-8.342-4.167,10.817,10.817,0,0,1-2.358-8.634l2.057-17.214a2.049,2.049,0,0,0-.9-2.058,2.629,2.629,0,0,0-1.148-.4l-.7-.083.052-.437m-.875-1.111-.118.994-.052.436-.117.993.993.118.7.083a1.637,1.637,0,0,1,.716.246,1.046,1.046,0,0,1,.462,1.1l-2.057,17.214a11.83,11.83,0,0,0,2.586,9.4,13.365,13.365,0,0,0,8.988,4.514,17.456,17.456,0,0,0,2.084.129,12.252,12.252,0,0,0,7.626-2.444,12.094,12.094,0,0,0,4.6-8.547l2.069-17.3a.991.991,0,0,1,.464-.668,1.345,1.345,0,0,1,.783-.246,1.719,1.719,0,0,1,.2.012l.7.083.991.118.12-.991.053-.436.12-.994-.994-.12-8.083-.965-.994-.119-.118.994-.052.437-.118.992.993.118.7.083a1.356,1.356,0,0,1,.913.45,1.09,1.09,0,0,1,.273.861l-2.059,17.208a9.1,9.1,0,0,1-3.175,6.3,7.894,7.894,0,0,1-5.206,1.8,10.949,10.949,0,0,1-1.32-.082,7.664,7.664,0,0,1-5.78-3.315,10.436,10.436,0,0,1-1.469-7.312l1.995-16.69a1.064,1.064,0,0,1,.462-.725,1.272,1.272,0,0,1,.766-.235,1.958,1.958,0,0,1,.226.014l.7.084.993.117.118-.992.051-.436.118-.993L692.1,29.3l-8.869-1.061-.994-.118Z"/><path class="cls-9" d="M719.6,33.719l11.755,1.714a8.654,8.654,0,0,1,5.906,3.106,7.677,7.677,0,0,1,1.432,6.034,9.167,9.167,0,0,1-3.037,5.739,6.8,6.8,0,0,1-4.595,1.857,7.028,7.028,0,0,1-1.023-.076,6.03,6.03,0,0,1,1.371,1.423,15.768,15.768,0,0,1,1.319,2.082q2.964,5.9,3.916,7.307t1.363,1.933a12.551,12.551,0,0,0,.915,1.045,6,6,0,0,0,1.03.862,6.179,6.179,0,0,0,2.61,1l-.063.436-2.395-.349a9,9,0,0,1-3.384-1.183,8.814,8.814,0,0,1-2.213-1.746,15.769,15.769,0,0,1-1.191-1.595q-.489-.761-2.587-4.98T728.276,53.5c-.237-.4-.49-.8-.758-1.2a3.977,3.977,0,0,0-2.572-1.887l.064-.435a7.744,7.744,0,0,0,.908.177q.565.083,1.4.158a11.588,11.588,0,0,0,1.407.09,6.185,6.185,0,0,0,6.046-3.627,5.731,5.731,0,0,0,.5-1.594c.075-.508.122-.834.143-.98a7.744,7.744,0,0,0-.838-4.925,5.141,5.141,0,0,0-3.6-2.48q-1.039-.2-2.606-.425l-2.786-.406L721.8,61.92a2.664,2.664,0,0,0,.522,2.055,2.722,2.722,0,0,0,1.864,1.094l.523.077-.021.441L715.156,64.2l.064-.435.566.083a3.016,3.016,0,0,0,.441.033,2.7,2.7,0,0,0,1.611-.534,2.76,2.76,0,0,0,1.128-1.792l3.523-24.165a2.836,2.836,0,0,0-.567-2.061,2.672,2.672,0,0,0-1.82-1.088l-.566-.083.064-.435m-.846-1.134-.144.99-.064.435L718.4,35l.989.145.566.083a1.669,1.669,0,0,1,1.163.7,1.828,1.828,0,0,1,.375,1.358l-3.519,24.126a1.73,1.73,0,0,1-.726,1.126,1.7,1.7,0,0,1-1.023.344,2.14,2.14,0,0,1-.3-.022l-.566-.083-.991-.146-.144.991-.064.435-.144.99.99.144,9.535,1.391,1.092.159.051-1.1.021-.441.042-.9-.9-.131-.523-.076a1.725,1.725,0,0,1-1.206-.7,1.673,1.673,0,0,1-.335-1.313l1.563-10.723.448.065a3.072,3.072,0,0,1,1.9,1.471c.244.359.487.743.715,1.131.154.266.7,1.312,2.42,4.766,1.424,2.867,2.289,4.527,2.642,5.076a16.849,16.849,0,0,0,1.265,1.7,9.7,9.7,0,0,0,2.464,1.959,10.019,10.019,0,0,0,3.754,1.315l2.4.349.989.144.145-.989.063-.436.144-.99-.99-.144a5.121,5.121,0,0,1-2.193-.84,5.021,5.021,0,0,1-.872-.729,11.754,11.754,0,0,1-.846-.965c-.257-.328-.7-.959-1.323-1.878-.607-.9-1.9-3.318-3.85-7.2a16.812,16.812,0,0,0-1.3-2.086,8.077,8.077,0,0,0,4-2,10.178,10.178,0,0,0,3.365-6.343,8.678,8.678,0,0,0-1.629-6.788,9.653,9.653,0,0,0-6.555-3.487l-11.755-1.714-.99-.144Zm5.963,16.277L726.431,37.1l1.8.262c1,.145,1.864.286,2.566.418a4.136,4.136,0,0,1,2.919,2.006,6.811,6.811,0,0,1,.705,4.3l-.04.278-.1.671a4.773,4.773,0,0,1-.416,1.316,5.209,5.209,0,0,1-5.14,3.05,10.8,10.8,0,0,1-1.286-.082c-.566-.052-1.019-.1-1.377-.156a6.746,6.746,0,0,1-.784-.151l-.56-.156Z"/><path class="cls-9" d="M755.183,38.386l.433.075,19.213,29.354,3.757-21.5a2.715,2.715,0,0,0-.494-2.029,2.619,2.619,0,0,0-1.731-1.085l-.824-.143.076-.434,8.929,1.561-.076.433-.78-.137a2.92,2.92,0,0,0-.5-.044,2.624,2.624,0,0,0-1.5.477,2.673,2.673,0,0,0-1.145,1.7L776.636,68.98a36.39,36.39,0,0,0-.531,4.82l-.049.8-.39-.068L756.453,45.173l-3.772,21.585a2.548,2.548,0,0,0,.949,2.489,2.626,2.626,0,0,0,1.239.574l.824.143-.076.434-8.929-1.561.077-.434.823.145a2.832,2.832,0,0,0,.5.044,2.611,2.611,0,0,0,1.5-.477,2.565,2.565,0,0,0,1.11-1.749l3.932-22.495a33.463,33.463,0,0,0,.521-4.777l.036-.708m-.943-1.178-.056,1.128-.035.708a32.869,32.869,0,0,1-.508,4.655l-3.932,22.5a1.571,1.571,0,0,1-.689,1.095,1.619,1.619,0,0,1-.935.3,1.831,1.831,0,0,1-.324-.029l-.824-.144-.984-.173-.173.985-.076.433-.174.986.986.172,8.929,1.56.984.173.173-.985.076-.433.174-.988-.988-.17-.825-.143a1.626,1.626,0,0,1-.771-.359,1.562,1.562,0,0,1-.6-1.575L757,47.838l17.827,27.237.238.364.429.074.389.067,1.1.19.07-1.113.049-.8a35.646,35.646,0,0,1,.518-4.71l3.908-22.365a1.65,1.65,0,0,1,.724-1.045,1.63,1.63,0,0,1,.937-.3,1.93,1.93,0,0,1,.324.029l.779.137.985.173.173-.985.076-.434.173-.985-.986-.172-8.928-1.561-.985-.172-.173.984-.076.434-.173.986.987.172.824.144a1.616,1.616,0,0,1,1.092.685,1.709,1.709,0,0,1,.313,1.309L774.28,65.15,756.453,37.913l-.238-.363-.428-.074-.434-.076-1.113-.192Z"/><path class="cls-9" d="M790.983,45.48l12.639,2.541a18.369,18.369,0,0,0,2.964.327c.334.011.64.017.916.017a8.28,8.28,0,0,0,1.409-.089l-1.093,5.436-.43-.086.155-.777a2.6,2.6,0,0,0-1.9-3.032l-8.8-1.769-2.681,13.33,7.29,1.466a2.532,2.532,0,0,0,.364.028,2.181,2.181,0,0,0,1.233-.381,2.092,2.092,0,0,0,.908-1.388l.121-.6.432.087L803.136,67.4l-.431-.086.13-.647a2.085,2.085,0,0,0-.287-1.584,2.123,2.123,0,0,0-1.316-.937L793.9,62.672l-2.593,12.9,6.169,1.241a11.231,11.231,0,0,0,2.2.238,6.028,6.028,0,0,0,2.955-.682,10.735,10.735,0,0,0,3.654-3.663l.431.087-3.907,6.484-17.9-3.6.087-.432.561.114a2.931,2.931,0,0,0,.575.059,2.667,2.667,0,0,0,1.5-.472,2.833,2.833,0,0,0,1.227-1.75l4.858-24.156a2.829,2.829,0,0,0-.555-1.93,2.707,2.707,0,0,0-1.712-1.084l-.518-.105.044-.439m-.885-1.2-.11,1.1-.044.439-.09.9.886.181.517.1a1.7,1.7,0,0,1,1.1.694,1.837,1.837,0,0,1,.369,1.21L787.886,73a1.81,1.81,0,0,1-.8,1.115,1.68,1.68,0,0,1-.951.3,1.937,1.937,0,0,1-.378-.04l-.56-.113-.981-.2-.2.981-.087.432-.2.98.981.2,17.9,3.6.691.139.363-.6,3.906-6.485.733-1.216-1.392-.28-.43-.087-.664-.134-.371.567a9.813,9.813,0,0,1-3.3,3.334,5.066,5.066,0,0,1-2.472.558,10.244,10.244,0,0,1-2.008-.219l-5.189-1.043,2.2-10.936,6.325,1.271a1.132,1.132,0,0,1,.7.5,1.08,1.08,0,0,1,.148.849l-.129.647-.2.981.981.2.431.086.979.2.2-.979,1.371-6.816.2-.98-.981-.2-.432-.087-.981-.2-.2.981-.121.6a1.093,1.093,0,0,1-.482.752,1.171,1.171,0,0,1-.679.214,1.46,1.46,0,0,1-.216-.017l-6.26-1.26,2.286-11.369,7.819,1.572a1.478,1.478,0,0,1,.9.68,1.506,1.506,0,0,1,.216,1.172l-.156.78-.2.981.981.2.431.085.979.2.2-.979,1.093-5.435.291-1.449-1.454.268a7.243,7.243,0,0,1-1.227.072c-.266,0-.559-.006-.881-.017a17.221,17.221,0,0,1-2.8-.308L791.181,44.5l-1.083-.217Z"/><path class="cls-9" d="M816.608,50.644l14.549,3.291a15.707,15.707,0,0,1,10.2,6.66,14.836,14.836,0,0,1,1.81,11.845,14.84,14.84,0,0,1-6.731,9.914,14.583,14.583,0,0,1-7.741,2.132,19.651,19.651,0,0,1-4.333-.51l-14.548-3.29.1-.429.558.125a2.9,2.9,0,0,0,.639.074,2.677,2.677,0,0,0,1.451-.435,2.839,2.839,0,0,0,1.268-1.721l5.436-24.033a2.25,2.25,0,0,0-.444-1.927,2.941,2.941,0,0,0-1.75-1.14l-.514-.117.053-.439m11.049,32.393a11.428,11.428,0,0,0,3.758-.624,11.752,11.752,0,0,0,5.384-3.857,16.564,16.564,0,0,0,3.149-6.844q1.4-6.18-1.117-10.719a11.545,11.545,0,0,0-7.965-5.771l-8.454-1.912L816.2,80.776l8.455,1.913a13.636,13.636,0,0,0,3,.348M815.75,49.424l-.134,1.1-.054.439-.109.895.879.2.515.117a1.953,1.953,0,0,1,1.173.767,1.252,1.252,0,0,1,.268,1.1l-5.436,24.033a1.812,1.812,0,0,1-.828,1.1,1.674,1.674,0,0,1-.916.281,1.879,1.879,0,0,1-.418-.049l-.56-.126-.975-.218-.22.974-.1.428-.22.975.975.221,14.548,3.29a20.719,20.719,0,0,0,4.553.535,15.639,15.639,0,0,0,8.262-2.278,15.87,15.87,0,0,0,7.186-10.547A15.872,15.872,0,0,0,842.2,60.048a16.747,16.747,0,0,0-10.817-7.089l-14.549-3.291-1.079-.244Zm1.645,30.6,5.772-25.517,7.478,1.692a10.5,10.5,0,0,1,7.311,5.281,13.866,13.866,0,0,1,1.017,10.013,15.667,15.667,0,0,1-2.953,6.438,10.826,10.826,0,0,1-4.931,3.539,10.475,10.475,0,0,1-3.432.569,12.683,12.683,0,0,1-2.783-.324L817.4,80.022Z"/></g></svg>