<svg xmlns="http://www.w3.org/2000/svg" xmlns:xlink="http://www.w3.org/1999/xlink" viewBox="0 0 1080 488.52"><defs><style>.cls-1{fill:#fff;}.cls-2{fill:#ddc272;}.cls-3{fill:none;}.cls-4{fill:#c4a660;}.cls-5{fill:#ba9e5b;}.cls-6{fill:url(#linear-gradient);}.cls-7{fill:url(#radial-gradient);}</style><linearGradient id="linear-gradient" x1="1772.86" y1="319.83" x2="3018.17" y2="-1837.09" gradientTransform="translate(1288.67 3242.23) rotate(-76.74)" gradientUnits="userSpaceOnUse"><stop offset="0" stop-color="#c4a660"/><stop offset="1" stop-color="#85aca9"/></linearGradient><radialGradient id="radial-gradient" cx="1473.64" cy="-1105.75" r="1202.19" gradientTransform="translate(1288.67 3242.23) rotate(-76.74)" gradientUnits="userSpaceOnUse"><stop offset="0" stop-color="#c4a660"/><stop offset="0.01" stop-color="#c4a660"/><stop offset="0.46" stop-color="#cdb06b"/><stop offset="1" stop-color="#d0b36e"/></radialGradient></defs><title>Asset 23-4</title><g id="Layer_2" data-name="Layer 2"><g id="Layer_2-2" data-name="Layer 2"><path class="cls-1" d="M828.41,392.25A1245.89,1245.89,0,0,1,1080,480.72v-273a1246.52,1246.52,0,0,0-251.59-88.48C538.49,50.92,248.36,90.3,0,211.4v273C248.36,363.28,538.49,323.9,828.41,392.25Z"/><path class="cls-2" d="M828.41,119.26A1246.52,1246.52,0,0,1,1080,207.74V187.39A1264.77,1264.77,0,0,0,666.73,74.56C429.29,51.36,200.78,95.31,0,190.89V211.4C248.36,90.3,538.49,50.92,828.41,119.26Z"/><path class="cls-2" d="M666.73,75.56A1264.77,1264.77,0,0,1,1080,188.39v-72A1348,1348,0,0,0,674.72,11.92C435.67-11.43,205.13,29.13,0,119.64v72.25C200.78,96.31,429.29,52.36,666.73,75.56Z"/><path class="cls-3" d="M667,73.07a1276.54,1276.54,0,0,1,280.44,59.67A1259.83,1259.83,0,0,1,1080,185.67V117A1340.25,1340.25,0,0,0,258.75,35.63,1344.63,1344.63,0,0,0,0,120.29v68.82a1263.21,1263.21,0,0,1,667-116Z"/><path class="cls-4" d="M674.48,11.41A1337,1337,0,0,1,1080,117v-5.46A1344.22,1344.22,0,0,0,0,114.83v5.46A1338.77,1338.77,0,0,1,674.48,11.41Z"/><path class="cls-3" d="M330.09,101.77C495.91,72.82,663.77,77.88,829,116.83A1248.85,1248.85,0,0,1,1080,205V190.16a1257.55,1257.55,0,0,0-134.16-53.68A1272.48,1272.48,0,0,0,252.9,104.57,1256.21,1256.21,0,0,0,0,193.65v15q47.15-22.93,96-41.83A1244.42,1244.42,0,0,1,330.09,101.77Z"/><path class="cls-5" d="M666.49,77.05a1271.49,1271.49,0,0,1,279.35,59.43A1257.55,1257.55,0,0,1,1080,190.16v-5.52a1261.63,1261.63,0,0,0-132.57-52.9,1277.41,1277.41,0,0,0-695.68-32A1261.65,1261.65,0,0,0,0,188.1v5.55A1258.24,1258.24,0,0,1,666.49,77.05Z"/><path class="cls-3" d="M329.91,373.77c166-29,334-23.91,499.31,15.07a1249.71,1249.71,0,0,1,250.78,88V211.63a1242.44,1242.44,0,0,0-252.39-89c-164.43-38.76-331.47-43.8-496.49-15a1239.07,1239.07,0,0,0-233,64.72Q48.27,191.69,0,215.33V480.51q47-22.83,95.64-41.65A1245,1245,0,0,1,329.91,373.77Z"/><path class="cls-6" d="M331.12,107.68c165-28.81,332.06-23.77,496.49,15a1242.44,1242.44,0,0,1,252.39,89v-7.77a1249.9,1249.9,0,0,0-250.78-88c-165.36-39-333.35-44-499.31-15.07A1245,1245,0,0,0,95.64,165.88Q47.06,184.65,0,207.53v7.8q48.18-23.58,98.16-42.93A1239.07,1239.07,0,0,1,331.12,107.68Z"/><path class="cls-7" d="M331.16,380.85c165-28.81,332-23.77,496.42,15a1242.13,1242.13,0,0,1,252.42,89v-8.18a1249.37,1249.37,0,0,0-250.73-88c-165.38-39-333.39-44.06-499.38-15.08a1246.21,1246.21,0,0,0-234.31,65.1Q47,457.45,0,480.31v8.21q48.22-23.61,98.24-43A1237.89,1237.89,0,0,1,331.16,380.85Z"/></g></g></svg>