<svg xmlns="http://www.w3.org/2000/svg" viewBox="0 0 886.39 130.25"><defs><style>.cls-1{fill:#505050;}</style></defs><title>clock-hand</title><g id="Layer_2" data-name="Layer 2"><g id="Layer_1-2" data-name="Layer 1"><path class="cls-1" d="M886,63.94c-2-2.33-3.84-4.88-6.41-6.61-3.23-2.18-6.76-2.06-10.51-2q-25.45.21-50.9.2t-50.71-.22a122.56,122.56,0,0,1-16-1.32,136.33,136.33,0,0,1-25.84-6,122.41,122.41,0,0,1-23.47-11.21c-1.94-1.19-5-.61-7.49-.85-.1,1.62-.41,3.22-.46,4.84a13.76,13.76,0,0,0,.65,4.17c.82,2.89,2,5.66,2.95,8.5-30.07.33-59.33-2-89.23,3.67.45-4.67,1.66-9.55.5-14.2-.47-1.92-1.39-4.07-3.54-4.54-2.38-.52-4.39,1.64-5.67,3.34-2.25,3-4.66,5.91-7,8.91-.89-.71-1.42-.94-1.64-1.34-2.39-4.35-4.59-8.82-7.17-13.07-1.58-2.61-4-4.19-7.06-3.87a4.1,4.1,0,0,0-3.67,3.06c-.76,2.61,0,5.48.54,8.05.8,3.76,1.74,7.59,1.53,11.47C573.9,81,545.22,96.46,522.1,84.16c-8.9-4.74-17.87-9.36-26.94-13.77-15.59-7.59-31.35-15-48.55-18.07a116.86,116.86,0,0,0-50.13,2.15c-2.77.72-5.5,1.56-8.51,2.42,0-2.47,0-4.11,0-5.75.27-8.81.69-17.61.76-26.42,0-1.32-.65-4.85-2.34-4.95-3-.17-5.86,1.93-7.92,3.83-1.17,1.09-2.25,2.28-3.31,3.47a10.65,10.65,0,0,1-3,2.71c-2.35,1.15-4-1-5.12-2.85-3.21-5.3-6.61-10.46-10.13-15.56-1.63-2.37-3.31-4.71-5.13-6.94-1.56-1.91-3-4-5.58-4.36a2.78,2.78,0,0,0-2.74.7,6.34,6.34,0,0,0-1,2.7,47.67,47.67,0,0,0-.27,8.94c0,1.62.17,3.24.21,4.86a6.5,6.5,0,0,1-.3,2.4,3,3,0,0,1-3.23,1.84c-2.17,0-4.36-.66-6.52-.88a44.9,44.9,0,0,0-6.66-.23,35,35,0,0,0-11.91,2.53c-8,3.28-14,9.73-18.3,17.08a5.7,5.7,0,0,1-5.2,3.25,42.6,42.6,0,0,1-4.49-.53l-5.05-.61c-6.78-.81-13.58-1.57-20.31-2.78a166,166,0,0,1-20.36-5,172.92,172.92,0,0,1-33.33-14.48c-5.36-3-10.56-6.3-15.61-9.8q-3.86-2.69-7.6-5.54a9.37,9.37,0,0,0-3.64-1.94c-1.38-.34-2.81-.46-4.18-.83a39.59,39.59,0,0,0-1.54,5.3,24.48,24.48,0,0,0,.18,5.13c.3,3.65.79,7.27,1.15,10.91-35.59-12.29-66.71-6.78-94.24,20.37-8.1,6.36-21.16,11-29.48,2.41q-.48-.57-1-1.11c-.12-.15-.25-.3-.37-.46v.07a29.32,29.32,0,1,0,0,40.77v.06l.32-.4c.52-.55,1-1.13,1.51-1.73,9.26-9.62,23-7.28,30,.17,1.26,1.35,3.23,4,3.23,4v0c15.23,24.43,43.67,23.78,56.08,12.8,19.19,18.75,43.38-.31,47.52-10.46,9.33,7.83,17.93,15.11,26.62,22.28,1.33,1.1,3.06,1.7,5.6,3.08V97c1.88,1.2,3.82,2.32,5.62,3.64,2.33,1.72,4.65,3.46,7,5.19,4.64,3.46,9.28,6.93,14,10.34,1.25.92,2.86,1.35,5.22,2.42V102.15a9.17,9.17,0,0,1,2.14-.39,20.06,20.06,0,0,1,3.27.43c33.38,6.79,66.63,5.92,99.19-3.83,10.94-3.28,21.46-7.8,32-12.23,18.16-7.66,37.4-15.94,57.57-13.3,15.27,2,29.16,14.21,31.06,29.86.85,7,0,14.24.38,21.34.11,2.12,1.16,4.92,3.22,5.86,2.27,1,4.51-.25,5.77-2.19,3.23-5,5.2-10.73,7.42-16.18,2,1.64,3.94,3.57,6.23,4.9a73.3,73.3,0,0,0,7.79,3.47c.93-2.52,2.37-5,2.67-7.57.73-6.28,1.21-6.85,7.36-5.2,13.39,3.59,27.58,4.08,41,.33,11.73-3.28,22.15-9.74,32.73-15.56A170.61,170.61,0,0,1,624.8,78.15c22.11-6.78,45.46-8.49,68.42-6.08,3.66.38,5,2.16,3.68,5.71-1.14,3.12-2.72,6.18-3.2,9.39A9.22,9.22,0,0,0,694,91c.27.94.73,2.45,1.59,3a4,4,0,0,0,2.62.17,8.18,8.18,0,0,0,3-1c22.72-14,47.67-18.54,73.94-18.19,32.33.44,64.67.43,97,.88,6.45.09,10-3.85,13.6-7.92C886.46,67.16,886.64,64.71,886,63.94ZM29.31,78.25A13.48,13.48,0,1,1,42.79,64.77,13.48,13.48,0,0,1,29.31,78.25Zm136.46,9.27c-2.21-3.88-3.39-9-8.33-10.27a16,16,0,0,0-15.61,4.93A17.61,17.61,0,0,0,136.05,75a14.19,14.19,0,0,0-13.79-.59c-4.24,2.27-5.49,7.9-6.54,12.17-7.23-3.3-13.6-14.65-10.54-25.82A38.1,38.1,0,0,1,120.33,39a36.4,36.4,0,0,1,22.58-6,34.44,34.44,0,0,1,21.39,9.64,37.57,37.57,0,0,1,11.3,22.51C176.54,73.89,173.12,82.54,165.77,87.52Zm177-.38c-7.05,2.92-15,4-22.64,5.13-5,.75-10.3.14-15.46.14-8.74,0-17.5-.2-26.21-1.08-14.24-1.43-28.61-4.75-41.09-12a75.34,75.34,0,0,1-26.26-25.89c-1.81-2.94-2.89-6.84-.57-9.83,1.92-2.47,5.27-2.6,8-1.44a192.87,192.87,0,0,0,39,12.09c12.45,2.43,25,3.24,37.69,4.07,2.09.14,4.63.68,6.52-.53s2.2-3.19,2.84-5a25.3,25.3,0,0,1,7.88-11.06C319.65,35.8,330,33.15,339,36.14a28,28,0,0,1,18.33,20.35C360,69.72,354.71,82.2,342.79,87.14Z"/></g></g></svg>