<svg xmlns="http://www.w3.org/2000/svg" viewBox="0 0 691.42 280.84"><defs><style>.cls-1{fill:#505050;}</style></defs><title>clock-hand2</title><g id="Layer_2" data-name="Layer 2"><g id="Layer_1-2" data-name="Layer 1"><path class="cls-1" d="M689.82,138.49c-7.37-8.23-7.31-8.28-18.11-7.2l-.57,0c-23.35,1.55-46.65,2.25-70-.74-20-2.55-39.88-5.29-59.31-10.65-21.08-5.81-41.77-12.76-61.48-22.33-9.64-4.67-19-9.88-28.76-14.35-15.58-7.17-31.17-6.72-46.52,1-1.3.66-2.68,1.16-4.48,1.93q-2.44-55.46-56.14-66.53c3.83-10,3.49-13.88-1.29-17.54-3.37-2.57-9.57-3-13-.35-6.74,5.16-4.1,11.39-.85,18.2-11.44,2.26-21.87,5.78-30.87,12.59A64.13,64.13,0,0,0,277.8,59.34c-7.49-8.41-15.94-10-24.92-5.46-6.28,3.19-8.8,11.07-6.44,18.58a23.41,23.41,0,0,0,5.42,9.26c4.44,4.45,10.66,3.1,16.84,3.06A37.89,37.89,0,0,1,267.31,89c-3,6.31-7.49,11.53-12.28,16.51C223.61,138.23,169.15,135,143.59,93.38c-2.2-3.58-4.08-7.35-6.18-11-1.77-3-4.28-4.2-7.06-3.32-3.13,1-3,3.65-2.95,6.14,0,1.92.21,3.83.33,5.74.57,9,.46,9.25-8.34,8.92a45.71,45.71,0,0,0-29.58,9.22c-2.46,1.81-4.71,3.91-7.36,6.28-7.55,6.72-20.73,13.94-29.62,6.55a29.32,29.32,0,1,0-2.46,37.89v.43C59.55,148.19,75,154,82.46,162c10.57,12.55,24.24,17.5,40.34,16.63a31.21,31.21,0,0,1,4.81.51c-.14,2.92-.36,5.36-.35,7.8a49.19,49.19,0,0,0,.4,9.1c.75,3.9,4.4,5,7.34,2.3a17.87,17.87,0,0,0,3.1-4.72c9.7-17.45,22.77-31.14,42.09-37.9,13.29-4.64,26.73-6.93,40.52-2.45,10.69,3.47,20.14,9.23,28.82,16.31,6.75,5.5,12.64,11.72,16.57,19.58.81,1.63,1.36,3.38,2.34,5.88-3,0-5-.06-7.05,0-6.27.21-11.9,2-14.76,8.09-3.2,6.85-2,13.77,2.32,19.53,6.34,8.38,19,8.06,24.81,1.36.88-1,1.61-2.14,2.84-3.81,1.72,2.82,3.06,4.66,4,6.67,6.79,13.93,17.72,23.38,31.88,29.17,4.88,2,10.06,3.25,15.11,4.85-4.32,9.27-3,15.64,4.84,19.94h6.9c1-.89,1.94-1.79,2.93-2.66,3.76-3.31,4.44-7.47,3.19-12.05a37.07,37.07,0,0,0-2.1-4.87A17.87,17.87,0,0,1,346,260.1c4.23-1.19,8.57-2.06,12.71-3.52,12.81-4.53,23.35-12,30.78-23.71a65.76,65.76,0,0,0,9.87-31.42c.13-2,.51-3.93.77-5.92a11.59,11.59,0,0,1,1.87.31,20.73,20.73,0,0,1,2.05,1c15.48,8.93,31.43,9,47.43,1.89,8.38-3.7,16.24-8.55,24.54-12.46,17.51-8.25,35.69-14.78,54.15-20.59a324.68,324.68,0,0,1,103-15.15c14.74.22,29.47,1.4,44.2,2,1.83.08,4.1,0,5.45-.93a50.74,50.74,0,0,0,7.47-7.12C692,142.57,691.7,140.59,689.82,138.49ZM29.31,152.9a13.48,13.48,0,1,1,13.48-13.48A13.48,13.48,0,0,1,29.31,152.9ZM170,142.09q-19.2,8.31-38.45,16.53c-.52.23-1.08.39-1.59.64-17.06,8.25-32.12-9.07-30.85-23.12,1-10.87,13.83-21.22,24.58-19.06,5.72,1.14,11.24,3.6,16.65,5.93,10.7,4.59,21.27,9.49,31.88,14.29a27.35,27.35,0,0,1,2.9,2C172.87,140.52,171.5,141.45,170,142.09ZM303.72,94c11.25.63,17.49-5.55,18-17.4.42-9.25-6.51-16.26-16.6-16.78-2.07-.1-4.16,0-6.29,0,6.49-15.76,27-26.09,48.93-21.44s36.58,25.49,35.08,47.54c-1.73,25.46-23.53,42.71-42.65,43.17-23.74.58-42.83-12.86-48.06-37.17C296.33,92.69,300,93.78,303.72,94Zm-29.39,73.8c-10.67-12.23-22-21.68-36.42-27.8,7.08-4.34,13.82-7.9,19.91-12.34,5.9-4.31,11.14-9.52,16.82-14.48,3.24,4.88,6.1,9.81,9.58,14.27s7.63,8.53,11.85,13.17C287.66,147.44,279,155.39,274.33,167.79ZM371.27,227c-6,7-13.64,11.58-22.33,14.51-13.34,4.49-25.75,2.21-37-5.75-4.32-3-7.93-7.15-11.72-10.92-1.11-1.1-1.7-2.72-3.2-5.21,3.29,0,5.33-.13,7.35,0,6.93.52,12-2.67,15.11-8.44s2.71-11.85-.72-17.51c-4.13-6.8-11.89-9.68-19.88-7.44-2.16.61-4.25,1.49-7,2.46a18,18,0,0,1,0-4.07c4.69-17.94,20-30.55,38.36-33.35,21.25-3.23,43,10.43,49.91,31.13C385.55,198.48,382.65,213.85,371.27,227Zm80.38-114.4c-7.86-1.25-15.26.3-19,7.81-3.36,6.75-2,13.79,3.27,20-5.61,6.1-6.17,12.91-3,20.22,3.55,8.08,10.73,8.12,18.3,7.43,0,1.94.34,3.31-.06,4.4-3,8.24-9.19,12.44-17.73,13.2a34,34,0,0,1-23.82-6.61,144.65,144.65,0,0,1-16.79-14.69c-7.37-7.48-13.66-16.05-22.6-21.91a17.23,17.23,0,0,1-2.43-2.76c10.47-6.4,17.65-15.36,25.42-23.81,7.53-8.2,16.32-15.06,27.08-18.82,10.16-3.55,19.6-2.75,27.64,5.14C451.55,105.71,452.27,107.94,451.65,112.63Zm67.83,34.53a26.16,26.16,0,0,1,1.62,2.9c-1.54,3.18-4.72,3.31-7.31,4.3-13.57,5.21-27.2,10.28-40.78,15.45-2.42.92-4.72,2.13-8.22,3.72,2.45-12.52,1.57-23.5-7.17-32.93,8.73-8.85,9.51-19.68,7.61-31.8l56.18,22c-.62,1.46-.93,3.24-1.95,4.42C515.93,139.29,516.61,143.16,519.48,147.16Z"/></g></g></svg>