<svg id="Layer_1" data-name="Layer 1" xmlns="http://www.w3.org/2000/svg" width="718.961" height="78.855" viewBox="0 0 718.961 78.855"><defs><style>.cls-1{fill:#752b2b;}</style></defs><title>clock-hand-active</title><path class="cls-1" d="M348.614,939.9c9.136.313,17-1.345,23.257-4.971l.033-.014c40.5-19.587,55.673-55.248,80.941-55.248,27.053,0,29.976,14.552,29.976,22.824a20.944,20.944,0,0,1-3.221,11.278,13.166,13.166,0,0,0-26.111,2.671,13.4,13.4,0,0,0,9.8,12.987c.094.029.184.064.28.088.114.029.229.049.343.076.06.013.119.027.179.039,13.719,3.138,27.6-6.227,29.152-24.6l402.805-5.643a3.344,3.344,0,1,0,0-6.681l-401.811-7.392H489.15c-6.537-11.154-20.079-17.63-36.688-17.63-22.679,0-33.308,12.245-48.729,18.347-.92-10.817-4.986-18.774-6.741-18.774-1.776,0-8.3,6.882-12.76,17.734a27.538,27.538,0,0,0-24.347-14.645c-13.152,0-27.24,6-27.24,21.948a13.453,13.453,0,1,0,22.5-9.935,13.05,13.05,0,0,1,6.2-1.458c13.8,0,15.848,14.637,15.848,20.434,0,17.46-10.86,27.533-28.581,26.018-26.88-2.3-31.523-46.81-60.885-49.041l-.008-.093h-2.212l-.092,0-.017,0h-9.676V863.805A2.726,2.726,0,0,0,273,861.079h-6.2a2.726,2.726,0,0,0-2.726,2.726v12.2c-5.4,15.9-22.988,9.1-31.409.294q-.7-.86-1.459-1.661c-.1-.119-.194-.239-.286-.359v.061A29.314,29.314,0,1,0,231,915.117v.062c.112-.148.238-.29.355-.435.432-.465.854-.939,1.256-1.431,8.64-9,26.292-12.555,31.467,2.571V927.5a2.725,2.725,0,0,0,2.726,2.726H273a2.725,2.725,0,0,0,2.726-2.726V912.218h14.314C310.309,912.265,318.779,938.876,348.614,939.9ZM209.928,908.242a13.473,13.473,0,1,1,13.448-13.5A13.474,13.474,0,0,1,209.928,908.242Z" transform="translate(-180.588 -861.079)"/></svg>