<svg xmlns="http://www.w3.org/2000/svg" viewBox="0 0 103 103"><defs><style>.cls-1{fill:#c4a660;}.cls-2{fill:#ddc272;}</style></defs><title>close</title><g id="Layer_2" data-name="Layer 2"><g id="Layer_1-2" data-name="Layer 1"><path class="cls-1" d="M51.5,1.5a50,50,0,1,0,50,50A50.057,50.057,0,0,0,51.5,1.5ZM74.315,74.315a5.031,5.031,0,0,1-7.1,0L51.5,58.6,35.791,74.315a5.023,5.023,0,1,1-7.1-7.1L44.4,51.5,28.687,35.791a5.038,5.038,0,0,1,0-7.106,5.031,5.031,0,0,1,7.1,0L51.5,44.4,67.211,28.685a5.031,5.031,0,0,1,7.1,0,5.036,5.036,0,0,1,0,7.106L58.607,51.5,74.315,67.211A5.028,5.028,0,0,1,74.315,74.315Z"/><path class="cls-2" d="M51.5,103A51.5,51.5,0,1,1,103,51.5,51.559,51.559,0,0,1,51.5,103Zm0-100A48.5,48.5,0,1,0,100,51.5,48.555,48.555,0,0,0,51.5,3ZM70.763,77.283a6.475,6.475,0,0,1-4.614-1.908L51.5,60.725,36.852,75.376a6.523,6.523,0,0,1-9.225-9.225L42.275,51.5,27.627,36.852a6.536,6.536,0,0,1,0-9.227,6.532,6.532,0,0,1,9.227,0L51.5,42.275,66.151,27.624a6.532,6.532,0,0,1,9.226,0,6.538,6.538,0,0,1,0,9.226L60.728,51.5,75.376,66.151a6.529,6.529,0,0,1,0,9.224h0A6.472,6.472,0,0,1,70.763,77.283ZM51.5,56.482,68.272,73.255a3.618,3.618,0,0,0,4.981,0h0a3.53,3.53,0,0,0,0-4.983L56.485,51.5l16.77-16.77a3.534,3.534,0,0,0,0-4.986,3.62,3.62,0,0,0-4.981,0L51.5,46.518,34.731,29.745a3.618,3.618,0,0,0-4.981,0,3.531,3.531,0,0,0,0,4.986L46.517,51.5,29.748,68.272a3.53,3.53,0,0,0,0,4.983,3.618,3.618,0,0,0,4.981,0Z"/></g></g></svg>