<svg xmlns="http://www.w3.org/2000/svg" viewBox="0 0 37 37"><defs><style>.cls-1{fill:#c4a660;}.cls-2{fill:#ddc272;}</style></defs><title>close_button_v01</title><g id="Layer_2" data-name="Layer 2"><g id="Layer_1-2" data-name="Layer 1"><path class="cls-1" d="M18.5,1A17.5,17.5,0,1,0,36,18.5,17.52,17.52,0,0,0,18.5,1Zm8,25.49a1.78,1.78,0,0,1-1.25.51A1.74,1.74,0,0,1,24,26.49L18.5,21,13,26.49A1.76,1.76,0,0,1,10.52,24L16,18.5,10.52,13A1.76,1.76,0,0,1,13,10.51L18.5,16l5.5-5.5A1.74,1.74,0,0,1,25.24,10a1.76,1.76,0,0,1,1.25,3L21,18.5l5.5,5.5A1.77,1.77,0,0,1,26.49,26.49Z"/><path class="cls-2" d="M18.5,0A18.5,18.5,0,1,0,37,18.5,18.52,18.52,0,0,0,18.5,0Zm0,36A17.5,17.5,0,1,1,36,18.5,17.52,17.52,0,0,1,18.5,36Z"/><path class="cls-2" d="M21.69,18.5l5.15-5.14a2.26,2.26,0,1,0-3.19-3.2L18.5,15.31l-5.15-5.15a2.25,2.25,0,0,0-1.59-.66,2.26,2.26,0,0,0-1.6,3.85l5.15,5.15-5.15,5.15a2.26,2.26,0,0,0,3.19,3.19l5.15-5.15,5.15,5.15a2.25,2.25,0,0,0,1.59.66,2.26,2.26,0,0,0,1.6-3.85Zm4.44,7.63a1.23,1.23,0,0,1-.89.37,1.25,1.25,0,0,1-.89-.37L18.5,20.28l-5.85,5.85a1.25,1.25,0,0,1-.89.37,1.23,1.23,0,0,1-.89-.37,1.26,1.26,0,0,1,0-1.78l5.85-5.85-5.85-5.85a1.26,1.26,0,0,1,0-1.78,1.23,1.23,0,0,1,.89-.37,1.25,1.25,0,0,1,.89.37l5.85,5.85,5.85-5.85a1.25,1.25,0,0,1,.89-.37,1.23,1.23,0,0,1,.89.37,1.26,1.26,0,0,1,0,1.78L20.28,18.5l5.85,5.85A1.26,1.26,0,0,1,26.13,26.13Z"/></g></g></svg>