<svg id="Layer_1" data-name="Layer 1" xmlns="http://www.w3.org/2000/svg" xmlns:xlink="http://www.w3.org/1999/xlink" viewBox="0 0 1149.898 1149.898"><defs><style>.cls-1,.cls-5{fill:#ddc272;}.cls-2{fill:none;stroke:#d7bb70;}.cls-2,.cls-3,.cls-4,.cls-5{stroke-miterlimit:10;}.cls-2,.cls-3,.cls-5{stroke-width:4px;}.cls-3{fill:#d0b36e;stroke:#c4a660;}.cls-4{fill:#fff;stroke-width:5px;stroke:url(#linear-gradient);}.cls-5{stroke:#d0b36e;}</style><linearGradient id="linear-gradient" x1="11328.457" y1="6982.726" x2="12388.348" y2="6982.726" gradientTransform="translate(3122.833 14098.575) rotate(-131.161)" gradientUnits="userSpaceOnUse"><stop offset="0" stop-color="#85aca9"/><stop offset="0.094" stop-color="#8daba0"/><stop offset="0.248" stop-color="#a2a988"/><stop offset="0.433" stop-color="#c2a662"/><stop offset="0.569" stop-color="#aba87d"/><stop offset="0.73" stop-color="#96aa95"/><stop offset="0.878" stop-color="#89aca4"/><stop offset="1" stop-color="#85aca9"/></linearGradient></defs><title>compass_v01</title><g id="Layer_2" data-name="Layer 2"><circle class="cls-1" cx="574.949" cy="574.949" r="572.944"/><circle class="cls-2" cx="574.949" cy="574.949" r="572.944"/><circle class="cls-3" cx="574.949" cy="574.949" r="538.061"/><circle class="cls-4" cx="574.949" cy="574.949" r="527.327"/><circle class="cls-5" cx="574.949" cy="571.823" r="409.151"/><circle class="cls-2" cx="574.776" cy="464.623" r="14.839"/><circle class="cls-2" cx="574.776" cy="464.623" r="29.871"/><circle class="cls-2" cx="574.776" cy="464.623" r="42.25"/><ellipse class="cls-2" cx="574.776" cy="461.987" rx="58.556" ry="58.173"/><ellipse class="cls-2" cx="574.776" cy="459.332" rx="76.074" ry="75.326"/><ellipse class="cls-2" cx="574.776" cy="456.701" rx="92.75" ry="94.469"/><ellipse class="cls-2" cx="574.776" cy="450.859" rx="112.428" ry="112.177"/><ellipse class="cls-2" cx="574.776" cy="444.623" rx="131.283" ry="130.997"/><ellipse class="cls-2" cx="574.776" cy="436.737" rx="152.616" ry="152.135"/><ellipse class="cls-2" cx="574.776" cy="427.47" rx="175.421" ry="174.189"/><ellipse class="cls-2" cx="574.776" cy="418.225" rx="198.245" ry="196.734"/><circle class="cls-2" cx="573.797" cy="567.538" r="157.6"/><circle class="cls-2" cx="573.797" cy="567.538" r="243.491"/><circle class="cls-2" cx="576.515" cy="570.256" r="378.707"/><path class="cls-2" d="M873.034,334.7q.393,7.851.395,15.8c0,168.5-133.706,305.1-298.642,305.1s-298.641-136.6-298.641-305.1c0-3.625.085-7.229.207-10.824" transform="translate(-0.011 0.159)"/><path class="cls-2" d="M236.287,404.422c35.12,150.9,173.337,263.541,338.5,263.541,167.03,0,306.5-115.2,339.65-268.67" transform="translate(-0.011 0.159)"/><path class="cls-2" d="M814.726,275.7A271.632,271.632,0,0,1,833.775,376c0,146.952-115.953,266.08-258.988,266.08S315.8,522.95,315.8,376a271.839,271.839,0,0,1,17.307-95.786" transform="translate(-0.011 0.159)"/><path class="cls-2" d="M276.353,339.681c-.122,3.6-.207,7.2-.207,10.824,0,168.5,133.706,305.1,298.641,305.1s298.642-136.6,298.642-305.1q0-7.95-.395-15.8" transform="translate(-0.011 0.159)"/><path class="cls-2" d="M690.55,208.681c66.9,39.229,111.762,111.407,111.762,193.972,0,124.424-101.867,225.289-227.525,225.289S347.263,527.077,347.263,402.653c0-80.722,42.884-151.514,107.314-191.295" transform="translate(-0.011 0.159)"/><path class="cls-2" d="M333.106,280.212A271.839,271.839,0,0,0,315.8,376c0,146.952,115.954,266.08,258.988,266.08S833.775,522.95,833.775,376A271.632,271.632,0,0,0,814.726,275.7" transform="translate(-0.011 0.159)"/><path class="cls-2" d="M454.577,211.358c-64.43,39.781-107.314,110.573-107.314,191.3,0,124.424,101.866,225.289,227.524,225.289S802.312,527.077,802.312,402.653c0-82.565-44.865-154.743-111.762-193.972" transform="translate(-0.011 0.159)"/><path class="cls-2" d="M201.9,520c44.444,68.507,156.676,129.668,248.5,143.049" transform="translate(-0.011 0.159)"/><path class="cls-2" d="M205.91,647.375c59.661,37.394,176.591,48.949,260.975,35.774" transform="translate(-0.011 0.159)"/><path class="cls-2" d="M252.425,764.368c43.892-1.321,157.583-16.827,235.774-64.65" transform="translate(-0.011 0.159)"/><path class="cls-2" d="M332.939,859.333C367.558,840.06,458.453,781.862,515.646,713.9" transform="translate(-0.011 0.159)"/><path class="cls-2" d="M443.513,924.368C461.392,893.374,508.948,805.2,541.4,721.641" transform="translate(-0.011 0.159)"/><path class="cls-2" d="M951.333,515.542c-45.043,69.874-158,132.254-251.063,145.9" transform="translate(-0.011 0.159)"/><path class="cls-2" d="M947.78,645.235c-60.464,38.14-180.352,50.147-265.873,36.709" transform="translate(-0.011 0.159)"/><path class="cls-2" d="M901.242,765.09c-44.485-1.347-160.82-17.47-240.065-66.246" transform="translate(-0.011 0.159)"/><path class="cls-2" d="M818.529,861.642c-35.085-19.657-127.205-79.016-185.168-148.336" transform="translate(-0.011 0.159)"/><path class="cls-2" d="M705.628,926.229c-18.12-31.611-65.479-119.8-98.363-205.025" transform="translate(-0.011 0.159)"/><line class="cls-2" x1="574.949" y1="979.173" x2="574.949" y2="164.419"/></g></svg>