<svg xmlns="http://www.w3.org/2000/svg" xmlns:xlink="http://www.w3.org/1999/xlink" width="1150" height="1150" viewBox="0 0 1150 1150"><defs><style>.a{fill:#debc67;}.b,.g,.h,.i,.j,.k,.l,.m,.n,.o,.p,.q,.r,.s,.t,.u{fill:none;}.b{stroke:#d2ad63;stroke-width:4px;}.b,.c,.d,.f,.g,.h,.i,.j,.k,.l,.m,.n,.o,.p,.q,.r,.s,.t,.u{stroke-miterlimit:10;}.c{fill:#d2ad63;stroke-width:3.999px;}.c,.f{stroke:#c6a156;}.d{stroke-width:5.001px;fill:url(#a);stroke:url(#b);}.e{fill:url(#c);}.f{stroke-width:4.002px;fill:url(#d);}.g,.h,.i,.j,.k,.l,.m,.n,.o,.p,.q,.r,.s,.t,.u{stroke:#d8b564;}.g{stroke-width:4.043px;}.h{stroke-width:4.017px;}.i{stroke-width:3.976px;}.j{stroke-width:3.992px;}.k{stroke-width:4.003px;}.l{stroke-width:3.995px;}.m{stroke-width:3.998px;}.n{stroke-width:4.003px;}.o{stroke-width:3.997px;}.p{stroke-width:3.999px;}.q{stroke-width:3.995px;}.r{stroke-width:3.997px;}.s{stroke-width:4px;}.t{stroke-width:3.998px;}.u{stroke-width:4px;}</style><radialGradient id="a" cx="540.491" cy="960.488" r="527.432" gradientTransform="translate(34.439 -385.611)" gradientUnits="userSpaceOnUse"><stop offset="0.985" stop-color="#fff"/><stop offset="0.989" stop-color="#dfd7d2"/><stop offset="0.998" stop-color="#8e7463"/><stop offset="1" stop-color="#785944"/></radialGradient><linearGradient id="b" x1="11741.968" y1="6845.96" x2="11904.857" y2="7893.439" gradientTransform="matrix(-0.658, -0.753, 0.753, -0.658, 2808.517, 14326.98)" gradientUnits="userSpaceOnUse"><stop offset="0.433" stop-color="#c4a158"/><stop offset="0.545" stop-color="#a5a779"/><stop offset="0.654" stop-color="#8eab92"/><stop offset="0.753" stop-color="#81aea1"/><stop offset="0.835" stop-color="#7cafa6"/></linearGradient><linearGradient id="c" x1="10270.996" y1="-1713.907" x2="9861.764" y2="-1005.096" gradientTransform="matrix(0.508, -0.861, 0.861, 0.508, -3245.703, 10228.587)" gradientUnits="userSpaceOnUse"><stop offset="0.267" stop-color="#e7c369"/><stop offset="0.423" stop-color="#e7c369" stop-opacity="0.807"/><stop offset="0.774" stop-color="#e7c369" stop-opacity="0.325"/><stop offset="1" stop-color="#e7c369" stop-opacity="0"/></linearGradient><radialGradient id="d" cx="540.491" cy="957.361" r="409.261" gradientTransform="translate(33.693 -385.421)" gradientUnits="userSpaceOnUse"><stop offset="0.964" stop-color="#debc67" stop-opacity="0"/><stop offset="0.972" stop-color="#dbb966" stop-opacity="0.212"/><stop offset="0.991" stop-color="#d5b164" stop-opacity="0.743"/><stop offset="1" stop-color="#d2ad63"/></radialGradient></defs><title>compass</title><circle class="a" cx="575" cy="575" r="572.995"/><circle class="b" cx="575" cy="575" r="572.995"/><circle class="c" cx="575" cy="575" r="537.961"/><circle class="d" cx="575" cy="575" r="527.395"/><circle class="a" cx="574.5" cy="572.5" r="409.39"/><path class="e" d="M314.586,617.347l389.751,716.4a408.741,408.741,0,0,0,108.534-70.09C981.086,1112.774,995.138,854.1,844.256,685.88,707.127,533,480.96,507.463,314.586,617.347Z" transform="translate(34.314 -385.142)"/><circle class="f" cx="574.5" cy="572.5" r="409.39"/><circle class="g" cx="575" cy="468" r="15"/><circle class="h" cx="575" cy="468" r="30"/><circle class="i" cx="575" cy="468" r="42"/><ellipse class="j" cx="574.5" cy="466" rx="58.5" ry="58"/><ellipse class="k" cx="575" cy="462.5" rx="76" ry="75.5"/><ellipse class="l" cx="574.5" cy="460.5" rx="92.5" ry="94.5"/><ellipse class="m" cx="574.5" cy="454" rx="112.5" ry="112"/><ellipse class="n" cx="574.5" cy="448" rx="131.5" ry="131"/><ellipse class="o" cx="574.5" cy="440" rx="152.5" ry="152"/><ellipse class="p" cx="574.5" cy="431" rx="175.5" ry="174"/><ellipse class="q" cx="575" cy="421.5" rx="198" ry="196.5"/><circle class="r" cx="573.5" cy="571.5" r="157.5"/><circle class="s" cx="573.5" cy="571.5" r="243.5"/><circle class="t" cx="576.5" cy="573.5" r="378.5"/><path class="u" d="M838.566,723.528q.391,7.849.394,15.8c0,168.5-133.706,305.1-298.641,305.1s-298.642-136.6-298.642-305.1c0-3.625.085-7.229.207-10.824" transform="translate(34.314 -385.142)"/><path class="u" d="M201.819,793.245c35.119,150.9,173.336,263.541,338.5,263.541,167.029,0,306.5-115.2,339.649-268.67" transform="translate(34.314 -385.142)"/><path class="u" d="M780.257,664.528a271.629,271.629,0,0,1,19.05,100.294c0,146.951-115.953,266.079-258.988,266.079S281.331,911.773,281.331,764.822a271.844,271.844,0,0,1,17.306-95.787" transform="translate(34.314 -385.142)"/><path class="u" d="M241.884,728.5c-.122,3.6-.207,7.2-.207,10.824,0,168.5,133.706,305.1,298.642,305.1s298.641-136.6,298.641-305.1q0-7.948-.394-15.8" transform="translate(34.314 -385.142)"/><path class="u" d="M656.082,597.505c66.9,39.229,111.761,111.406,111.761,193.971,0,124.424-101.866,225.289-227.524,225.289S312.8,915.9,312.8,791.476c0-80.721,42.883-151.514,107.314-191.295" transform="translate(34.314 -385.142)"/><path class="u" d="M298.637,669.035a271.844,271.844,0,0,0-17.306,95.787c0,146.951,115.953,266.079,258.988,266.079S799.307,911.773,799.307,764.822a271.629,271.629,0,0,0-19.05-100.294" transform="translate(34.314 -385.142)"/><path class="u" d="M420.109,600.181C355.678,639.962,312.8,710.755,312.8,791.476c0,124.424,101.866,225.289,227.524,225.289S767.843,915.9,767.843,791.476c0-82.565-44.864-154.742-111.761-193.971" transform="translate(34.314 -385.142)"/><path class="u" d="M167.432,908.824c44.444,68.508,156.676,129.668,248.5,143.05" transform="translate(34.314 -385.142)"/><path class="u" d="M171.441,1036.2c59.661,37.395,176.592,48.949,260.976,35.774" transform="translate(34.314 -385.142)"/><path class="u" d="M217.956,1153.191c43.893-1.321,157.583-16.827,235.774-64.649" transform="translate(34.314 -385.142)"/><path class="u" d="M298.471,1248.156c34.618-19.273,125.513-77.471,182.706-145.435" transform="translate(34.314 -385.142)"/><path class="u" d="M409.044,1313.191c17.88-30.993,65.436-119.172,97.883-202.727" transform="translate(34.314 -385.142)"/><path class="u" d="M916.864,904.365c-45.043,69.874-158,132.254-251.063,145.9" transform="translate(34.314 -385.142)"/><path class="u" d="M913.311,1034.058c-60.464,38.14-180.352,50.147-265.873,36.71" transform="translate(34.314 -385.142)"/><path class="u" d="M866.773,1153.914c-44.484-1.348-160.819-17.47-240.064-66.247" transform="translate(34.314 -385.142)"/><path class="u" d="M784.06,1250.465c-35.085-19.657-127.2-79.016-185.168-148.336" transform="translate(34.314 -385.142)"/><path class="u" d="M671.16,1315.053c-18.121-31.612-65.48-119.805-98.364-205.026" transform="translate(34.314 -385.142)"/><line class="u" x1="575" y1="952" x2="575" y2="195"/></svg>