<svg id="Layer_1" data-name="Layer 1" xmlns="http://www.w3.org/2000/svg" xmlns:xlink="http://www.w3.org/1999/xlink" viewBox="0 0 1150 1150"><defs><style>.cls-1{fill:#ddc272;}.cls-10,.cls-11,.cls-12,.cls-13,.cls-14,.cls-15,.cls-16,.cls-17,.cls-18,.cls-19,.cls-2,.cls-20,.cls-21,.cls-22,.cls-8,.cls-9{fill:none;}.cls-2{stroke:#d0b36e;stroke-width:4px;}.cls-10,.cls-11,.cls-12,.cls-13,.cls-14,.cls-15,.cls-16,.cls-17,.cls-18,.cls-19,.cls-2,.cls-20,.cls-21,.cls-22,.cls-3,.cls-4,.cls-7,.cls-8,.cls-9{stroke-miterlimit:10;}.cls-3{fill:#d0b36e;stroke-width:3.999px;}.cls-3,.cls-7{stroke:#c4a660;}.cls-4{stroke-width:5.001px;fill:url(#radial-gradient);stroke:url(#linear-gradient);}.cls-5{opacity:0.75;}.cls-6{fill:url(#linear-gradient-2);}.cls-7{stroke-width:4.002px;fill:url(#radial-gradient-2);}.cls-10,.cls-11,.cls-12,.cls-13,.cls-14,.cls-15,.cls-16,.cls-17,.cls-18,.cls-19,.cls-20,.cls-21,.cls-22,.cls-8,.cls-9{stroke:#d7bb70;}.cls-8{stroke-width:4.043px;}.cls-9{stroke-width:4.017px;}.cls-10{stroke-width:3.976px;}.cls-11{stroke-width:3.992px;}.cls-12{stroke-width:4.003px;}.cls-13{stroke-width:3.995px;}.cls-14{stroke-width:3.998px;}.cls-15{stroke-width:4.003px;}.cls-16{stroke-width:3.997px;}.cls-17{stroke-width:3.999px;}.cls-18{stroke-width:3.995px;}.cls-19{stroke-width:3.997px;}.cls-20{stroke-width:4px;}.cls-21{stroke-width:3.998px;}.cls-22{stroke-width:4px;}</style><radialGradient id="radial-gradient" cx="540.112" cy="959.794" r="527.432" gradientTransform="translate(34.818 -384.917)" gradientUnits="userSpaceOnUse"><stop offset="0.985" stop-color="#fff"/><stop offset="0.989" stop-color="#dad6d3"/><stop offset="0.999" stop-color="#7d6e63"/><stop offset="1" stop-color="#736357"/></radialGradient><linearGradient id="linear-gradient" x1="11742.74" y1="6846.131" x2="11905.629" y2="7893.61" gradientTransform="matrix(-0.658, -0.753, 0.753, -0.658, 2808.895, 14327.674)" gradientUnits="userSpaceOnUse"><stop offset="0.433" stop-color="#c2a662"/><stop offset="0.529" stop-color="#aba87d"/><stop offset="0.644" stop-color="#96aa95"/><stop offset="0.749" stop-color="#89aca4"/><stop offset="0.835" stop-color="#85aca9"/></linearGradient><linearGradient id="linear-gradient-2" x1="10271.401" y1="-1714.586" x2="9862.169" y2="-1005.775" gradientTransform="matrix(0.508, -0.861, 0.861, 0.508, -3245.703, 10228.587)" gradientUnits="userSpaceOnUse"><stop offset="0.267" stop-color="#e6c976"/><stop offset="0.424" stop-color="#e6c976" stop-opacity="0.806"/><stop offset="0.776" stop-color="#e6c976" stop-opacity="0.322"/><stop offset="1" stop-color="#e6c976" stop-opacity="0"/></linearGradient><radialGradient id="radial-gradient-2" cx="540.112" cy="956.668" r="409.261" gradientTransform="translate(34.072 -384.727)" gradientUnits="userSpaceOnUse"><stop offset="0.964" stop-color="#ddc272" stop-opacity="0"/><stop offset="0.972" stop-color="#dabf71" stop-opacity="0.214"/><stop offset="0.991" stop-color="#d3b76f" stop-opacity="0.75"/><stop offset="1" stop-color="#d0b36e"/></radialGradient></defs><title>compass</title><circle class="cls-1" cx="575" cy="575" r="572.995"/><circle class="cls-2" cx="575" cy="575" r="572.995"/><circle class="cls-3" cx="575" cy="575" r="537.961"/><circle class="cls-4" cx="575" cy="575" r="527.395"/><circle class="cls-1" cx="574.5" cy="572.5" r="409.39"/><g class="cls-5"><path class="cls-6" d="M314.207,616.653l389.751,716.4a408.741,408.741,0,0,0,108.534-70.09C980.707,1112.08,994.759,853.4,843.877,685.186,706.748,532.3,480.581,506.769,314.207,616.653Z" transform="translate(34.693 -384.448)"/></g><circle class="cls-7" cx="574.5" cy="572.5" r="409.39"/><circle class="cls-8" cx="575" cy="468" r="15"/><circle class="cls-9" cx="575" cy="468" r="30"/><circle class="cls-10" cx="575" cy="468" r="42"/><ellipse class="cls-11" cx="574.5" cy="466" rx="58.5" ry="58"/><ellipse class="cls-12" cx="575" cy="462.5" rx="76" ry="75.5"/><ellipse class="cls-13" cx="574.5" cy="460.5" rx="92.5" ry="94.5"/><ellipse class="cls-14" cx="574.5" cy="454" rx="112.5" ry="112"/><ellipse class="cls-15" cx="574.5" cy="448" rx="131.5" ry="131"/><ellipse class="cls-16" cx="574.5" cy="440" rx="152.5" ry="152"/><ellipse class="cls-17" cx="574.5" cy="431" rx="175.5" ry="174"/><ellipse class="cls-18" cx="575" cy="421.5" rx="198" ry="196.5"/><circle class="cls-19" cx="573.5" cy="571.5" r="157.5"/><circle class="cls-20" cx="573.5" cy="571.5" r="243.5"/><circle class="cls-21" cx="576.5" cy="573.5" r="378.5"/><path class="cls-22" d="M838.187,722.834q.391,7.85.394,15.8c0,168.5-133.706,305.1-298.641,305.1S241.3,907.135,241.3,738.634c0-3.625.085-7.229.208-10.824" transform="translate(34.693 -384.448)"/><path class="cls-22" d="M201.44,792.551c35.119,150.9,173.337,263.541,338.5,263.541,167.029,0,306.5-115.2,339.65-268.67" transform="translate(34.693 -384.448)"/><path class="cls-22" d="M779.878,663.834a271.609,271.609,0,0,1,19.05,100.294c0,146.951-115.953,266.079-258.988,266.079S280.952,911.079,280.952,764.128a271.844,271.844,0,0,1,17.306-95.787" transform="translate(34.693 -384.448)"/><path class="cls-22" d="M241.506,727.81c-.123,3.6-.208,7.2-.208,10.824,0,168.5,133.707,305.1,298.642,305.1s298.641-136.6,298.641-305.1q0-7.948-.394-15.8" transform="translate(34.693 -384.448)"/><path class="cls-22" d="M655.7,596.811c66.9,39.229,111.761,111.406,111.761,193.971,0,124.424-101.866,225.289-227.524,225.289S312.416,915.206,312.416,790.782c0-80.721,42.883-151.514,107.314-191.3" transform="translate(34.693 -384.448)"/><path class="cls-22" d="M298.258,668.341a271.844,271.844,0,0,0-17.306,95.787c0,146.951,115.953,266.079,258.988,266.079S798.928,911.079,798.928,764.128a271.609,271.609,0,0,0-19.05-100.294" transform="translate(34.693 -384.448)"/><path class="cls-22" d="M419.73,599.487c-64.431,39.781-107.314,110.574-107.314,191.3,0,124.424,101.866,225.289,227.524,225.289S767.464,915.206,767.464,790.782c0-82.565-44.864-154.742-111.761-193.971" transform="translate(34.693 -384.448)"/><path class="cls-22" d="M167.053,908.13c44.444,68.508,156.676,129.668,248.5,143.05" transform="translate(34.693 -384.448)"/><path class="cls-22" d="M171.063,1035.5c59.66,37.395,176.591,48.949,260.975,35.774" transform="translate(34.693 -384.448)"/><path class="cls-22" d="M217.577,1152.5c43.893-1.321,157.583-16.827,235.775-64.649" transform="translate(34.693 -384.448)"/><path class="cls-22" d="M298.092,1247.462c34.618-19.273,125.513-77.471,182.707-145.435" transform="translate(34.693 -384.448)"/><path class="cls-22" d="M408.665,1312.5c17.88-30.993,65.436-119.172,97.883-202.727" transform="translate(34.693 -384.448)"/><path class="cls-22" d="M916.485,903.671c-45.043,69.874-158,132.254-251.063,145.9" transform="translate(34.693 -384.448)"/><path class="cls-22" d="M912.932,1033.364c-60.464,38.14-180.352,50.147-265.873,36.709" transform="translate(34.693 -384.448)"/><path class="cls-22" d="M866.394,1153.22c-44.484-1.348-160.819-17.47-240.064-66.247" transform="translate(34.693 -384.448)"/><path class="cls-22" d="M783.681,1249.771c-35.085-19.657-127.2-79.016-185.168-148.336" transform="translate(34.693 -384.448)"/><path class="cls-22" d="M670.781,1314.359c-18.12-31.612-65.48-119.8-98.364-205.026" transform="translate(34.693 -384.448)"/><line class="cls-22" x1="575" y1="952" x2="575" y2="195"/></svg>