<svg xmlns="http://www.w3.org/2000/svg" xmlns:xlink="http://www.w3.org/1999/xlink" viewBox="0 0 1149.01 1149.01"><defs><style>.cls-1,.cls-6{fill:#ddc272;}.cls-2{fill:#d0b36e;}.cls-3{fill:#c4a660;}.cls-4{fill:#fff;}.cls-5{fill:url(#linear-gradient);}.cls-6{stroke-miterlimit:10;stroke-width:3.13px;stroke:url(#radial-gradient);}.cls-7{fill:#cfad5f;}</style><linearGradient id="linear-gradient" x1="-7556.12" y1="3119.1" x2="-7027.17" y2="2202.93" gradientTransform="translate(-342.54 -7133.16) rotate(-76.74)" gradientUnits="userSpaceOnUse"><stop offset="0" stop-color="#c4a660"/><stop offset="1" stop-color="#85aca9"/></linearGradient><radialGradient id="radial-gradient" cx="574.5" cy="571.38" r="410.83" gradientUnits="userSpaceOnUse"><stop offset="0" stop-color="#c4a660"/><stop offset="0.01" stop-color="#c4a660"/><stop offset="0.46" stop-color="#cdb06b"/><stop offset="1" stop-color="#d0b36e"/></radialGradient></defs><title>compass_v01_2</title><g id="Layer_2" data-name="Layer 2"><g id="Layer_1-2" data-name="Layer 1"><circle class="cls-1" cx="574.5" cy="574.51" r="572.94"/><path class="cls-2" d="M575.47,1149q-28.32,0-56.83-2.78A574.6,574.6,0,0,1,403.44,26a574.29,574.29,0,0,1,742.79,604.4l-1.5-.15,1.5.15A574.05,574.05,0,0,1,575.47,1149ZM573.54,3A571,571,0,0,0,5.77,518.94,571.59,571.59,0,0,0,1076.92,847.08,571.28,571.28,0,0,0,630.08,5.77Q601.71,3,573.54,3Z"/><circle class="cls-1" cx="574.5" cy="574.51" r="538.06"/><path class="cls-3" d="M575.41,1113.62q-26.56,0-53.33-2.61A539.2,539.2,0,0,1,414,59.76,539.2,539.2,0,0,1,735,1089.25,533.72,533.72,0,0,1,575.41,1113.62ZM573.6,37.39A536.63,536.63,0,0,0,40,522.28a537.2,537.2,0,0,0,1006.7,308.4A533.66,533.66,0,0,0,1109,626.73l1,.1-1-.1A536.61,536.61,0,0,0,626.73,40Q600.09,37.38,573.6,37.39Z"/><circle class="cls-4" cx="574.5" cy="574.51" r="527.33"/><path class="cls-5" d="M574.86,1103.48a528,528,0,1,1,88.2-7.48A529.08,529.08,0,0,1,574.86,1103.48ZM574.15,48.53A525.7,525.7,0,0,0,127.3,851.09,525.54,525.54,0,1,0,574.15,48.53Z"/><circle class="cls-6" cx="574.5" cy="571.38" r="409.15"/><path class="cls-7" d="M574.33,483.14a15.84,15.84,0,1,1,15.84-15.83A15.85,15.85,0,0,1,574.33,483.14Zm0-29.67a13.84,13.84,0,1,0,13.84,13.84A13.85,13.85,0,0,0,574.33,453.47Z"/><path class="cls-7" d="M574.33,498.18a30.87,30.87,0,1,1,30.87-30.87A30.91,30.91,0,0,1,574.33,498.18Zm0-59.74a28.87,28.87,0,1,0,28.87,28.87A28.9,28.9,0,0,0,574.33,438.44Z"/><path class="cls-7" d="M574.33,510.56a43.25,43.25,0,1,1,43.25-43.25A43.3,43.3,0,0,1,574.33,510.56Zm0-84.5a41.25,41.25,0,1,0,41.25,41.25A41.3,41.3,0,0,0,574.33,426.06Z"/><path class="cls-7" d="M574.33,523.84c-32.84,0-59.55-26.54-59.55-59.17s26.71-59.17,59.55-59.17,59.56,26.54,59.56,59.17S607.17,523.84,574.33,523.84Zm0-116.34c-31.73,0-57.55,25.64-57.55,57.17s25.82,57.17,57.55,57.17,57.56-25.65,57.56-57.17S606.07,407.5,574.33,407.5Z"/><path class="cls-7" d="M574.33,538.34c-42.5,0-77.07-34.24-77.07-76.33s34.57-76.32,77.07-76.32,77.08,34.24,77.08,76.32S616.83,538.34,574.33,538.34Zm0-150.65c-41.39,0-75.07,33.34-75.07,74.32s33.68,74.33,75.07,74.33S649.41,503,649.41,462,615.73,387.69,574.33,387.69Z"/><path class="cls-7" d="M574.33,554.85c-51.69,0-93.75-42.83-93.75-95.47s42.06-95.47,93.75-95.47,93.75,42.83,93.75,95.47S626,554.85,574.33,554.85Zm0-188.94c-50.59,0-91.75,41.93-91.75,93.47s41.16,93.47,91.75,93.47,91.75-41.93,91.75-93.47S624.92,365.91,574.33,365.91Z"/><path class="cls-7" d="M574.33,566.72c-62.54,0-113.43-50.77-113.43-113.18s50.89-113.18,113.43-113.18,113.43,50.78,113.43,113.18S636.88,566.72,574.33,566.72Zm0-224.36c-61.44,0-111.43,49.88-111.43,111.18s50,111.18,111.43,111.18,111.43-49.88,111.43-111.18S635.77,342.36,574.33,342.36Z"/><path class="cls-7" d="M574.33,579.3c-72.94,0-132.28-59.21-132.28-132s59.34-132,132.28-132,132.29,59.21,132.29,132S647.27,579.3,574.33,579.3Zm0-262c-71.84,0-130.28,58.31-130.28,130s58.44,130,130.28,130,130.29-58.31,130.29-130S646.17,317.31,574.33,317.31Z"/><path class="cls-7" d="M574.33,592.55c-84.7,0-153.61-68.69-153.61-153.13s68.91-153.14,153.61-153.14S728,355,728,439.42,659,592.55,574.33,592.55Zm0-304.27c-83.6,0-151.61,67.8-151.61,151.14s68,151.13,151.61,151.13S726,522.76,726,439.42,657.93,288.28,574.33,288.28Z"/><path class="cls-7" d="M574.33,605.34c-97.28,0-176.42-78.59-176.42-175.19S477.05,255,574.33,255s176.42,78.59,176.42,175.19S671.61,605.34,574.33,605.34Zm0-348.38c-96.17,0-174.42,77.7-174.42,173.19s78.25,173.19,174.42,173.19,174.42-77.69,174.42-173.19S670.51,257,574.33,257Z"/><path class="cls-7" d="M574.33,618.64c-109.86,0-199.24-88.7-199.24-197.73s89.38-197.74,199.24-197.74,199.25,88.71,199.25,197.74S684.2,618.64,574.33,618.64Zm0-393.47c-108.76,0-197.24,87.81-197.24,195.74s88.48,195.73,197.24,195.73,197.25-87.8,197.25-195.73S683.09,225.17,574.33,225.17Z"/><path class="cls-7" d="M573.35,728.82c-87.45,0-158.6-71.15-158.6-158.6s71.15-158.6,158.6-158.6S732,482.77,732,570.22,660.81,728.82,573.35,728.82Zm0-315.2c-86.35,0-156.6,70.25-156.6,156.6s70.25,156.6,156.6,156.6S730,656.57,730,570.22,659.7,413.62,573.35,413.62Z"/><path class="cls-7" d="M573.35,814.71A244.47,244.47,0,1,1,746.24,743.1,242.89,242.89,0,0,1,573.35,814.71Zm0-487a242.48,242.48,0,1,0,171.47,71A240.89,240.89,0,0,0,573.35,327.73Z"/><path class="cls-7" d="M576.07,952.65a378.48,378.48,0,1,1,147.8-29.84A377.33,377.33,0,0,1,576.07,952.65Zm0-757.42a376.5,376.5,0,1,0,147,29.68A375.45,375.45,0,0,0,576.07,195.23Z"/><path class="cls-7" d="M574.33,671.8a354.61,354.61,0,0,1-118-20A349,349,0,0,1,355.7,596.41C295,548.49,252.06,481.4,234.86,407.49l1.95-.45c17.09,73.46,59.76,140.16,120.12,187.8A347.48,347.48,0,0,0,457,649.9a355.63,355.63,0,0,0,235.84-.44,347,347,0,0,0,100.87-56.22C854.52,544.54,896.87,476.6,913,401.92l2,.42c-16.23,75.13-58.83,143.48-120,192.46a349.06,349.06,0,0,1-101.45,56.55A354.6,354.6,0,0,1,574.33,671.8Z"/><path class="cls-7" d="M574.33,659.44c-80,0-155.29-31.84-211.88-89.66S274.69,435.1,274.69,353.35c0-3.28.07-6.73.21-10.86l2,.07c-.14,4.11-.21,7.54-.21,10.79,0,81.23,31,157.6,87.19,215s131,89.06,210.45,89.06,154.24-31.63,210.46-89.06S872,434.58,872,353.35c0-5.2-.13-10.5-.39-15.75l2-.1c.26,5.28.39,10.61.39,15.85,0,81.75-31.16,158.62-87.75,216.43S654.37,659.44,574.33,659.44Z"/><path class="cls-7" d="M574.33,659.44c-80,0-155.29-31.84-211.88-89.66S274.69,435.1,274.69,353.35c0-3.28.07-6.73.21-10.86l2,.07c-.14,4.11-.21,7.54-.21,10.79,0,81.23,31,157.6,87.19,215s131,89.06,210.45,89.06,154.24-31.63,210.46-89.06S872,434.58,872,353.35c0-5.2-.13-10.5-.39-15.75l2-.1c.26,5.28.39,10.61.39,15.85,0,81.75-31.16,158.62-87.75,216.43S654.37,659.44,574.33,659.44Z"/><path class="cls-7" d="M574.33,645.92c-69.45,0-134.74-27.79-183.85-78.24s-76.14-117.51-76.14-188.84a272.51,272.51,0,0,1,17.37-96.14l1.88.7a270.41,270.41,0,0,0-17.25,95.44c0,70.81,26.84,137.38,75.58,187.45s113.51,77.63,182.41,77.63S708,616.35,756.75,566.29s75.57-116.64,75.57-187.45a270.05,270.05,0,0,0-19-99.93l1.86-.73a271.87,271.87,0,0,1,19.12,100.66c0,71.33-27,138.4-76.14,188.84S643.78,645.92,574.33,645.92Z"/><path class="cls-7" d="M574.33,645.92c-69.45,0-134.74-27.79-183.85-78.24s-76.14-117.51-76.14-188.84a272.51,272.51,0,0,1,17.37-96.14l1.88.7a270.41,270.41,0,0,0-17.25,95.44c0,70.81,26.84,137.38,75.58,187.45s113.51,77.63,182.41,77.63S708,616.35,756.75,566.29s75.57-116.64,75.57-187.45a270.05,270.05,0,0,0-19-99.93l1.86-.73a271.87,271.87,0,0,1,19.12,100.66c0,71.33-27,138.4-76.14,188.84S643.78,645.92,574.33,645.92Z"/><path class="cls-7" d="M574.33,631.78a228.13,228.13,0,0,1-161.58-66.27A224.67,224.67,0,0,1,375.44,294a228.83,228.83,0,0,1,78.16-80.65l1,1.7A226.9,226.9,0,0,0,377.17,295a222.7,222.7,0,0,0,37,269.1,228.14,228.14,0,0,0,320.36,0A222.67,222.67,0,0,0,770.2,292.76a226.91,226.91,0,0,0-80.61-80.38l1-1.72a228.68,228.68,0,0,1,81.32,81.09,224.65,224.65,0,0,1-36,273.76A228.16,228.16,0,0,1,574.33,631.78Z"/><path class="cls-7" d="M574.33,631.78a228.13,228.13,0,0,1-161.58-66.27A224.67,224.67,0,0,1,375.44,294a228.83,228.83,0,0,1,78.16-80.65l1,1.7A226.9,226.9,0,0,0,377.17,295a222.7,222.7,0,0,0,37,269.1,228.14,228.14,0,0,0,320.36,0A222.67,222.67,0,0,0,770.2,292.76a226.91,226.91,0,0,0-80.61-80.38l1-1.72a228.68,228.68,0,0,1,81.32,81.09,224.65,224.65,0,0,1-36,273.76A228.16,228.16,0,0,1,574.33,631.78Z"/><path class="cls-7" d="M449.8,666.88c-45.44-6.62-96-24.72-142.36-51-47.71-27-85.65-59.86-106.83-92.52l1.67-1.09c21,32.39,58.71,65,106.14,91.87,46.16,26.13,96.47,44.14,141.67,50.73Z"/><path class="cls-7" d="M394.15,692.2a550,550,0,0,1-67.6-4.14c-50.45-6.32-93.64-19.46-121.63-37l1.07-1.69c27.74,17.39,70.64,30.42,120.8,36.7,46.77,5.86,97.61,5.47,139.49-1.07l.3,2A477.44,477.44,0,0,1,394.15,692.2Z"/><path class="cls-7" d="M252,768.21l-.06-2c38-1.14,154.28-15,235.28-64.5l1,1.7C406.89,753.18,290.13,767.06,252,768.21Z"/><path class="cls-7" d="M333,863.05l-1-1.75c39.2-21.82,127.77-80.25,182.43-145.21l1.53,1.29C461.11,782.56,372.28,841.16,333,863.05Z"/><path class="cls-7" d="M443.92,927.71l-1.73-1C462.45,891.59,509,804.06,540,724.12l1.86.72C510.79,804.9,464.21,892.55,443.92,927.71Z"/><path class="cls-7" d="M700,665.27l-.29-2c45.74-6.71,96.59-25.09,143.19-51.75,47.78-27.34,85.85-60.62,107.18-93.71l1.68,1.08c-21.5,33.35-59.81,66.87-107.87,94.37C797,640.07,745.94,658.53,700,665.27Z"/><path class="cls-7" d="M754.09,691a476.07,476.07,0,0,1-72.79-5.25l.31-2c81.54,12.81,203,2.64,265.18-36.57l1.07,1.69C902.12,677.77,824.52,691,754.09,691Z"/><path class="cls-7" d="M900.76,768.93c-38.82-1.18-157.71-15.4-240.56-66.39l1-1.71c82.48,50.77,200.9,64.93,239.57,66.1Z"/><path class="cls-7" d="M817.58,865.35C777.75,843,687.72,783.26,632.14,716.79l1.53-1.28c55.4,66.24,145.16,125.84,184.89,148.1Z"/><path class="cls-7" d="M704.31,929.57c-21.89-38.19-67.26-124.37-98.43-205.17l1.86-.72c31.14,80.69,76.44,166.76,98.3,204.89Z"/><rect class="cls-7" x="573.5" y="165.24" width="2" height="818.52"/></g></g></svg>