<svg xmlns="http://www.w3.org/2000/svg" width="100" height="100" viewBox="0 0 100 100"><defs><style>.a{fill:#c4a660;}.b{fill:#ddc272;}</style></defs><title>info</title><path class="a" d="M392.83,1170.077a48.5,48.5,0,1,1,48.5-48.5A48.555,48.555,0,0,1,392.83,1170.077Zm27.236-56.505a8.006,8.006,0,1,0,8.005,8.005A8.014,8.014,0,0,0,420.066,1113.572Zm-27.236,0a8.006,8.006,0,1,0,8,8.005A8.014,8.014,0,0,0,392.83,1113.572Zm-27.237,0a8.006,8.006,0,1,0,8,8.005A8.013,8.013,0,0,0,365.593,1113.572Z" transform="translate(-342.83 -1071.577)"/><path class="b" d="M392.83,1074.577a47,47,0,1,1-47,47,47.054,47.054,0,0,1,47-47m27.236,56.505a9.505,9.505,0,1,0-9.5-9.505,9.515,9.515,0,0,0,9.5,9.505m-27.236,0a9.505,9.505,0,1,0-9.506-9.505,9.515,9.515,0,0,0,9.506,9.505m-27.237,0a9.505,9.505,0,1,0-9.5-9.505,9.515,9.515,0,0,0,9.5,9.505m27.237-59.505a50,50,0,1,0,50,50,50.057,50.057,0,0,0-50-50Zm27.236,56.505a6.505,6.505,0,1,1,6.505-6.505,6.5,6.5,0,0,1-6.505,6.505Zm-27.236,0a6.505,6.505,0,1,1,6.5-6.505,6.505,6.505,0,0,1-6.5,6.505Zm-27.237,0a6.505,6.505,0,1,1,6.5-6.505,6.5,6.5,0,0,1-6.5,6.505Z" transform="translate(-342.83 -1071.577)"/></svg>