<svg id="Layer_1" data-name="Layer 1" xmlns="http://www.w3.org/2000/svg" width="158.201" height="158.201" viewBox="0 0 158.201 158.201"><defs><style>.cls-1{fill:#d0973b;}.cls-2{fill:#f2ba4b;}.cls-3{fill:#fff;}.cls-4{fill:#a3a098;}.cls-5{fill:#9a1919;}.cls-6{fill:#807d77;}</style></defs><title>mini_compass</title><circle class="cls-1" cx="79.101" cy="79.101" r="79.1"/><circle class="cls-2" cx="79.101" cy="79.101" r="60.874"/><circle class="cls-3" cx="79.101" cy="79.101" r="53.072"/><path class="cls-4" d="M538.98,971.593l13.607-13.606a.326.326,0,0,0-.052-.5l-42.226-27.769a.325.325,0,0,0-.45.451l27.117,41.223A1.3,1.3,0,0,0,538.98,971.593Z" transform="translate(-461.032 -880.899)"/><path class="cls-4" d="M547.5,968.231V952.106a2.2,2.2,0,0,0-2.639-2.149l-47.247,9.758a.326.326,0,0,0,0,.638l47.517,9.808A1.971,1.971,0,0,0,547.5,968.231Z" transform="translate(-461.032 -880.899)"/><path class="cls-4" d="M551.269,960.875l-13.145-13.144a.325.325,0,0,0-.5.051l-27.77,42.226a.326.326,0,0,0,.451.451L550.98,963.7A1.832,1.832,0,0,0,551.269,960.875Z" transform="translate(-461.032 -880.899)"/><path class="cls-5" d="M532.613,952.349,547.065,966.8a.326.326,0,0,0,.5-.052l27.769-42.226a.325.325,0,0,0-.45-.451l-42.222,27.774A.327.327,0,0,0,532.613,952.349Z" transform="translate(-461.032 -880.899)"/><circle class="cls-6" cx="79.101" cy="79.136" r="13.501"/><circle class="cls-2" cx="79.101" cy="79.136" r="7.283"/></svg>