<svg id="Layer_1" data-name="Layer 1" xmlns="http://www.w3.org/2000/svg" width="620.162" height="73.929" viewBox="0 0 620.162 73.929"><defs><style>.cls-1{fill:#505050;}</style></defs><title>needle-request-inactive</title><path class="cls-1" d="M295.128,1050.023c9.352,6.2,22.068,8.91,35.806,7.644,15.165-1.4,27.34-8.63,39.748-20.007a11.079,11.079,0,0,0,21.755-3.3c0-.3-.021-.593-.048-.892a11.35,11.35,0,0,0-3.967-7.663,11.065,11.065,0,0,0-4.015-2.175c11.791-12.139,24.763-21.474,37.335-22.632,22.37-2.061,34.5,5.437,36.052,22.286.056.6.089,1.212.1,1.831a23.528,23.528,0,0,1-1.417,8.49,16.88,16.88,0,0,0-4.222-5.426,16.313,16.313,0,0,0-12.134-3.857,16.776,16.776,0,0,0-15.028,17.006q.009.66.071,1.331a16.853,16.853,0,0,0,13.674,15.087c.145.031.286.068.435.091.174.028.347.044.522.068l.11.014a27.258,27.258,0,0,0,21.867-6.442c5.71-4.963,9.291-12.1,10.392-20.478l325.083-5.611a3.344,3.344,0,1,0,0-6.68l-323.81-7.392h-3.13a36.451,36.451,0,0,0-14.7-18.9c-9.352-6.194-22.068-8.909-35.806-7.643-16.507,1.52-36.575,16.536-47.014,26.322a11.311,11.311,0,0,0-2.933-3.862,10.929,10.929,0,0,0-8.13-2.584,11.24,11.24,0,0,0-10.069,11.394c0,.295.02.593.048.892a11.352,11.352,0,0,0,6.055,9.047c-9.3,8.606-18.058,14.476-28.765,15.463-22.37,2.061-34.5-5.437-36.053-22.286-.055-.6-.088-1.213-.1-1.831a23.513,23.513,0,0,1,1.418-8.491,16.87,16.87,0,0,0,4.222,5.427,16.314,16.314,0,0,0,12.135,3.857,16.776,16.776,0,0,0,15.027-17q-.009-.661-.071-1.332a16.94,16.94,0,0,0-5.922-11.437,16.379,16.379,0,0,0-7.9-3.681c-.1-.019-.19-.045-.289-.061-.17-.026-.338-.042-.508-.066-.075-.009-.15-.021-.225-.029a27.25,27.25,0,0,0-21.765,6.455,30.274,30.274,0,0,0-8.732,13.257h-4.5V989.369A2.725,2.725,0,0,0,273,986.644h-6.2a2.725,2.725,0,0,0-2.726,2.725v12.881c-5.4,15.9-22.988,9.1-31.409.293q-.7-.858-1.459-1.66c-.1-.12-.194-.24-.286-.36v.061A29.315,29.315,0,1,0,231,1041.36v.061c.112-.148.238-.289.355-.435.432-.464.854-.939,1.256-1.43,8.64-9,26.292-12.555,31.467,2.571v10.94a2.725,2.725,0,0,0,2.726,2.725H273a2.725,2.725,0,0,0,2.726-2.725v-14.849h7.981A37.034,37.034,0,0,0,295.128,1050.023Zm-85.2-15.539a13.473,13.473,0,1,1,13.448-13.5A13.473,13.473,0,0,1,209.928,1034.484Z" transform="translate(-180.588 -984.254)"/></svg>