<svg id="fcb0956c-0405-493a-aae9-5894ad8e2e4b" data-name="Layer 1" xmlns="http://www.w3.org/2000/svg" xmlns:xlink="http://www.w3.org/1999/xlink" width="1080" height="1920" viewBox="0 0 1080 1920"><title>oxford</title><rect y="885" width="1080" height="1035" fill="#654c44"/><rect width="1080" height="1257.14" fill="#d2deec"/><path d="M1080,981.531V761.055c-104.618.315-277.413,3.513-440.934,3.513-257.983,0-377.944,19.854-377.944,23.453s35,2.944,32.711,5.233S142.419,844.08,142.419,849.145s102.426,14.632,102.426,20.26-85.283,11.95-85.283,19.714,65.772,1.725,65.772,12.94-171.48,3.053-171.48,18.581,262.835-11.6,262.835,15.116C316.689,960.8,46.521,956.405,0,959.547v159.831c132.44,7.37,500.6,27.422,585.963,27.422,104.586,0,227.7-40.767,290.407-40.767s182.715-53.694,182.715-63.9-152.553-15.891-152.553-25.309C906.532,1011.234,1002.219,994.34,1080,981.531Z" fill="#e0e6ec"/><rect x="167.194" y="1156.741" width="142.089" height="50.767" fill="#b6a497"/><path d="M269.772,1193.812s.438-11.217,10.686-11.217,10.88,11.517,10.88,11.517v24.051H269.772Z" fill="#a7958a"/><path d="M226.208,1193.812s.438-11.217,10.686-11.217,10.88,11.517,10.88,11.517v24.051H226.208Z" fill="#a7958a"/><path d="M182.644,1193.812s.438-11.217,10.686-11.217,10.88,11.517,10.88,11.517v24.051H182.644Z" fill="#a7958a"/><rect x="225.265" y="1061.937" width="25.949" height="31.564" fill="#bdab9e"/><path d="M225.265,1061.937s1.225-14.625,12.974-14.625,12.974,14.625,12.974,14.625" fill="#a29a97"/><rect x="123.151" y="1207.509" width="230.314" height="25.384" fill="#ae9c91"/><polygon points="235.547 1048.125 238.233 1039.222 240.931 1048.125 235.547 1048.125" fill="#a7958a"/><path d="M167.194,1156.741s6.71-80.081,71.045-80.081,71.045,80.081,71.045,80.081" fill="#a29a97"/><path d="M353.465,1207.278H123.151c0,1.251,51.558,4.058,115.157,4.058S353.465,1208.529,353.465,1207.278Z" fill="#a7958a"/><polygon points="416.378 1241.297 416.378 1432.372 774.545 1426.246 774.545 1241.297 416.378 1241.297" fill="#4c342b"/><rect x="616.789" y="1331.324" width="206.064" height="73.134" fill="#543b34"/><rect x="603.445" y="1331.324" width="13.345" height="73.134" fill="#5d443b"/><rect x="441.148" y="1331.324" width="162.297" height="73.134" fill="#4c342b"/><polygon points="443.962 1241.297 587.182 1249.831 587.182 1280.312 434.439 1270.558 443.962 1241.297" fill="#565259"/><rect x="353.465" y="1167.988" width="29.443" height="79.042" fill="#bdab9e"/><polygon points="444.094 1263.67 760.537 1278.844 740.774 1317.14 431.824 1293.151 444.094 1263.67" fill="#504b52"/><polygon points="444.524 1348.677 603.818 1359.407 633.015 1300.234 439.371 1288.854 444.524 1348.677" fill="#4a444b"/><polygon points="630.156 1285.928 605.922 1336.323 686.429 1341.33 800.468 1290.805 630.156 1285.928" fill="#443d44"/><rect x="17.23" y="1167.988" width="29.443" height="79.042" fill="#bdab9e"/><polygon points="846.257 1083.291 829.853 1069.87 829.853 1051.229 842.856 1051.229 1025.208 1051.229 1006.028 1073.698 846.257 1083.291" fill="#9f8d83"/><polygon points="14.073 1324.952 46.912 1287.128 169.764 1290.94 145.135 1342.544 49.844 1339.026 42.681 1348.215 445.821 1348.215 445.821 1221.033 0 1221.033 0 1331.556 14.073 1324.952" fill="#b6a497"/><polygon points="888.64 1349.758 882.962 1341.556 1080 1341.556 1080 1274.673 762.124 1276.479 762.124 1273.41 761.479 1273.41 761.479 1358.659 761.802 1358.659 761.802 1349.758 888.64 1349.758" fill="#9c8f88"/><rect x="50.159" y="1334.628" width="82.054" height="190.35" fill="#61483f"/><rect x="34.419" y="1326.371" width="15.74" height="198.607" fill="#765c53"/><polygon points="132.213 1334.628 132.213 1490.581 407.332 1485.581 407.332 1334.628 132.213 1334.628" fill="#695048"/><rect x="657.157" y="1170.903" width="79.843" height="247.26" fill="#b6a497"/><rect x="416.378" y="1167.988" width="29.443" height="136.188" fill="#bdab9e"/><rect x="664.84" y="1170.903" width="64.16" height="247.26" fill="#bdab9e"/><rect y="1167.988" width="23.247" height="173.343" fill="#bdab9e"/><polygon points="145.135 1342.544 169.764 1290.94 46.912 1287.128 14.073 1324.952 0 1331.556 0 1348.215 42.681 1348.215 49.844 1339.026 145.135 1342.544" fill="#626167"/><rect x="650.211" y="1418.163" width="59.506" height="248.418" fill="#4c342b"/><path d="M687.046,1193.812s.438-11.217,10.686-11.217,10.88,11.517,10.88,11.517v224.051H687.046Z" fill="#a7958a"/><rect x="680.913" y="1379.177" width="59.506" height="248.418" fill="#50372f"/><polygon points="757.012 1230.89 762.833 1235.361 762.833 1246.09 759.923 1247.059 759.923 1257.14 757.012 1257.14 757.012 1266.057 762.124 1266.057 762.124 1273.41 762.124 1276.479 1080 1274.673 1080 1273.41 1080 1231.173 757.012 1230.89" fill="#ad9d93"/><polygon points="128.221 1351.098 404.538 1361.54 439.479 1275.593 171.195 1267.56 128.221 1351.098" fill="#565259"/><rect x="730.113" y="1446.27" width="33.832" height="181.325" fill="#4c342b"/><polygon points="836.981 1066.164 843.321 1073.697 843.321 1091.774 840.151 1093.407 840.151 1110.392 836.981 1110.392 836.981 1125.417 841.161 1125.417 841.161 1362.232 1006.114 1362.232 1006.114 1194.012 1006.114 1124.764 1009.688 1124.764 1009.688 1110.392 1006.389 1110.392 1006.389 1099.613 1005.014 1093.08 1005.014 1075.115 1012.08 1066.719 836.981 1066.164" fill="#bdab9e"/><polygon points="210.374 1341.96 211.743 1524.978 316.689 1524.978 316.689 1348.215 264.216 1294.254 210.374 1341.96" fill="#654c44"/><rect x="205.527" y="1485.581" width="59.025" height="100.711" fill="#50372f"/><rect x="264.552" y="1485.581" width="335.942" height="100.711" fill="#583f37"/><rect x="711.104" y="1533.109" width="33.832" height="102.403" fill="#422d27"/><rect x="253.796" y="1669.414" width="335.942" height="157.456" fill="#543b34"/><rect x="232.04" y="1669.414" width="21.756" height="157.456" fill="#5d443b"/><rect x="892.403" y="791.323" width="64.256" height="30.278" fill="#a7958a"/><polygon points="205.527 1519.3 205.527 1486.483 221.376 1476.398 181.85 1456.531 108.896 1502.259 108.896 1521.776 205.527 1519.3" fill="#543b34"/><rect x="874.954" y="820" width="98.939" height="23" fill="#b6a497"/><ellipse cx="924.531" cy="842.702" rx="64.469" ry="12.901" fill="#a7958a"/><polygon points="870.311 1305.116 872.129 1113.862 876.367 1113.862 876.367 1106.033 976.912 1106.033 976.912 1113.862 976.912 1306.68 870.311 1305.116" fill="#b6a497"/><rect x="869.613" y="846" width="109.835" height="160.904" fill="#ae9c91"/><path d="M979.235,870.7c0-6.2-24.54-11.224-54.811-11.224S869.613,864.5,869.613,870.7c0,0,24.539-.94,54.811-.94S979.235,870.7,979.235,870.7Z" fill="#a7958a"/><path d="M979.235,846.94c0-6.2-24.54-11.225-54.811-11.225s-54.811,5.026-54.811,11.225c0,0,24.539-.94,54.811-.94S979.235,846.94,979.235,846.94Z" fill="#ae9c91"/><path d="M974,820.665c0-4.385-22.2-7.94-49.576-7.94s-49.577,3.555-49.577,7.94c0,0,22.2-.665,49.577-.665S974,820.665,974,820.665Z" fill="#b6a497"/><path d="M886.406,1157.169s3.77-38.46,39.681-38.46,38.461,38.46,38.461,38.46h12.364V1170.9H871.51v-13.734Z" fill="#ae9c91"/><path d="M895.638,1155.617s1.248-30.2,30.449-30.2,31,31,31,31v129.615H895.638Z" fill="#a7958a"/><polygon points="845.019 1042.134 1003.103 1042.134 1009.051 1057.16 840.01 1057.16 845.019 1042.134" fill="#ae9c91"/><path d="M847.978,1045.492v-36.1l-2.817-.75v-6.574h4.7s3.131-13.148,13.461-13.148,12.208,11.9,12.208,11.9h3.757v3.443h91.094v-3.443l1.874-.089s2.182-12.567,12.566-12.567,16.123,13.333,16.123,13.333h2.961v4.627h-3.516v25.358h3.516v14.017Z" fill="#bdab9e"/><circle cx="924.531" cy="988.157" r="6.439" fill="#98867c"/><rect x="882.59" y="867.762" width="9.25" height="101.755" rx="4.625" ry="4.625" fill="#b6a497"/><rect x="906.532" y="866.042" width="9.25" height="101.755" rx="4.625" ry="4.625" fill="#bdab9e"/><rect x="933.467" y="866.042" width="9.25" height="101.755" rx="4.625" ry="4.625" fill="#bdab9e"/><rect x="958.226" y="867.902" width="9.25" height="101.755" rx="4.625" ry="4.625" fill="#b6a497"/><rect x="869.354" y="869.762" width="7.006" height="101.755" rx="3.503" ry="3.503" fill="#ae9c91"/><rect x="972.373" y="869.762" width="7.006" height="101.755" rx="3.503" ry="3.503" fill="#ae9c91"/><path d="M979.448,971.517H869.613c0-6.2,24.587-11.224,54.918-11.224S979.448,965.318,979.448,971.517Z" fill="#a7958a"/><ellipse cx="238.239" cy="1156.741" rx="71.045" ry="2.265" fill="#a29a97"/><path d="M956.658,791.323,924.459,607.8,892.4,791.323h.18a.9.9,0,0,0-.18.512c0,2.672,14.384,4.837,32.127,4.837s32.128-2.165,32.128-4.837a.9.9,0,0,0-.18-.512Z" fill="#a7958a"/><circle cx="924.531" cy="608.306" r="5.322" fill="#bda08d"/><rect x="657.157" y="1130.315" width="80.171" height="40.587" fill="#b6a497"/><polygon points="675.854 1131.315 697.78 936.756 719.804 1131.315 675.854 1131.315" fill="#bdab9e"/><polygon points="657.157 1131.315 671.806 1052.229 686.52 1131.315 657.157 1131.315" fill="#ae9c91"/><polygon points="707.966 1131.315 722.614 1052.229 737.328 1131.315 707.966 1131.315" fill="#ae9c91"/><polygon points="371.378 1133.417 368.186 1143.829 364.981 1133.417 361.789 1143.829 361.789 1161.238 374.584 1161.238 374.584 1143.829 371.378 1133.417" fill="#a7958a"/><polygon points="463.822 1332.57 463.822 1420.838 407.332 1427.213 407.332 1353.896 439.479 1275.593 463.822 1332.57" fill="#61483f"/><polygon points="434.291 1133.417 431.099 1143.829 427.894 1133.417 424.702 1143.829 424.702 1161.238 437.497 1161.238 437.497 1143.829 434.291 1133.417" fill="#a7958a"/><polygon points="11.718 1133.417 8.526 1143.829 5.32 1133.417 2.129 1143.829 0 1161.238 14.923 1161.238 14.923 1143.829 11.718 1133.417" fill="#a7958a"/><rect x="359.482" y="1156.741" width="17.409" height="11.246" fill="#b6a497"/><rect x="422.395" y="1156.741" width="17.409" height="11.246" fill="#b6a497"/><rect y="1156.741" width="17.23" height="11.246" fill="#b6a497"/><polygon points="35.144 1133.417 31.952 1143.829 28.746 1133.417 25.555 1143.829 25.555 1161.238 38.349 1161.238 38.349 1143.829 35.144 1133.417" fill="#a7958a"/><rect x="23.247" y="1156.741" width="17.409" height="11.246" fill="#b6a497"/><polygon points="657.157 1528.624 650.009 1403.143 623.513 1516.242 657.157 1528.624" fill="#50372f"/><rect x="278.02" y="1375.143" width="19.367" height="73.959" fill="#755042"/><polygon points="297.387 1375.143 297.387 1449.102 312.496 1449.102 312.496 1367.288 297.387 1375.143" fill="#765c53"/><rect x="37.501" y="1291.039" width="16.353" height="41.476" fill="#755042"/><polygon points="53.854 1291.039 53.854 1332.515 73.322 1306.504 73.322 1289.21 53.854 1291.039" fill="#765c53"/><rect x="246.399" y="1282.516" width="24.826" height="197.967" fill="#755042"/><polygon points="181.85 1456.531 231.43 1485.581 290.306 1459.629 243.438 1432.903 181.85 1456.531" fill="#5c5a60"/><polygon points="202.767 1486.356 264.164 1489.174 275.587 1459.629 239.177 1459.629 202.767 1486.356" fill="#504b52"/><polygon points="308.76 1395.641 299.437 1427 279.944 1427 263.841 1494.802 639.296 1509.21 652.009 1403.269 308.76 1395.641" fill="#5f5556"/><polygon points="196.581 1408.664 196.581 1450.865 218.932 1462.102 218.932 1408.664 196.581 1408.664" fill="#755042"/><polygon points="218.932 1408.664 218.932 1462.102 224.209 1460.424 224.209 1408.664 218.932 1408.664" fill="#765c53"/><rect x="638.952" y="1358.659" width="7.252" height="30.627" fill="#8c5949"/><polygon points="644.628 1379.177 644.628 1432.372 646.502 1432.372 650.009 1402.309 650.009 1379.177 644.628 1379.177" fill="#765c53"/><rect x="633.084" y="1362.232" width="7.252" height="30.627" fill="#8c4d38"/><rect x="627.216" y="1379.177" width="18.988" height="53.195" fill="#755042"/><path d="M673.926,1160.223s2.3-21.131,24.2-21.131,23.459,23.441,23.459,23.441h7.542v8.37H664.84v-9.543Z" fill="#a7958a"/><polygon points="34.419 1505.61 0 1503.761 0 1524.978 0 1536.861 205.527 1548.573 205.527 1514.8 34.419 1505.61" fill="#565259"/><polygon points="205.527 1548.573 0 1536.861 0 1547.758 0 1580.73 280.248 1602.479 272.957 1621.994 455.925 1638.878 488.144 1564.679 205.527 1548.573" fill="#504b52"/><polygon points="0 1580.73 0 1596.805 0 1669.414 0 1709.182 232.04 1729.822 232.649 1729.876 272.957 1621.994 280.248 1602.479 0 1580.73" fill="#4a444b"/><polygon points="275.587 1571.679 236.078 1680.177 367.328 1690.958 553.243 1582.179 275.587 1571.679" fill="#443d44"/><polygon points="1080 1516.684 767.96 1500.849 761.802 1500.849 761.802 1623.478 1080 1641.077 1080 1516.684" fill="#50372f"/><polygon points="893 1351 761.802 1358.659 761.802 1425.322 948.068 1435.617 893 1351" fill="#695048"/><polygon points="888.64 1349.758 761.802 1349.758 761.802 1358.659 894.8 1358.659 888.64 1349.758" fill="#695048"/><polygon points="723.454 1341.556 719.592 1448.74 789.103 1448.74 866.052 1341.556 723.454 1341.556" fill="#504b52"/><polygon points="761.802 1500.537 761.802 1500.849 767.96 1500.849 761.802 1500.537" fill="#695048"/><polygon points="882.962 1341.556 888.64 1349.758 894.8 1358.659 948.068 1435.617 1080 1442.91 1080 1358.659 1080 1349.758 1080 1341.556 882.962 1341.556" fill="#504b52"/><polygon points="948.068 1435.617 761.802 1425.322 761.48 1425.304 752.827 1500.081 761.802 1500.537 767.96 1500.849 1080 1516.684 1080 1500.849 1080 1497.472 1080 1446.27 1080 1442.91 948.068 1435.617" fill="#443d44"/><rect x="846.588" y="1317.189" width="46.177" height="65.138" fill="#794f3c"/><polygon points="850.803 1303.172 844.211 1317.189 896.406 1317.189 888.526 1303.172 850.803 1303.172" fill="#4c342b"/><path d="M852.04,1286.039v21.59h9.253v-21.59S857.972,1287.7,852.04,1286.039Z" fill="#3f241f"/><path d="M877.052,1289.835v16.845h8.915v-16.845A14.2,14.2,0,0,1,877.052,1289.835Z" fill="#3f241f"/><polygon points="707.932 1599.392 744.936 1533.109 637.642 1479.581 549.115 1590.608 707.932 1599.392" fill="#443d44"/><polygon points="529.115 1610.608 617.642 1499.581 528.258 1610.561 529.115 1610.608" fill="#3e353d"/><polygon points="0 1358.963 0 1503.761 34.419 1505.61 34.419 1358.816 34.304 1358.963 0 1358.963" fill="#695048"/><polygon points="0 1353.156 34.419 1353.156 34.419 1358.816 42.681 1348.215 0 1348.215 0 1353.156" fill="#626167"/><polygon points="0 1353.156 0 1358.963 34.304 1358.963 34.419 1358.816 34.419 1353.156 0 1353.156" fill="#626167"/><polygon points="0 1778.239 232.04 1801.13 232.04 1729.822 0 1709.182 0 1778.239" fill="#4c342b"/><polygon points="237.156 1801.635 232.04 1801.13 232.04 1806.53 237.156 1801.635" fill="#382e36"/><rect x="919.316" y="1815.998" width="132.034" height="104.002" fill="#382e36"/><polygon points="1080 1829.958 1080 1630.927 1069.567 1618.916 919.316 1815.076 946.235 1920 963.648 1920 1080 1829.958" fill="#3e353d"/><polygon points="1080 1829.958 963.648 1920 1080 1920 1080 1829.958" fill="#443d44"/><polygon points="404.54 1771.93 286.478 1920 380.298 1920 404.54 1771.93" fill="#443d44"/><polygon points="637.642 1479.581 532.644 1518.08 461.875 1585.783 548.258 1590.561 637.642 1479.581" fill="#3e353d"/><polygon points="404.54 1771.93 405.141 1768.259 430.028 1616.25 257.156 1781.635 112.527 1920 286.478 1920 404.54 1771.93" fill="#3e353d"/><polygon points="919.316 1815.076 1069.567 1618.916 1080 1630.927 1080 1605.512 1080 1591.077 761.802 1573.478 687.932 1569.392 529.115 1560.608 528.258 1560.561 441.875 1555.783 415.258 1554.311 410.028 1586.25 385.141 1738.259 384.54 1741.93 355.386 1920 946.235 1920 919.316 1815.076" fill="#4a444b"/><polygon points="210.778 1826.87 232.04 1806.529 232.04 1801.13 0 1778.239 0 1826.87 0 1920 113.432 1920 210.778 1826.87" fill="#382e36"/><g opacity="0.3"><image width="1152" height="1992" transform="translate(-36 -36)" xlink:href="oxford1.png"/></g></svg>