<svg id="Layer_1" data-name="Layer 1" xmlns="http://www.w3.org/2000/svg" viewBox="0 0 1080 1920"><defs><style>.cls-1{fill:#61483f;}.cls-2{fill:#d2deec;}.cls-3{fill:#e0e6ec;}.cls-4{fill:#b6a497;}.cls-5{fill:#bdab9e;}.cls-6{fill:#a7958a;}.cls-7{fill:#ae9c91;}.cls-8{fill:#a29a97;}.cls-9{fill:#9f8d83;}.cls-10{fill:#4c342b;}.cls-11{fill:#543b34;}.cls-12{fill:#5d443b;}.cls-13{fill:#565259;}.cls-14{fill:#504b52;}.cls-15{fill:#4a444b;}.cls-16{fill:#443d44;}.cls-17{fill:#9c8f88;}.cls-18{fill:#ad9d93;}.cls-19{fill:#765c53;}.cls-20{fill:#695048;}.cls-21{fill:#626167;}.cls-22{fill:#50372f;}.cls-23{fill:#654c44;}.cls-24{fill:#583f37;}.cls-25{fill:#422d27;}.cls-26{fill:#98867c;}.cls-27{fill:#bda08d;}.cls-28{fill:#755042;}.cls-29{fill:#5c5a60;}.cls-30{fill:#5f5556;}.cls-31{fill:#8c5949;}.cls-32{fill:#8c4d38;}.cls-33{fill:#794f3c;}.cls-34{fill:#3f241f;}.cls-35{fill:#3e353d;}.cls-36{fill:#382e36;}</style></defs><title>oxford_v01</title><rect class="cls-1" y="721.986" width="1080" height="1198.014"/><rect class="cls-2" width="1080" height="1177.14"/><path class="cls-3" d="M1080,901.531V681.055c-104.618.315-277.413,3.513-440.934,3.513-257.983,0-377.944,19.854-377.944,23.453s35,2.944,32.711,5.233S142.419,764.08,142.419,769.145s102.426,14.632,102.426,20.26-85.283,11.95-85.283,19.714,65.772,1.725,65.772,12.94-171.48,3.053-171.48,18.581,262.835-11.6,262.835,15.116C316.689,880.8,46.521,876.405,0,879.547v159.831c132.44,7.37,500.6,27.422,585.963,27.422,104.586,0,227.7-40.767,290.407-40.767s182.715-53.694,182.715-63.9-152.553-15.891-152.553-25.309C906.532,931.234,1002.219,914.34,1080,901.531Z"/><rect class="cls-4" x="167.194" y="1076.741" width="142.089" height="50.767"/><rect class="cls-5" x="225.334" y="971.937" width="25.949" height="31.564"/><path class="cls-6" d="M269.772,1113.812s.438-11.217,10.686-11.217,10.88,11.517,10.88,11.517v24.051H269.772Z"/><path class="cls-6" d="M226.208,1113.812s.438-11.217,10.686-11.217,10.88,11.517,10.88,11.517v24.051H226.208Z"/><path class="cls-6" d="M182.644,1113.812s.438-11.217,10.686-11.217,10.88,11.517,10.88,11.517v24.051H182.644Z"/><rect class="cls-7" x="123.151" y="1127.509" width="230.314" height="25.384"/><polygon class="cls-6" points="236.642 958.125 238.304 947.222 239.974 958.125 236.642 958.125"/><path class="cls-8" d="M167.194,1076.741s6.71-80.081,71.045-80.081,71.045,80.081,71.045,80.081"/><path class="cls-9" d="M225.334,971.937s1.225-14.625,12.974-14.625,12.974,14.625,12.974,14.625"/><path class="cls-6" d="M353.465,1127.278H123.151c0,1.251,51.558,4.058,115.157,4.058S353.465,1128.529,353.465,1127.278Z"/><polygon class="cls-10" points="416.378 1161.297 416.378 1352.372 774.545 1346.246 774.545 1161.297 416.378 1161.297"/><rect class="cls-11" x="616.789" y="1251.324" width="206.064" height="73.134"/><rect class="cls-12" x="603.445" y="1251.324" width="13.345" height="73.134"/><rect class="cls-10" x="441.148" y="1251.324" width="162.297" height="73.134"/><polygon class="cls-13" points="443.962 1161.297 587.182 1169.831 587.182 1200.312 434.439 1190.558 443.962 1161.297"/><rect class="cls-5" x="353.465" y="1087.988" width="29.443" height="79.042"/><polygon class="cls-14" points="444.094 1183.67 760.537 1198.844 740.774 1237.14 431.824 1213.151 444.094 1183.67"/><polygon class="cls-15" points="444.524 1268.677 603.818 1279.407 633.015 1220.234 439.371 1208.854 444.524 1268.677"/><polygon class="cls-16" points="630.156 1205.928 605.922 1256.323 686.429 1261.33 800.468 1210.805 630.156 1205.928"/><rect class="cls-5" x="17.23" y="1087.988" width="29.443" height="79.042"/><polygon class="cls-9" points="846.257 1003.291 829.853 989.87 829.853 971.229 842.856 971.229 1025.208 971.229 1006.028 993.698 846.257 1003.291"/><polygon class="cls-4" points="14.073 1244.952 46.912 1207.128 169.764 1210.94 145.135 1262.544 49.844 1259.026 42.681 1268.215 445.821 1268.215 445.821 1141.033 0 1141.033 0 1251.556 14.073 1244.952"/><polygon class="cls-17" points="888.64 1269.758 882.962 1261.556 1080 1261.556 1080 1194.673 762.124 1196.479 762.124 1193.41 761.479 1193.41 761.479 1278.659 761.802 1278.659 761.802 1269.758 888.64 1269.758"/><polygon class="cls-18" points="1080 1151.173 757.012 1150.89 762.833 1155.361 762.833 1166.09 759.923 1167.059 759.923 1177.14 757.012 1177.14 757.012 1186.057 762.124 1186.057 762.124 1193.41 1080 1193.41 1080 1151.173"/><rect class="cls-1" x="50.159" y="1254.628" width="82.054" height="190.35"/><rect class="cls-19" x="34.419" y="1246.371" width="15.74" height="198.607"/><polygon class="cls-20" points="132.213 1254.628 132.213 1410.581 407.332 1405.581 407.332 1254.628 132.213 1254.628"/><rect class="cls-5" x="416.378" y="1087.988" width="29.443" height="136.188"/><rect class="cls-5" x="664.84" y="1090.903" width="72.488" height="247.26"/><rect class="cls-5" y="1087.988" width="23.247" height="173.343"/><polygon class="cls-21" points="145.135 1262.544 169.764 1210.94 46.912 1207.128 14.073 1244.952 0 1251.556 0 1268.215 42.681 1268.215 49.844 1259.026 145.135 1262.544"/><rect class="cls-10" x="650.211" y="1338.163" width="59.506" height="248.418"/><rect class="cls-4" x="657.157" y="1090.903" width="7.683" height="247.26"/><path class="cls-6" d="M687.046,1113.812s.438-11.217,10.686-11.217,10.88,11.517,10.88,11.517v224.051H687.046Z"/><rect class="cls-22" x="680.913" y="1299.177" width="59.506" height="248.418"/><polygon class="cls-13" points="128.221 1271.098 404.538 1281.54 439.479 1195.593 171.195 1187.56 128.221 1271.098"/><rect class="cls-10" x="730.113" y="1366.27" width="33.832" height="181.325"/><polygon class="cls-5" points="836.981 986.164 843.321 993.697 843.321 1011.774 840.151 1013.407 840.151 1030.392 836.981 1030.392 836.981 1045.417 841.161 1045.417 841.161 1282.232 1006.114 1282.232 1006.114 1114.012 1006.114 1044.764 1009.688 1044.764 1009.688 1030.392 1006.389 1030.392 1006.389 1019.613 1005.014 1013.08 1005.014 995.115 1012.08 986.719 836.981 986.164"/><polygon class="cls-23" points="210.374 1261.96 211.743 1444.978 316.689 1444.978 316.689 1268.215 264.216 1214.254 210.374 1261.96"/><rect class="cls-22" x="205.527" y="1405.581" width="59.025" height="100.711"/><rect class="cls-24" x="264.552" y="1405.581" width="335.942" height="100.711"/><rect class="cls-25" x="691.104" y="1473.109" width="33.832" height="102.403"/><rect class="cls-11" x="253.796" y="1589.414" width="335.942" height="157.456"/><rect class="cls-12" x="232.04" y="1589.414" width="21.756" height="157.456"/><polygon class="cls-11" points="205.527 1439.3 205.527 1406.483 221.376 1396.398 181.85 1376.531 108.896 1422.259 108.896 1441.776 205.527 1439.3"/><polygon class="cls-4" points="870.311 1225.116 872.129 1033.862 876.367 1033.862 876.367 1026.033 976.912 1026.033 976.912 1033.862 976.912 1226.68 870.311 1225.116"/><rect class="cls-7" x="869.613" y="745.179" width="109.835" height="181.725"/><path class="cls-4" d="M979.235,790.7c0-6.2-24.54-11.224-54.811-11.224S869.613,784.5,869.613,790.7c0,0,24.539-.94,54.811-.94S979.235,790.7,979.235,790.7Z"/><path class="cls-7" d="M886.406,1073.38s3.77-34.671,39.681-34.671,38.461,38.46,38.461,38.46h12.364V1090.9H871.51v-15.659Z"/><path class="cls-6" d="M894.638,1075.617s1.248-30.2,30.449-30.2,31,31,31,31v129.615H894.638Z"/><polygon class="cls-7" points="845.019 962.134 1003.103 962.134 1009.051 977.16 840.01 977.16 845.019 962.134"/><path class="cls-5" d="M847.978,965.492v-36.1l-2.817-.75v-6.574h4.7s3.131-13.148,13.461-13.148,12.208,11.9,12.208,11.9h3.757v3.443h91.094v-3.443l1.874-.089s2.182-12.567,12.566-12.567,16.123,13.333,16.123,13.333h2.961v4.627h-3.516v25.358h3.516v14.017Z"/><circle class="cls-26" cx="924.531" cy="908.157" r="6.439"/><rect class="cls-4" x="882.59" y="787.762" width="9.25" height="101.755" rx="4.625" ry="4.625"/><rect class="cls-5" x="906.532" y="786.042" width="9.25" height="101.755" rx="4.625" ry="4.625"/><rect class="cls-5" x="933.467" y="786.042" width="9.25" height="101.755" rx="4.625" ry="4.625"/><rect class="cls-4" x="958.226" y="787.902" width="9.25" height="101.755" rx="4.625" ry="4.625"/><rect class="cls-7" x="869.354" y="789.762" width="7.006" height="101.755" rx="3.503" ry="3.503"/><rect class="cls-7" x="972.373" y="789.762" width="7.006" height="101.755" rx="3.503" ry="3.503"/><path class="cls-6" d="M979.448,891.517H869.613c0-6.2,24.587-11.224,54.918-11.224S979.448,885.318,979.448,891.517Z"/><ellipse class="cls-8" cx="238.239" cy="1076.741" rx="71.045" ry="2.265"/><ellipse class="cls-6" cx="924.531" cy="745.179" rx="54.918" ry="11.225"/><rect class="cls-6" x="892.403" y="711.323" width="64.256" height="30.278"/><path class="cls-6" d="M956.658,711.323,924.459,527.8,892.4,711.323h.18a.9.9,0,0,0-.18.512c0,2.672,14.384,4.837,32.127,4.837s32.128-2.165,32.128-4.837a.9.9,0,0,0-.18-.512Z"/><circle class="cls-27" cx="924.531" cy="528.306" r="5.322"/><rect class="cls-4" x="657.157" y="1050.315" width="80.171" height="40.587"/><polygon class="cls-5" points="675.854 1050.315 697.78 855.756 719.804 1050.315 675.854 1050.315"/><polygon class="cls-7" points="657.157 1050.315 671.806 971.229 686.52 1050.315 657.157 1050.315"/><polygon class="cls-7" points="707.966 1050.315 722.614 971.229 737.328 1050.315 707.966 1050.315"/><polygon class="cls-6" points="371.378 1053.417 368.186 1063.829 364.981 1053.417 361.789 1063.829 361.789 1081.238 374.584 1081.238 374.584 1063.829 371.378 1053.417"/><polygon class="cls-1" points="463.822 1252.57 463.822 1340.838 407.332 1347.213 407.332 1273.896 439.479 1195.593 463.822 1252.57"/><polygon class="cls-6" points="434.291 1053.417 431.099 1063.829 427.894 1053.417 424.702 1063.829 424.702 1081.238 437.497 1081.238 437.497 1063.829 434.291 1053.417"/><polygon class="cls-6" points="11.718 1053.417 8.526 1063.829 5.32 1053.417 2.129 1063.829 2.129 1081.238 14.923 1081.238 14.923 1063.829 11.718 1053.417"/><rect class="cls-4" x="359.482" y="1076.741" width="17.409" height="11.246"/><rect class="cls-4" x="422.395" y="1076.741" width="17.409" height="11.246"/><rect class="cls-4" x="-0.179" y="1076.741" width="17.409" height="11.246"/><polygon class="cls-6" points="35.144 1053.417 31.952 1063.829 28.746 1053.417 25.555 1063.829 25.555 1081.238 38.349 1081.238 38.349 1063.829 35.144 1053.417"/><rect class="cls-4" x="23.247" y="1076.741" width="17.409" height="11.246"/><polygon class="cls-22" points="657.157 1448.624 650.009 1323.143 623.513 1436.242 657.157 1448.624"/><rect class="cls-28" x="278.02" y="1295.143" width="19.367" height="73.959"/><polygon class="cls-19" points="297.387 1295.143 297.387 1369.102 312.496 1369.102 312.496 1287.288 297.387 1295.143"/><rect class="cls-28" x="37.501" y="1211.039" width="16.353" height="41.476"/><polygon class="cls-19" points="53.854 1211.039 53.854 1252.515 73.322 1226.504 73.322 1209.21 53.854 1211.039"/><rect class="cls-28" x="246.399" y="1202.516" width="24.826" height="197.967"/><polygon class="cls-29" points="181.85 1376.531 231.43 1405.581 290.306 1379.629 243.438 1352.903 181.85 1376.531"/><polygon class="cls-14" points="202.767 1406.356 264.164 1409.174 275.587 1379.629 239.177 1379.629 202.767 1406.356"/><polygon class="cls-30" points="306.76 1315.515 297.437 1346.874 277.944 1346.874 261.841 1414.676 637.296 1429.084 650.009 1323.143 306.76 1315.515"/><polygon class="cls-28" points="196.581 1328.664 196.581 1370.865 218.932 1382.102 218.932 1328.664 196.581 1328.664"/><polygon class="cls-19" points="218.932 1328.664 218.932 1382.102 224.209 1380.424 224.209 1328.664 218.932 1328.664"/><rect class="cls-31" x="638.952" y="1278.659" width="7.252" height="30.627"/><polygon class="cls-19" points="644.628 1299.177 644.628 1352.372 646.502 1352.372 650.009 1322.309 650.009 1299.177 644.628 1299.177"/><rect class="cls-32" x="633.084" y="1282.232" width="7.252" height="30.627"/><rect class="cls-28" x="627.216" y="1299.177" width="18.988" height="53.195"/><path class="cls-6" d="M673.926,1080.223s2.3-21.131,24.2-21.131,23.459,23.441,23.459,23.441h7.542v8.37H664.84v-9.543Z"/><polygon class="cls-13" points="34.419 1425.61 0 1423.761 0 1444.978 0 1456.861 205.527 1468.573 205.527 1434.8 34.419 1425.61"/><polygon class="cls-14" points="205.527 1468.573 0 1456.861 0 1467.758 0 1500.73 280.248 1522.479 272.957 1541.994 455.925 1558.878 488.144 1484.679 205.527 1468.573"/><polygon class="cls-15" points="0 1500.73 0 1516.805 0 1589.414 0 1629.182 232.04 1649.822 232.649 1649.876 272.957 1541.994 280.248 1522.479 0 1500.73"/><polygon class="cls-16" points="275.587 1491.679 236.078 1600.177 367.328 1610.958 553.243 1502.179 275.587 1491.679"/><polygon class="cls-18" points="1080 1194.673 1080 1193.41 762.124 1193.41 762.124 1196.479 1080 1194.673"/><polygon class="cls-22" points="1080 1436.684 767.96 1420.849 761.802 1420.849 761.802 1543.478 1080 1561.077 1080 1436.684"/><polygon class="cls-20" points="894.8 1278.659 761.802 1278.659 761.802 1345.322 948.068 1355.617 894.8 1278.659"/><polygon class="cls-20" points="888.64 1269.758 761.802 1269.758 761.802 1278.659 894.8 1278.659 888.64 1269.758"/><polygon class="cls-14" points="723.454 1261.556 719.592 1368.74 789.103 1368.74 866.052 1261.556 723.454 1261.556"/><polygon class="cls-20" points="761.802 1420.537 761.802 1420.849 767.96 1420.849 761.802 1420.537"/><polygon class="cls-14" points="1080 1261.556 882.962 1261.556 888.64 1269.758 1080 1269.758 1080 1261.556"/><polygon class="cls-14" points="1080 1278.659 894.8 1278.659 948.068 1355.617 1080 1362.91 1080 1278.659"/><polygon class="cls-14" points="1080 1269.758 888.64 1269.758 894.8 1278.659 1080 1278.659 1080 1269.758"/><polygon class="cls-16" points="761.802 1345.322 761.48 1345.304 752.827 1420.081 761.802 1420.537 761.802 1417.472 761.802 1345.322"/><polygon class="cls-16" points="767.96 1420.849 1080 1436.684 1080 1420.849 767.96 1420.849"/><polygon class="cls-16" points="1080 1417.472 1080 1366.27 955.442 1366.27 948.068 1355.617 761.802 1345.322 761.802 1417.472 1080 1417.472"/><polygon class="cls-16" points="1080 1420.849 1080 1417.472 761.802 1417.472 761.802 1420.537 767.96 1420.849 1080 1420.849"/><polygon class="cls-16" points="948.068 1355.617 955.442 1366.27 1080 1366.27 1080 1362.91 948.068 1355.617"/><rect class="cls-33" x="846.588" y="1237.189" width="46.177" height="65.138"/><polygon class="cls-10" points="851.803 1224.782 844.211 1237.189 896.406 1237.189 889.526 1222.172 851.803 1224.782"/><path class="cls-34" d="M852.04,1206.039v21.59h9.253v-21.59S857.972,1207.7,852.04,1206.039Z"/><path class="cls-34" d="M877.052,1209.835v16.845h8.915v-16.845A14.2,14.2,0,0,1,877.052,1209.835Z"/><polygon class="cls-16" points="687.932 1539.392 724.936 1473.109 617.642 1419.581 529.115 1530.608 687.932 1539.392"/><polygon class="cls-16" points="350.474 1920 384.54 1711.93 218.638 1920 350.474 1920"/><polygon class="cls-35" points="512.644 1458.08 441.875 1525.783 528.258 1530.561 617.642 1419.581 512.644 1458.08"/><polygon class="cls-35" points="29.81 1920 83.481 1920 214.605 1920 385.141 1708.259 410.028 1556.25 237.156 1721.635 29.81 1920"/><polygon class="cls-35" points="384.54 1711.93 385.141 1708.259 214.605 1920 218.638 1920 384.54 1711.93"/><polygon class="cls-35" points="529.115 1530.608 617.642 1419.581 528.258 1530.561 529.115 1530.608"/><rect class="cls-36" x="919.316" y="1785.998" width="132.034" height="134.002"/><polygon class="cls-15" points="761.802 1543.478 687.932 1539.392 529.115 1530.608 528.258 1530.561 441.875 1525.783 415.258 1524.311 410.028 1556.25 385.141 1708.259 384.54 1711.93 350.474 1920 475.45 1920 949.119 1920 949.119 1901.243 919.316 1785.076 1069.567 1588.916 1080 1600.927 1080 1575.512 1080 1561.077 761.802 1543.478"/><polygon class="cls-16" points="1080 1920 1080 1799.958 949.119 1901.243 949.119 1920 1080 1920"/><polygon class="cls-35" points="1069.567 1588.916 919.316 1785.076 949.119 1901.243 1080 1799.958 1080 1600.927 1069.567 1588.916"/><polygon class="cls-20" points="0 1278.963 0 1423.761 34.419 1425.61 34.419 1278.816 34.304 1278.963 0 1278.963"/><polygon class="cls-21" points="0 1273.156 34.419 1273.156 34.419 1278.816 42.681 1268.215 0 1268.215 0 1273.156"/><polygon class="cls-21" points="0 1273.156 0 1278.963 34.304 1278.963 34.419 1278.816 34.419 1273.156 0 1273.156"/><polygon class="cls-10" points="0 1698.239 232.04 1721.13 232.04 1649.822 0 1629.182 0 1698.239"/><polygon class="cls-36" points="237.156 1721.635 232.04 1721.13 232.04 1726.53 237.156 1721.635"/><polygon class="cls-36" points="0 1698.239 0 1746.87 0 1920 29.81 1920 210.778 1746.87 232.04 1726.53 232.04 1721.13 0 1698.239"/></svg>