<svg xmlns="http://www.w3.org/2000/svg" viewBox="0 0 100 100"><defs><style>.cls-1{fill:#c4a660;}.cls-2{fill:#ddc272;}</style></defs><title>share_iOS</title><g id="Layer_2" data-name="Layer 2"><g id="Layer_1-2" data-name="Layer 1"><path class="cls-1" d="M50,98.5A48.5,48.5,0,1,1,98.5,50,48.555,48.555,0,0,1,50,98.5Zm-20-52A4.505,4.505,0,0,0,25.5,51V71A4.505,4.505,0,0,0,30,75.5H70A4.505,4.505,0,0,0,74.5,71V51a4.5,4.5,0,0,0-9,0V66.5h-31V51A4.505,4.505,0,0,0,30,46.5Zm15.5,7a4.5,4.5,0,0,0,9,0V34.046l5.97,4.926A4.5,4.5,0,0,0,66.2,32.028l-13.334-11a4.5,4.5,0,0,0-5.728,0l-13.333,11a4.5,4.5,0,0,0,5.727,6.944l5.97-4.926Z"/><path class="cls-2" d="M50,3A47,47,0,1,1,3,50,47.053,47.053,0,0,1,50,3M36.669,41.5a6.009,6.009,0,0,0,3.816-1.372L44,37.229V53.5a6,6,0,0,0,12,0V37.229l3.516,2.9a6,6,0,0,0,7.636-9.257l-13.334-11a6,6,0,0,0-7.636,0l-13.334,11A6,6,0,0,0,36.669,41.5M64,65H36V51a6,6,0,0,0-12,0V71a6.007,6.007,0,0,0,6,6H70a6.007,6.007,0,0,0,6-6V51a6,6,0,0,0-12,0V65M50,0a50,50,0,1,0,50,50A50.057,50.057,0,0,0,50,0ZM36.669,38.5a3,3,0,0,1-1.912-5.314l13.334-11a3,3,0,0,1,3.818,0l13.334,11a3,3,0,0,1-3.819,4.628L53,30.864V53.5a3,3,0,0,1-6,0V30.864l-8.424,6.95a2.988,2.988,0,0,1-1.907.686ZM33,68H67V51a3,3,0,0,1,6,0V71a3,3,0,0,1-3,3H30a3,3,0,0,1-3-3V51a3,3,0,0,1,6,0V68Z"/></g></g></svg>
