<svg xmlns="http://www.w3.org/2000/svg" viewBox="0 0 100 100"><defs><style>.cls-1{fill:#c4a660;}.cls-2{fill:#ddc272;}</style></defs><title>share_android</title><g id="Layer_2" data-name="Layer 2"><g id="Layer_1-2" data-name="Layer 1"><path class="cls-1" d="M50,98.5A48.5,48.5,0,1,1,98.5,50,48.555,48.555,0,0,1,50,98.5Zm3.5-26.894A10.108,10.108,0,0,0,63.572,81.5a10.906,10.906,0,0,0,5.341-1.438,8.716,8.716,0,0,0,3.542-3.726,10.315,10.315,0,0,0-.323-10.208,10.021,10.021,0,0,0-8.561-4.771,10.792,10.792,0,0,0-3.86.73,8.918,8.918,0,0,0-2.846,1.829L56.777,64,36.464,52.272c.024-.276.036-.556.036-.843a9.855,9.855,0,0,0-.139-1.654l21.9-12.644a10.043,10.043,0,0,0,5.311,1.512,10.447,10.447,0,0,0,4.767-1.157,9.65,9.65,0,0,0,4.713-5.434A10.106,10.106,0,0,0,63.571,18.5,11.186,11.186,0,0,0,57.907,20.1a8.455,8.455,0,0,0-3.745,4.642,11.3,11.3,0,0,0-.516,5.56L31.8,42.912a10,10,0,0,0-5.368-1.556,10.454,10.454,0,0,0-4.751,1.151,9.651,9.651,0,0,0-4.729,5.44A10.108,10.108,0,0,0,26.429,61.5a10.678,10.678,0,0,0,3.358-.551,9.3,9.3,0,0,0,2.7-1.474Z"/><path class="cls-2" d="M50,3A47,47,0,1,1,3,50,47.053,47.053,0,0,1,50,3m2.036,26.494L31.8,41.18a11.508,11.508,0,0,0-5.369-1.323A12.106,12.106,0,0,0,21,41.168a11.159,11.159,0,0,0-5.471,6.292A11.606,11.606,0,0,0,26.428,63a12.209,12.209,0,0,0,3.829-.626,10.11,10.11,0,0,0,2.311-1.122L52.049,72.5A11.621,11.621,0,0,0,63.571,83a12.4,12.4,0,0,0,6.07-1.626A10.23,10.23,0,0,0,73.8,77a11.787,11.787,0,0,0-.393-11.664,11.513,11.513,0,0,0-9.836-5.479,12.29,12.29,0,0,0-4.4.829,9.944,9.944,0,0,0-2.568,1.48L38,51.426c0-.283-.01-.567-.031-.847l20.3-11.721a11.552,11.552,0,0,0,5.305,1.285,12.1,12.1,0,0,0,5.445-1.319,11.167,11.167,0,0,0,5.453-6.285A11.606,11.606,0,0,0,63.572,17a12.681,12.681,0,0,0-6.418,1.8,9.964,9.964,0,0,0-4.414,5.461,13.135,13.135,0,0,0-.7,5.236M50,0a50,50,0,1,0,50,50A50.057,50.057,0,0,0,50,0ZM31.76,44.665,55.3,31.071l-.173-.985a9.779,9.779,0,0,1,.452-4.87,7,7,0,0,1,3.077-3.824A9.756,9.756,0,0,1,63.572,20a8.606,8.606,0,0,1,8.06,11.565,8.108,8.108,0,0,1-3.973,4.583,9.014,9.014,0,0,1-4.087.995,8.539,8.539,0,0,1-4.551-1.306l-.729-.458L34.707,49l.168.981A8.377,8.377,0,0,1,35,51.429c0,.256-.011.508-.033.759l-.079.906,22.1,12.754.9-.83a7.448,7.448,0,0,1,2.363-1.53,9.3,9.3,0,0,1,3.325-.631A8.652,8.652,0,0,1,71.11,75.671a7.151,7.151,0,0,1-2.925,3.079A9.462,9.462,0,0,1,63.571,80,8.6,8.6,0,0,1,55,71.546l-.011-.812L32.375,57.676l-.766.584a7.881,7.881,0,0,1-2.293,1.265A9.193,9.193,0,0,1,26.428,60a8.606,8.606,0,0,1-8.06-11.566,8.115,8.115,0,0,1,3.987-4.588,9.017,9.017,0,0,1,4.073-.989,8.511,8.511,0,0,1,4.6,1.342l.733.466Z"/></g></g></svg>