<svg xmlns="http://www.w3.org/2000/svg" viewBox="0 0 50.02 50.02"><defs><style>.cls-1{fill:#006dad;}.cls-2{fill:#014d87;}.cls-3{fill:#0fb3d3;}.cls-4{fill:#fff;}</style></defs><title>alphaomega</title><g id="Layer_2" data-name="Layer 2"><g id="Layer_1-2" data-name="Layer 1"><path class="cls-1" d="M2,45.94a9.36,9.36,0,0,1-2-5.59Q0,25,0,9.67A10,10,0,0,1,8.69.09,12.24,12.24,0,0,1,10,0H40a9.77,9.77,0,0,1,6,2l0,.07L46,2l0,0c-.12.18,0,.29.11.42a10.65,10.65,0,0,1,1.39,5.3q0,14.19,0,28.39a28.58,28.58,0,0,1-.09,3.58,8.81,8.81,0,0,1-2.11,4.93A8.6,8.6,0,0,1,38.7,47.5c-10.28,0-20.56,0-30.83,0A10.73,10.73,0,0,1,2.41,46.1C2.29,46,2.19,45.92,2,46l0,0,0-.07ZM2.42,8a2.28,2.28,0,0,0,.07.65c.15.82.47,1,1.19.52A8.57,8.57,0,0,0,5.18,8C6.55,6.63,7.93,5.26,9.29,3.88c.38-.38.74-.78,1.1-1.18s.27-.65-.24-.83a1.82,1.82,0,0,0-.92-.08A9.62,9.62,0,0,0,4.9,3.54,5.74,5.74,0,0,0,2.42,8Z"/><path class="cls-2" d="M2,46c.15-.1.25,0,.37.08a10.73,10.73,0,0,0,5.46,1.42c10.27,0,20.55,0,30.83,0a8.6,8.6,0,0,0,6.62-2.85,8.81,8.81,0,0,0,2.11-4.93,28.58,28.58,0,0,0,.09-3.58q0-14.2,0-28.39a10.65,10.65,0,0,0-1.39-5.3c-.08-.13-.23-.24-.11-.42a9.89,9.89,0,0,1,3.9,6.51A10.21,10.21,0,0,1,50,10.1v30A9.91,9.91,0,0,1,40.1,50c-10.14,0-20.27,0-30.41,0A9.41,9.41,0,0,1,2,46Z"/><path class="cls-2" d="M46,2l-.07,0L46,2S46,2,46,2Z"/><path class="cls-2" d="M2,45.94l.07,0L2,46S2,46,2,45.94Z"/><path class="cls-3" d="M2.42,8A5.74,5.74,0,0,1,4.9,3.54,9.62,9.62,0,0,1,9.23,1.79a1.82,1.82,0,0,1,.92.08c.51.18.59.43.24.83s-.72.8-1.1,1.18C7.93,5.26,6.55,6.63,5.18,8a8.57,8.57,0,0,1-1.5,1.18c-.72.45-1,.3-1.19-.52A2.28,2.28,0,0,1,2.42,8Z"/><path class="cls-4" d="M28,17.06H20.19l-1.37,3.2A5,5,0,0,0,18.31,22a1,1,0,0,0,.44.81,3.91,3.91,0,0,0,1.91.45v.55H14.31v-.55a3.41,3.41,0,0,0,1.63-.58,8.85,8.85,0,0,0,1.68-2.9l7.1-16.67h.52l7,16.83a7.44,7.44,0,0,0,1.54,2.61,3.08,3.08,0,0,0,1.92.68v.55h-8v-.55a3,3,0,0,0,1.63-.4,1,1,0,0,0,.43-.83,6.1,6.1,0,0,0-.6-2.07ZM27.58,16,24.15,7.8,20.64,16Z"/><path class="cls-4" d="M14.57,40.88h.55a1.85,1.85,0,0,0,.62,1.48,3,3,0,0,0,1.8.41H21.6l0-1a7.94,7.94,0,0,1-4.32-2.64A7.81,7.81,0,0,1,15.3,33.7,8.28,8.28,0,0,1,18,27.47a9.92,9.92,0,0,1,7.1-2.57,10,10,0,0,1,6.94,2.43,8,8,0,0,1,2.7,6.22,8.34,8.34,0,0,1-1.67,5.24,8.62,8.62,0,0,1-4.52,3l-.15,1h4.14a2.44,2.44,0,0,0,1.87-.53,2.13,2.13,0,0,0,.49-1.36h.55v4.65H27.12L27.51,41c2.7-.79,4-3.17,4-7.11A8.38,8.38,0,0,0,29.57,28a5.82,5.82,0,0,0-4.41-2,5.51,5.51,0,0,0-4.46,2.17,8.58,8.58,0,0,0-1.76,5.57,12.15,12.15,0,0,0,.79,4.48,4.83,4.83,0,0,0,3,2.84L23,45.53H14.69Z"/></g></g></svg>