<svg xmlns="http://www.w3.org/2000/svg" viewBox="0 0 37 37"><defs><style>.cls-1{fill:#c4a660;}.cls-2{fill:#ddc272;}</style></defs><title>share_button_v01</title><g id="Layer_2" data-name="Layer 2"><g id="Layer_1-2" data-name="Layer 1"><path class="cls-1" d="M18.5,1A17.5,17.5,0,1,0,36,18.5,17.52,17.52,0,0,0,18.5,1ZM13,18.49A2.92,2.92,0,0,1,13,19a2.44,2.44,0,0,1,0,.27l0,.31,7.73,4.47L21,23.8a2.94,2.94,0,0,1,2-.8,3,3,0,1,1-3,3v-.28l-7.92-4.57-.26.2A3,3,0,1,1,10,16a3,3,0,0,1,1.61.47l.26.16,8.24-4.76-.06-.34A3.07,3.07,0,0,1,20,11a3,3,0,1,1,3,3,3,3,0,0,1-1.59-.46l-.26-.16L12.9,18.15Z"/><path class="cls-2" d="M18.5,37A18.5,18.5,0,1,1,37,18.5,18.52,18.52,0,0,1,18.5,37Zm0-36A17.5,17.5,0,1,0,36,18.5,17.52,17.52,0,0,0,18.5,1ZM23,30a4,4,0,0,1-4-3.66l-6.87-4A3.93,3.93,0,0,1,10,23a4,4,0,1,1,1.88-7.53L19,11.35c0-.11,0-.23,0-.35a4,4,0,1,1,2.14,3.54L14,18.67c0,.11,0,.22,0,.33v0l6.57,3.79A4,4,0,1,1,23,30ZM12.08,21.19,20,25.76V26a3,3,0,1,0,3-3,3,3,0,0,0-2,.8l-.27.25L13,19.58l0-.31A2.44,2.44,0,0,0,13,19a2.92,2.92,0,0,0,0-.51l-.06-.34,8.25-4.77.26.16A3,3,0,0,0,23,14a3,3,0,1,0-3-3,3.07,3.07,0,0,0,.05.53l.06.35-8.24,4.75-.26-.16A3,3,0,0,0,10,16a3,3,0,1,0,1.82,5.39Z"/></g></g></svg>